<?xml version="1.0" encoding="utf-8"?>
<!-- Generator: Adobe Illustrator 22.1.0, SVG Export Plug-In . SVG Version: 6.00 Build 0)  -->
<svg version="1.1" id="Capa_1" xmlns="http://www.w3.org/2000/svg" xmlns:xlink="http://www.w3.org/1999/xlink" x="0px" y="0px"
	 viewBox="0 0 541 363" style="enable-background:new 0 0 541 363;" xml:space="preserve">
<style type="text/css">
	.st0{fill:#FFFFFF;}
	.st1{fill:#055DA2;}
</style>
<path class="st0" d="M530.9,160.2c-2.5-3.2-6-5.5-10-6.5c-0.6-0.1-1.2-0.3-1.8-0.4l3.1-10.2c1.6-5.2-1.3-10.7-6.5-12.3
	c-4.8-1.5-9.9,0.9-11.9,5.5l-8.5,19c-1.2,0.5-2.3,1.2-3.5,1.9c-1.9-2-4.4-3.1-7.2-3.1h-13.1c-0.5,0-1.1,0-1.6,0.1
	c-0.4-4.9-4.3-8.8-9.1-9.1l-43.8-3c-0.5-5.4-1.1-10.1-1.6-13.8c4,1.6,8.5,0.5,11.2-2.8l1.9-2.3c3.5-4.2,3-10.4-1.2-13.9
	c-0.6-0.5-1.3-1-2-1.3c-3.2-1.6-3.9-2.5-5-4c-1.1-1.5-2.3-3-3.7-4.2c-0.8-1.2-1.7-2.3-2.8-3.2c-0.3-0.2-0.5-0.4-0.8-0.6l-4.7-3.5
	c8.4-14.6,21.3-38.1,25.7-52c0.9-0.9,1.7-1.9,2.2-3.1c0,0,1.1-2.4,2.4-4.7c0.6-1.1,1.1-1.8,1.4-2.3c1.7-0.9,3.1-2.3,4-4
	c1.8-3.8,1.8-8.2-0.1-12c-0.2-1-0.5-2-0.9-3l-0.1-0.3l0-0.1l-0.1-0.1c-0.2-0.4-0.4-0.8-0.7-1.2c-0.3-0.4-0.5-0.7-0.8-1.1l-0.1-0.1
	c-0.1-0.1-0.2-0.2-0.3-0.3c-0.4-0.4-0.8-0.8-1.2-1.1c-0.1-0.1-0.2-0.2-0.4-0.3c-0.3-0.2-0.6-0.4-0.9-0.7l-0.2-0.1l-0.1-0.1l-0.4-0.3
	L437,5.5c-0.4-0.2-0.8-0.3-1.2-0.5l-0.5-0.1c-0.5-0.1-1-0.2-1.4-0.3l-0.5-0.1h-0.1c-0.9-0.1-1.9-0.1-2.8,0h-0.1l-0.4,0.1
	c-1,0.2-2,0.5-3,0.9c-4.2,0.5-7.9,2.9-10,6.6c-0.9,1.7-1.3,3.6-1.1,5.5c-0.2,0.5-0.5,1.3-1.1,2.4c-1.2,2.4-2.6,4.6-2.6,4.6
	c-0.7,1.1-1.1,2.3-1.3,3.5c-6.9,8.6-16.6,25.4-28.9,50.2l-6-2.1c-0.3-0.1-0.6-0.2-0.9-0.3c-2.3-0.6-4.7-0.7-7-0.2
	c-1.4-0.1-2.6-0.3-5.6-2.1c-4.7-2.8-10.7-1.2-13.5,3.5c-0.4,0.7-0.7,1.5-1,2.3l-0.8,2.8c-1.2,4.1,0.3,8.5,3.8,10.9
	c-10.5-1.3-21.2-1.9-31.8-1.9H319c-9.7,0-19.4,0.5-29.1,1.6c3.1-2.6,4.4-6.8,3.1-10.6l-0.9-2.8c-1.7-5.2-7.2-8-12.4-6.4
	c-0.8,0.3-1.5,0.6-2.2,1c-2.9,1.8-4.1,2.1-5.5,2.2c-2.3-0.5-4.7-0.3-7,0.4c-0.3,0.1-0.6,0.2-0.9,0.3l-6,2.3
	c-13.1-24.4-23.3-40.9-30.5-49.3c-0.3-1.2-0.7-2.4-1.4-3.4c0,0-1.4-2.2-2.7-4.6c-0.6-1.1-1-1.9-1.2-2.4c0.1-1.9-0.3-3.8-1.3-5.5
	c-2.2-3.6-6-5.9-10.2-6.3c-1-0.4-2-0.7-3.1-0.8h-0.5h-0.1c-0.4,0-0.9,0-1.4,0S205,7,204.6,7.1h-0.3l-0.4,0.1
	c-0.5,0.1-0.9,0.2-1.4,0.4h-0.1L202,7.7c-0.4,0.1-0.7,0.3-1,0.4l-0.3,0.2l-0.2,0.1c-0.2,0.1-0.5,0.3-0.7,0.4l-0.1,0.1L199.4,9
	c-0.3,0.2-0.7,0.5-1,0.8l-0.3,0.2l-0.1,0.1c-0.4,0.3-0.7,0.6-1,1l-0.3,0.3l-0.1,0.1c-0.3,0.3-0.5,0.7-0.7,1l-0.1,0.2
	c-0.2,0.3-0.4,0.7-0.6,1.1v0.1c-0.1,0.1-0.1,0.3-0.2,0.4c-0.4,1-0.7,2-0.8,3.1c-1.8,3.8-1.7,8.3,0.3,12c0.9,1.7,2.4,3,4.1,3.9
	c0.3,0.4,0.8,1.2,1.5,2.2c1.4,2.3,2.6,4.6,2.6,4.7c0.6,1.1,1.3,2.2,2.3,3c4.9,13.8,18.4,36.8,27.3,51.2l-4.5,3.6l-0.1,0.1
	c-0.2,0.2-0.5,0.4-0.7,0.6c-1.1,1-2,2.1-2.7,3.4c-1.3,1.3-2.5,2.7-3.5,4.3c-1.1,1.6-1.7,2.5-4.9,4.2c-4.8,2.5-6.7,8.5-4.1,13.3
	c0.4,0.7,0.8,1.4,1.4,2l2,2.2c1.9,2.2,4.8,3.4,7.7,3.3c-0.4,3.1-0.8,6.8-1.3,11l-42.1,3c-4.8,0.3-8.7,4.2-9.1,9h-10.4
	c-2.8,0-5.4,1.2-7.3,3.3c-2.1-1.7-4.6-3-7.2-3.6c-0.6-0.1-1.2-0.3-1.8-0.4l3.1-10.2c1.7-5.2-1.2-10.7-6.3-12.4
	c-4.8-1.6-10.1,0.8-12.1,5.5l-8.4,19.1c-1.8,0.8-3.4,1.8-5,3l-0.1-0.2c-1.9-2.5-4.8-4-7.9-4H92.6c-1.4,0-2.7,0.3-4,0.9
	c-1.3-0.6-2.6-0.9-4-0.9H70.7c-3.7,0-7.1,2.1-8.8,5.4c-4-4.6-10.3-6.9-18.6-6.9c-4-0.1-7.9,0.5-11.7,1.6c-3.7,1.1-7.2,3.1-10.1,5.6
	c-2.9,2.6-5.2,5.6-7,9.1c-1.8,3.5-3.3,7.2-4.5,11v0.1c-1.5,4.7-2.3,9.6-2.2,14.5c0.1,3.9,1,7.7,2.5,11.2c1.3,3,3,5.7,5.2,8.1
	c1.2,1.4,2.3,2.8,3.3,4.1c0.4,0.5,0.7,1.1,0.9,1.8c0,0.5-0.1,0.9-0.3,1.4c-3.3,0.7-6.1,3.1-7.2,6.4L7.1,242
	c-1.8,5.1,0.9,10.7,6,12.6c1.1,0.4,2.2,0.6,3.3,0.6h2c3.9,0.1,7.7-0.4,11.5-1.4c3.2-0.9,6.1-2.4,8.8-4.3c0,0.1,0.1,0.1,0.2,0.2
	c1.8,2.5,4.8,4,7.9,4h13.9c1.4,0,2.7-0.3,4-0.9c1.3,0.6,2.6,0.8,4,0.9h13.9c3.5,0,6.7-1.8,8.5-4.8c2.4,2.5,5.5,4.3,8.9,5.2l1,0.3
	l-2.5,8.2c-1.6,5.2,1.3,10.7,6.5,12.3c4.6,1.4,9.6-0.7,11.7-5.1l8.5-17.2c1.2-0.5,2.4-1.1,3.5-1.8c1.9,1.9,4.4,2.9,7,2.9h13.2
	c2.2,0,4.3-0.7,6-2.1c1.7,1.3,3.8,2.1,6,2.1h5.9c0.8,4.4,4.4,7.7,8.8,8.1l57.3,5.2c7.7,13.5,19.7,27.3,35.7,40.9L256.1,331
	c-0.7,1.3-1.1,2.8-1.2,4.3l-0.5,13.1c-0.2,5.4,4.1,10,9.5,10.2c2.2,0.1,4.4-0.6,6.2-1.9l10.5-7.8c1.2-0.9,2.1-2,2.8-3.3l10.1-18.9
	c7.9,5.3,13.8,8.8,15.9,10l1.4,0.8c3,1.7,6.8,1.7,9.8,0l1.4-0.8c2.9-1.7,11.7-6.9,22.8-14.8l12.4,21.6c0.7,1.3,1.7,2.3,2.9,3.2
	l10.7,7.5c4.5,3.1,10.6,2,13.7-2.5c1.3-1.8,1.9-4,1.7-6.3l-0.9-13.1c-0.1-1.5-0.5-3-1.3-4.3l-14.9-25.9
	c12.9-11.8,22.8-23.6,29.4-35.3l58.9-5.2c5.2-0.4,9.2-4.9,9-10.2c0.5-0.4,1-0.9,1.5-1.4c2.2,1.8,4.7,3.1,7.4,3.8l1,0.3l-2.5,8.2
	c-1.6,5.2,1.4,10.7,6.6,12.3c4.6,1.4,9.5-0.7,11.7-5l8.5-17.2c1.9-0.8,3.7-1.9,5.4-3.1c3.1-2.3,5.6-5.3,7.6-8.6
	c2.1-3.6,3.7-7.5,4.8-11.5l13.7-45.3c1.3-3.9,2-7.9,2.2-11.9C534.7,167.9,533.4,163.6,530.9,160.2L530.9,160.2z"/>
<g>
	<path class="st1" d="M42.8,204.7c-0.9-2.1-2.1-4-3.5-5.7c-1.4-1.6-2.6-3.2-3.8-4.7c-1.1-1.5-2-3.1-2.6-4.8c-0.6-2-0.5-4.1,0.3-6
		c0.4-1.8,1.2-3.6,2.3-5.1c0.9-1,2.1-1.6,3.5-1.5c2.7,0,3.4,2.2,2.1,6.6l-1.5,4.5h13.5l1.9-6.3c2.1-7.1,2.1-12.1,0.1-15
		c-2-2.9-6-4.4-11.8-4.3c-3-0.1-5.9,0.3-8.8,1.2c-2.4,0.7-4.6,2-6.5,3.6c-2,1.8-3.6,3.9-4.9,6.3c-1.5,2.9-2.8,6-3.8,9.2
		c-1.2,3.6-1.8,7.4-1.8,11.2c0.1,2.7,0.6,5.3,1.7,7.7c0.9,2.1,2.1,4,3.6,5.6c1.4,1.6,2.7,3.2,3.8,4.8c1.2,1.6,2,3.3,2.5,5.2
		c0.5,2.3,0.3,4.8-0.5,7c-0.5,2-1.4,3.8-2.8,5.4c-1.2,1.1-2.9,1.5-4.5,1.1l-5.1,14.6h2c3,0.1,5.9-0.3,8.8-1.1
		c2.4-0.7,4.7-1.9,6.6-3.6c2.1-1.9,3.8-4.2,5-6.7c1.6-3.4,3-6.9,4-10.5c1.2-3.6,1.7-7.3,1.7-11C44.4,209.8,43.8,207.2,42.8,204.7z"
		/>
	<path class="st1" d="M92.6,163.9l-9.3,30.8h-8l9.3-30.8H70.7l-24,79.8h13.9l10.3-34.4h8l-10.3,34.4h13.9l24-79.8H92.6z"/>
	<path class="st1" d="M178.3,243.7l24-79.8h-13.1l-16.9,56.2h-0.2l5.1-56.2h-17.7l-24,79.8h13.2l16.8-55.8h0.1l-4.8,55.8H178.3z"/>
	<path class="st1" d="M224.3,243.7l12.5-79.8h-18.4l-35.5,79.8h14.5l5.6-14.1h9.6l-2.6,14.1H224.3z M208.7,215.1l14.9-37.8h0.1
		l-8.3,37.8H208.7z"/>
	<path class="st1" d="M280.3,182.5c0.4-1.6,1.2-3.1,2.2-4.4c0.8-0.8,2-1.2,3.1-1.2c0.9,0,1.7,0.3,2.3,0.9c0.6,0.8,0.7,1.8,0.3,2.7
		l-3.5,12h13.9l3.4-11.3c1.9-6.6,2-11.4,0.2-14.4s-5.9-4.4-12.2-4.4c-6.3,0-11.3,1.5-14.9,4.5s-6.3,7.8-8.2,14.3l-13.6,45.4
		c-2,6.6-2.1,11.4-0.4,14.4c1.7,2.9,5.8,4.4,12.1,4.4c0.5,0,0.9,0,1.3,0s0.9-0.1,1.4-0.1l4.1-15.1c-0.8,0.4-1.6,0.7-2.5,0.7
		c-1.3,0-2.1-0.4-2.4-1.2s-0.2-2.3,0.4-4.4L280.3,182.5z"/>
	<path class="st1" d="M321.9,243.7l12.5-79.8H316l-35.6,79.8H295l5.6-14.1h9.6l-2.6,14.1H321.9z M306.4,215.1l14.9-37.8h0.1
		l-8.3,37.8H306.4z"/>
	<path class="st1" d="M369,200c1.2-0.8,2.3-1.8,3.2-2.9c0.9-1.1,1.6-2.3,2.2-3.6c0.6-1.2,1-2.5,1.3-3.8l2.5-9.5
		c0.7-2.6,1.1-5.3,1-7.9c0-1.8-0.7-3.6-1.9-5c-1.3-1.3-3-2.3-4.8-2.6c-2.5-0.6-5-0.8-7.6-0.8h-17.8l-20.8,79.8h13.9l17.1-65.3h3.5
		c1.6,0,2.6,0.5,2.8,1.6s-0.1,3.3-0.9,6.5c-0.9,3.5-1.8,5.7-2.7,6.7c-0.9,1-2.2,1.5-3.5,1.5l-3.1,14.5c2.3,0.2,3.2,1.6,2.7,4
		l-6.9,27.2c-0.4,1-0.4,2.2,0,3.2H363c-0.3-0.8-0.4-1.7-0.2-2.5c0.2-1.1,0.7-3.1,1.5-6.2l4.5-17.3c1.3-5.1,1.6-8.9,1-11.3
		c-0.7-2.4-2.7-4.1-5.2-4.5l0.1-0.2C366.3,201.4,367.7,200.9,369,200L369,200z"/>
	<path class="st1" d="M413.5,243.7l12.5-79.8h-18.4L372,243.7h14.5l5.6-14.1h9.6l-2.6,14.1H413.5z M397.9,215.1l14.9-37.8h0.1
		l-8.3,37.8H397.9z"/>
	<path class="st1" d="M471.6,163.9l-16.9,56.2h-0.2l5.1-56.2H442l-24,79.8h13.2l16.8-55.8h0.1l-4.8,55.8h17.4l24-79.8H471.6z"/>
	<path class="st1" d="M386.1,257.6c-7.6,14-19.9,27-32.3,37.6c-3,2.6-6,5-8.9,7.3c-9.3,7.3-19,13.9-29.2,20
		c-3.8-2.2-12.6-7.6-22.9-15.2c-2.9-2.2-6-4.5-9.1-7c-14.2-11.5-29.5-26.3-38.3-42.6l-2.8-5.7h-66.2l62.6,5.7
		c9.2,18.5,26.4,35.2,42,47.7l-16.2,30.4l-0.5,13.1l10.5-7.8l15.4-28.7c7.8,5.7,15.9,11,24.2,15.9l1.4,0.8l1.4-0.8
		c10.7-6.2,20.9-13.2,30.6-20.8l18,31.2l10.7,7.4l-0.9-13.1l-18.9-32.8c13.8-11.8,27.8-26.5,35.8-42.6l64.2-5.7H388L386.1,257.6z"/>
	<path class="st1" d="M234.2,119.9l-0.2,1.2c0,0.1-2.2,12.4-3.6,30.3l-50.5,3.6h56.3v-3.6c1.1-14.1,2.7-24.6,3.3-28
		c4.9-2.7,10-5,15.3-6.8c3.3-1.1,7-2.3,11.3-3.5c12.9-3.4,30.6-6.3,53.1-6.3h0.3c23.7,0,42,3.2,55.1,6.9c4.3,1.2,8,2.4,11.1,3.6
		c4.6,1.7,9.1,3.7,13.4,6.1c0.6,3.5,2.2,13.9,3.3,28l0.4,3.6h57.5l-52.1-3.6c-1.4-17.9-3.6-30.1-3.6-30.3l-0.2-1.2l-1-0.7
		c-0.5-0.3-5.3-3.5-14.9-7.1l4.8-9.2l0.5-0.6l3,0.3c0,0,6.7,4.7,8.8,6.1c-0.1,1.9,1,3.7,2.7,4.6c-0.5,1.4,0,3,1.2,3.8
		c1.7,1.2,4.5-0.7,4.5-0.7l5.3,2.8l1.9-2.3c-9.1-4.4-7.8-8.1-12.6-10.9l0.1-0.1c0.3-0.6-1.3-2.1-1.3-2.1l-1.5-1.1l-0.4-0.3l-1-0.7
		l-0.4-0.3l-0.5-0.4l-0.8-0.6l-0.7-0.5l-0.4-0.3l-0.2-0.1l-1-0.7l-2.8-2.1l-0.7-0.5l-0.1-0.1l-0.7-0.5h0l-0.3-0.2l0.5-1
		c4-6.8,27.7-47.5,29.7-60.8l1.6-0.1c0,0,1.2-2.7,2.8-5.5c1.7-3,3.8-6.1,5.2-6c0.7-1.3-0.4-3.8-1.4-4.6c0-0.1,0.1-0.2,0.1-0.2
		c0.2-0.4,0.2-0.9,0-1.4l0-0.1c0-0.1-0.1-0.1-0.1-0.2c0-0.1-0.1-0.1-0.2-0.2l-0.1-0.1c-0.1-0.1-0.1-0.1-0.2-0.2l-0.1-0.1l-0.2-0.2
		l-0.1-0.1l-0.2-0.1l-0.2-0.1h-0.1c-0.1,0-0.2-0.1-0.3-0.1h-0.1c-0.1,0-0.2,0-0.3,0h-0.2h-0.1c-0.5,0.1-0.9,0.3-1.2,0.8
		c0,0.1-0.1,0.1-0.1,0.2c-1.3-0.4-3.9,0.2-4.6,1.4c0.8,1.2-0.6,4.7-2.1,7.7c-1.4,2.9-3,5.4-3,5.4l0.8,1.4
		c-8.2,7.5-23.9,38.2-31,52.3l-0.7,1.5l-3.1,5.5h-0.1c-3.9-1.4-13.8-4.9-13.8-4.9s-2.4-0.6-2.5,0.2c-3.3-0.2-5.9,0.5-12.7-3.5
		l-0.8,2.8L362,88c0,0,0,3.4,1.9,4.2c1.4,0.6,3,0.1,3.9-1.1c1.7,0.9,3.8,0.8,5.3-0.4l6.6,2.7v0.2l1.9,2.4l-0.3,1l1.2,1.7l-2.6,5.1
		l-0.1,0.3l-2.5,4.6c-13.6-3.9-32.8-7.4-57.9-7.4H319c-24,0-42.6,3.2-56,6.9l-1.9-3.2l-0.1-0.3l-2.7-5l1.1-1.7l-0.3-1l1.9-2.4v-0.2
		l6.5-2.9c1.6,1.1,3.7,1.2,5.4,0.2c0.9,1.2,2.5,1.6,3.9,1c1.9-0.8,1.8-4.2,1.8-4.2l5.2-3l-0.9-2.8c-6.7,4.2-9.3,3.5-12.6,3.9
		c-0.1-0.8-2.5-0.1-2.5-0.1s-9.8,3.8-13.6,5.4H254l-3.3-5.4l-0.8-1.5c-7.4-13.9-24.1-44-32.6-51.3l0.7-1.4c0,0-1.6-2.5-3.2-5.3
		c-1.6-3-3.1-6.4-2.4-7.7c-0.7-1.3-3.4-1.7-4.6-1.3c0-0.1-0.1-0.1-0.1-0.2c-0.3-0.4-0.7-0.7-1.2-0.7h-0.3H206h-0.1l-0.3,0.1h-0.1
		l-0.2,0.1l-0.1,0.1l-0.1,0.1l-0.2,0.2l-0.1,0.1c-0.1,0.1-0.2,0.1-0.2,0.2l-0.1,0.1l-0.1,0.2c0,0.1-0.1,0.1-0.1,0.2l-0.1,0.1
		c-0.2,0.4-0.2,0.9,0,1.4c0,0.1,0.1,0.2,0.1,0.2c-1,0.9-1.9,3.4-1.2,4.7c1.4-0.1,3.6,3,5.4,5.9c1.7,2.8,3,5.4,3,5.4h1.6
		c2.5,13.1,27.4,53.2,31.6,59.8l0.6,1l-0.3,0.2h0l-0.7,0.5l-0.1,0.1l-0.7,0.6l-2.7,2.1l-0.9,0.7l-0.2,0.1l-0.4,0.3l-0.7,0.6
		l-0.8,0.6L237,103l-0.4,0.3l-1,0.8l-0.4,0.3l-1.5,1.2c0,0-1.6,1.5-1.3,2.1l0.1,0.1c-4.7,2.9-3.3,6.5-12.2,11.3l2,2.2l5.2-3
		c0,0,2.9,1.8,4.5,0.6c1.2-0.9,1.7-2.5,1.1-3.9c1.7-0.9,2.7-2.8,2.5-4.7c2-1.4,8.6-6.3,8.6-6.3l3-0.4l0.5,0.6l4.1,7.3
		c-10.7,3.9-16.1,7.5-16.6,7.8L234.2,119.9z"/>
	<path class="st1" d="M126.8,163.2c-2.3,0.5-4.5,1.6-6.4,3c-2,1.6-3.7,3.5-5,5.8c-1.7,2.9-3,6-3.8,9.2l-13.6,45.4
		c-1,3-1.6,6.1-1.7,9.2c-0.1,2,0.4,4.1,1.5,5.8c1.2,1.5,2.8,2.6,4.7,3c1,0.2,2,0.4,3,0.6L137,140.3L126.8,163.2z"/>
	<path class="st1" d="M148.9,171.9c0.1-2-0.4-4.1-1.6-5.8c-1.2-1.5-2.9-2.6-4.8-3c-1.2-0.3-2.4-0.5-3.6-0.6l-31.1,102.7l10.3-20.8
		c2.3-0.5,4.6-1.6,6.5-3c2-1.6,3.7-3.5,5-5.8c1.7-2.9,3-6,3.9-9.2l13.6-45.4C148.1,178.1,148.7,175.1,148.9,171.9L148.9,171.9z"/>
	<path class="st1" d="M502.5,163.2c-2.3,0.5-4.5,1.6-6.4,3c-2,1.6-3.7,3.5-5,5.8c-1.7,2.9-2.9,6-3.9,9.2l-13.6,45.4
		c-1,3-1.6,6.1-1.7,9.2c-0.1,2,0.4,4.1,1.5,5.8c1.2,1.5,2.8,2.6,4.7,3c1,0.3,2,0.4,3,0.6l31.6-104.8L502.5,163.2z"/>
	<path class="st1" d="M523,166.2c-1.2-1.5-2.9-2.6-4.8-3c-1.2-0.3-2.4-0.5-3.6-0.6l-31.1,102.7l10.4-20.8c2.3-0.5,4.6-1.6,6.5-3
		c2-1.6,3.7-3.5,5-5.8c1.7-2.9,3-6,3.9-9.2l13.6-45.4c1-3,1.6-6.1,1.7-9.2C524.7,169.9,524.2,167.9,523,166.2L523,166.2z"/>
</g>
</svg>
