<?xml version="1.0" encoding="utf-8"?>
<!-- Generator: Adobe Illustrator 22.1.0, SVG Export Plug-In . SVG Version: 6.00 Build 0)  -->
<svg version="1.1" id="Capa_1" xmlns="http://www.w3.org/2000/svg" xmlns:xlink="http://www.w3.org/1999/xlink" x="0px" y="0px"
	 viewBox="0 0 566.9 176.9" style="enable-background:new 0 0 566.9 176.9;" xml:space="preserve">
<style type="text/css">
	.st0{clip-path:url(#SVGID_2_);}
	.st1{fill:#FFFFFF;}
	.st2{fill:#FFFDFE;}
	.st3{fill:#FFFCFC;}
	.st4{fill:#FFFAFB;}
	.st5{fill:#FFF9F9;}
	.st6{fill:#FFF7F8;}
	.st7{fill:#FEF6F6;}
	.st8{fill:#FEF4F5;}
	.st9{fill:#FEF3F3;}
	.st10{fill:#FEF1F2;}
	.st11{fill:#FEF0F1;}
	.st12{fill:#FEEEEF;}
	.st13{fill:#FEEDEE;}
	.st14{fill:#FEEBED;}
	.st15{fill:#FEEAEB;}
	.st16{fill:#FDE8EA;}
	.st17{fill:#FDE7E8;}
	.st18{fill:#FDE5E7;}
	.st19{fill:#FDE4E6;}
	.st20{fill:#FDE2E4;}
	.st21{fill:#FDE1E3;}
	.st22{fill:#FDDFE2;}
	.st23{fill:#FDDEE0;}
	.st24{fill:#FDDCDF;}
	.st25{fill:#FCDBDE;}
	.st26{fill:#FCD9DD;}
	.st27{fill:#FCD8DB;}
	.st28{fill:#FCD6DA;}
	.st29{fill:#FCD5D9;}
	.st30{fill:#FCD4D8;}
	.st31{fill:#FCD2D6;}
	.st32{fill:#FCD1D5;}
	.st33{fill:#FCCFD4;}
	.st34{fill:#FBCED3;}
	.st35{fill:#FBCCD1;}
	.st36{fill:#FBCBD0;}
	.st37{fill:#FBCACF;}
	.st38{fill:#FBC8CE;}
	.st39{fill:#FBC7CD;}
	.st40{fill:#FBC5CB;}
	.st41{fill:#FBC4CA;}
	.st42{fill:#FBC3C9;}
	.st43{fill:#FBC1C8;}
	.st44{fill:#FBC0C7;}
	.st45{fill:#FABEC6;}
	.st46{fill:#FABDC4;}
	.st47{fill:#FABCC3;}
	.st48{fill:#FABAC2;}
	.st49{fill:#FAB9C1;}
	.st50{fill:#FAB7C0;}
	.st51{fill:#FAB6BF;}
	.st52{fill:#FAB5BE;}
	.st53{fill:#FAB3BD;}
	.st54{fill:#FAB2BB;}
	.st55{fill:#FAB1BA;}
	.st56{fill:#F9AFB9;}
	.st57{fill:#F9AEB8;}
	.st58{fill:#F9ADB7;}
	.st59{fill:#F9ABB6;}
	.st60{fill:#F9AAB5;}
	.st61{fill:#F9A9B4;}
	.st62{fill:#F9A7B3;}
	.st63{fill:#F9A6B2;}
	.st64{fill:#F9A5B1;}
	.st65{fill:#F9A3B0;}
	.st66{fill:#F9A2AF;}
	.st67{fill:#F9A1AE;}
	.st68{fill:#F9A0AD;}
	.st69{fill:#F89EAC;}
	.st70{fill:#F89DAB;}
	.st71{fill:#F89CAA;}
	.st72{fill:#F89AA9;}
	.st73{fill:#F899A8;}
	.st74{fill:#F898A7;}
	.st75{fill:#F897A6;}
	.st76{fill:#F895A5;}
	.st77{fill:#F894A4;}
	.st78{fill:#F893A3;}
	.st79{fill:#F892A2;}
	.st80{fill:#F890A1;}
	.st81{fill:#F88FA0;}
	.st82{fill:#F78E9F;}
	.st83{fill:#F78D9E;}
	.st84{fill:#F78B9D;}
	.st85{fill:#F78A9C;}
	.st86{fill:#F7899C;}
	.st87{fill:#F7889B;}
	.st88{fill:#F7869A;}
	.st89{fill:#F78599;}
	.st90{fill:#F78498;}
	.st91{fill:#F78397;}
	.st92{fill:#F78296;}
	.st93{fill:#F78095;}
	.st94{fill:#F77F95;}
	.st95{fill:#F77E94;}
	.st96{fill:#F77D93;}
	.st97{fill:#F67C92;}
	.st98{fill:#F67B91;}
	.st99{fill:#F67990;}
	.st100{fill:#F6788F;}
	.st101{fill:#F6778F;}
	.st102{fill:#F6768E;}
	.st103{fill:#F6758D;}
	.st104{fill:#F6748C;}
	.st105{fill:#F6738B;}
	.st106{fill:#F6718B;}
	.st107{fill:#F6708A;}
	.st108{fill:#F66F89;}
	.st109{fill:#F66E88;}
	.st110{fill:#F66D87;}
	.st111{fill:#F66C87;}
	.st112{fill:#F66B86;}
	.st113{fill:#F66A85;}
	.st114{fill:#F56884;}
	.st115{fill:#F56784;}
	.st116{fill:#F56683;}
	.st117{fill:#F56582;}
	.st118{fill:#F56481;}
	.st119{fill:#F56381;}
	.st120{fill:#F56280;}
	.st121{fill:#F5617F;}
	.st122{fill:#F5607F;}
	.st123{fill:#F55F7E;}
	.st124{fill:#F55E7D;}
	.st125{fill:#F55D7D;}
	.st126{fill:#F55C7C;}
	.st127{fill:#F55B7B;}
	.st128{fill:#F55A7A;}
	.st129{fill:#F5597A;}
	.st130{fill:#F55879;}
	.st131{fill:#F55778;}
	.st132{fill:#F55678;}
	.st133{fill:#F55577;}
	.st134{fill:#F55477;}
	.st135{fill:#F45376;}
	.st136{fill:#F45175;}
	.st137{fill:#F45075;}
	.st138{fill:#F44F74;}
	.st139{fill:#F44E73;}
	.st140{fill:#F44D73;}
	.st141{fill:#F44D72;}
	.st142{fill:#F44C72;}
	.st143{fill:#F44B71;}
	.st144{fill:#F44A70;}
	.st145{fill:#F44970;}
	.st146{fill:#F4486F;}
	.st147{fill:#F4476F;}
	.st148{fill:#F4466E;}
	.st149{fill:#F4456D;}
	.st150{fill:#F4446D;}
	.st151{fill:#F4446C;}
	.st152{fill:#F4436C;}
	.st153{fill:#F4426B;}
	.st154{fill:#F4416B;}
	.st155{fill:#F4406A;}
	.st156{fill:#F43F69;}
	.st157{fill:#F43E69;}
	.st158{fill:#F43D68;}
	.st159{fill:#F43C68;}
	.st160{fill:#F43B67;}
	.st161{fill:#F33A66;}
	.st162{fill:#F33966;}
	.st163{fill:#F33865;}
	.st164{fill:#F33765;}
	.st165{fill:#F33664;}
	.st166{fill:#F33564;}
	.st167{fill:#F33463;}
	.st168{fill:#F33362;}
	.st169{fill:#F33262;}
	.st170{fill:#F33161;}
	.st171{fill:#F33060;}
	.st172{fill:#F32F60;}
	.st173{fill:#F32E5F;}
	.st174{fill:#F32D5F;}
	.st175{fill:#F32D5E;}
	.st176{fill:#F32C5E;}
	.st177{fill:#F32B5D;}
	.st178{fill:#F32A5D;}
	.st179{fill:#F32A5C;}
	.st180{fill:#F3295C;}
	.st181{fill:#F3285C;}
	.st182{fill:#F3285B;}
	.st183{fill:#F3275B;}
	.st184{fill:#F3265A;}
	.st185{fill:#F3255A;}
	.st186{fill:#F32459;}
	.st187{fill:#F32359;}
	.st188{fill:#F32258;}
	.st189{fill:#F32158;}
	.st190{fill:#F32057;}
	.st191{fill:#F22057;}
	.st192{fill:#F21F57;}
	.st193{fill:#F21E56;}
	.st194{fill:#F21D56;}
	.st195{fill:#F21C55;}
	.st196{fill:#F21B55;}
	.st197{fill:#F21B54;}
	.st198{fill:#F21A54;}
	.st199{fill:#F21954;}
	.st200{fill:#F21953;}
	.st201{fill:#F21853;}
	.st202{fill:#F21852;}
	.st203{fill:#F21752;}
	.st204{fill:#F21751;}
	.st205{fill:#F21651;}
	.st206{fill:#F21650;}
	.st207{fill:#F21550;}
	.st208{fill:#F21450;}
	.st209{fill:#F2144F;}
	.st210{fill:#F2134F;}
	.st211{fill:#F2134E;}
	.st212{fill:#F2124E;}
	.st213{fill:#F2114E;}
	.st214{fill:#F2114D;}
	.st215{fill:#F2104D;}
	.st216{fill:#F20F4D;}
	.st217{fill:#F20F4C;}
	.st218{clip-path:url(#SVGID_4_);}
	.st219{fill:#F6024B;}
	.st220{fill:#E22D65;}
	.st221{fill:#52A9BA;}
</style>
<g>
	<defs>
		<rect id="SVGID_1_" x="16.7" y="67.7" width="267.1" height="58.6"/>
	</defs>
	<clipPath id="SVGID_2_">
		<use xlink:href="#SVGID_1_"  style="overflow:visible;"/>
	</clipPath>
	<g class="st0">
		<path class="st1" d="M16.7,67.7h1.1v58.6h-1.1V67.7z"/>
		<path class="st2" d="M17.8,67.7h1.1v58.6h-1.1V67.7z"/>
		<path class="st3" d="M18.9,67.7h1.1v58.6h-1.1V67.7z"/>
		<path class="st4" d="M19.9,67.7H21v58.6h-1.1V67.7z"/>
		<path class="st5" d="M21,67.7h1.1v58.6H21V67.7z"/>
		<path class="st6" d="M22.1,67.7h1.1v58.6h-1.1V67.7z"/>
		<path class="st7" d="M23.2,67.7h1.1v58.6h-1.1V67.7z"/>
		<path class="st8" d="M24.3,67.7h1.1v58.6h-1.1V67.7z"/>
		<path class="st9" d="M25.3,67.7h1.1v58.6h-1.1V67.7z"/>
		<path class="st10" d="M26.4,67.7h1.1v58.6h-1.1V67.7z"/>
		<path class="st11" d="M27.5,67.7h1.1v58.6h-1.1V67.7z"/>
		<path class="st12" d="M28.6,67.7h1.1v58.6h-1.1V67.7z"/>
		<path class="st13" d="M29.7,67.7h1.1v58.6h-1.1V67.7z"/>
		<path class="st14" d="M30.8,67.7h1.1v58.6h-1.1V67.7z"/>
		<path class="st15" d="M31.8,67.7h1.1v58.6h-1.1V67.7z"/>
		<path class="st16" d="M32.9,67.7H34v58.6h-1.1V67.7z"/>
		<path class="st17" d="M34,67.7h1.1v58.6H34V67.7z"/>
		<path class="st18" d="M35.1,67.7h1.1v58.6h-1.1V67.7z"/>
		<path class="st19" d="M36.2,67.7h1.1v58.6h-1.1V67.7z"/>
		<path class="st20" d="M37.2,67.7h1.1v58.6h-1.1V67.7z"/>
		<path class="st21" d="M38.3,67.7h1.1v58.6h-1.1V67.7z"/>
		<path class="st22" d="M39.4,67.7h1.1v58.6h-1.1V67.7z"/>
		<path class="st23" d="M40.5,67.7h1.1v58.6h-1.1V67.7z"/>
		<path class="st24" d="M41.6,67.7h1.1v58.6h-1.1V67.7z"/>
		<path class="st25" d="M42.6,67.7h1.1v58.6h-1.1V67.7z"/>
		<path class="st26" d="M43.7,67.7h1.1v58.6h-1.1V67.7z"/>
		<path class="st27" d="M44.8,67.7h1.1v58.6h-1.1V67.7z"/>
		<path class="st28" d="M45.9,67.7H47v58.6h-1.1V67.7z"/>
		<path class="st29" d="M47,67.7h1.1v58.6H47V67.7z"/>
		<path class="st30" d="M48,67.7h1.1v58.6H48V67.7z"/>
		<path class="st31" d="M49.1,67.7h1.1v58.6h-1.1V67.7z"/>
		<path class="st32" d="M50.2,67.7h1.1v58.6h-1.1V67.7z"/>
		<path class="st33" d="M51.3,67.7h1.1v58.6h-1.1V67.7z"/>
		<path class="st34" d="M52.4,67.7h1.1v58.6h-1.1V67.7z"/>
		<path class="st35" d="M53.5,67.7h1.1v58.6h-1.1V67.7z"/>
		<path class="st36" d="M54.5,67.7h1.1v58.6h-1.1V67.7z"/>
		<path class="st37" d="M55.6,67.7h1.1v58.6h-1.1V67.7z"/>
		<path class="st38" d="M56.7,67.7h1.1v58.6h-1.1V67.7z"/>
		<path class="st39" d="M57.8,67.7h1.1v58.6h-1.1V67.7z"/>
		<path class="st40" d="M58.9,67.7h1.1v58.6h-1.1V67.7z"/>
		<path class="st41" d="M59.9,67.7H61v58.6h-1.1V67.7z"/>
		<path class="st42" d="M61,67.7h1.1v58.6H61V67.7z"/>
		<path class="st43" d="M62.1,67.7h1.1v58.6h-1.1V67.7z"/>
		<path class="st44" d="M63.2,67.7h1.1v58.6h-1.1L63.2,67.7z"/>
		<path class="st45" d="M64.3,67.7h1.1v58.6h-1.1V67.7z"/>
		<path class="st46" d="M65.3,67.7h1.1v58.6h-1.1V67.7z"/>
		<path class="st47" d="M66.4,67.7h1.1v58.6h-1.1V67.7z"/>
		<path class="st48" d="M67.5,67.7h1.1v58.6h-1.1V67.7z"/>
		<path class="st49" d="M68.6,67.7h1.1v58.6h-1.1V67.7z"/>
		<path class="st50" d="M69.7,67.7h1.1v58.6h-1.1V67.7z"/>
		<path class="st51" d="M70.8,67.7h1.1v58.6h-1.1V67.7z"/>
		<path class="st52" d="M71.8,67.7h1.1v58.6h-1.1V67.7z"/>
		<path class="st53" d="M72.9,67.7H74v58.6h-1.1V67.7z"/>
		<path class="st54" d="M74,67.7h1.1v58.6H74V67.7z"/>
		<path class="st55" d="M75.1,67.7h1.1v58.6h-1.1V67.7z"/>
		<path class="st56" d="M76.2,67.7h1.1v58.6h-1.1V67.7z"/>
		<path class="st57" d="M77.3,67.7h1.1v58.6h-1.1V67.7z"/>
		<path class="st58" d="M78.3,67.7h1.1v58.6h-1.1V67.7z"/>
		<path class="st59" d="M79.4,67.7h1.1v58.6h-1.1V67.7z"/>
		<path class="st60" d="M80.5,67.7h1.1v58.6h-1.1V67.7z"/>
		<path class="st61" d="M81.6,67.7h1.1v58.6h-1.1V67.7z"/>
		<path class="st62" d="M82.7,67.7h1.1v58.6h-1.1V67.7z"/>
		<path class="st63" d="M83.7,67.7h1.1v58.6h-1.1V67.7z"/>
		<path class="st64" d="M84.8,67.7h1.1v58.6h-1.1V67.7z"/>
		<path class="st65" d="M85.9,67.7H87v58.6h-1.1V67.7z"/>
		<path class="st66" d="M87,67.7h1.1v58.6H87V67.7z"/>
		<path class="st67" d="M88.1,67.7h1.1v58.6h-1.1V67.7z"/>
		<path class="st68" d="M89.1,67.7h1.1v58.6h-1.1V67.7z"/>
		<path class="st69" d="M90.2,67.7h1.1v58.6h-1.1V67.7z"/>
		<path class="st70" d="M91.3,67.7h1.1v58.6h-1.1V67.7z"/>
		<path class="st71" d="M92.4,67.7h1.1v58.6h-1.1V67.7z"/>
		<path class="st72" d="M93.5,67.7h1.1v58.6h-1.1V67.7z"/>
		<path class="st73" d="M94.6,67.7h1.1v58.6h-1.1V67.7z"/>
		<path class="st74" d="M95.6,67.7h1.1v58.6h-1.1V67.7z"/>
		<path class="st75" d="M96.7,67.7h1.1v58.6h-1.1V67.7z"/>
		<path class="st76" d="M97.8,67.7h1.1v58.6h-1.1V67.7z"/>
		<path class="st77" d="M98.9,67.7h1.1v58.6h-1.1V67.7z"/>
		<path class="st78" d="M100,67.7h1.1v58.6H100V67.7z"/>
		<path class="st79" d="M101,67.7h1.1v58.6H101V67.7z"/>
		<path class="st80" d="M102.1,67.7h1.1v58.6h-1.1V67.7z"/>
		<path class="st81" d="M103.2,67.7h1.1v58.6h-1.1V67.7z"/>
		<path class="st82" d="M104.3,67.7h1.1v58.6h-1.1V67.7z"/>
		<path class="st83" d="M105.4,67.7h1.1v58.6h-1.1V67.7z"/>
		<path class="st84" d="M106.4,67.7h1.1v58.6h-1.1V67.7z"/>
		<path class="st85" d="M107.5,67.7h1.1v58.6h-1.1V67.7z"/>
		<path class="st86" d="M108.6,67.7h1.1v58.6h-1.1V67.7z"/>
		<path class="st87" d="M109.7,67.7h1.1v58.6h-1.1V67.7z"/>
		<path class="st88" d="M110.8,67.7h1.1v58.6h-1.1V67.7z"/>
		<path class="st89" d="M111.8,67.7h1.1v58.6h-1.1V67.7z"/>
		<path class="st90" d="M112.9,67.7h1.1v58.6h-1.1V67.7z"/>
		<path class="st91" d="M114,67.7h1.1v58.6H114V67.7z"/>
		<path class="st92" d="M115.1,67.7h1.1v58.6h-1.1V67.7z"/>
		<path class="st93" d="M116.2,67.7h1.1v58.6h-1.1V67.7z"/>
		<path class="st94" d="M117.3,67.7h1.1v58.6h-1.1V67.7z"/>
		<path class="st95" d="M118.3,67.7h1.1v58.6h-1.1V67.7z"/>
		<path class="st96" d="M119.4,67.7h1.1v58.6h-1.1V67.7z"/>
		<path class="st97" d="M120.5,67.7h1.1v58.6h-1.1V67.7z"/>
		<path class="st98" d="M121.6,67.7h1.1v58.6h-1.1V67.7z"/>
		<path class="st99" d="M122.7,67.7h1.1v58.6h-1.1V67.7z"/>
		<path class="st100" d="M123.8,67.7h1.1v58.6h-1.1V67.7z"/>
		<path class="st101" d="M124.8,67.7h1.1v58.6h-1.1V67.7z"/>
		<path class="st102" d="M125.9,67.7h1.1v58.6h-1.1V67.7z"/>
		<path class="st103" d="M127,67.7h1.1v58.6H127L127,67.7z"/>
		<path class="st104" d="M128.1,67.7h1.1v58.6h-1.1V67.7z"/>
		<path class="st105" d="M129.1,67.7h1.1v58.6h-1.1V67.7z"/>
		<path class="st106" d="M130.2,67.7h1.1v58.6h-1.1V67.7z"/>
		<path class="st107" d="M131.3,67.7h1.1v58.6h-1.1V67.7z"/>
		<path class="st108" d="M132.4,67.7h1.1v58.6h-1.1V67.7z"/>
		<path class="st109" d="M133.5,67.7h1.1v58.6h-1.1V67.7z"/>
		<path class="st110" d="M134.6,67.7h1.1v58.6h-1.1V67.7z"/>
		<path class="st111" d="M135.6,67.7h1.1v58.6h-1.1V67.7z"/>
		<path class="st112" d="M136.7,67.7h1.1v58.6h-1.1V67.7z"/>
		<path class="st113" d="M137.8,67.7h1.1v58.6h-1.1V67.7z"/>
		<path class="st114" d="M138.9,67.7h1.1v58.6h-1.1V67.7z"/>
		<path class="st115" d="M140,67.7h1.1v58.6H140V67.7z"/>
		<path class="st116" d="M141.1,67.7h1.1v58.6h-1.1V67.7z"/>
		<path class="st117" d="M142.1,67.7h1.1v58.6h-1.1V67.7z"/>
		<path class="st118" d="M143.2,67.7h1.1v58.6h-1.1V67.7z"/>
		<path class="st119" d="M144.3,67.7h1.1v58.6h-1.1V67.7z"/>
		<path class="st120" d="M145.4,67.7h1.1v58.6h-1.1V67.7z"/>
		<path class="st121" d="M146.5,67.7h1.1v58.6h-1.1V67.7z"/>
		<path class="st122" d="M147.5,67.7h1.1v58.6h-1.1V67.7z"/>
		<path class="st123" d="M148.6,67.7h1.1v58.6h-1.1V67.7z"/>
		<path class="st124" d="M149.7,67.7h1.1v58.6h-1.1V67.7z"/>
		<path class="st125" d="M150.8,67.7h1.1v58.6h-1.1V67.7z"/>
		<path class="st126" d="M151.9,67.7h1.1v58.6h-1.1V67.7z"/>
		<path class="st127" d="M152.9,67.7h1.1v58.6h-1.1V67.7z"/>
		<path class="st128" d="M154,67.7h1.1v58.6H154V67.7z"/>
		<path class="st129" d="M155.1,67.7h1.1v58.6h-1.1V67.7z"/>
		<path class="st130" d="M156.2,67.7h1.1v58.6h-1.1V67.7z"/>
		<path class="st131" d="M157.3,67.7h1.1v58.6h-1.1V67.7z"/>
		<path class="st132" d="M158.4,67.7h1.1v58.6h-1.1V67.7z"/>
		<path class="st133" d="M159.4,67.7h1.1v58.6h-1.1V67.7z"/>
		<path class="st134" d="M160.5,67.7h1.1v58.6h-1.1V67.7z"/>
		<path class="st135" d="M161.6,67.7h1.1v58.6h-1.1V67.7z"/>
		<path class="st136" d="M162.7,67.7h1.1v58.6h-1.1V67.7z"/>
		<path class="st137" d="M163.8,67.7h1.1v58.6h-1.1V67.7z"/>
		<path class="st138" d="M164.8,67.7h1.1v58.6h-1.1V67.7z"/>
		<path class="st139" d="M165.9,67.7h1.1v58.6h-1.1V67.7z"/>
		<path class="st140" d="M167,67.7h1.1v58.6H167V67.7z"/>
		<path class="st141" d="M168.1,67.7h1.1v58.6h-1.1V67.7z"/>
		<path class="st142" d="M169.2,67.7h1.1v58.6h-1.1V67.7z"/>
		<path class="st143" d="M170.3,67.7h1.1v58.6h-1.1V67.7z"/>
		<path class="st144" d="M171.3,67.7h1.1v58.6h-1.1V67.7z"/>
		<path class="st145" d="M172.4,67.7h1.1v58.6h-1.1V67.7z"/>
		<path class="st146" d="M173.5,67.7h1.1v58.6h-1.1V67.7z"/>
		<path class="st147" d="M174.6,67.7h1.1v58.6h-1.1V67.7z"/>
		<path class="st148" d="M175.6,67.7h1.1v58.6h-1.1V67.7z"/>
		<path class="st149" d="M176.7,67.7h1.1v58.6h-1.1V67.7z"/>
		<path class="st150" d="M177.8,67.7h1.1v58.6h-1.1V67.7z"/>
		<path class="st151" d="M178.9,67.7h1.1v58.6h-1.1V67.7z"/>
		<path class="st152" d="M180,67.7h1.1v58.6H180V67.7z"/>
		<path class="st153" d="M181.1,67.7h1.1v58.6h-1.1V67.7z"/>
		<path class="st154" d="M182.1,67.7h1.1v58.6h-1.1V67.7z"/>
		<path class="st155" d="M183.2,67.7h1.1v58.6h-1.1V67.7z"/>
		<path class="st156" d="M184.3,67.7h1.1v58.6h-1.1V67.7z"/>
		<path class="st157" d="M185.4,67.7h1.1v58.6h-1.1V67.7z"/>
		<path class="st158" d="M186.5,67.7h1.1v58.6h-1.1V67.7z"/>
		<path class="st159" d="M187.6,67.7h1.1v58.6h-1.1V67.7z"/>
		<path class="st160" d="M188.6,67.7h1.1v58.6h-1.1V67.7z"/>
		<path class="st160" d="M189.7,67.7h1.1v58.6h-1.1V67.7z"/>
		<path class="st161" d="M190.8,67.7h1.1v58.6h-1.1V67.7z"/>
		<path class="st162" d="M191.9,67.7h1.1v58.6h-1.1V67.7z"/>
		<path class="st163" d="M193,67.7h1.1v58.6H193V67.7z"/>
		<path class="st164" d="M194,67.7h1.1v58.6H194V67.7z"/>
		<path class="st165" d="M195.1,67.7h1.1v58.6h-1.1V67.7z"/>
		<path class="st166" d="M196.2,67.7h1.1v58.6h-1.1V67.7z"/>
		<path class="st167" d="M197.3,67.7h1.1v58.6h-1.1V67.7z"/>
		<path class="st167" d="M198.4,67.7h1.1v58.6h-1.1V67.7z"/>
		<path class="st168" d="M199.4,67.7h1.1v58.6h-1.1V67.7z"/>
		<path class="st169" d="M200.5,67.7h1.1v58.6h-1.1V67.7z"/>
		<path class="st170" d="M201.6,67.7h1.1v58.6h-1.1V67.7z"/>
		<path class="st170" d="M202.7,67.7h1.1v58.6h-1.1V67.7z"/>
		<path class="st171" d="M203.8,67.7h1.1v58.6h-1.1V67.7z"/>
		<path class="st172" d="M204.9,67.7h1.1v58.6h-1.1V67.7z"/>
		<path class="st172" d="M205.9,67.7h1.1v58.6h-1.1V67.7z"/>
		<path class="st173" d="M207,67.7h1.1v58.6H207V67.7z"/>
		<path class="st174" d="M208.1,67.7h1.1v58.6h-1.1V67.7z"/>
		<path class="st175" d="M209.2,67.7h1.1v58.6h-1.1V67.7z"/>
		<path class="st176" d="M210.3,67.7h1.1v58.6h-1.1V67.7z"/>
		<path class="st177" d="M211.3,67.7h1.1v58.6h-1.1V67.7z"/>
		<path class="st178" d="M212.4,67.7h1.1v58.6h-1.1V67.7z"/>
		<path class="st179" d="M213.5,67.7h1.1v58.6h-1.1V67.7z"/>
		<path class="st180" d="M214.6,67.7h1.1v58.6h-1.1V67.7z"/>
		<path class="st181" d="M215.7,67.7h1.1v58.6h-1.1V67.7z"/>
		<path class="st182" d="M216.8,67.7h1.1v58.6h-1.1V67.7z"/>
		<path class="st183" d="M217.8,67.7h1.1v58.6h-1.1V67.7z"/>
		<path class="st184" d="M218.9,67.7h1.1v58.6h-1.1V67.7z"/>
		<path class="st185" d="M220,67.7h1.1v58.6H220V67.7z"/>
		<path class="st185" d="M221.1,67.7h1.1v58.6h-1.1V67.7z"/>
		<path class="st186" d="M222.1,67.7h1.1v58.6h-1.1V67.7z"/>
		<path class="st187" d="M223.2,67.7h1.1v58.6h-1.1V67.7z"/>
		<path class="st187" d="M224.3,67.7h1.1v58.6h-1.1V67.7z"/>
		<path class="st188" d="M225.4,67.7h1.1v58.6h-1.1V67.7z"/>
		<path class="st189" d="M226.5,67.7h1.1v58.6h-1.1V67.7z"/>
		<path class="st190" d="M227.6,67.7h1.1v58.6h-1.1V67.7z"/>
		<path class="st191" d="M228.6,67.7h1.1v58.6h-1.1V67.7z"/>
		<path class="st192" d="M229.7,67.7h1.1v58.6h-1.1V67.7z"/>
		<path class="st193" d="M230.8,67.7h1.1v58.6h-1.1V67.7z"/>
		<path class="st194" d="M231.9,67.7h1.1v58.6h-1.1V67.7z"/>
		<path class="st194" d="M233,67.7h1.1v58.6H233V67.7z"/>
		<path class="st195" d="M234.1,67.7h1.1v58.6h-1.1V67.7z"/>
		<path class="st196" d="M235.1,67.7h1.1v58.6h-1.1V67.7z"/>
		<path class="st196" d="M236.2,67.7h1.1v58.6h-1.1V67.7z"/>
		<path class="st197" d="M237.3,67.7h1.1v58.6h-1.1V67.7z"/>
		<path class="st198" d="M238.4,67.7h1.1v58.6h-1.1V67.7z"/>
		<path class="st198" d="M239.5,67.7h1.1v58.6h-1.1V67.7z"/>
		<path class="st199" d="M240.5,67.7h1.1v58.6h-1.1V67.7z"/>
		<path class="st200" d="M241.6,67.7h1.1v58.6h-1.1V67.7z"/>
		<path class="st200" d="M242.7,67.7h1.1v58.6h-1.1V67.7z"/>
		<path class="st201" d="M243.8,67.7h1.1v58.6h-1.1V67.7z"/>
		<path class="st202" d="M244.9,67.7h1.1v58.6h-1.1V67.7z"/>
		<path class="st202" d="M245.9,67.7h1.1v58.6h-1.1V67.7z"/>
		<path class="st203" d="M247,67.7h1.1v58.6H247V67.7z"/>
		<path class="st203" d="M248.1,67.7h1.1v58.6h-1.1V67.7z"/>
		<path class="st204" d="M249.2,67.7h1.1v58.6h-1.1V67.7z"/>
		<path class="st205" d="M250.3,67.7h1.1v58.6h-1.1V67.7z"/>
		<path class="st205" d="M251.4,67.7h1.1v58.6h-1.1V67.7z"/>
		<path class="st206" d="M252.4,67.7h1.1v58.6h-1.1V67.7z"/>
		<path class="st207" d="M253.5,67.7h1.1v58.6h-1.1V67.7z"/>
		<path class="st207" d="M254.6,67.7h1.1v58.6h-1.1V67.7z"/>
		<path class="st207" d="M255.7,67.7h1.1v58.6h-1.1L255.7,67.7z"/>
		<path class="st208" d="M256.8,67.7h1.1v58.6h-1.1V67.7z"/>
		<path class="st209" d="M257.8,67.7h1.1v58.6h-1.1V67.7z"/>
		<path class="st209" d="M258.9,67.7h1.1v58.6h-1.1V67.7z"/>
		<path class="st210" d="M260,67.7h1.1v58.6H260V67.7z"/>
		<path class="st210" d="M261.1,67.7h1.1v58.6h-1.1V67.7z"/>
		<path class="st211" d="M262.2,67.7h1.1v58.6h-1.1V67.7z"/>
		<path class="st212" d="M263.3,67.7h1.1v58.6h-1.1V67.7z"/>
		<path class="st212" d="M264.3,67.7h1.1v58.6h-1.1V67.7z"/>
		<path class="st212" d="M265.4,67.7h1.1v58.6h-1.1V67.7z"/>
		<path class="st213" d="M266.5,67.7h1.1v58.6h-1.1V67.7z"/>
		<path class="st213" d="M267.6,67.7h1.1v58.6h-1.1V67.7z"/>
		<path class="st214" d="M268.6,67.7h1.1v58.6h-1.1V67.7z"/>
		<path class="st214" d="M269.7,67.7h1.1v58.6h-1.1V67.7z"/>
		<path class="st215" d="M270.8,67.7h1.1v58.6h-1.1V67.7z"/>
		<path class="st215" d="M271.9,67.7h1.1v58.6h-1.1V67.7z"/>
		<path class="st215" d="M273,67.7h1.1v58.6H273V67.7z"/>
		<path class="st215" d="M274.1,67.7h1.1v58.6h-1.1V67.7z"/>
		<path class="st216" d="M275.1,67.7h1.1v58.6h-1.1V67.7z"/>
		<g>
			<path class="st217" d="M276.2,67.7h1.1v58.6h-1.1V67.7z"/>
			<path class="st217" d="M277.3,67.7h1.1v58.6h-1.1V67.7z"/>
			<path class="st217" d="M278.4,67.7h1.1v58.6h-1.1V67.7z"/>
			<path class="st217" d="M279.5,67.7h1.1v58.6h-1.1V67.7z"/>
			<path class="st217" d="M280.5,67.7h1.1v58.6h-1.1V67.7z"/>
			<path class="st217" d="M281.6,67.7h1.1v58.6h-1.1V67.7z"/>
			<path class="st217" d="M282.7,67.7h1.1v58.6h-1.1V67.7z"/>
		</g>
	</g>
</g>
<g>
	<defs>
		<rect id="SVGID_3_" x="283.1" y="68.4" width="267.1" height="58.6"/>
	</defs>
	<clipPath id="SVGID_4_">
		<use xlink:href="#SVGID_3_"  style="overflow:visible;"/>
	</clipPath>
	<g class="st218">
		<path class="st1" d="M549.2,68.4h1.1v58.6h-1.1V68.4z"/>
		<path class="st2" d="M548.1,68.4h1.1v58.6h-1.1V68.4z"/>
		<path class="st3" d="M547,68.4h1.1v58.6H547V68.4z"/>
		<path class="st4" d="M545.9,68.4h1.1v58.6h-1.1V68.4z"/>
		<path class="st5" d="M544.8,68.4h1.1v58.6h-1.1V68.4z"/>
		<path class="st6" d="M543.8,68.4h1.1v58.6h-1.1V68.4z"/>
		<path class="st7" d="M542.7,68.4h1.1v58.6h-1.1V68.4z"/>
		<path class="st8" d="M541.6,68.4h1.1v58.6h-1.1V68.4z"/>
		<path class="st9" d="M540.5,68.4h1.1v58.6h-1.1V68.4z"/>
		<path class="st10" d="M539.4,68.4h1.1v58.6h-1.1V68.4z"/>
		<path class="st11" d="M538.3,68.4h1.1v58.6h-1.1V68.4z"/>
		<path class="st12" d="M537.3,68.4h1.1v58.6h-1.1V68.4z"/>
		<path class="st13" d="M536.2,68.4h1.1v58.6h-1.1V68.4z"/>
		<path class="st14" d="M535.1,68.4h1.1v58.6h-1.1V68.4z"/>
		<path class="st15" d="M534,68.4h1.1v58.6H534V68.4z"/>
		<path class="st16" d="M532.9,68.4h1.1v58.6h-1.1V68.4z"/>
		<path class="st17" d="M531.9,68.4h1.1v58.6h-1.1V68.4z"/>
		<path class="st18" d="M530.8,68.4h1.1v58.6h-1.1V68.4z"/>
		<path class="st19" d="M529.7,68.4h1.1v58.6h-1.1V68.4z"/>
		<path class="st20" d="M528.6,68.4h1.1v58.6h-1.1V68.4z"/>
		<path class="st21" d="M527.5,68.4h1.1v58.6h-1.1V68.4z"/>
		<path class="st22" d="M526.5,68.4h1.1v58.6h-1.1V68.4z"/>
		<path class="st23" d="M525.4,68.4h1.1v58.6h-1.1V68.4z"/>
		<path class="st24" d="M524.3,68.4h1.1v58.6h-1.1V68.4z"/>
		<path class="st25" d="M523.2,68.4h1.1v58.6h-1.1V68.4z"/>
		<path class="st26" d="M522.1,68.4h1.1v58.6h-1.1V68.4z"/>
		<path class="st27" d="M521,68.4h1.1v58.6H521V68.4z"/>
		<path class="st28" d="M520,68.4h1.1v58.6H520V68.4z"/>
		<path class="st29" d="M518.9,68.4h1.1v58.6h-1.1V68.4z"/>
		<path class="st30" d="M517.8,68.4h1.1v58.6h-1.1V68.4z"/>
		<path class="st31" d="M516.7,68.4h1.1v58.6h-1.1V68.4z"/>
		<path class="st32" d="M515.6,68.4h1.1v58.6h-1.1V68.4z"/>
		<path class="st33" d="M514.5,68.4h1.1v58.6h-1.1V68.4z"/>
		<path class="st34" d="M513.5,68.4h1.1v58.6h-1.1V68.4z"/>
		<path class="st35" d="M512.4,68.4h1.1v58.6h-1.1V68.4z"/>
		<path class="st36" d="M511.3,68.4h1.1v58.6h-1.1L511.3,68.4z"/>
		<path class="st37" d="M510.2,68.4h1.1v58.6h-1.1V68.4z"/>
		<path class="st38" d="M509.1,68.4h1.1v58.6h-1.1V68.4z"/>
		<path class="st39" d="M508.1,68.4h1.1v58.6h-1.1V68.4z"/>
		<path class="st40" d="M507,68.4h1.1v58.6H507V68.4z"/>
		<path class="st41" d="M505.9,68.4h1.1v58.6h-1.1V68.4z"/>
		<path class="st42" d="M504.8,68.4h1.1v58.6h-1.1V68.4z"/>
		<path class="st43" d="M503.7,68.4h1.1v58.6h-1.1V68.4z"/>
		<path class="st44" d="M502.7,68.4h1.1v58.6h-1.1V68.4z"/>
		<path class="st45" d="M501.6,68.4h1.1v58.6h-1.1V68.4z"/>
		<path class="st46" d="M500.5,68.4h1.1v58.6h-1.1V68.4z"/>
		<path class="st47" d="M499.4,68.4h1.1v58.6h-1.1V68.4z"/>
		<path class="st48" d="M498.3,68.4h1.1v58.6h-1.1V68.4z"/>
		<path class="st49" d="M497.3,68.4h1.1v58.6h-1.1V68.4z"/>
		<path class="st50" d="M496.2,68.4h1.1v58.6h-1.1V68.4z"/>
		<path class="st51" d="M495.1,68.4h1.1v58.6h-1.1V68.4z"/>
		<path class="st52" d="M494,68.4h1.1v58.6H494V68.4z"/>
		<path class="st53" d="M492.9,68.4h1.1v58.6h-1.1V68.4z"/>
		<path class="st54" d="M491.9,68.4h1.1v58.6h-1.1V68.4z"/>
		<path class="st55" d="M490.8,68.4h1.1v58.6h-1.1V68.4z"/>
		<path class="st56" d="M489.7,68.4h1.1v58.6h-1.1V68.4z"/>
		<path class="st57" d="M488.6,68.4h1.1v58.6h-1.1V68.4z"/>
		<path class="st58" d="M487.5,68.4h1.1v58.6h-1.1V68.4z"/>
		<path class="st59" d="M486.4,68.4h1.1v58.6h-1.1V68.4z"/>
		<path class="st60" d="M485.4,68.4h1.1v58.6h-1.1V68.4z"/>
		<path class="st61" d="M484.3,68.4h1.1v58.6h-1.1V68.4z"/>
		<path class="st62" d="M483.2,68.4h1.1v58.6h-1.1V68.4z"/>
		<path class="st63" d="M482.1,68.4h1.1v58.6h-1.1V68.4z"/>
		<path class="st64" d="M481,68.4h1.1v58.6H481V68.4z"/>
		<path class="st65" d="M480,68.4h1.1v58.6H480V68.4z"/>
		<path class="st66" d="M478.9,68.4h1.1v58.6h-1.1V68.4z"/>
		<path class="st67" d="M477.8,68.4h1.1v58.6h-1.1V68.4z"/>
		<path class="st68" d="M476.7,68.4h1.1v58.6h-1.1V68.4z"/>
		<path class="st69" d="M475.6,68.4h1.1v58.6h-1.1V68.4z"/>
		<path class="st70" d="M474.5,68.4h1.1v58.6h-1.1V68.4z"/>
		<path class="st71" d="M473.5,68.4h1.1v58.6h-1.1V68.4z"/>
		<path class="st72" d="M472.4,68.4h1.1v58.6h-1.1V68.4z"/>
		<path class="st73" d="M471.3,68.4h1.1v58.6h-1.1V68.4z"/>
		<path class="st74" d="M470.2,68.4h1.1v58.6h-1.1V68.4z"/>
		<path class="st75" d="M469.1,68.4h1.1v58.6h-1.1V68.4z"/>
		<path class="st76" d="M468,68.4h1.1v58.6H468V68.4z"/>
		<path class="st77" d="M467,68.4h1.1v58.6H467V68.4z"/>
		<path class="st78" d="M465.9,68.4h1.1v58.6h-1.1V68.4z"/>
		<path class="st79" d="M464.8,68.4h1.1v58.6h-1.1V68.4z"/>
		<path class="st80" d="M463.7,68.4h1.1v58.6h-1.1V68.4z"/>
		<path class="st81" d="M462.6,68.4h1.1v58.6h-1.1V68.4z"/>
		<path class="st82" d="M461.6,68.4h1.1v58.6h-1.1V68.4z"/>
		<path class="st83" d="M460.5,68.4h1.1v58.6h-1.1V68.4z"/>
		<path class="st84" d="M459.4,68.4h1.1v58.6h-1.1V68.4z"/>
		<path class="st85" d="M458.3,68.4h1.1v58.6h-1.1V68.4z"/>
		<path class="st86" d="M457.2,68.4h1.1v58.6h-1.1V68.4z"/>
		<path class="st87" d="M456.2,68.4h1.1v58.6h-1.1V68.4z"/>
		<path class="st88" d="M455.1,68.4h1.1v58.6h-1.1V68.4z"/>
		<path class="st89" d="M454,68.4h1.1v58.6H454V68.4z"/>
		<path class="st90" d="M452.9,68.4h1.1v58.6h-1.1V68.4z"/>
		<path class="st91" d="M451.8,68.4h1.1v58.6h-1.1V68.4z"/>
		<path class="st92" d="M450.8,68.4h1.1v58.6h-1.1V68.4z"/>
		<path class="st93" d="M449.7,68.4h1.1v58.6h-1.1V68.4z"/>
		<path class="st94" d="M448.6,68.4h1.1v58.6h-1.1V68.4z"/>
		<path class="st95" d="M447.5,68.4h1.1v58.6h-1.1V68.4z"/>
		<path class="st96" d="M446.4,68.4h1.1v58.6h-1.1V68.4z"/>
		<path class="st97" d="M445.4,68.4h1.1v58.6h-1.1V68.4z"/>
		<path class="st98" d="M444.3,68.4h1.1v58.6h-1.1V68.4z"/>
		<path class="st99" d="M443.2,68.4h1.1v58.6h-1.1V68.4z"/>
		<path class="st100" d="M442.1,68.4h1.1v58.6h-1.1V68.4z"/>
		<path class="st101" d="M441,68.4h1.1v58.6H441V68.4z"/>
		<path class="st102" d="M439.9,68.4h1.1v58.6h-1.1V68.4z"/>
		<path class="st103" d="M438.9,68.4h1.1v58.6h-1.1V68.4z"/>
		<path class="st104" d="M437.8,68.4h1.1v58.6h-1.1V68.4z"/>
		<path class="st105" d="M436.7,68.4h1.1v58.6h-1.1V68.4z"/>
		<path class="st106" d="M435.6,68.4h1.1v58.6h-1.1V68.4z"/>
		<path class="st107" d="M434.5,68.4h1.1v58.6h-1.1V68.4z"/>
		<path class="st108" d="M433.5,68.4h1.1v58.6h-1.1V68.4z"/>
		<path class="st109" d="M432.4,68.4h1.1v58.6h-1.1V68.4z"/>
		<path class="st110" d="M431.3,68.4h1.1v58.6h-1.1V68.4z"/>
		<path class="st111" d="M430.2,68.4h1.1v58.6h-1.1V68.4z"/>
		<path class="st112" d="M429.1,68.4h1.1v58.6h-1.1V68.4z"/>
		<path class="st113" d="M428,68.4h1.1v58.6H428V68.4z"/>
		<path class="st114" d="M427,68.4h1.1v58.6H427V68.4z"/>
		<path class="st115" d="M425.9,68.4h1.1v58.6h-1.1V68.4z"/>
		<path class="st116" d="M424.8,68.4h1.1v58.6h-1.1V68.4z"/>
		<path class="st117" d="M423.7,68.4h1.1v58.6h-1.1V68.4z"/>
		<path class="st118" d="M422.6,68.4h1.1v58.6h-1.1V68.4z"/>
		<path class="st119" d="M421.5,68.4h1.1v58.6h-1.1V68.4z"/>
		<path class="st120" d="M420.5,68.4h1.1v58.6h-1.1V68.4z"/>
		<path class="st121" d="M419.4,68.4h1.1v58.6h-1.1V68.4z"/>
		<path class="st122" d="M418.3,68.4h1.1v58.6h-1.1V68.4z"/>
		<path class="st123" d="M417.2,68.4h1.1v58.6h-1.1V68.4z"/>
		<path class="st124" d="M416.1,68.4h1.1v58.6h-1.1V68.4z"/>
		<path class="st125" d="M415.1,68.4h1.1v58.6h-1.1V68.4z"/>
		<path class="st126" d="M414,68.4h1.1v58.6H414V68.4z"/>
		<path class="st127" d="M412.9,68.4h1.1v58.6h-1.1V68.4z"/>
		<path class="st128" d="M411.8,68.4h1.1v58.6h-1.1V68.4z"/>
		<path class="st129" d="M410.7,68.4h1.1v58.6h-1.1V68.4z"/>
		<path class="st130" d="M409.7,68.4h1.1v58.6h-1.1V68.4z"/>
		<path class="st131" d="M408.6,68.4h1.1v58.6h-1.1V68.4z"/>
		<path class="st132" d="M407.5,68.4h1.1v58.6h-1.1V68.4z"/>
		<path class="st133" d="M406.4,68.4h1.1v58.6h-1.1V68.4z"/>
		<path class="st134" d="M405.3,68.4h1.1v58.6h-1.1V68.4z"/>
		<path class="st135" d="M404.3,68.4h1.1v58.6h-1.1V68.4z"/>
		<path class="st136" d="M403.2,68.4h1.1v58.6h-1.1V68.4z"/>
		<path class="st137" d="M402.1,68.4h1.1v58.6h-1.1V68.4z"/>
		<path class="st138" d="M401,68.4h1.1v58.6H401V68.4z"/>
		<path class="st139" d="M399.9,68.4h1.1v58.6h-1.1V68.4z"/>
		<path class="st140" d="M398.9,68.4h1.1v58.6h-1.1V68.4z"/>
		<path class="st141" d="M397.8,68.4h1.1v58.6h-1.1V68.4z"/>
		<path class="st142" d="M396.7,68.4h1.1v58.6h-1.1V68.4z"/>
		<path class="st143" d="M395.6,68.4h1.1v58.6h-1.1V68.4z"/>
		<path class="st144" d="M394.5,68.4h1.1v58.6h-1.1V68.4z"/>
		<path class="st145" d="M393.4,68.4h1.1v58.6h-1.1V68.4z"/>
		<path class="st146" d="M392.4,68.4h1.1v58.6h-1.1V68.4z"/>
		<path class="st147" d="M391.3,68.4h1.1v58.6h-1.1V68.4z"/>
		<path class="st148" d="M390.2,68.4h1.1v58.6h-1.1V68.4z"/>
		<path class="st149" d="M389.1,68.4h1.1v58.6h-1.1V68.4z"/>
		<path class="st150" d="M388,68.4h1.1v58.6H388V68.4z"/>
		<path class="st151" d="M387,68.4h1.1v58.6H387V68.4z"/>
		<path class="st152" d="M385.9,68.4h1.1v58.6h-1.1V68.4z"/>
		<path class="st153" d="M384.8,68.4h1.1v58.6h-1.1V68.4z"/>
		<path class="st154" d="M383.7,68.4h1.1v58.6h-1.1V68.4z"/>
		<path class="st155" d="M382.6,68.4h1.1v58.6h-1.1V68.4z"/>
		<path class="st156" d="M381.5,68.4h1.1v58.6h-1.1V68.4z"/>
		<path class="st157" d="M380.5,68.4h1.1v58.6h-1.1V68.4z"/>
		<path class="st158" d="M379.4,68.4h1.1v58.6h-1.1V68.4z"/>
		<path class="st159" d="M378.3,68.4h1.1v58.6h-1.1V68.4z"/>
		<path class="st160" d="M377.2,68.4h1.1v58.6h-1.1V68.4z"/>
		<path class="st160" d="M376.1,68.4h1.1v58.6h-1.1V68.4z"/>
		<path class="st161" d="M375,68.4h1.1v58.6H375V68.4z"/>
		<path class="st162" d="M374,68.4h1.1v58.6H374V68.4z"/>
		<path class="st163" d="M372.9,68.4h1.1v58.6h-1.1V68.4z"/>
		<path class="st164" d="M371.8,68.4h1.1v58.6h-1.1V68.4z"/>
		<path class="st165" d="M370.7,68.4h1.1v58.6h-1.1V68.4z"/>
		<path class="st166" d="M369.6,68.4h1.1v58.6h-1.1V68.4z"/>
		<path class="st167" d="M368.6,68.4h1.1v58.6h-1.1V68.4z"/>
		<path class="st167" d="M367.5,68.4h1.1v58.6h-1.1V68.4z"/>
		<path class="st168" d="M366.4,68.4h1.1v58.6h-1.1V68.4z"/>
		<path class="st169" d="M365.3,68.4h1.1v58.6h-1.1V68.4z"/>
		<path class="st170" d="M364.2,68.4h1.1v58.6h-1.1V68.4z"/>
		<path class="st170" d="M363.2,68.4h1.1v58.6h-1.1V68.4z"/>
		<path class="st171" d="M362.1,68.4h1.1v58.6h-1.1V68.4z"/>
		<path class="st172" d="M361,68.4h1.1v58.6H361V68.4z"/>
		<path class="st172" d="M359.9,68.4h1.1v58.6h-1.1V68.4z"/>
		<path class="st173" d="M358.8,68.4h1.1v58.6h-1.1V68.4z"/>
		<path class="st174" d="M357.8,68.4h1.1v58.6h-1.1V68.4z"/>
		<path class="st175" d="M356.7,68.4h1.1v58.6h-1.1V68.4z"/>
		<path class="st176" d="M355.6,68.4h1.1v58.6h-1.1V68.4z"/>
		<path class="st177" d="M354.5,68.4h1.1v58.6h-1.1V68.4z"/>
		<path class="st178" d="M353.4,68.4h1.1v58.6h-1.1V68.4z"/>
		<path class="st179" d="M352.4,68.4h1.1v58.6h-1.1V68.4z"/>
		<path class="st180" d="M351.3,68.4h1.1v58.6h-1.1V68.4z"/>
		<path class="st181" d="M350.2,68.4h1.1v58.6h-1.1V68.4z"/>
		<path class="st182" d="M349.1,68.4h1.1v58.6h-1.1V68.4z"/>
		<path class="st183" d="M348,68.4h1.1v58.6H348V68.4z"/>
		<path class="st184" d="M346.9,68.4h1.1v58.6h-1.1V68.4z"/>
		<path class="st185" d="M345.9,68.4h1.1v58.6h-1.1V68.4z"/>
		<path class="st185" d="M344.8,68.4h1.1v58.6h-1.1V68.4z"/>
		<path class="st186" d="M343.7,68.4h1.1v58.6h-1.1V68.4z"/>
		<path class="st187" d="M342.6,68.4h1.1v58.6h-1.1V68.4z"/>
		<path class="st187" d="M341.5,68.4h1.1v58.6h-1.1V68.4z"/>
		<path class="st188" d="M340.5,68.4h1.1v58.6h-1.1V68.4z"/>
		<path class="st189" d="M339.4,68.4h1.1v58.6h-1.1V68.4z"/>
		<path class="st190" d="M338.3,68.4h1.1v58.6h-1.1V68.4z"/>
		<path class="st191" d="M337.2,68.4h1.1v58.6h-1.1V68.4z"/>
		<path class="st192" d="M336.1,68.4h1.1v58.6h-1.1V68.4z"/>
		<path class="st193" d="M335,68.4h1.1v58.6H335V68.4z"/>
		<path class="st194" d="M334,68.4h1.1v58.6H334V68.4z"/>
		<path class="st194" d="M332.9,68.4h1.1v58.6h-1.1V68.4z"/>
		<path class="st195" d="M331.8,68.4h1.1v58.6h-1.1V68.4z"/>
		<path class="st196" d="M330.7,68.4h1.1v58.6h-1.1V68.4z"/>
		<path class="st196" d="M329.6,68.4h1.1v58.6h-1.1V68.4z"/>
		<path class="st197" d="M328.5,68.4h1.1v58.6h-1.1V68.4z"/>
		<path class="st198" d="M327.5,68.4h1.1v58.6h-1.1V68.4z"/>
		<path class="st198" d="M326.4,68.4h1.1v58.6h-1.1V68.4z"/>
		<path class="st199" d="M325.3,68.4h1.1v58.6h-1.1V68.4z"/>
		<path class="st200" d="M324.2,68.4h1.1v58.6h-1.1V68.4z"/>
		<path class="st200" d="M323.1,68.4h1.1v58.6h-1.1V68.4z"/>
		<path class="st201" d="M322.1,68.4h1.1v58.6h-1.1V68.4z"/>
		<path class="st202" d="M321,68.4h1.1v58.6H321V68.4z"/>
		<path class="st202" d="M319.9,68.4h1.1v58.6h-1.1V68.4z"/>
		<path class="st203" d="M318.8,68.4h1.1v58.6h-1.1V68.4z"/>
		<path class="st203" d="M317.7,68.4h1.1v58.6h-1.1V68.4z"/>
		<path class="st204" d="M316.7,68.4h1.1v58.6h-1.1V68.4z"/>
		<path class="st205" d="M315.6,68.4h1.1v58.6h-1.1V68.4z"/>
		<path class="st205" d="M314.5,68.4h1.1v58.6h-1.1V68.4z"/>
		<path class="st206" d="M313.4,68.4h1.1v58.6h-1.1V68.4z"/>
		<path class="st207" d="M312.3,68.4h1.1v58.6h-1.1V68.4z"/>
		<path class="st207" d="M311.3,68.4h1.1v58.6h-1.1V68.4z"/>
		<path class="st207" d="M310.2,68.4h1.1v58.6h-1.1V68.4z"/>
		<path class="st208" d="M309.1,68.4h1.1v58.6h-1.1V68.4z"/>
		<path class="st209" d="M308,68.4h1.1v58.6H308V68.4z"/>
		<path class="st209" d="M306.9,68.4h1.1v58.6h-1.1V68.4z"/>
		<path class="st210" d="M305.9,68.4h1.1v58.6h-1.1V68.4z"/>
		<path class="st210" d="M304.8,68.4h1.1v58.6h-1.1V68.4z"/>
		<path class="st211" d="M303.7,68.4h1.1v58.6h-1.1V68.4z"/>
		<path class="st212" d="M302.6,68.4h1.1v58.6h-1.1V68.4z"/>
		<path class="st212" d="M301.5,68.4h1.1v58.6h-1.1V68.4z"/>
		<path class="st212" d="M300.4,68.4h1.1v58.6h-1.1V68.4z"/>
		<path class="st213" d="M299.4,68.4h1.1v58.6h-1.1V68.4z"/>
		<path class="st213" d="M298.3,68.4h1.1v58.6h-1.1V68.4z"/>
		<path class="st214" d="M297.2,68.4h1.1v58.6h-1.1V68.4z"/>
		<path class="st214" d="M296.1,68.4h1.1v58.6h-1.1V68.4z"/>
		<path class="st215" d="M295,68.4h1.1v58.6H295V68.4z"/>
		<path class="st215" d="M294,68.4h1.1v58.6H294V68.4z"/>
		<path class="st215" d="M292.9,68.4h1.1v58.6h-1.1V68.4z"/>
		<path class="st215" d="M291.8,68.4h1.1v58.6h-1.1V68.4z"/>
		<path class="st216" d="M290.7,68.4h1.1v58.6h-1.1V68.4z"/>
		<g>
			<path class="st217" d="M289.6,68.4h1.1v58.6h-1.1V68.4z"/>
			<path class="st217" d="M288.5,68.4h1.1v58.6h-1.1V68.4z"/>
			<path class="st217" d="M287.5,68.4h1.1v58.6h-1.1V68.4z"/>
			<path class="st217" d="M286.4,68.4h1.1v58.6h-1.1V68.4z"/>
			<path class="st217" d="M285.3,68.4h1.1v58.6h-1.1V68.4z"/>
			<path class="st217" d="M284.2,68.4h1.1v58.6h-1.1V68.4z"/>
			<path class="st217" d="M283.1,68.4h1.1v58.6h-1.1V68.4z"/>
		</g>
	</g>
</g>
<path class="st219" d="M357.2,46l2.9,36.7l-0.3,0.2l0-0.5l-0.4-0.1l-2.9-35.8v0l0.4-0.2l0-0.4L357.2,46z"/>
<path class="st219" d="M360.2,93.7l-2.9,36.7l-0.1,0.1l0-0.4l-0.4-0.2v0l2.9-35.8l0.4-0.1l0-0.5L360.2,93.7z"/>
<path class="st219" d="M359.9,82.5l0,0.5l-0.1,0.1l-1.9-0.5L313,71.9l-0.1,0l0.1,0l0.7-0.4l45.9,11L359.9,82.5z"/>
<path class="st219" d="M359.9,93.5l0,0.5l-0.4,0.1l-45.9,11h0l-0.7-0.4l-0.1-0.1l14.1-3.4L359.9,93.5L359.9,93.5z"/>
<path class="st219" d="M359.8,83.1L359.8,83.1L359.8,83.1L359.8,83.1z"/>
<path class="st219" d="M359.9,93.4L359.9,93.4L359.9,93.4l-32.9,7.9l30.9-7.4l-72.7-5.2l-0.3-0.2l3.2-0.2L359.9,93.4z"/>
<path class="st219" d="M359.8,83.1l-71.7,5.2l-3.2-0.2l0.3-0.1l72.7-5.2L359.8,83.1z"/>
<path class="st220" d="M356.7,46.6l2.9,35.8l-45.9-11L356.7,46.6z"/>
<path class="st219" d="M359.5,94.1l-2.9,35.8l-22.1-12.8l-20.9-12.1L359.5,94.1z"/>
<path class="st219" d="M357.9,82.6l-72.7,5.2l27.7-16l0.1,0L357.9,82.6z"/>
<path class="st220" d="M357.9,93.9l-30.9,7.4l-14.1,3.4h0l-8.6-5l-19.1-11L357.9,93.9z"/>
<path class="st219" d="M357.1,45.8V46l-0.3-0.2l-0.4,0.2l-29.6-20.4l0.1-0.4l-0.5-0.2l0.3-0.1L357.1,45.8z"/>
<path class="st219" d="M357.1,130.5v0.1l-30.3,20.9l-0.3-0.1l0.5-0.2l-0.1-0.4l29.6-20.4l0.4,0.2L357.1,130.5z"/>
<path class="st219" d="M356.4,130.4l-43-24.8l0,0l-0.1-0.4l0.4-0.1l20.9,12l22.1,12.8l0.4,0.2l0,0.4l-0.3,0.2L356.4,130.4
	L356.4,130.4z"/>
<path class="st219" d="M356.4,46L356.4,46l0.4-0.3l0.3,0.2l0,0.4l-0.4,0.2l-43,24.8l-0.4-0.1l0.1-0.4h0L356.4,46z"/>
<path class="st219" d="M356.7,46.6L356.7,46.6l-43,24.8L356.7,46.6z"/>
<path class="st219" d="M356.7,129.9L356.7,129.9l-22.1-12.8L356.7,129.9z"/>
<path class="st219" d="M356.4,46l-43,24.8v0L356.4,46z"/>
<path class="st220" d="M313.4,105.6l43,24.8v0l-29.6,20.4L313.4,105.6z"/>
<path class="st219" d="M356.4,46L356.4,46l-43,24.8l13.4-45.2L356.4,46z"/>
<path class="st219" d="M334.5,117.1l-20.9-12l0,0L334.5,117.1z"/>
<path class="st219" d="M326.9,25.3l-0.1,0.4l-13.4,45.2l0,0l-0.6,0.4l-0.1,0.1l13.2-44.4l0.6-1.9l0.1,0L326.9,25.3z"/>
<path class="st219" d="M326.8,150.8l0.1,0.4l-0.5,0.2l-0.1,0l-0.6-1.9l-13.2-44.4l0.1,0.1l0.6,0.4l0,0L326.8,150.8z"/>
<path class="st219" d="M326.3,151.4l0.1,0L326.3,151.4L286,91.9l-1.4-2.9l0.3,0.2l40.9,60.4L326.3,151.4z"/>
<path class="st219" d="M326.4,25l-0.1,0l-0.6,1.9l-40.9,60.4l-0.3,0.2l1.4-2.9L326.4,25L326.4,25z"/>
<path class="st220" d="M325.8,26.9l-13.2,44.4l-27.7,16L325.8,26.9z"/>
<path class="st219" d="M325.8,149.5l-40.9-60.4l27.7,16L325.8,149.5z"/>
<path class="st219" d="M317.4,19.8l-31.5,64.8l-1.8,2.6v-0.3L316,21.3L317.4,19.8L317.4,19.8L317.4,19.8z"/>
<path class="st219" d="M286,91.9l31.5,64.8l-0.1,0l0-0.1l-1.3-1.4l-31.8-65.6v-0.3L286,91.9z"/>
<path class="st219" d="M317.3,19.8l0,0.1l-1.3,1.4l-31.8,33.6v-0.1V54l32.5-34.2l0.3-0.3L317.3,19.8z"/>
<path class="st219" d="M316,155.2l1.3,1.4l0,0.1l-0.4,0.3l-0.3-0.3l-32.5-34.2v-0.8v-0.1L316,155.2z"/>
<path class="st219" d="M316.9,157l0.4-0.3l-0.1,0.4L284,172.9l-0.1-0.1l0.3-0.2v-0.5l32.5-15.5L316.9,157z"/>
<path class="st219" d="M317.3,19.4l0.1,0.4l-0.4-0.3l-0.3,0.3L284.2,4.3V3.9l-0.3-0.2l0.1-0.1L317.3,19.4z"/>
<path class="st220" d="M316.6,19.8L284.2,54V4.4L316.6,19.8z"/>
<path class="st219" d="M284.2,122.5l32.5,34.2l-32.5,15.5V122.5z"/>
<path class="st219" d="M316,21.3l-31.8,65.6v-32L316,21.3z"/>
<path class="st220" d="M284.2,89.5l31.8,65.6l-31.8-33.6V89.5z"/>
<g>
	<path class="st219" d="M313.7,105.1L313.7,105.1L313.7,105.1L313.7,105.1z"/>
	<path class="st219" d="M313.6,71.4l-0.7,0.4l0.1-0.2l0.1-0.3L313.6,71.4z"/>
	<path class="st219" d="M313.6,105.1L313.6,105.1l-0.4,0.1l-0.1-0.3l-0.1-0.2L313.6,105.1z"/>
	<path class="st219" d="M313.4,70.9L313.4,70.9L313.4,70.9L313.4,70.9z"/>
	<path class="st219" d="M313.2,105.2l0.1,0.4l-0.6-0.4l0.2,0L313.2,105.2z"/>
	<path class="st219" d="M313.3,70.9l-0.1,0.4l-0.3-0.1l-0.2,0L313.3,70.9z"/>
	<path class="st219" d="M313.1,104.9l0.1,0.3l-0.3,0.1l-0.2,0l0-0.3l0.3-0.2L313.1,104.9z"/>
	<path class="st219" d="M313.2,71.3l-0.1,0.3l-0.1,0.2l-0.2-0.2l0-0.3l0.2,0L313.2,71.3z"/>
	<path class="st219" d="M313,71.8L313,71.8L313,71.8l-0.2,0l0-0.2L313,71.8z"/>
	<path class="st219" d="M313,104.7l-0.3,0.2l0-0.2l0.1,0h0L313,104.7z"/>
	<path class="st219" d="M313,71.9L313,71.9L313,71.9L313,71.9z"/>
	<path class="st219" d="M312.9,71.8l-27.7,16l-0.3,0.1l-0.6,0l0.2-0.5l0.3-0.2l27.7-16l0,0.1l0.2,0.2l0,0.2L312.9,71.8z"/>
	<path class="st219" d="M312.9,104.6l-0.1,0l0,0.2l-0.2,0.1l0,0.1l-27.7-16l-0.3-0.2l-0.2-0.5l0.6,0l0.3,0.2h0l19.1,11L312.9,104.6z
		"/>
	<path class="st219" d="M312.8,71.6l-0.2-0.2l0-0.1l0.1-0.1L312.8,71.6z"/>
	<path class="st219" d="M312.7,104.9l0,0.3l-0.1-0.1l0-0.1L312.7,104.9z"/>
	<path class="st219" d="M304.3,99.7l-19.1-11h0L304.3,99.7z"/>
	<path class="st219" d="M284.9,88l3.2,0.2l-3.2,0.2l-0.4-0.2L284.9,88z"/>
	<path class="st219" d="M286,91.9l-1.8-2.6v-0.5l0.4,0.2L286,91.9z"/>
	<path class="st219" d="M286,84.6l-1.4,2.9l-0.4,0.2v-0.5L286,84.6z"/>
	<path class="st219" d="M284.9,88l-0.4,0.2l-0.2-0.1l0.1-0.1L284.9,88z"/>
	<path class="st219" d="M284.9,88.5l-0.6,0l-0.1-0.1l0.2-0.1L284.9,88.5z"/>
	<path class="st219" d="M284.3,88.5l0.2,0.5l-0.4-0.2v-0.3L284.3,88.5z"/>
	<path class="st219" d="M284.6,87.5l-0.2,0.5l-0.2,0v-0.2L284.6,87.5z"/>
	<path class="st219" d="M284.3,88.1l0.2,0.1l-0.2,0.1l-0.1-0.1L284.3,88.1z"/>
	<path class="st219" d="M284.3,88l-0.1,0.1l-0.1,0V88L284.3,88z"/>
	<path class="st219" d="M284.3,88.5l-0.2,0v-0.1l0.1,0L284.3,88.5z"/>
	<path class="st219" d="M284.3,88.1l-0.1,0.1L284.3,88.1L284.3,88.1L284.3,88.1z"/>
	<path class="st219" d="M284.2,88.3l0.1,0.1l-0.1,0L284.2,88.3L284.2,88.3z"/>
	<path class="st219" d="M284.2,88.2L284.2,88.2v0.1V88.2L284.2,88.2z"/>
	<path class="st219" d="M284.2,172.1v0.5l-0.3,0.2l-0.3-0.2v-0.5v-49.7l0.3-0.3l0.3,0.3L284.2,172.1z"/>
	<path class="st219" d="M284.2,121.7v0.8l-0.3-0.3l0.2-0.2L284.2,121.7z"/>
	<path class="st219" d="M284.2,121.6v0.1l-0.3-0.1H284.2L284.2,121.6z"/>
	<path class="st219" d="M284.2,89.5v32l-0.1-0.1l-0.2,0.1h0l-0.2-0.1l-0.1,0.1v-32v-0.3l0.3-0.4l0.3,0.4V89.5z"/>
	<path class="st219" d="M284.2,88.8v0.5l-0.3-0.4l0.1-0.1L284.2,88.8z"/>
	<path class="st219" d="M284.2,88.5v0.3l-0.2-0.1l0.1-0.1L284.2,88.5z"/>
	<path class="st219" d="M284.2,88.4v0.1l-0.1,0l0,0L284.2,88.4z"/>
	<path class="st219" d="M284.2,88.3v0.1l-0.1,0.1l0-0.1l0,0L284.2,88.3L284.2,88.3z"/>
	<path class="st219" d="M284.2,88.3L284.2,88.3l0,0.1l-0.1,0l-0.1-0.1L284.2,88.3z"/>
	<path class="st219" d="M284.2,54.9v32v0.3l-0.3,0.5l-0.3-0.5v-0.3v-32l0.1,0.1l0.2-0.1h0L284.2,54.9L284.2,54.9z"/>
	<path class="st219" d="M284.2,88.2L284.2,88.2l-0.2,0l0.1-0.1L284.2,88.2L284.2,88.2z"/>
	<path class="st219" d="M284.2,88.1v0.1V88.1l-0.1,0.1L284.2,88.1l-0.1-0.1L284.2,88.1z"/>
	<path class="st219" d="M284.2,88v0.1l-0.1-0.1l0,0L284.2,88z"/>
	<path class="st219" d="M284.2,87.7V88l-0.1,0l-0.1-0.1L284.2,87.7z"/>
	<path class="st219" d="M284.2,87.3v0.5l-0.2,0.1l-0.1-0.1L284.2,87.3z"/>
	<path class="st219" d="M284.2,54.8v0.1l-0.1,0.1l-0.2-0.1L284.2,54.8z"/>
	<path class="st219" d="M284.2,4.4V54l-0.3,0.3l-0.3-0.3V4.4V3.9l0.3-0.2l0.3,0.2L284.2,4.4z"/>
	<path class="st219" d="M284.2,54v0.8l-0.1-0.2l-0.2-0.2L284.2,54z"/>
	<path class="st219" d="M284.1,54.6l0.1,0.2l-0.3,0.1h0l-0.3-0.1l0.1-0.2l0.2-0.2L284.1,54.6z"/>
	<path class="st219" d="M284.2,121.7l-0.1,0.2l-0.2,0.2l-0.2-0.2l-0.1-0.2l0.3-0.1h0L284.2,121.7z"/>
	<path class="st219" d="M284.2,88.3l-0.2,0l0,0l0,0L284.2,88.3z"/>
	<path class="st219" d="M284.1,88L284.1,88v0.1l-0.1,0L284.1,88L284.1,88z"/>
	<path class="st219" d="M284.1,88.4L284.1,88.4v0.1l0,0L284.1,88.4L284.1,88.4z"/>
	<path class="st219" d="M284,88L284,88L284,88L284,88L284,88z"/>
	<path class="st219" d="M284.1,88.1L284.1,88.1l-0.1,0.1L284.1,88.1L284.1,88.1z"/>
	<path class="st219" d="M284,88.3L284,88.3L284,88.3L284,88.3L284,88.3z"/>
	<path class="st219" d="M284.1,88.5L284.1,88.5L284.1,88.5L284.1,88.5L284.1,88.5z"/>
	<path class="st219" d="M284,87.8l0.1,0.1L284,87.8L284,87.8L284,87.8z"/>
	<path class="st219" d="M284,88.5l-0.1,0.1l-0.1,0L284,88.5L284,88.5z"/>
	<path class="st219" d="M284,88l0,0.2l0,0l0-0.1L284,88z"/>
	<path class="st219" d="M284,88l-0.1,0.1l0-0.1l0-0.1L284,88L284,88z"/>
	<path class="st219" d="M284,88.3l0,0.2L284,88.3L284,88.3L284,88.3L284,88.3z"/>
	<path class="st219" d="M283.9,88.4l0.1,0.1l0,0h-0.1l0-0.1L283.9,88.4z"/>
	<path class="st219" d="M284,88.3L284,88.3L284,88.3L284,88.3L284,88.3L284,88.3z"/>
	<path class="st219" d="M284,88.2L284,88.2L284,88.2L284,88.2L284,88.2z"/>
	<path class="st219" d="M284,88.3L284,88.3L284,88.3L284,88.3L284,88.3z"/>
	<path class="st219" d="M284,88.1L284,88.1L284,88.1L284,88.1L284,88.1z"/>
	<path class="st219" d="M284,87.9L284,87.9l-0.1,0.1l0-0.1h-0.1l0.1,0L284,87.9z"/>
	<path class="st219" d="M284,88.5l-0.1,0h0l-0.1,0h0.1l0-0.1L284,88.5L284,88.5z"/>
	<path class="st219" d="M284,88.2L284,88.2L284,88.2L284,88.2L284,88.2z"/>
	<path class="st219" d="M284,88.6l-0.1,0.1l-0.1-0.1H284L284,88.6L284,88.6z"/>
	<path class="st219" d="M283.9,87.7l0.1,0.1l-0.1,0l-0.1,0L283.9,87.7z"/>
	<path class="st219" d="M284,88.3L284,88.3L284,88.3L284,88.3L284,88.3z"/>
	<path class="st219" d="M284,88.2L284,88.2L284,88.2L284,88.2L284,88.2z"/>
	<path class="st219" d="M284,88.3L284,88.3L284,88.3L284,88.3L284,88.3z"/>
	<path class="st219" d="M284,88.2L284,88.2L284,88.2L284,88.2z"/>
	<path class="st219" d="M283.9,88.2L283.9,88.2L283.9,88.2L283.9,88.2l0,0.1h0h0l0,0l0,0v0v0l0,0L283.9,88.2L283.9,88.2L283.9,88.2z
		"/>
	<path class="st219" d="M283.9,88.2L283.9,88.2L283.9,88.2L283.9,88.2z"/>
	<path class="st219" d="M283.9,88.2L283.9,88.2L283.9,88.2L283.9,88.2L283.9,88.2z"/>
	<path class="st219" d="M283.9,88.3L283.9,88.3L283.9,88.3L283.9,88.3L283.9,88.3z"/>
	<path class="st219" d="M283.9,88.2L283.9,88.2L283.9,88.2L283.9,88.2L283.9,88.2z"/>
	<path class="st219" d="M283.9,88.3L283.9,88.3L283.9,88.3L283.9,88.3L283.9,88.3z"/>
	<path class="st219" d="M283.9,88.2L283.9,88.2L283.9,88.2L283.9,88.2z"/>
	<path class="st219" d="M283.9,88.4L283.9,88.4l0,0.1L283.9,88.4L283.9,88.4L283.9,88.4L283.9,88.4z"/>
	<path class="st219" d="M283.9,88.1L283.9,88.1L283.9,88.1l0-0.1L283.9,88.1z"/>
	<path class="st219" d="M283.9,88.3L283.9,88.3L283.9,88.3L283.9,88.3z"/>
	<path class="st219" d="M283.9,88.1L283.9,88.1L283.9,88.1L283.9,88.1L283.9,88.1z"/>
	<path class="st219" d="M283.9,88.3L283.9,88.3L283.9,88.3L283.9,88.3L283.9,88.3z"/>
	<path class="st219" d="M283.9,3.7l-0.3,0.2v0.5l-32.4,15.4l26.6,28.1l-26.9-28.4l-0.4,0.3l0.1-0.4l33.3-15.8L283.9,3.7z"/>
	<path class="st219" d="M283.9,87.9L283.9,87.9l-0.1,0l-0.1,0l0.1-0.1L283.9,87.9z"/>
	<path class="st219" d="M283.9,88l0,0.1l-0.1-0.1l0,0L283.9,88L283.9,88L283.9,88z"/>
	<path class="st219" d="M283.9,88.1L283.9,88.1L283.9,88.1L283.9,88.1L283.9,88.1z"/>
	<path class="st219" d="M283.9,88.4L283.9,88.4L283.9,88.4L283.9,88.4L283.9,88.4z"/>
	<path class="st219" d="M283.9,88.5L283.9,88.5L283.9,88.5l-0.1,0.1l0,0l0.1-0.1L283.9,88.5z"/>
	<path class="st219" d="M283.9,172.8l-0.1,0.1l-33.3-15.8l-0.1-0.4l0.4,0.3l0.3-0.3l32.5,15.5v0.5L283.9,172.8z"/>
	<path class="st219" d="M283.9,88.6L283.9,88.6l-0.2-0.1L283.9,88.6L283.9,88.6L283.9,88.6z"/>
	<path class="st219" d="M283.9,88.8l-0.3,0.4v-0.5l0.2-0.1L283.9,88.8z"/>
	<path class="st219" d="M283.6,87.3l0.3,0.5l-0.1,0.1l-0.2-0.1V87.3z"/>
	<path class="st219" d="M283.9,122.1l-0.3,0.3v-0.8l0.1,0.2L283.9,122.1z"/>
	<path class="st219" d="M283.6,54l0.3,0.3l-0.2,0.2l-0.1,0.2V54z"/>
	<path class="st219" d="M283.9,54.9l-0.2,0.1l-0.1-0.1v-0.1L283.9,54.9z"/>
	<path class="st219" d="M283.9,88.2L283.9,88.2L283.9,88.2L283.9,88.2z"/>
	<path class="st219" d="M283.9,88.3L283.9,88.3L283.9,88.3L283.9,88.3z"/>
	<path class="st219" d="M283.9,121.6l-0.3,0.1v-0.1l0.1-0.1L283.9,121.6z"/>
	<path class="st219" d="M283.9,88.3L283.9,88.3L283.9,88.3L283.9,88.3L283.9,88.3z"/>
	<path class="st219" d="M283.8,88.4L283.8,88.4l-0.1,0.1L283.8,88.4L283.8,88.4L283.8,88.4z"/>
	<path class="st219" d="M283.8,88.1L283.8,88.1L283.8,88.1l-0.1-0.1L283.8,88.1z"/>
	<path class="st219" d="M283.8,88.2L283.8,88.2L283.8,88.2L283.8,88.2L283.8,88.2z"/>
	<path class="st219" d="M283.8,88.2L283.8,88.2L283.8,88.2L283.8,88.2z"/>
	<path class="st219" d="M283.8,88.3L283.8,88.3L283.8,88.3L283.8,88.3L283.8,88.3z"/>
	<path class="st219" d="M283.8,88.2L283.8,88.2L283.8,88.2L283.8,88.2L283.8,88.2z"/>
	<path class="st219" d="M283.8,88.3L283.8,88.3L283.8,88.3L283.8,88.3L283.8,88.3z"/>
	<path class="st219" d="M283.8,88.2L283.8,88.2L283.8,88.2L283.8,88.2L283.8,88.2z"/>
	<path class="st219" d="M283.8,88.3L283.8,88.3L283.8,88.3L283.8,88.3L283.8,88.3z"/>
	<path class="st219" d="M283.8,88.2L283.8,88.2L283.8,88.2L283.8,88.2z"/>
	<path class="st219" d="M283.8,88.2L283.8,88.2L283.8,88.2L283.8,88.2L283.8,88.2z"/>
	<path class="st219" d="M283.8,88.3L283.8,88.3L283.8,88.3L283.8,88.3L283.8,88.3L283.8,88.3z"/>
	<path class="st219" d="M283.8,88.2L283.8,88.2L283.8,88.2L283.8,88.2L283.8,88.2z"/>
	<path class="st219" d="M283.8,88.1L283.8,88.1L283.8,88.1l-0.1,0L283.8,88.1z"/>
	<path class="st219" d="M283.8,88.3L283.8,88.3l-0.1,0.1L283.8,88.3L283.8,88.3z"/>
	<path class="st219" d="M283.6,87.7l0.2,0.1l-0.1,0.1l-0.1,0V87.7z"/>
	<path class="st219" d="M283.8,88.6l-0.2,0.1v-0.3l0.1,0L283.8,88.6z"/>
	<path class="st219" d="M283.7,88.2L283.7,88.2L283.7,88.2l-0.2,0L283.7,88.2z"/>
	<path class="st219" d="M283.7,88L283.7,88L283.7,88L283.7,88L283.7,88z"/>
	<path class="st219" d="M283.8,88.5L283.8,88.5l-0.1-0.1L283.8,88.5L283.8,88.5z"/>
	<path class="st219" d="M283.7,88l0,0.2l-0.1,0l0,0L283.7,88L283.7,88z"/>
	<path class="st219" d="M283.8,88.3l0,0.2l0,0l0-0.1L283.8,88.3L283.8,88.3z"/>
	<path class="st219" d="M283.7,88.1L283.7,88.1l-0.1,0.1v-0.1L283.7,88.1L283.7,88.1z"/>
	<path class="st219" d="M283.7,88.3L283.7,88.3l-0.1,0.1l0,0v-0.1L283.7,88.3z"/>
	<path class="st219" d="M283.7,88L283.7,88l-0.1,0.1V88L283.7,88z"/>
	<path class="st219" d="M283.7,88.5l-0.1,0v-0.1L283.7,88.5L283.7,88.5z"/>
	<path class="st219" d="M283.6,88.1l0.1-0.1L283.6,88.1l0.1,0.1L283.6,88.1L283.6,88.1L283.6,88.1z"/>
	<path class="st219" d="M283.7,88.5l-0.1-0.1v-0.1l0,0l0.1,0L283.7,88.5L283.7,88.5z"/>
</g>
<path class="st220" d="M283.6,122.5v49.7l-32.4-15.5L283.6,122.5z"/>
<path class="st219" d="M283.6,121.7v0.8l-32.4,34.2l-0.3,0.3l-0.4-0.3l0-0.1l1.3-1.4l31.8-33.6V121.7z"/>
<path class="st219" d="M283.6,89.5v32l-31.8,33.6L283.6,89.5z"/>
<path class="st219" d="M283.6,89.2v0.3l-31.8,65.6l-1.3,1.4l0,0.1l-0.1,0l31.4-64.7L283.6,89.2z"/>
<path class="st219" d="M283.6,88.8v0.5l-1.8,2.7l1.4-2.9L283.6,88.8z"/>
<path class="st219" d="M283.6,88.5v0.3l-0.4,0.2l0.2-0.5L283.6,88.5z"/>
<path class="st219" d="M283.6,88.4v0.1l-0.2,0l0.1-0.1L283.6,88.4z"/>
<path class="st219" d="M283.6,88.3v0.1l-0.1-0.1L283.6,88.3L283.6,88.3z"/>
<path class="st219" d="M283.6,88.3L283.6,88.3L283.6,88.3L283.6,88.3L283.6,88.3L283.6,88.3z"/>
<path class="st219" d="M283.6,88.1v0.1l0,0.1l-0.1-0.1L283.6,88.1z"/>
<path class="st219" d="M283.6,88v0.1l-0.1,0.1l-0.1-0.1L283.6,88z"/>
<path class="st219" d="M283.6,87.7V88l-0.2,0l-0.2-0.5L283.6,87.7z"/>
<path class="st219" d="M283.6,87.3v0.5l-0.4-0.3l-1.4-2.9L283.6,87.3z"/>
<path class="st219" d="M283.6,86.9v0.3l-1.8-2.7l-31.4-64.8l0.1-0.1l0,0.1l1.3,1.4L283.6,86.9z"/>
<path class="st220" d="M283.6,54.9v32l-31.8-65.6L283.6,54.9z"/>
<path class="st219" d="M283.6,54.8v0.1l-31.8-33.6l-1.3-1.4l0-0.1l0.4-0.3l26.9,28.4l5.8,6.1V54.8z"/>
<path class="st219" d="M283.6,4.4V54l-5.8-6.1l-26.6-28.1L283.6,4.4z"/>
<path class="st219" d="M283.5,88.2L283.5,88.2l-0.1,0.1l-0.2-0.1l0.2-0.1L283.5,88.2z"/>
<path class="st219" d="M283.4,88l0.1,0.1l-0.2,0.1l-0.4-0.2L283.4,88z"/>
<path class="st219" d="M283.5,88.4l-0.1,0.1l-0.5,0l0.4-0.2L283.5,88.4z"/>
<path class="st219" d="M283.4,88.5l-0.2,0.5l-0.3,0.1l0,0l-27.7,16l0-0.1l-0.2-0.1l0-0.2l-0.1,0l8.6-5l19.1-11h0l0.3-0.2L283.4,88.5
	z"/>
<path class="st219" d="M283.2,87.5l0.2,0.5l-0.5,0l-0.3-0.1h0l-27.7-16l0.1,0l0-0.2l0.2-0.1l0-0.1l27.7,16L283.2,87.5z"/>
<path class="st219" d="M282.9,88l0.4,0.2l-0.4,0.2l-3.2-0.2L282.9,88z"/>
<path class="st219" d="M283.2,87.5l-0.3-0.2L242,27l-0.6-1.9l40.3,59.5L283.2,87.5z"/>
<path class="st219" d="M283.2,89l-1.4,2.9l-40.3,59.5l0.6-1.9l40.9-60.3l0,0L283.2,89z"/>
<path class="st219" d="M242,27l40.9,60.3l-27.7-16l0-0.1L242,27z"/>
<path class="st220" d="M282.9,89.2L242,149.5l13-43.7l0.2-0.6L282.9,89.2z"/>
<path class="st219" d="M282.6,87.9l0.3,0.1l-3.2,0.2l-71.7-5.2l1.9-0.5L282.6,87.9L282.6,87.9z"/>
<path class="st219" d="M282.9,88.5l-0.3,0.2l-72.7,5.2l30.9,7.4l-32.8-7.9l-0.1,0.1l0-0.1l71.8-5.2L282.9,88.5z"/>
<path class="st219" d="M282.6,88.6l-19.1,11L282.6,88.6L282.6,88.6z"/>
<path class="st220" d="M254.9,71.8l27.7,16l-72.7-5.2L254.9,71.8L254.9,71.8z"/>
<path class="st219" d="M282.6,88.6l-19.1,11l-8.6,5h0l-14.1-3.4l-30.9-7.4L282.6,88.6z"/>
<path class="st219" d="M255.1,71.3l0,0.1l-0.2,0.1l0-0.3L255.1,71.3z"/>
<path class="st219" d="M255.2,105.1l0,0.1l-0.1,0.1l0-0.3L255.2,105.1z"/>
<path class="st219" d="M255.1,71.2L255.1,71.2L255.1,71.2l-0.7-0.4v0L241,25.6l-0.1-0.4l0.5-0.2l0.1,0L242,27l0,0L255.1,71.2z"/>
<path class="st219" d="M255,105.2l0.1-0.1l-0.2,0.6l-13,43.8l0,0l-0.6,1.9l-0.1,0l-0.4-0.2l0.1-0.4l6.7-22.4l6.8-22.8v0L255,105.2z"
	/>
<path class="st219" d="M242,27l13.1,44.2L242,27L242,27z"/>
<path class="st219" d="M255,71.3l0,0.3l-0.3,0.2l-0.1-0.2l-0.1-0.3l0.3-0.1L255,71.3z"/>
<path class="st219" d="M255,104.9l0,0.3l-0.2,0l-0.3-0.1l0.1-0.3l0.1-0.2L255,104.9z"/>
<path class="st219" d="M255,71.3l-0.2,0l-0.3,0.1l-0.1-0.4L255,71.3z"/>
<path class="st219" d="M255,105.2l-0.6,0.4l0.1-0.4l0.3,0.1L255,105.2z"/>
<path class="st219" d="M255,71.6l0,0.2l-0.1,0h0l-0.1,0L255,71.6z"/>
<path class="st219" d="M255,104.9l-0.3-0.2l0.1-0.1h0l0.1,0L255,104.9z"/>
<path class="st219" d="M255,105.8l-13,43.7l0,0L255,105.8z"/>
<path class="st219" d="M240.8,101.3l14.1,3.4l-0.1,0.1l-0.6,0.4l-33.2-7.9l-12.7-3l-0.4-0.1l0-0.5l0.1-0.1L240.8,101.3z"/>
<path class="st219" d="M254.9,71.8L254.9,71.8L254.9,71.8L254.9,71.8z"/>
<path class="st219" d="M254.8,71.8L254.8,71.8l-45,10.8l-1.9,0.5l-0.1-0.1l0-0.5l0.4-0.1l45.9-11L254.8,71.8L254.8,71.8z"/>
<path class="st219" d="M254.6,71.6l0.1,0.2l-0.6-0.4l0.4-0.1L254.6,71.6z"/>
<path class="st219" d="M254.8,104.7l-0.1,0.2l-0.1,0.3l-0.4-0.1v0L254.8,104.7z"/>
<path class="st219" d="M254.4,70.9l0.1,0.4l-0.4,0.1l-43-24.8l-0.4-0.2l0-0.4l0.3-0.2l0.4,0.3L254.4,70.9z"/>
<path class="st219" d="M254.5,105.2l-0.1,0.4v0h0l-43,24.8l-0.4,0.3l-0.3-0.2l0-0.4l0.4-0.2l43-24.8h0L254.5,105.2z"/>
<path class="st219" d="M254.4,70.9L254.4,70.9l-43-24.8L254.4,70.9z"/>
<path class="st219" d="M254.4,105.6l-6.8,22.8L254.4,105.6L254.4,105.6z"/>
<path class="st220" d="M241,25.6l13.4,45.2l-43-24.8L241,25.6z"/>
<path class="st219" d="M254.4,105.6l-6.8,22.8l-6.7,22.4l-29.6-20.4L254.4,105.6z"/>
<path class="st219" d="M254.1,105.1L254.1,105.1L254.1,105.1L254.1,105.1z"/>
<path class="st219" d="M254.1,71.4l-45.9,11l2.9-35.8L254.1,71.4z"/>
<path class="st219" d="M254.1,105.1L254.1,105.1l-33.2-7.9L254.1,105.1z"/>
<path class="st220" d="M220.9,97.1l33.1,8l-43,24.8l-2.9-35.8L220.9,97.1z"/>
<path class="st219" d="M241.4,151.4L241.4,151.4l-0.1,0L241.4,151.4z"/>
<path class="st219" d="M241.4,25L241.4,25L241.4,25L241.4,25z"/>
<path class="st219" d="M241,24.9l0.3,0.1l-0.5,0.2l0.1,0.4L211.4,46l-0.4-0.3l-0.3,0.2l0-0.2L241,24.9z"/>
<path class="st219" d="M240.9,151.2l0.4,0.2l-0.3,0.1l-30.3-20.9l0-0.1l0.3,0.2l0.4-0.3l29.6,20.4L240.9,151.2z"/>
<path class="st219" d="M208.2,94.1l2.9,35.8l-0.4,0.2l0,0.4l-0.1-0.1l-2.9-36.7l0.3-0.2l0,0.5L208.2,94.1z"/>
<path class="st219" d="M211.1,46.6l-2.9,35.8l-0.4,0.1l0,0.5l-0.3-0.2l2.9-36.7l0.1-0.1l0,0.4L211.1,46.6z"/>
<path class="st219" d="M207.9,83.1L207.9,83.1L207.9,83.1L207.9,83.1z"/>
<path class="st1" d="M283.6,173.1l-33.3-15.8l-0.1-0.5l33.3-35.1l0.5,0.2v50.9L283.6,173.1z M251,157l32.5,15.5v-49.7L251,157z"/>
<path class="st1" d="M283.6,173.3L283.6,173.3l-33.4-15.9l-0.1-0.6l0.1,0l33.3-35.2l0.7,0.3V173L283.6,173.3z M250.5,157.2
	l33.1,15.8l0.3-0.2v-50.8l-0.3-0.1l-33.1,35L250.5,157.2z M283.6,172.6L250.7,157l0.1-0.1l32.7-34.5V172.6z M251.2,156.9l32,15.2
	v-49L251.2,156.9z"/>
<path class="st1" d="M250.7,157.3l-0.5-0.3l33.3-68.6l0.6,0.1V122l-0.1,0.2L250.7,157.3z M283.4,89.8l-31.8,65.6l31.8-33.6V89.8z"/>
<path class="st1" d="M250.7,157.5L250,157l0.1-0.1l33.3-68.7l0.8,0.2V122l-0.1,0.3L250.7,157.5z M250.4,156.9l0.3,0.2l33.2-35
	l0.1-0.1V88.6l-0.3-0.1L250.4,156.9z M251,156.3l0.4-0.9l32.1-66.2v32.8v0L251,156.3z M283.3,90.5l-31.1,64.1l31.1-32.8V90.5z"/>
<path class="st1" d="M283.9,173.1l-0.4-0.3V122l0.5-0.2l33.3,35.1l-0.1,0.5L283.9,173.1z M284,122.7v49.7l32.5-15.4L284,122.7z"/>
<path class="st1" d="M283.8,173.3l-0.6-0.4v-51.1l0.7-0.3l0.1,0.1l33.3,35.1l-0.1,0.6h-0.1L283.8,173.3z M283.6,172.8l0.3,0.2
	l33.1-15.8l0.1-0.3l-33.2-35l-0.3,0.1V172.8z M283.9,172.6v-50.3l32.9,34.7l-0.2,0.1L283.9,172.6z M284.2,123.1v49l32-15.2
	L284.2,123.1z"/>
<path class="st1" d="M316.8,157.3l-33.3-35.1l-0.1-0.2V88.5l0.6-0.1l33.3,68.5L316.8,157.3z M284,121.8l31.8,33.6L284,89.8V121.8z"
	/>
<path class="st1" d="M316.7,157.5l-0.1-0.1l-33.3-35.1l-0.1-0.3V88.4l0.8-0.2l0.1,0.1l33.3,68.7L316.7,157.5z M283.6,122.1l33.1,35
	l0.3-0.2l-33.2-68.3l-0.3,0.1v33.3L283.6,122.1z M316.4,156.3l-0.7-0.7l-31.9-33.6V89.1L316.4,156.3z M284.2,121.8l31.1,32.8
	l-31.1-64.1V121.8z"/>
<path class="st1" d="M326.6,151.8l-0.5-0.2l-13.8-46.4l0.4-0.4l44.1,25.5v0.5L326.6,151.8z M313.2,105.8l13.4,45.2l29.6-20.4
	L313.2,105.8z"/>
<path class="st1" d="M326.6,152l-0.6-0.2v-0.1l-13.8-46.5l0.6-0.5h0.1l44.2,25.5v0.7H357L326.6,152z M326.3,151.5l0.3,0.1l30.2-20.8
	v-0.3l-43.9-25.4l-0.3,0.2L326.3,151.5z M326.5,151.3l-0.1-0.2l-13.5-45.6l0.3,0.2l43.2,25l-0.2,0.1L326.5,151.3z M313.5,106.2
	l13.3,44.6l29.2-20.1L313.5,106.2z"/>
<path class="st1" d="M326.2,151.8l-42.7-63.1l0.4-0.4l29,16.7l0.1,0.2l13.8,46.4L326.2,151.8z M284.7,89.4l40.9,60.4l-13.2-44.4
	L284.7,89.4z"/>
<path class="st1" d="M326.1,152l-0.1-0.1l-42.8-63.2l0.6-0.6l0.1,0.1l29,16.8l0.2,0.2l13.8,46.5L326.1,152z M283.7,88.7l42.6,62.9
	l0.3-0.1l-13.7-46.2l-0.1-0.1l-28.8-16.7L283.7,88.7z M326,150.7L284.2,89l28.4,16.4v0.1L326,150.7z M285.2,89.9l40,59l-12.9-43.4
	L285.2,89.9z"/>
<path class="st1" d="M356.6,131l-44.1-25.5l0.1-0.5l47-11.3L360,94l-2.9,36.7L356.6,131z M313.5,105.4l43,24.8l2.9-35.8L313.5,105.4
	z"/>
<path class="st1" d="M356.6,131.1L356.6,131.1l-44.3-25.5l0.1-0.8h0.1l47.1-11.3l0.5,0.4l-2.9,36.8L356.6,131.1z M312.7,105.4
	l43.9,25.4l0.3-0.1l2.9-36.6l-0.3-0.2l-46.8,11.2L312.7,105.4z M356.7,130.4l-43.6-25.2l0.4-0.1l46.1-11L356.7,130.4z M313.9,105.4
	l42.5,24.5l2.8-35.4L313.9,105.4z"/>
<path class="st1" d="M312.8,105.5h-0.2l-29-16.7l0.2-0.6l76,5.5v0.6L312.8,105.5z M285,88.9l27.7,16l45-10.8L285,88.9z"/>
<path class="st1" d="M312.8,105.7l-0.3,0l-29.1-16.8l0.3-0.8h0.1l76.1,5.5l0.1,0.9h-0.1L312.8,105.7z M312.6,105.4h0.2l46.9-11.2
	v-0.3l-75.7-5.4l-0.1,0.3L312.6,105.4z M312.7,105.1l-28.4-16.4l74.4,5.4l-1,0.2L312.7,105.1z M285.7,89.1l27.1,15.6l44-10.5
	L285.7,89.1z"/>
<path class="st1" d="M359.6,83.3l-47-11.3l-0.1-0.5l44.1-25.5l0.5,0.2L360,83L359.6,83.3z M313.5,71.7l45.9,11l-2.9-35.8L313.5,71.7
	z"/>
<path class="st1" d="M359.7,83.5L359.7,83.5l-47.2-11.3l-0.1-0.8l0.1-0.1l44.2-25.5l0.6,0.3v0.1l2.9,36.8L359.7,83.5z M312.8,71.9
	l46.8,11.2l0.3-0.2l-2.9-36.6l-0.3-0.1l-43.9,25.4L312.8,71.9z M359.6,82.9l-0.2,0l-46.3-11.1l0.3-0.2l43.2-25v0.3L359.6,82.9z
	 M313.9,71.6l45.3,10.9l-2.8-35.4L313.9,71.6z"/>
<path class="st1" d="M283.7,88.8l-0.2-0.6l29-16.7h0.2l47,11.3v0.6L283.7,88.8z M312.7,72.1l-27.7,16l72.8-5.2L312.7,72.1z"/>
<path class="st1" d="M283.6,89l-0.3-0.8l0.1-0.1l29-16.8h0.3l47.1,11.3l-0.1,0.9h-0.1L283.6,89z M283.8,88.4l0.1,0.3l75.7-5.5v-0.3
	l-46.9-11.2h-0.2L283.8,88.4z M284.4,88.4l0.6-0.3l27.8-16h0.1l46,11l-1,0.1L284.4,88.4z M312.8,72.3L285.7,88l71.1-5.1L312.8,72.3z
	"/>
<path class="st1" d="M312.8,72l-0.4-0.4l13.8-46.4l0.5-0.2L357,46.1v0.5L312.8,72z M326.6,25.9l-13.4,45.3l43-24.8L326.6,25.9z"/>
<path class="st1" d="M312.8,72.2l-0.6-0.5v-0.1L326,25.2l0.6-0.2h0.1l30.4,21v0.7l-0.1,0.1L312.8,72.2z M312.6,71.6l0.3,0.2
	l43.9-25.4v-0.3l-30.2-20.8l-0.3,0.1L312.6,71.6z M312.9,71.5l13.6-45.8l0.2,0.1l29.8,20.5l-0.2,0.1L312.9,71.5z M326.7,26.2
	l-13.3,44.7l42.5-24.5L326.7,26.2z"/>
<path class="st1" d="M283.9,88.8l-0.4-0.4l42.7-63.1l0.5,0.3L313,71.9l-0.1,0.2L283.9,88.8z M325.6,27.2l-40.9,60.4l27.7-16
	L325.6,27.2z"/>
<path class="st1" d="M283.8,89l-0.6-0.6l0.1-0.1l42.8-63.2l0.8,0.4v0.1L313.1,72l-0.2,0.2L283.8,89z M283.7,88.4l0.2,0.3L312.7,72
	l0.1-0.1l13.7-46.2l-0.3-0.1L283.7,88.4z M284.2,88.1l0.4-0.6L326,26.3l-0.3,0.9l-13.2,44.4h0L284.2,88.1z M325.2,28.2l-40,59
	l27.1-15.6L325.2,28.2z"/>
<path class="st1" d="M283.9,55.3l-0.5-0.2V4.1l0.4-0.3l33.3,15.8l0.1,0.5L283.9,55.3z M284,4.6v49.7L316.5,20L284,4.6z"/>
<path class="st1" d="M284,55.4l-0.7-0.3V4.1l0.6-0.4h0.1l33.3,15.9l0.1,0.6L284,55.4z M283.6,54.9l0.3,0.1L317,20.1l-0.1-0.3
	L283.9,4l-0.3,0.2L283.6,54.9z M283.9,54.7V4.4L316.7,20l-0.1,0.1L283.9,54.7z M284.2,4.9v49l32-33.8L284.2,4.9z"/>
<path class="st1" d="M284,88.6l-0.6-0.1V55.1l0.1-0.2l33.3-35.1l0.5,0.3L284,88.6z M284,55.2v32l31.8-65.6L284,55.2z"/>
<path class="st1" d="M284.1,88.8l-0.8-0.2V55l0.1-0.3l33.4-35.2l0.7,0.5l-0.1,0.1L284.1,88.8z M283.6,88.4l0.3,0.1l33.2-68.3
	l-0.3-0.2l-33.1,35l-0.1,0.2V88.4z M283.9,87.9V55.1l0-0.1l32.5-34.3l-0.4,0.9L283.9,87.9z M284.2,55.2v31.3l31.1-64.1L284.2,55.2z"
	/>
<path class="st1" d="M283.5,55.3l-33.3-35.1l0.1-0.5l33.3-15.8l0.4,0.3v50.9L283.5,55.3z M251,20l32.5,34.2V4.6L251,20z"/>
<path class="st1" d="M283.5,55.4L283.5,55.4l-33.4-35.2l0.1-0.6h0.1l33.3-15.9l0.6,0.4v51.1L283.5,55.4z M250.4,20.1l33.1,34.9
	l0.3-0.1V4.2L283.6,4l-33.1,15.8L250.4,20.1z M283.6,54.7l-0.3-0.3L250.7,20l0.2-0.1l32.7-15.6V54.7z M251.2,20.1l32,33.8v-49
	L251.2,20.1z"/>
<path class="st1" d="M283.5,88.6l-33.3-68.6l0.5-0.3l33.3,35.1l0.1,0.2v33.5L283.5,88.6z M251.6,21.6l31.8,65.6v-32L251.6,21.6z"/>
<path class="st1" d="M283.4,88.8l0-0.1L250,20l0.7-0.5l0.1,0.1l33.3,35.1l0.1,0.3v33.6L283.4,88.8z M250.4,20.1l33.1,68.3l0.3-0.1
	V55.1l-0.1-0.2l-33.1-35L250.4,20.1z M283.5,87.9L251,20.8l32.6,34.4L283.5,87.9z M252.1,22.4l31.1,64.1V55.2L252.1,22.4z"/>
<path class="st1" d="M254.6,72l-44.1-25.4v-0.5l30.3-20.9l0.5,0.2L255,71.7L254.6,72z M211.2,46.3l43,24.8l-13.4-45.2L211.2,46.3z"
	/>
<path class="st1" d="M254.6,72.2L254.6,72.2l-44.3-25.5V46h0.1l30.4-21l0.6,0.2v0.1l13.8,46.4L254.6,72.2z M210.6,46.5l43.9,25.4
	l0.3-0.2l-13.7-46.2l-0.3-0.1l-30.2,20.8L210.6,46.5z M254.5,71.5l-0.3-0.2l-43.2-25l0.2-0.1l29.8-20.5l0.1,0.2L254.5,71.5z
	 M211.5,46.3L254,70.8l-13.3-44.6L211.5,46.3z"/>
<path class="st1" d="M283.6,88.8l-29-16.7l-0.1-0.2l-13.7-46.4l0.5-0.3L284,88.3L283.6,88.8z M255,71.6l27.7,16l-40.9-60.4L255,71.6
	z"/>
<path class="st1" d="M283.6,89l-0.1-0.1l-29-16.8l-0.2-0.2l-13.8-46.5l0.8-0.4l0.1,0.1l42.8,63.2L283.6,89z M254.7,72l28.9,16.6
	l0.2-0.3l-42.6-62.9l-0.3,0.1l13.7,46.2L254.7,72z M283.2,88.1l-28.4-16.4v-0.1l-13.5-45.4L283.2,88.1z M255.1,71.6l27.1,15.6
	l-40-59L255.1,71.6z"/>
<path class="st1" d="M207.8,83.3l-0.4-0.3l2.9-36.7l0.4-0.2l44.1,25.5l-0.1,0.5L207.8,83.3z M210.9,46.8l-2.9,35.8l45.9-11
	L210.9,46.8z"/>
<path class="st1" d="M207.8,83.5l-0.5-0.4V83l2.9-36.8l0.6-0.3l0.1,0.1l44.2,25.5l-0.1,0.8h-0.1L207.8,83.5z M207.6,83l0.3,0.2
	l46.8-11.2v-0.3l-43.9-25.4l-0.3,0.1L207.6,83z M207.9,82.9l2.9-36.3l43.6,25.2l-0.4,0.1L207.9,82.9z M211.1,47.1l-2.8,35.4
	l45.3-10.9L211.1,47.1z"/>
<path class="st1" d="M283.7,88.8l-76-5.5v-0.6l47-11.3h0.2l29,16.7L283.7,88.8z M209.7,82.9l72.7,5.2l-27.7-16L209.7,82.9z"/>
<path class="st1" d="M283.8,89h-0.1l-76.1-5.5l-0.1-0.9h0.1l47-11.3l0.3,0L284,88.2L283.8,89z M207.8,83.2l75.7,5.5l0.1-0.3
	l-28.9-16.7h-0.2l-46.9,11.2L207.8,83.2z M283,88.3L208.7,83l1-0.2L254.8,72h0.1L283,88.3z M210.6,82.8l71.1,5.1l-27.1-15.6
	L210.6,82.8z"/>
<path class="st1" d="M210.8,131l-0.4-0.2L207.4,94l0.4-0.3l47,11.3l0.1,0.5L210.8,131z M208.1,94.4l2.9,35.8l43-24.8L208.1,94.4z"/>
<path class="st1" d="M210.8,131.1l-0.6-0.3v-0.1l-2.9-36.8l0.5-0.4h0.1l47.2,11.3l0.1,0.8l-0.1,0.1L210.8,131.1z M210.5,130.6
	l0.3,0.1l43.9-25.4v-0.3l-46.8-11.2l-0.3,0.2L210.5,130.6z M210.8,130.4v-0.3l-2.9-36h0.2l46.3,11.1l-0.3,0.2L210.8,130.4z
	 M208.2,94.6l2.8,35.4l42.5-24.5L208.2,94.6z"/>
<path class="st1" d="M254.7,105.5l-47-11.3v-0.6l76-5.5l0.2,0.6l-29,16.7L254.7,105.5z M209.7,94.1l45,10.8l27.7-16L209.7,94.1z"/>
<path class="st1" d="M254.7,105.7l-47.2-11.3l0.1-0.9h0.1l76.1-5.5l0.2,0.8l-0.1,0.1l-29,16.8L254.7,105.7z M207.8,94.1l46.9,11.2
	h0.2l28.8-16.7l-0.1-0.3l-75.7,5.4L207.8,94.1z M254.7,105.1L254.7,105.1l-46.1-11l1-0.1l73.4-5.3l-0.6,0.3L254.7,105.1z
	 M210.7,94.2l44,10.5l27.1-15.6L210.7,94.2z"/>
<path class="st1" d="M240.8,151.8l-30.3-20.9v-0.5l44.1-25.4l0.4,0.4l-13.8,46.4L240.8,151.8z M211.2,130.7l29.6,20.4l13.4-45.2
	L211.2,130.7z"/>
<path class="st1" d="M240.8,152L240.8,152l-30.5-21v-0.7h0.1l44.2-25.5l0.6,0.5v0.1l-13.8,46.4L240.8,152z M210.6,130.9l30.2,20.8
	l0.3-0.1l13.7-46.2l-0.3-0.2l-43.9,25.4L210.6,130.9z M240.9,151.3l-0.2-0.1l-29.8-20.5l43.6-25.1L240.9,151.3z M211.5,130.7
	l29.2,20.1l13.3-44.6L211.5,130.7z"/>
<path class="st1" d="M241.2,151.8l-0.5-0.3l13.8-46.4l0.1-0.2l29-16.7l0.4,0.4L241.2,151.8z M255,105.4l-13.2,44.4l40.9-60.4
	L255,105.4z"/>
<path class="st1" d="M241.3,152l-0.8-0.4v-0.1l13.8-46.4l0.2-0.2l29.1-16.8l0.6,0.6l-0.1,0.1L241.3,152z M240.9,151.5l0.3,0.1
	l42.6-62.9l-0.2-0.3l-28.9,16.6l-0.1,0.1L240.9,151.5z M241.4,150.8l13.5-45.4L283.2,89l-0.4,0.6L241.4,150.8z M255.1,105.6
	l-12.9,43.4l40-59L255.1,105.6z"/>
<path class="st221" d="M160.9,74.2c6.5,0,11.7,5.1,11.8,11.6v3.8c-0.1,6.5-5.4,11.6-11.8,11.6h-27.8v19.4h-7.7V74.2H160.9z
	 M165,89.6v-3.8c0-2.2-1.9-4-4.1-4.1h-27.8v11.9h27.8C163.1,93.6,165,91.8,165,89.6"/>
<path class="st1" d="M133.1,121.9h-7.7c-0.7,0-1.2-0.6-1.2-1.2V74.2c0-0.7,0.6-1.2,1.2-1.2c0,0,0,0,0,0h35.5c7.1,0,13,5.7,13.1,12.8
	v3.8c-0.1,7.1-5.9,12.9-13.1,12.8h-26.6v18.2C134.3,121.3,133.8,121.8,133.1,121.9L133.1,121.9z M126.7,119.4h5.2v-18.2
	c0-0.7,0.6-1.2,1.2-1.2l0,0h27.8c5.8,0.1,10.5-4.6,10.6-10.4v-3.8c-0.1-5.8-4.8-10.4-10.6-10.4h-34.2V119.4z M160.9,94.9h-27.8
	c-0.7,0-1.2-0.6-1.2-1.2l0,0V81.7c0-0.7,0.6-1.2,1.2-1.2l0,0h27.8c2.9,0,5.3,2.4,5.4,5.3v3.8C166.2,92.5,163.8,94.9,160.9,94.9
	L160.9,94.9z M134.3,92.4h26.6c1.6,0,2.9-1.3,2.9-2.8v-3.8c0-1.6-1.3-2.8-2.9-2.8h-26.6V92.4z"/>
<path class="st221" d="M240.1,89.6c-0.1,6.5-5.4,11.6-11.8,11.6h-2.1l13.9,19.4h-9.5l-13.9-19.4h-16.2v19.4h-7.7V74.2h35.5
	c6.5,0,11.7,5.1,11.8,11.6V89.6z M200.5,93.6h27.8c2.3,0,4.1-1.8,4.1-4.1v-3.8c0-2.3-1.9-4.1-4.1-4.1h-27.8V93.6z"/>
<path class="st1" d="M240.1,121.9h-9.5c-0.4,0-0.8-0.2-1-0.5L216,102.4h-14.3v18.2c0,0.7-0.6,1.2-1.2,1.2h-7.7
	c-0.7,0-1.2-0.6-1.2-1.2V74.2c0-0.7,0.6-1.2,1.2-1.2l0,0h35.5c7.1,0,13,5.7,13.1,12.8v3.8c-0.1,7-5.8,12.7-12.8,12.8l12.6,17.5
	c0.4,0.5,0.3,1.3-0.2,1.7C240.6,121.8,240.4,121.9,240.1,121.9L240.1,121.9z M231.2,119.4h6.4l-12.6-17.5c-0.4-0.6-0.3-1.3,0.3-1.7
	c0.2-0.1,0.4-0.2,0.7-0.2h2.1c5.8,0,10.5-4.6,10.6-10.4v-3.8c-0.1-5.8-4.8-10.4-10.6-10.4H194v43.9h5.2v-18.2c0-0.7,0.6-1.2,1.2-1.2
	l0,0h16.2c0.4,0,0.8,0.2,1,0.5L231.2,119.4z M228.2,94.9h-27.8c-0.7,0-1.2-0.6-1.2-1.2l0,0V81.7c0-0.7,0.6-1.2,1.2-1.2l0,0h27.8
	c2.9,0,5.3,2.4,5.4,5.3v3.8C233.6,92.5,231.2,94.9,228.2,94.9L228.2,94.9z M201.7,92.4h26.5c1.6,0,2.9-1.3,2.9-2.8v-3.8
	c0-1.6-1.3-2.8-2.9-2.8h-26.5L201.7,92.4z"/>
<path class="st221" d="M278.3,131.6c-0.7,0-1.2-0.6-1.2-1.2c0,0,0,0,0,0v-26.9l-20.6-15c-4.6-3.2-7.4-8.5-7.5-14.2v-9.9
	c0-0.7,0.5-1.2,1.2-1.2c0,0,0,0,0,0h10.9c0.7,0,1.2,0.6,1.2,1.2c0,0,0,0,0,0v9.9c0,1.6,0.9,3.1,2.3,3.9l0.2,0.1l18.9,13.6l18.9-13.6
	c0.1,0,0.1-0.1,0.2-0.1c1.4-0.8,2.3-2.2,2.3-3.9v-9.9c0-0.7,0.6-1.2,1.2-1.2h10.9c0.7,0,1.2,0.6,1.2,1.2c0,0,0,0,0,0v9.9
	c-0.1,5.7-2.8,11-7.5,14.2l-20.6,15v26.9c0,0.7-0.6,1.2-1.2,1.2c0,0,0,0,0,0L278.3,131.6z"/>
<path class="st1" d="M317.4,64.4v9.9c-0.1,5.3-2.7,10.2-7,13.2l-21.2,15.3v27.5h-10.9v-27.5l-21.2-15.3c-4.3-3-6.9-7.9-7-13.2v-9.9
	h10.9v9.9c0,2.1,1.1,4,3,5l19.6,14.1l19.7-14.1c1.8-1,3-2.9,3-5v-9.9H317.4 M317.3,62h-10.9c-1.4,0-2.5,1.1-2.5,2.5l0,0v9.9
	c0,1.1-0.6,2.2-1.6,2.7c-0.1,0.1-0.2,0.1-0.4,0.2l-18.2,13.1l-18.2-13.1c-0.1-0.1-0.2-0.1-0.4-0.2c-1-0.5-1.6-1.6-1.6-2.7v-9.9
	c0-1.4-1.1-2.5-2.4-2.5c0,0,0,0,0,0h-10.9c-1.4,0-2.5,1.1-2.5,2.5c0,0,0,0,0,0v9.9c0,6.1,3,11.7,8,15.2l20.1,14.6v26.3
	c0,1.4,1.1,2.5,2.5,2.5h10.9c1.4,0,2.5-1.1,2.5-2.5v-26.3l20.1-14.6c5-3.5,7.9-9.1,8-15.2v-9.9C319.9,63.1,318.8,62,317.3,62
	C317.4,62,317.4,62,317.3,62L317.3,62z"/>
<path class="st221" d="M329.8,121.9c-0.7,0-1.2-0.6-1.2-1.2v-7.5c0-0.7,0.6-1.2,1.2-1.2c0,0,0,0,0,0h33.3c1.6,0,2.9-1.3,2.9-2.8
	v-3.8c0-1.6-1.3-2.8-2.9-2.8h-23.9c-7.1,0-13-5.7-13-12.8v-3.8c0.1-7.1,5.9-12.8,13-12.8h33.3c0.7,0,1.2,0.6,1.2,1.2c0,0,0,0,0,0
	v7.5c0,0.7-0.6,1.2-1.2,1.2c0,0,0,0,0,0h-33.3c-1.6,0-2.9,1.3-2.9,2.8v3.8c0,1.6,1.3,2.8,2.9,2.8h23.9c7.1,0,13,5.7,13,12.8v3.7
	c-0.1,7.1-5.9,12.9-13,12.8L329.8,121.9z"/>
<path class="st1" d="M372.5,74.2v7.5h-33.3c-2.3,0-4.1,1.8-4.1,4.1v3.8c0,2.3,1.9,4.1,4.1,4.1h23.9c6.5,0,11.7,5.1,11.8,11.6v3.8
	c-0.1,6.5-5.4,11.6-11.8,11.6h-33.3v-7.5h33.3c2.3,0,4.1-1.8,4.1-4.1v-3.8c0-2.3-1.9-4.1-4.1-4.1h-23.9c-6.5,0-11.7-5.1-11.8-11.6
	v-3.8c0.1-6.5,5.4-11.6,11.8-11.6L372.5,74.2 M372.5,71.7h-33.3c-7.8,0-14.2,6.2-14.3,14.1v3.8c0.1,7.8,6.5,14.1,14.3,14.1h23.9
	c0.9,0,1.6,0.7,1.7,1.6v3.8c0,0.9-0.8,1.6-1.7,1.6h-33.3c-1.4,0-2.5,1.1-2.5,2.5v7.5c0,1.4,1.1,2.5,2.5,2.5h33.3
	c7.8,0,14.2-6.2,14.3-14.1v-3.8c-0.1-7.8-6.5-14.1-14.3-14.1h-23.9c-0.9,0-1.6-0.7-1.7-1.6v-3.8c0.1-0.9,0.8-1.6,1.7-1.6h33.3
	c1.4,0,2.5-1.1,2.5-2.5v-7.5C375,72.8,373.9,71.7,372.5,71.7z"/>
<path class="st221" d="M434.5,121.9c-0.7,0-1.2-0.6-1.2-1.2V93.2l-10,14.5c-0.2,0.3-0.6,0.5-1,0.5h-7.3c-0.4,0-0.8-0.2-1-0.5
	l-10-14.5v27.4c0,0.7-0.5,1.2-1.2,1.2H395c-0.7,0-1.2-0.6-1.2-1.2V74.2c0-0.7,0.6-1.2,1.2-1.2c0,0,0,0,0,0h7.7c0.4,0,0.8,0.2,1,0.5
	L418.5,96l14.9-22.5c0.2-0.3,0.6-0.5,1-0.5h7.7c0.7,0,1.2,0.5,1.2,1.2v46.4c0,0.7-0.6,1.2-1.2,1.2H434.5z"/>
<path class="st1" d="M442.1,74.2v46.4h-7.7V89.2L422.2,107h-7.3l-12.3-17.8v31.4h-7.7V74.2h7.7l16,24l16-24L442.1,74.2 M442.2,71.8
	h-7.7c-0.8,0-1.6,0.4-2,1.1l-13.9,20.9l-13.9-20.9c-0.5-0.7-1.2-1.1-2-1.1H395c-1.4,0-2.5,1.1-2.5,2.5v46.4c0,1.4,1.1,2.5,2.5,2.5
	h7.7c1.4,0,2.5-1.1,2.5-2.5V97.1l7.8,11.3c0.5,0.7,1.2,1.1,2,1.1h7.3c0.8,0,1.5-0.4,2-1.1l7.8-11.3v23.5c0,1.4,1.1,2.5,2.5,2.5h7.7
	c1.4,0,2.5-1.1,2.5-2.5V74.2C444.7,72.8,443.6,71.7,442.2,71.8L442.2,71.8z"/>
</svg>
