<?xml version="1.0" encoding="utf-8"?>
<!-- Generator: Adobe Illustrator 22.1.0, SVG Export Plug-In . SVG Version: 6.00 Build 0)  -->
<svg version="1.1" id="Capa_1" xmlns="http://www.w3.org/2000/svg" xmlns:xlink="http://www.w3.org/1999/xlink" x="0px" y="0px"
	 viewBox="0 0 815.6 387.7" style="enable-background:new 0 0 815.6 387.7;" xml:space="preserve">
<style type="text/css">
	.st0{fill:#FFFFFF;}
	.st1{fill:#1D1D1B;}
	.st2{fill:#E52320;}
	.st3{fill:none;}
	.st4{font-family:'ArialMT';}
	.st5{font-size:50.9796px;}
	.st6{font-size:51px;}
	.st7{font-size:50.9285px;}
	.st8{font-size:51.2366px;}
	.st9{font-size:51.3304px;}
	.st10{font-size:51.0025px;}
</style>
<path class="st0" d="M789.8,199.6c-0.6-1.2-1.6-3-5-8c-0.1-0.1-0.2-0.3-0.3-0.4c1.1-0.5,2.2-0.9,3.3-1.1c1.7-0.3,3.4-0.5,5.2-0.6
	l13-0.5l-14.5-34.3l-7.5,1.9c-9.6,2.4-16.8,5-21.9,8c-1.4,0.8-2.8,1.8-4,2.9l-5.4-12.8l-7.5,1.9c-9.6,2.4-16.8,5-21.9,8
	c-1.7,1-3.4,2.2-4.8,3.6c-7.8-6.9-18.4-10.5-31.7-10.5c-11.9,0-22.6,4.3-31.8,12.9c-2.9-3.8-6.8-6.8-11.2-8.6
	c-3.4-1.5-6.9-2.6-10.5-3.2c-0.8-0.1-2.1-0.3-9-0.8c-2-0.2-3.8-0.3-5.5-0.3c-7.7,0.1-15.3,0.8-22.9,2l-9.5,1.5l2.6,27.2
	c-4.2,9.1-7.1,15.9-7.1,15.9s0-2.3,0-3.6c0-0.3,0-0.6,0-0.8v-0.4l-0.1-2.4c0-0.4,0-0.9-0.1-1.4c0-0.8-0.1-1.5-0.1-2.3
	c0-0.4-0.1-0.9-0.1-1.4c-0.1-0.8-0.1-1.6-0.2-2.3l-0.1-1.3c-0.1-0.9-0.2-1.8-0.3-2.7l-0.1-0.8c-0.2-1.1-0.3-2.3-0.5-3.5
	c0-0.2-0.1-0.5-0.1-0.7l-0.1-0.4c-0.1-0.8-0.3-1.7-0.4-2.5l-0.2-1.3c-0.1-0.7-0.3-1.5-0.4-2.2c-0.1-0.4-0.2-0.9-0.3-1.4
	c-0.2-0.7-0.3-1.4-0.5-2.1l-0.3-1.3c-0.2-0.8-0.4-1.6-0.6-2.3l-0.3-1.1c-0.3-1.1-0.6-2.3-0.9-3.3l-0.2-0.7c-0.3-0.9-0.5-1.7-0.8-2.6
	l-0.4-1.3c-0.2-0.7-0.4-1.4-0.7-2.1l-0.5-1.3c-0.2-0.6-0.5-1.3-0.7-2l-0.5-1.3c-0.3-0.7-0.5-1.4-0.8-2l-0.5-1.2
	c-0.3-0.9-0.7-1.7-1.1-2.6l-0.3-0.7c-0.4-0.9-0.8-1.9-1.3-3l-0.5-1.2c-0.3-0.6-0.6-1.3-0.9-1.9l-0.6-1.3c-0.3-0.6-0.6-1.2-0.9-1.8
	s-0.4-0.9-0.7-1.3l-0.9-1.8l-0.1-0.3c-0.2-0.3-0.3-0.7-0.5-1l-1.1-2l-0.2-0.3l-0.4-0.7c-0.5-0.9-1.1-1.9-1.7-2.8l-0.6-1
	c-0.4-0.6-0.8-1.2-1.2-1.8c-0.2-0.3-0.4-0.7-0.7-1l-0.1-0.2l-1.2-1.6c-0.3-0.4-0.6-0.8-0.8-1.2s-0.7-1.1-1.1-1.6l-0.2-0.2l-0.7-1
	l-1.2-1.6l-0.2-0.3l-0.6-0.8c-0.2-0.3-0.4-0.5-0.6-0.7c-1.8-10.6-5.4-30.1-10.2-48.6c-9.5-36.3-17.8-44.6-23.8-47.8l-8.3-4.3
	l-5.1,7.8c-5.8,8.9-14.2,22.6-25,40.7l-0.6-0.2l-0.7-0.2l-1.6-0.5l-1.3-0.4l-0.5-0.2l-1.7-0.5l-1.4-0.4l-0.3-0.1
	c-0.6-0.2-1.3-0.3-1.9-0.5l-1.6-0.4l-1.9-0.5l-1.7-0.4l-1.9-0.4l-1.7-0.3l-1.9-0.4l-1.7-0.3l-2-0.3l-1.7-0.3l-2-0.3h-0.2l-1.5-0.2
	c-0.7-0.1-1.4-0.2-2.1-0.2h-0.3l-1.3-0.1l-2-0.2l-0.5-0.1l-1.2-0.1c-0.7,0-1.3-0.1-2-0.1h-0.7l-1-0.1l-2.5-0.1h-0.4h-0.8
	c-2.6-0.1-5-0.1-7.6,0h-1h-0.8l-2,0.1l-1.3,0.1l-1,0.1l-1.5,0.1l-1.5,0.1l-0.9,0.1l-1.3,0.1l-1.8,0.2l-0.8,0.1l-1.1,0.1l-2.2,0.3
	l-0.5,0l-1,0.1c-0.8,0.1-1.6,0.3-2.4,0.4l-1.2,0.2l-2.5,0.5l-1,0.2l-2.7,0.6l-0.9,0.2l-2.8,0.7l-0.7,0.2c-1,0.2-1.9,0.5-2.9,0.8
	l-0.6,0.2c-1,0.3-2,0.6-3,0.9l-0.4,0.1c-1,0.3-2,0.6-3.1,1l-0.3,0.1c-0.8,0.3-1.6,0.5-2.4,0.8L349,4.5l-9,15.9
	c-4.3,7.6-41.5,74.6-43.2,111.4c-0.4,0.7-0.7,1.4-1.1,2.1l-0.1,0.2c-2.1,4.1-4.1,8.4-5.9,12.7l-0.2,0.4c-0.6,1.4-1.1,2.7-1.6,4.1
	l-0.1,0.2c-0.6,1.7-1.2,3.4-1.8,5.1l-20.1,3.2c-1.3,0.2-2.7,0.3-4,0.4c-0.3,0-0.6,0-0.8,0l-0.8-0.1l-8.4,0.8l-2.3,4
	c-1.3,2.3-2.4,4.6-3.4,7l-4.3,9.9c-1,2.3-1.8,4.1-2.4,5.4c0-0.1,0-0.3,0-0.4c0-4.5-0.2-9.2-0.5-14.1l-1.1-15.1l-8.8,0.5
	c-5.5,0.3-9.6,0.5-12.4,0.6l-3.8,0.1l-2.5,2.9c-5.4,6-10.5,12.4-15.2,19v0.1c1.6-3.3,3.2-6.3,4.8-9.2l7.9-14.3l-16.3,1
	c-4.9,0.3-9.3,0.7-13,1.1l-6.6,0.6l-2.3,4.1c-2.3,4.2-4.3,7.9-6.1,11.2c-0.9-4.1-1.9-8.3-2.9-12.4l-2.1-8.5l-18,4.1l0.1-0.2
	l-12.5,0.2c-6.2,0.1-13.5,0.5-21.8,1.1l-9,0.7l0.7-2.2l-12.7,0.4c-12.5,0.4-21.7,0.8-27.3,1.1c-9.4,0.6-17.6,1.1-24.3,1.6l-6.2,0.5
	l-9.9,33.6l7-0.8c-2.5,5.9-4.8,11.8-6.9,17.5c-1.6,4.6-3.5,10.6-5.6,17.8c-2.9,10.3-2.9,10.9-2.9,12.3v10.8L20,251
	c6.6-1.1,12.5-2,17.6-2.5l7-0.7l1-7c1.2-7.8,3.1-15.4,5.7-22.8l13.8-0.4l-0.9,3.1l-9.9,33.7l13.7-1.8c12.9-1.7,21.3-2.7,24.8-2.9
	c1.2-0.1,3.7-0.1,9-0.2l-1.3,4.7l36.7-9l-1.3,6.9l25.3-6.1l-2.2,8.4l35.5-8.7l-2.2,7.1l28.9-7v6.9l10.4-1.7
	c13.3-2.2,23.4-3.3,30-3.3h2.9h7.5l6.6,0.1l3.5-10.5c0.6,2.9,1.3,5.7,2.1,8.5c0.3,1.2,0.7,2.4,1.1,3.6c1.5,4.7,3.2,9.4,5.1,13.9
	c0.5,1.1,1,2.3,1.5,3.4c4.5,10.1,10.1,19.6,16.7,28.5c0.7,1,1.5,1.9,2.2,2.9c1.5,1.9,3,3.8,4.6,5.6c0.8,0.9,1.6,1.8,2.4,2.7
	c1.6,1.8,3.3,3.6,5,5.3c0.9,0.9,1.7,1.7,2.6,2.5c5.3,5,10.9,9.7,16.9,13.9c1,0.7,2,1.4,3,2.1c13.1,8.9,27.4,15.6,42.6,20
	c-0.7,1.8-1.3,3.7-1.7,5.6c-1.3,6.1,0.1,12.4,3.9,17.4c4.3,5.5,10.6,9.1,17.5,10h1c7.8,0,21.9-7.4,28.4-27.2
	c27.9-1.2,54.9-10.2,78-25.8c1-0.7,2-1.4,3-2.1c8.9-6.3,17.1-13.6,24.5-21.7c0.8-0.9,1.6-1.8,2.4-2.7c1.6-1.8,3.1-3.7,4.6-5.6
	c0.8-1,1.5-1.9,2.2-2.9c9.9-13.2,17.6-28,22.8-43.7l10.1-1.3c3.6-0.5,7.6-1,11.7-1.4l11.5-1.3c11.8-1.3,12.3-1.4,12.6-1.4l0.8-0.1
	c9.9-2.2,17.5-7.2,22.3-14.4c1.1,2.1,2.5,4.2,4,6c6.8,8.4,16.2,12.6,28,12.6c10.9,0,20.3-3,28.2-9l2.5,13.2l9.3-2.3
	c10.5-2.6,18.1-5.6,23.2-9c1.3-0.9,2.6-1.8,3.7-2.7l2.6,14l9.3-2.3c10.5-2.6,18.1-5.6,23.2-9c10.1-6.6,15.7-15.2,16.6-25.3v-2
	c0-4.3-1.3-9.5-4.2-16L789.8,199.6z"/>
<path class="st1" d="M36.9,239.6c-5.3,0.6-11.4,1.4-18.2,2.6V242c0-0.5,0.9-3.7,2.6-9.8c2-7,3.8-12.8,5.4-17.2
	c2.7-7.4,5.7-14.9,9.1-22.5c1.3-2.9,2.7-5.8,4.4-8.9c-3.4,0.4-6.6,0.8-9.6,1.1l4.3-14.5c6.7-0.5,14.8-1.1,24.1-1.6
	c5.6-0.3,14.6-0.7,27-1.1l-4.4,14.1h-5.6c-10.5,0-18.6,0.2-24.6,0.7l3.1,1.8c-0.5,1.1-1.7,3.9-3.6,8.4c-0.5,1.2-1.1,2.5-1.8,4.1
	l20.9-0.8l-4.4,12.7l-20.6,0.7c-0.7,2.4-1.3,4.2-1.8,5.6C40.2,222.8,38.2,231.1,36.9,239.6L36.9,239.6z"/>
<path class="st1" d="M81.7,228.2l1.6-5.5c0.4-1.3,1.2-3.8,2.5-7.7c2.7-7.6,5.7-15.1,9.2-22.5c1-2.4,2.7-5.8,4.9-10.1
	c-3.5,0.6-8.9,1.4-16.1,2.4l4.3-14.5c5.1-0.5,11.5-1,19.2-1.6c8.1-0.6,15.1-1,21.2-1.1l-4.5,14.1c-6.2,0-11.1,0.1-14.8,0.2l4.2,2.3
	c-1,1.9-2.2,4.7-3.7,8.4c-1.8,4.6-4.4,12.1-7.7,22.5c-1.2,3.9-2.3,7.9-3.4,12c1-0.1,2.8-0.2,5.4-0.3l7.5-0.3l-4.5,14.2
	c-7.6,0-12.5,0.1-14.8,0.2c-3.7,0.3-12.2,1.3-25.4,3l4.3-14.6l4.9-0.5L81.7,228.2z"/>
<path class="st1" d="M134.4,169.1l17.8-4c3.3,13,5.9,26.2,7.6,39.5c0.2,0,1-1.5,2.2-4.5l2-4.7c2.1-4.9,6.7-13.9,13.9-26.9l2-0.2
	c3.7-0.4,7.9-0.8,12.6-1.1c-4.3,7.9-8.9,17.2-13.7,28.1c-1.7,3.9-4.2,11.4-7.6,22.5c-0.9,3-2.7,8.9-5.3,17.9l-18.5,4.5
	c0.2-1,0.2-2.1,0.2-3.2c-0.2-9.3-1.1-18.5-2.6-27.7c-0.6-4.5-1.2-6.8-1.7-6.8l-6.4,15.3c-2.7,6.2-4.5,12.8-5.2,19.6l-18.4,4.5
	c2.2-7.9,4.6-16,7.2-24.1c2.7-7.6,5.7-15.2,9.2-22.5c1.7-3.9,4.2-8.8,7.4-14.6c0.2-0.5,0.3-0.9,0.3-1.4c-0.2-1.7-0.6-3.4-1.3-5.1
	C135.1,171.3,134.6,169.6,134.4,169.1L134.4,169.1z"/>
<path class="st1" d="M213.1,218.1l-14.8,0.7c-3.5,5.9-6.3,12.3-8.3,18.8l-18.4,4.5c0.5-2,2.9-7.3,7.2-15.9l4.4-9
	c4.2-8.5,10.7-18.9,19.7-31.3c4.5-6.3,9.3-12.4,14.5-18.2c2.8-0.1,7-0.3,12.5-0.6l0.4,6.2c0.3,4.7,0.4,9.2,0.4,13.5
	c0,8-0.6,15.9-1.9,23.8c-0.4,1.3-1.4,6.5-2.9,15.8c-0.6,3.9-1.2,7-1.9,9.4l-18.4,4.5C207.1,236.2,209.5,228.8,213.1,218.1z
	 M218.1,183.1c-1.7,2.3-5.2,8-10.4,16.9l-4.4,7.4l9.9-0.2l2.2,1.8c1.9-4.1,2.8-11.6,2.8-22.5C218.2,184.8,218.2,183.7,218.1,183.1
	L218.1,183.1z"/>
<path class="st1" d="M260.7,196.6c-0.3,1.2-1.2,3.9-2.5,8.3l-4,12.7c-1.1,3.5-1.9,6.3-2.5,8.4c5.6-0.3,14.1-0.7,25.3-1.3l-4.6,14
	c-2.9,0-5.4,0-7.6,0h-2.9c-7.1,0-17.6,1.1-31.4,3.4V242c0-0.5,0.9-3.7,2.6-9.8c2-7.1,3.8-12.8,5.4-17.2c2.7-7.4,5.7-14.9,9.1-22.5
	c0.6-1.3,1.6-3.6,3.1-7l4.3-10c0.8-2.1,1.8-4.1,2.9-6.1l3.1-0.3c0.5,0,0.9,0.1,1.5,0.1c1.8,0,3.5-0.2,5.3-0.4l4.6-0.7
	c-0.4,0.7-1.4,3.2-3.1,7.5l-6.9,17.3C261.7,194.1,261.2,195.4,260.7,196.6L260.7,196.6z"/>
<path class="st1" d="M637.7,205.5c1.9,3.6,2.8,6,2.8,7.5c0,1.3-0.2,2.5-0.4,3.8c-2.1,11-9.1,17.8-20.8,20.4
	c-0.5,0.1-4.6,0.5-12.4,1.4l-11.5,1.3c-4.2,0.5-8.2,1-11.8,1.5c2.3-8.7,5-17.7,8.1-27c2.7-7.6,5.7-15.2,9.2-22.5
	c0.8-1.8,2.1-4.3,3.6-7.4c-1.3,0.4-2.5,0.8-3.5,1l-3.5-16.6c7.1-1.2,14.3-1.8,21.6-1.9c1.4,0,3,0.1,4.7,0.2c4.8,0.4,7.5,0.6,8.3,0.7
	c2.9,0.5,5.8,1.4,8.5,2.6c6.8,2.8,10.2,7.6,10.2,14.5c0,1.3-0.2,2.5-0.4,3.7C648.8,195.4,644.6,201,637.7,205.5L637.7,205.5z
	 M625.2,215.1c0-2.6-1.7-4.5-5.2-5.8c-1.6-0.5-3.3-0.7-5-0.6h-1.3c-0.3,0-0.6,0-0.8-0.1c-0.2,0-0.5-0.1-0.7-0.1
	c-0.8,0.1-1.5,0.2-2.2,0.5l-1,3c-1,1.9-2.2,4.5-3.5,7.6c-0.2,0.6-0.9,2.3-1.9,5.2h4.2c3.7,0,7.4-0.7,10.9-1.9
	C623,221.3,625.2,218.6,625.2,215.1L625.2,215.1z M635.3,187.1c0-2.6-1.7-4.5-5.2-5.8c-1.6-0.5-3.2-0.7-4.9-0.6h-1.3
	c-2.8,0.2-5.5,0.8-8.2,1.6l3.5,1.8c-1.4,2.5-2.6,5-3.6,7.6c-0.1,0.2-0.8,2-2,5.2l4.2-0.1c3.7,0,7.5-0.6,11-1.9
	C633.1,193.2,635.3,190.6,635.3,187.1L635.3,187.1z"/>
<path class="st1" d="M718.4,181.9l-4.2,2.8c1.2,3.2,1.9,6.6,2,10c-0.1,2.8-0.4,5.6-0.9,8.4c-1.9,11.3-6.1,20.3-12.6,27
	c-7.1,7.4-16.1,11.1-27.1,11.1c-9,0-16-3.1-21.1-9.3c-4.7-5.8-7-13.2-7-22.4c0-2.1,0.1-4.2,0.3-6.3c1.1-9.8,5.7-18.8,12.9-25.4
	c7.6-7.2,16.4-10.9,26.2-10.9C701.8,166.8,712.3,171.8,718.4,181.9z M699.1,204.9c0.2-1.1,0.4-2.2,0.4-3.4c0-3.7-1.1-6.6-3.4-8.6
	l3-1.7c-2.6-5.4-7.1-8-13.3-8c-5.9-0.2-11.7,2-16,6.2c-4,3.9-6.5,9.1-7.5,15.6c-0.2,1.3-0.3,2.5-0.3,3.8c-0.1,4.5,1.4,9,4.3,12.5
	c2.8,3.6,7.1,5.6,11.7,5.5c5.6,0.1,10.9-2.4,14.4-6.7C695.9,215.7,698.2,210.5,699.1,204.9L699.1,204.9z"/>
<path class="st1" d="M754,180.5c-2.3,0.1-4.6,0.3-6.8,0.8c-4.8,1.1-8.2,3-10.2,5.8c-0.6,0.9-1,1.9-1,3c0,1.8,0.9,4,2.8,6.6
	c1.5,2.1,3,4.3,4.3,6.6c2.3,5.3,3.4,9.4,3.4,12.4v1.2c-0.7,7.3-4.9,13.6-12.6,18.7c-4.2,2.8-11,5.4-20.4,7.8l-3.4-18.1
	c3.3-0.4,6.5-1.1,9.6-2.1c6.7-2.3,10-5.4,10-9.2v-0.6c-0.1-2.3-0.7-4.5-1.8-6.6c-0.7-1-1.9-2.9-3.6-5.6c-3-4.8-4.6-9-4.6-12.5
	c0-7.5,2.8-13,8.5-16.3c4.3-2.5,10.9-4.9,19.6-7L754,180.5z"/>
<path class="st1" d="M792.9,180.5c-2.3,0.1-4.6,0.3-6.8,0.8c-4.8,1.1-8.2,3-10.2,5.8c-0.6,0.9-1,1.9-1,3c0,1.8,0.9,4,2.8,6.6
	c1.5,2.1,3,4.3,4.3,6.6c2.3,5.3,3.4,9.4,3.4,12.4v1.2c-0.7,7.3-4.9,13.6-12.6,18.7c-4.2,2.8-11,5.4-20.4,7.8l-3.4-18.1
	c3.3-0.4,6.5-1.1,9.6-2.1c6.7-2.3,10-5.4,10-9.2v-0.6c-0.1-2.3-0.7-4.5-1.8-6.6c-0.7-1-1.9-2.9-3.6-5.6c-3-4.8-4.6-8.9-4.6-12.5
	c0-7.5,2.8-13,8.5-16.3c4.3-2.5,10.9-4.9,19.6-7L792.9,180.5z"/>
<circle class="st2" cx="430.3" cy="204.4" r="140.9"/>
<path class="st1" d="M430.3,347.2c-78.7,0-142.8-64-142.8-142.8S351.6,61.6,430.3,61.6s142.8,64,142.8,142.8S509,347.2,430.3,347.2z
	 M430.3,65.3c-76.7,0-139.1,62.4-139.1,139.1s62.4,139.1,139.1,139.1s139.1-62.4,139.1-139.1S507,65.3,430.3,65.3L430.3,65.3z"/>
<path class="st1" d="M521.8,211.6c3.9-50.5-33.9-94.7-84.4-98.6s-94.7,33.9-98.6,84.4l0,0c-3.6,46.1,28.6,87,72.5,96.8
	c4,10.6,7.3,24.3,7.4,34.6c0,19.3-3,40-11.3,39.4s-6.4-13.4-5.2-15.4s8.4-5.5,4.7,7.1c0,0,5.9-4.8,4.1-9.2s-13.3-6.8-15.9,6.8
	c-2.3,11.5,9.6,16.4,13.2,16.7s17.8-5.4,21.9-28.3c2.5-13.7,9.3-34.7,11.3-50.3C486.3,292.6,518.3,257.6,521.8,211.6L521.8,211.6z"
	/>
<path class="st2" d="M512.3,25.5c-7.2,11-17.6,28.2-28.5,46.6l-1.9,3.2c-23,38.9-47.2,81.7-47.2,81.7H423l-45.6-81.2l-1.8-3.2
	l-26.4-47.1c0,0-40,71-41.9,106.5c0.5-0.8,1-1.6,1.4-2.4c6.4-10.3,14.1-19.8,22.8-28.2l1.6-1.5l1.4-6.3l1.5,3.7l1.4,3.6l71.8,179
	c0,0,14.3,9.8,20.9,0c5.7,8.2,16.5-6.3,16.5-6.3l73.5-175.1l1.5-3.5l2-4.8l0.6,7.1c0.5,0.4,0.9,0.8,1.4,1.2
	c4.9,4.4,9.5,9.1,13.7,14.1c0.5,0.6,1.1,1.3,1.6,1.9C537.5,93.8,526,32.6,512.3,25.5L512.3,25.5z"/>
<path class="st1" d="M422.4,219.9c-6.5-4.2-13.3-8-20.4-11.3c-11.3-5.3-19-7.6-22.2-11c-0.9-6.1,38.6-29.2,38.6-29.2
	s-32.5,26.1-33,27.4c0.3,3.3,25.1,9.6,35.8,20.5c4.3-1.1,5-8.8,5-8.8S426.8,219.3,422.4,219.9L422.4,219.9z"/>
<path class="st1" d="M405,217.6c2.9,0.6,5.8-1.1,6.7-4c-0.6-1.2-9-5.5-9-5.5s-2.3,2.1-2,4.9C401.1,215.2,402.8,217,405,217.6z"/>
<path class="st0" d="M408.4,211.6c0.2,0.3,0.4,0.6,0.4,1c0,0.9-0.7,1.6-1.6,1.6c-0.9,0-1.6-0.7-1.6-1.6c0-0.9,0.7-1.6,1.6-1.6
	c0,0,0,0,0,0c0.1,0,0.2,0,0.3,0c-2-1.1-4.1-2.3-4.1-2.3c-1.1,1.1-1.7,2.6-1.7,4.1c0.3,1.9,1.6,3.5,3.5,4c2.5,0.5,4.9-1,5.7-3.4
	C410.1,212.7,409.3,212.1,408.4,211.6L408.4,211.6z"/>
<path class="st2" d="M405.6,212.6c0.1,0.9,0.8,1.5,1.7,1.4c0.8-0.1,1.4-0.7,1.4-1.4c0-0.4-0.1-0.7-0.4-1l-0.9-0.6
	c-0.1,0-0.2,0-0.3,0C406.3,211,405.6,211.7,405.6,212.6C405.6,212.6,405.6,212.6,405.6,212.6L405.6,212.6z"/>
<path class="st1" d="M432.2,219.9c6.5-4.2,13.3-8,20.4-11.3c11.3-5.3,19-7.6,22.2-11c0.9-6.1-38.6-29.2-38.6-29.2s32.5,26.1,33,27.4
	c-0.3,3.3-25.1,9.6-35.8,20.5c-4.3-1.1-5-8.8-5-8.8S427.8,219.4,432.2,219.9L432.2,219.9z"/>
<path class="st1" d="M450.8,217c-3,0.6-5.9-1.2-6.7-4.1c0.6-1.2,9-5.5,9-5.5s2.3,2.1,2,4.9C454.7,214.6,453,216.4,450.8,217
	L450.8,217z"/>
<path class="st0" d="M452.4,208.2c0,0-2.1,1.1-4.1,2.3c0.1,0,0.2-0.1,0.3-0.1c0.9,0,1.6,0.7,1.6,1.6s-0.7,1.6-1.6,1.6
	c-0.9,0-1.6-0.7-1.6-1.6c0,0,0,0,0,0c0-0.4,0.1-0.7,0.4-1c-0.9,0.5-1.8,1.1-2.5,1.8c0.7,2.4,3.2,3.9,5.7,3.4c1.9-0.5,3.3-2.1,3.5-4
	C454.2,210.7,453.5,209.3,452.4,208.2L452.4,208.2z"/>
<path class="st2" d="M448.6,213.5c0.9-0.1,1.5-0.8,1.4-1.7c-0.1-0.8-0.7-1.4-1.4-1.4c-0.1,0-0.2,0-0.3,0.1l-0.9,0.6
	c-0.2,0.3-0.4,0.6-0.4,1C447.1,212.9,447.8,213.5,448.6,213.5L448.6,213.5z"/>
<path class="st1" d="M439,238c0.1-0.3,0-0.7-0.4-0.8c-0.3-0.1-0.6,0-0.8,0.3l-7.4,11.5l0.8-26.7l5.3,2.3l-5.6-4.1
	c-0.2-0.1-0.4-0.2-0.7,0c-0.2,0.1-0.3,0.3-0.4,0.5l-0.9,30.2c0,0.3,0.3,0.6,0.6,0.6c0.2,0,0.4-0.1,0.6-0.3l5.7-8.8l-8.3,23.5
	l-7.9-23.5l5.5,8.9c0.2,0.3,0.6,0.4,0.9,0.2c0.2-0.1,0.3-0.3,0.3-0.6l-0.4-30.2c0-0.2-0.1-0.5-0.3-0.6c-0.2-0.1-0.5-0.1-0.6,0
	l-5.6,4l5.4-2.2l0.4,26.7l-7.2-11.6c-0.2-0.3-0.6-0.4-0.9-0.2c-0.3,0.2-0.4,0.5-0.3,0.8l10.2,30.5l0.6,0.6l0.5-0.8L439,238z"/>
<path class="st1" d="M458.3,245.7l0.1-7.5l-6.9,4l3.8-0.9l-26.2,37.1l-26.1-35l3.6-0.5l-7.5-3.3l1.2,8l1.2-3l27.6,37l28-39.7
	L458.3,245.7z"/>
<path d="M415.8,263.8l-8.5-11.5l8.5-18.8V263.8z M410.2,252l3.1,4.2v-10.9L410.2,252z"/>
<path class="st0" d="M408.7,252.1l5.8-12.8V260L408.7,252.1z"/>
<path d="M441.2,263.7l-1.5-27.1l9.3,16L441.2,263.7z M441.6,242.4l1.2,14.6l3.6-5.1L441.6,242.4z"/>
<path class="st0" d="M408.7,252.1l5.8-12.8V260L408.7,252.1z"/>
<path class="st0" d="M447.5,252.4l-6.7-12.3l1.4,20.6L447.5,252.4z"/>
<path d="M448.6,95.9c-0.8-7.7-5-10.4-7.4-11.4c-0.3-1.2,0.6-6.4-8-10.7c-3,0.6-8.7,2-11.8,1.4c-2-0.8-3.8-1.7-3.8-5
	c-0.1-1-2.2-0.9-2.2,0.3c0.2,2.6,1.7,5,4.1,6.2c0,0,2,15.8,0.6,19.8c-1.2,0.1-2.3,0.3-3.4,0.7c-0.3,0.3-0.4,1.6,0.7,1.5
	s9.6-0.7,10.4-0.2c0,1.3,0.1,8.1-0.4,8.6c-1.6,0.1-3.9,0.4-3.7,1.6c0.1,0.6,0.8,0.5,2.3,0.4s10.5-0.2,12.1,0.5
	C439.1,109,449.3,103.6,448.6,95.9L448.6,95.9z M433.8,94.9c0-0.6,0.6-7.7,0.6-7.7c0.3,0,0.6,0,0.9,0
	C436,91.1,434.7,93.9,433.8,94.9L433.8,94.9z M427.9,96.4c-0.2,0-0.5,0-0.7,0c0,0-0.9-9-0.7-9.8l0.6,0.5
	C427.1,87.1,428,95.8,427.9,96.4L427.9,96.4z M426.5,84.7c0.2-3.8,0.4-7.8,0.9-8.3c1.2,0.4,7,4.5,7.4,8.9
	C434.8,85.3,430,86.5,426.5,84.7L426.5,84.7z M441.5,104.9c-1.9,2.6-5.2,2.1-6.9,1.8c-0.4-0.6-0.7-9.6-0.7-9.6c3-1.6,5.3-4.9,6-5.8
	C443.1,96.8,443.3,102.4,441.5,104.9L441.5,104.9z"/>
<path class="st3" d="M434,155.6c3.1-5.5,25.5-44.8,46.8-80.9c-32.9-12.8-69.4-12.6-102.2,0.5l45.1,80.4L434,155.6z"/>
<path class="st3" d="M526.2,103.7l0.7,7.8l12.6,16.5l1.3-6.8l-0.2-1.4C536.2,114,531.4,108.7,526.2,103.7z"/>
<path class="st3" d="M331.6,101.3l2.7-12.1l2.8,7.1c11.2-9.7,23.8-17.5,37.4-23.3l-25.3-45c-6.3,11.4-37.3,69.4-40.4,101.5
	C315.2,119.2,322.8,109.7,331.6,101.3L331.6,101.3z"/>
<path class="st3" d="M329.3,111.7l0.8-3.8c-7.3,7.6-13.7,16-19.2,25C319,125.3,328,113.4,329.3,111.7L329.3,111.7z"/>
<path class="st3" d="M410.4,279c1.5,0.9,8,4.8,13.4,3.8c2.2-0.4,4.2-1.7,5.4-3.6l1-1.5l1.1,1.5c0.7,1.2,1.9,1.9,3.2,2h0.1
	c4,0,9.2-5.8,11-8.2l73.6-175.3c-10.9-9.1-23-16.4-36.1-21.8c-22.8,38.6-46.9,81.2-47.3,81.8l-0.4,0.6h-13.2l-0.4-0.6l-45.6-81.3
	C362.5,82,349.8,90,338.6,99.9L410.4,279z"/>
<path class="st3" d="M524.4,112.4l-1-11.3l-2.1-1.9l-73.4,174.9l-0.1,0.1c-0.3,0.4-7,9.4-13.2,9.4h-0.1c-1.6,0-3.1-0.7-4.2-1.8
	c-1.6,1.8-3.7,3-6,3.4c-0.8,0.1-1.6,0.2-2.4,0.2c-6.5,0-12.9-4.4-13.3-4.6l-0.3-0.2l-0.1-0.4l-71.7-178.6c-1,1-2.1,1.9-3.1,2.9
	l-1.9,8.4c-0.6,0.8-13.8,18.6-23.4,25.6l-0.7,0.5c-10.7,20.1-16.3,42.5-16.3,65.3c0,76.7,62.4,139.1,139.1,139.1
	s139.1-62.4,139.1-139.1c0-29.3-9.2-57.8-26.4-81.4l-2.1,11L524.4,112.4z"/>
<path class="st3" d="M524.5,84.8l1.2,13.5c4.9,4.4,9.5,9.1,13.7,14.1c-5.2-30.4-15.6-77.3-26.7-85.3c-7.1,11-17.2,27.6-27.7,45.4
	c12.9,5.4,24.9,12.6,35.7,21.4L524.5,84.8z"/>
<path class="st3" d="M334.9,98.3l0.2-0.2l-0.1-0.3L334.9,98.3z"/>
<path class="st3" d="M522.7,95.7l0.2,0.2l0-0.6L522.7,95.7z"/>
<path class="st3" d="M525.6,111.9l-0.8-9.5l-1.4-1.3l-2.1-1.9l-1-0.9l-73.5,175.1c0,0-10.8,14.6-16.5,6.3c-6.6,9.8-20.9,0-20.9,0
	l-71.8-179l-1,0.9c-1,1-2.1,1.9-3.1,2.9c-0.5,0.5-1.1,1.1-1.6,1.6l-1.3,6c0,0-12.2,16.4-21.5,24.1c-0.5,0.9-1,1.8-1.5,2.8
	c-10.7,20.1-16.3,42.5-16.3,65.3c0,76.7,62.4,139.1,139.1,139.1s139.1-62.4,139.1-139.1c0-29.3-9.2-57.8-26.4-81.4
	c-0.3-0.5-0.7-0.9-1-1.4l-1.8,9.3L525.6,111.9z"/>
<path class="st3" d="M434.7,156.9c0,0,24.3-42.8,47.2-81.7l-1.2-0.5c-32.9-12.8-69.4-12.6-102.2,0.5l-1.2,0.5l45.6,81.2L434.7,156.9
	z"/>
<path class="st3" d="M335.1,98.1l1-0.9l-1.5-3.7l-1.4,6.3c0.5-0.5,1.1-1,1.6-1.5L335.1,98.1z"/>
<path class="st3" d="M523,95.9l1.4,1.2l-0.6-7.1l-2,4.8l1,0.9L523,95.9z"/>
<path class="st2" d="M526.2,103.7c-0.5-0.4-0.9-0.9-1.4-1.3l0.8,9.5l14.6,19l1.8-9.3c-0.5-0.6-0.9-1.3-1.4-1.9
	C536.2,114,531.4,108.7,526.2,103.7L526.2,103.7z"/>
<path class="st2" d="M330.5,112.2l1.3-6c-0.6,0.6-1.1,1.1-1.7,1.7c-7.3,7.6-13.7,16-19.2,25c-0.7,1.1-1.4,2.3-2,3.5
	C318.4,128.6,330.5,112.2,330.5,112.2L330.5,112.2z"/>
<path d="M336.5,101.7l1-0.9l-1.4-3.6l-1,0.9l-0.2,0.2c-0.5,0.5-1.1,1-1.6,1.5l-1.4,6.4c0.5-0.5,1.1-1.1,1.6-1.6
	C334.5,103.6,335.5,102.7,336.5,101.7z"/>
<path d="M523.4,101.1l1.4,1.3l-0.5-5.3l-1.4-1.2l-0.2-0.2l-1-0.9l-1.5,3.5l1,0.9L523.4,101.1z"/>
<path d="M542.6,116.4c-0.5-0.7-1.1-1.4-1.6-2c0.7,4.2,1.1,6.7,1.1,6.7l-0.1,0.5c0.3,0.5,0.7,0.9,1,1.4
	c17.2,23.7,26.4,52.2,26.4,81.4c0,76.7-62.4,139.1-139.1,139.1s-139.1-62.5-139.1-139.2c0-22.8,5.6-45.2,16.3-65.3
	c0.5-0.9,1-1.9,1.5-2.8c-0.5,0.4-1.1,0.9-1.6,1.3c-0.1-1.9-0.2-3.8,0-5.6c-0.5,0.8-0.9,1.5-1.3,2.3c-12.1,21.4-18.5,45.6-18.5,70.2
	c0,78.7,64.1,142.8,142.8,142.8s142.8-64,142.8-142.8C573.1,172.5,562.4,141.5,542.6,116.4L542.6,116.4z"/>
<path d="M378.6,75.2c32.8-13.1,69.3-13.3,102.1-0.5l1.2,0.5l1.9-3.2l-1.2-0.5c-34-13.4-71.9-13.2-105.8,0.5l-1.2,0.5l1.8,3.2
	L378.6,75.2z"/>
<path d="M525.7,98.3c-0.5-0.4-0.9-0.8-1.4-1.2l0.5,5.3c0.5,0.4,0.9,0.9,1.4,1.3c5.2,5,10,10.3,14.4,16c0.5,0.6,0.9,1.3,1.4,1.9
	l0.1-0.5c0,0-0.4-2.5-1.1-6.7c-0.5-0.6-1-1.3-1.6-1.9C535.2,107.4,530.6,102.7,525.7,98.3L525.7,98.3z"/>
<path d="M307.4,137.6c0.5-0.4,1.1-0.8,1.6-1.3c0.7-1.2,1.3-2.3,2-3.5c5.4-9,11.9-17.4,19.2-25c0.5-0.6,1.1-1.1,1.7-1.7l1.4-6.4
	l-1.6,1.5c-8.8,8.4-16.4,17.9-22.8,28.2c-0.5,0.8-1,1.6-1.4,2.4C307.2,133.8,307.2,135.7,307.4,137.6L307.4,137.6z"/>
<path d="M524.5,84.8l-3.8,9.2l-75,178.8c-1.8,2.4-7,8.2-11,8.2h0c-1.3-0.1-2.6-0.8-3.2-2l-1.1-1.5l-1,1.5c-1.2,1.9-3.2,3.2-5.4,3.6
	c-5.5,1-12-2.8-13.4-3.8L337.2,96.3l-2.8-7.1l-2.8,12.1c1.1-1,2.2-2,3.3-3l0.1-0.5l0.1,0.3l73.1,182.1l0.1,0.4l0.3,0.2
	c0.3,0.2,6.7,4.6,13.3,4.6c0.8,0,1.6-0.1,2.4-0.2c2.3-0.4,4.4-1.6,6-3.4c1.1,1.1,2.6,1.8,4.2,1.8h0.1c6.2,0,12.9-9,13.2-9.4l0.1-0.1
	l74.9-178.4l0.2-0.4l0,0.6c0.9,0.8,1.8,1.6,2.8,2.4L524.5,84.8z"/>
<path d="M512.9,24.3l-1-0.5l-0.6,1c-7.2,11-17.7,28.3-28.6,46.8c-21.3,36-45.5,78.6-48.6,84h-10.3L376.8,72l-27.6-49.2l-1.1,2
	c-1.8,3.1-42,74.9-42.1,109.4c0.9-1.6,1.8-3.1,2.8-4.7c3.1-32.1,34.2-90.1,40.4-101.5l25.3,45l47.4,84.5l0.4,0.6h13.2l0.4-0.6
	c0.4-0.6,26.4-46.4,49.2-85c10.5-17.8,20.6-34.4,27.7-45.4c11.1,8.1,21.5,54.9,26.7,85.3c1.1,1.3,2.2,2.6,3.2,3.9
	C539.6,98.2,527.7,32,512.9,24.3L512.9,24.3z"/>
<circle class="st3" cx="430.3" cy="204.4" r="116.5"/>
<g>
	<text transform="matrix(0.3401 0.9404 -0.9404 0.3401 298.1099 242.9964)" class="st1 st4 st5">d</text>
	<text transform="matrix(0.5212 0.8535 -0.8535 0.5212 309.2699 270.9159)" class="st1 st4 st6">e</text>
	<text transform="matrix(0.7038 0.7104 -0.7104 0.7038 325.0404 294.9958)" class="st1 st4 st6">v</text>
	<text transform="matrix(0.8412 0.5408 -0.5408 0.8412 348.9702 317.266)" class="st1 st4 st7">i</text>
	<text transform="matrix(0.9257 0.3782 -0.3782 0.9257 369.2905 329.8163)" class="st1 st4 st8">l</text>
	<text transform="matrix(0.9613 -0.2756 0.2756 0.9613 459.4199 340.9558)" class="st1 st4 st6">i</text>
	<text transform="matrix(0.8843 -0.467 0.467 0.8843 482.9903 333.7862)" class="st1 st4 st9">n</text>
	<text transform="matrix(0.76 -0.65 0.65 0.76 512.81 316.3061)" class="st1 st4 st10">s</text>
	<text transform="matrix(0.6563 -0.7545 0.7545 0.6563 527.49 303.5157)" class="st1 st4 st6">i</text>
	<text transform="matrix(0.4712 -0.882 0.882 0.4712 545.1299 281.9154)" class="st1 st4 st6">d</text>
	<text transform="matrix(0.2838 -0.9589 0.9589 0.2838 558.5198 254.7354)" class="st1 st4 st6">e</text>
</g>
</svg>
