<?xml version="1.0" encoding="utf-8"?>
<!-- Generator: Adobe Illustrator 22.1.0, SVG Export Plug-In . SVG Version: 6.00 Build 0)  -->
<svg version="1.1" id="Capa_1" xmlns="http://www.w3.org/2000/svg" xmlns:xlink="http://www.w3.org/1999/xlink" x="0px" y="0px"
	 viewBox="0 0 566.9 566.9" style="enable-background:new 0 0 566.9 566.9;" xml:space="preserve">
<style type="text/css">
	.st0{fill:#D781AE;}
	.st1{fill:#4FB378;}
	.st2{fill-rule:evenodd;clip-rule:evenodd;fill:#D781AE;}
	.st3{fill:#FFFFFF;}
	.st4{fill-rule:evenodd;clip-rule:evenodd;fill:#FDD5A5;}
	.st5{fill-rule:evenodd;clip-rule:evenodd;fill:#FBC682;}
	.st6{fill-rule:evenodd;clip-rule:evenodd;}
	.st7{fill:#525251;}
	.st8{fill:#EBEBEB;}
	.st9{fill:#BE1622;stroke:#FFFFFF;stroke-width:10;stroke-miterlimit:10;}
	.st10{fill:#BE1622;stroke:#FFFFFF;stroke-width:4;stroke-miterlimit:10;}
	.st11{fill:#7C3E90;stroke:#E0DC23;stroke-miterlimit:10;}
	.st12{fill:#36A9E1;}
	.st13{fill:#72285A;}
	.st14{fill:#F39200;}
</style>
<path class="st9" d="M301,425.2c1.7-0.8,3.4-1.5,5.1-2.3c0.1-0.1,0.2-0.1,0.4-0.2c0.1,0,0.2-0.1,0.3-0.1c1.3-0.6,2.6-1.2,3.9-1.8
	c1.5-0.7,3.1-1.5,4.6-2.2c1.4-0.7,2.9-1.4,4.3-2.1c0.8-0.4,1.6-0.8,2.3-1.2c3.9-1.9,7.6-3.9,11.2-5.9c0.3-0.1,0.5-0.3,0.8-0.4
	c2-1.1,4-2.2,5.9-3.3c0.3-0.2,0.6-0.3,0.9-0.5c158.6-91.3,69.1-199.4,69.1-199.4c6,26.5-5.4,50.6-16.7,66.8
	c8.8-74.9-49.4-115.1-49.4-115.1c-69.4-63.5-21.5-114.6-21.5-114.6C197.3,89,205.6,229.2,205.6,229.2c-30.6-38.7-9.1-78.7-9.1-78.7
	c-105.8,109-19.8,187-19.8,187C147.7,314,132,284.4,132,284.4c2.3,91.9,77.3,126.8,122.5,139.5c0,0,0.1,0,0.1,0
	c7,2,13.3,3.4,18.5,4.4c0,0,0,0,0,0c5.2,1,9.2,1.7,11.8,2c0,0,0.1,0,0.1,0c0,0,0.1,0,0.1,0c0,0,0,0,0,0c0.3,0,0.6,0.1,0.8,0.1
	c0,0,0.1,0,0.1,0c0.2,0,0.4,0.1,0.6,0.1c0.1,0,0.1,0,0.2,0c0.1,0,0.3,0,0.4,0c0,0,0,0,0.1,0c0.1,0,0.1,0,0.2,0c0.1,0,0.2,0,0.3,0
	c0,0,0.1,0,0.1,0c0.1,0,0.1,0,0.1,0c0,0,0,0,0.1,0c0.1,0,0.1,0,0.1,0c3-1.3,6-2.5,8.9-3.8c0.2-0.1,0.4-0.2,0.7-0.3
	C298.9,426.1,299.9,425.6,301,425.2z"/>
<g>
	<polygon class="st10" points="72.7,522 77.6,512.9 69.9,467.6 54.3,494.8 37.1,466.9 28.9,512.9 36.3,522 7.1,522 16.9,512.5 
		26.9,452.5 14.4,435.8 53.7,435.8 45.9,444.2 58.1,463 66.6,449.1 65.8,445.4 59.8,435.8 95.5,435.8 90.7,444.9 101.9,512.4 
		108.9,522 	"/>
	<path class="st10" d="M107.7,522l5.9-8.3v-55.6l-5.8-8.4H171l-6.6,16.8l-2.6-2.2V484l-17-5.2h-9.1v32.5h19.1l9.7-8.6l6.3,19.2
		H107.7z M144.8,467.7l15.6-4.6l-3.4-2.9h-21.3v7.6H144.8z"/>
	<polygon class="st10" points="173.9,521.9 182.4,513.5 182.4,465.4 169.6,449.6 204.8,449.6 199.5,457.3 228.4,492.7 228.4,457.7 
		219.9,449.6 248.1,449.6 239.7,457.7 239.7,513.4 248,521.7 217.8,521.7 222.8,514.5 193.6,478.8 193.6,513.6 201.9,521.9 	"/>
	<path class="st10" d="M251,513.5v-55.5l-5.7-8.3h30.1c11.5,0,21.5,3.5,29.7,10.5c8.3,7,12.5,15.7,12.5,25.6
		c0,9.9-4.2,18.5-12.5,25.5c-8.2,6.9-18.2,10.5-29.7,10.5l-30.1,0.1L251,513.5z M273.2,511.2c6.5-0.5,11.6-3,15.6-7.7
		c4.5-5.4,6.6-11.2,6.6-17.8c0-6.5-2.2-12.3-6.7-17.7c-3.9-4.8-9-7.4-15.5-7.8V511.2z"/>
	<path class="st10" d="M363.9,524.1c-11.8,0-22.1-3.6-30.5-10.8c-8.5-7.2-12.8-16.1-12.8-26.3c0-10.3,4.3-19.2,12.8-26.5
		c8.4-7.2,18.6-10.9,30.5-10.9c11.8,0,21.9,3.7,30.3,10.9c8.4,7.3,12.7,16.2,12.7,26.5c0,10.2-4.3,19.1-12.7,26.3
		C385.8,520.5,375.6,524.1,363.9,524.1z M358,460.8c-0.7,0-1.5,0.1-2.2,0.2c-0.7,0.1-1.4,0.3-2.1,0.5c-3.4,1.2-6,3.4-7.8,6.9
		c-1.9,3.6-2.8,7.7-2.8,12.2c0,1.4,0.1,2.7,0.3,4.1c0.2,1.4,0.4,2.8,0.8,4.2c0.2,0.8,0.3,1.4,0.5,2.1c0.2,0.7,0.5,1.4,0.7,2.1
		c2,5,4.9,9.3,8.7,12.8c3.7,3.5,7.6,5.7,11.6,6.6c0.8,0.2,1.4,0.4,2,0.4c0.6,0.1,1.3,0.1,1.9,0.1c0.7,0,1.5-0.1,2.3-0.2
		c0.7-0.1,1.4-0.3,2.1-0.5c3.5-1.1,6-3.4,7.8-6.9c1.9-3.6,2.9-7.8,2.9-12.3c0-1.3-0.1-2.7-0.3-4c-0.2-1.3-0.4-2.7-0.8-4
		c-0.2-0.7-0.3-1.4-0.5-2.1c-0.2-0.7-0.4-1.3-0.7-1.9c-2-5-4.9-9.2-8.6-12.8c-3.7-3.5-7.5-5.8-11.5-6.9c-0.8-0.2-1.5-0.4-2.2-0.5
		C359.3,460.9,358.6,460.8,358,460.8z"/>
	<polygon class="st10" points="408,522 443.3,460.4 426.3,460.4 411.9,467.5 418.8,449.6 472.9,449.6 437.5,511.4 460.2,511.4 
		474.5,504.3 467.9,522 	"/>
	<path class="st10" d="M520.5,521.9l5.3-7.9l-3.5-8.7h-29.3l-3.8,8.6l8.1,7.9h-28.7l9.4-8.7l23.1-52.8h-6.6l-8.5,7.3v-17.9h54.8v18
		l-8.4-7.4h-5.4l24.5,52.7l8.5,8.9H520.5z M517.8,494.6l-9.8-24.1l-10.4,24.1H517.8z"/>
</g>
<path class="st3" d="M335.1,334.8c0,0,13.8,0.3,13.8,8.7c0-11.6-4.5-13.7-7.2-17.3c2.6-3.6,7.2-4.6,7.2-17.5
	c0,8.4-13.8,8.9-13.8,8.9h-41.4c0,0,0-14.1,0-31.2h72.1c0,0,13.8,0.3,13.8,8.7c0-11.6-4.5-13.7-7.2-17.3c2.6-3.6,7.2-4.3,7.2-17.3
	c0,8.4-13.8,8.7-13.8,8.7h-72.1c0-19.2,0-37.8,0-42.3c0-10,3.8-10.2,10.5-15.6c-19.7,0.3-21,10.5-21,10.5v-0.2c0,0-1.3-10.2-21-10.5
	c6.6,5.4,10.5,5.6,10.5,15.6c0,4.5,0,23.2,0,42.4h-71.7c0,0-13.8-0.3-13.8-8.7c0,13,4.5,13.7,7.2,17.3c-2.6,3.6-7.2,5.7-7.2,17.3
	c0-8.4,13.8-8.7,13.8-8.7h71.7c0,17.1,0,31.2,0,31.2h-41.4c0,0-13.8-0.3-13.8-8.7c0,13,4.5,13.7,7.2,17.3c-2.6,3.6-7.2,5.7-7.2,17.3
	c0-8.4,13.8-8.7,13.8-8.7h41.4c0,0,0,54.6,0,93.4c0.1,0,0.2,0,0.3,0.1c0,0,0,0,0,0c5.2,1,9.2,1.7,11.8,2c0,0,0.1,0,0.1,0
	c0,0,0.1,0,0.1,0c0,0,0,0,0,0c0.3,0,0.6,0.1,0.8,0.1c0,0,0.1,0,0.1,0c0.2,0,0.4,0.1,0.6,0.1c0.1,0,0.1,0,0.2,0c0.1,0,0.3,0,0.4,0
	c0,0,0,0,0.1,0c0.1,0,0.1,0,0.2,0c0.1,0,0.2,0,0.3,0c0,0,0.1,0,0.1,0c0.1,0,0.1,0,0.1,0c0,0,0,0,0.1,0c0.1,0,0.1,0,0.1,0
	c1.9-0.8,3.7-1.5,5.5-2.3c0-38.8,0-93.5,0-93.5H335.1z"/>
</svg>
