<svg id="Capa_1" data-name="Capa 1" xmlns="http://www.w3.org/2000/svg" viewBox="0 0 566.93 566.93"><defs><style>.cls-1,.cls-3{fill:#d360a5;}.cls-2{fill:#51b362;}.cls-3,.cls-5,.cls-6,.cls-7{fill-rule:evenodd;}.cls-4{fill:#fff;}.cls-5{fill:#fdcc8a;}.cls-6{fill:#fdbb63;}.cls-8{fill:#2d2d2d;}.cls-9{fill:#e3e3e3;}</style></defs><title>Kozmo</title><path class="cls-1" d="M145.61,279.57s-36.11,11-33.27,45.75,8.09,86.19-12.17,104.13-48,32.78-70.24-1.85,17.7-63.28,25-47.93-4.64,27-4.64,27,2.61,9.89,10-.94,6.93-25.13,2-33.1S27,355.7,10.74,394C2.62,413.06,9,431.55,20.75,446a2.53,2.53,0,0,0,.46,1.81,2.17,2.17,0,0,0,2.06,1.13c.65.73,1.31,1.44,2,2.14a86.78,86.78,0,0,0,8.56,7.75c9.66,7.69,20.44,13,29.58,15C97.43,481.2,138,450,149.13,416s3.45-44.22,20.82-61.46,25.67-18.87,25.67-18.87c5.43-1.41-18.89-27.09-22.6-31.48S149.34,277.21,145.61,279.57Z"/><path class="cls-1" d="M556.19,394c-16.24-38.25-46.63-29.28-51.6-21.3s-5.47,22.27,2,33.1,10,.94,10,.94-12-11.67-4.64-27S559.24,393,537,427.6s-50,19.79-70.24,1.85-15-69.36-12.17-104.13-33.27-45.75-33.27-45.75c-3.73-2.36-23.71,20.21-27.41,24.61s-28,30.07-22.6,31.48c0,0,8.29,1.62,25.67,18.87S406.64,382,417.8,416s51.7,65.21,85.74,57.85c9.14-2,19.92-7.32,29.58-15a86.78,86.78,0,0,0,8.56-7.75c.67-.7,1.33-1.41,2-2.14a2.18,2.18,0,0,0,2.06-1.13,2.58,2.58,0,0,0,.46-1.81C558,431.55,564.31,413.06,556.19,394Z"/><path class="cls-2" d="M285.07,416.69,166.34,479.11a5.59,5.59,0,0,1-8.1-5.89L180.92,341a5.57,5.57,0,0,0-1.61-4.94l-96-93.63a5.59,5.59,0,0,1,3.09-9.53L219.1,213.62a5.57,5.57,0,0,0,4.2-3.05L282.67,90.28a5.58,5.58,0,0,1,10,0l59.37,120.29a5.55,5.55,0,0,0,4.2,3.05L489,232.91a5.59,5.59,0,0,1,3.09,9.53l-96,93.63a5.57,5.57,0,0,0-1.61,4.94l22.68,132.21a5.59,5.59,0,0,1-8.11,5.89L290.27,416.69A5.56,5.56,0,0,0,285.07,416.69Z"/><path class="cls-1" d="M163.74,482.48a8.34,8.34,0,0,1-8.18-9.72l22.68-132.21a2.87,2.87,0,0,0-.82-2.53L81.36,244.39A8.3,8.3,0,0,1,86,230.23L218.7,210.94a2.87,2.87,0,0,0,2.16-1.57L280.23,89.08a8.3,8.3,0,0,1,14.89,0l59.36,120.29a2.91,2.91,0,0,0,2.16,1.57l132.75,19.29a8.3,8.3,0,0,1,4.6,14.16L397.93,338a2.87,2.87,0,0,0-.82,2.53l22.67,132.21a8.3,8.3,0,0,1-12,8.75L289,419.09a2.87,2.87,0,0,0-2.67,0L167.61,481.51A8.25,8.25,0,0,1,163.74,482.48Zm123.93-69.15a8.27,8.27,0,0,1,3.87,1l118.73,62.42a2.87,2.87,0,0,0,4.16-3L391.76,341.47a8.25,8.25,0,0,1,2.38-7.34L490.2,240.5a2.88,2.88,0,0,0-1.59-4.9L355.86,216.31a8.3,8.3,0,0,1-6.25-4.54L290.25,91.48a2.87,2.87,0,0,0-5.15,0L225.74,211.77a8.3,8.3,0,0,1-6.25,4.54L86.74,235.6a2.87,2.87,0,0,0-1.59,4.9l96.06,93.63a8.27,8.27,0,0,1,2.38,7.34L160.92,473.68a2.87,2.87,0,0,0,4.16,3l118.73-62.42A8.26,8.26,0,0,1,287.67,413.33Z"/><path class="cls-3" d="M287.67,208.87c57.36,0,113.69,20.22,113.69,82.94S345,358.07,287.67,358.07,174,354.53,174,291.81s56.32-82.94,113.68-82.94Z"/><path class="cls-4" d="M287.67,359.7c-28,0-57.1-.76-79-9.73-24.45-10-36.34-29.07-36.34-58.16,0-76.33,80.64-84.57,115.31-84.57S403,215.48,403,291.81c0,29.09-11.89,48.12-36.35,58.16C344.77,358.94,315.64,359.7,287.67,359.7Zm0-149.2c-31.6,0-58.4,6.12-77.5,17.71-22.93,13.91-34.55,35.31-34.55,63.6,0,59.76,50.75,64.63,112.05,64.63s112.06-4.87,112.06-64.63c0-28.29-11.63-49.69-34.55-63.6C346.08,216.62,319.28,210.5,287.67,210.5Z"/><path class="cls-5" d="M221.36,304.21a19.73,19.73,0,1,1-19.73,19.73,19.73,19.73,0,0,1,19.73-19.73Z"/><path class="cls-6" d="M354,304.21a19.73,19.73,0,1,1-19.73,19.73A19.73,19.73,0,0,1,354,304.21Z"/><path class="cls-7" d="M238.17,262.8a20.29,20.29,0,0,1,20.28,20.29,3.85,3.85,0,0,1-7.69,0h0V283a12.59,12.59,0,0,0-25.18,0v.1h0a3.85,3.85,0,0,1-7.69,0h0a20.3,20.3,0,0,1,20.29-20.29Z"/><path class="cls-7" d="M338,262.8a20.29,20.29,0,0,1,20.28,20.29,3.85,3.85,0,0,1-7.69,0h0V283a12.59,12.59,0,0,0-25.18,0v.1h0a3.85,3.85,0,0,1-7.69,0h0A20.29,20.29,0,0,1,338,262.8Z"/><path class="cls-8" d="M527.71,349C525.33,332,508,319.4,496.41,316.89a11.34,11.34,0,0,0-8.85,1.34c-3-3.11-7.06-3.59-10.15-4-6-.7-13-1.19-20.1.48l-.48.12c-6.5,1.53-17.13,4.05-27,18.31l.31-7.06V326c.27-11.49-5.15-14.09-14-14.56H416l-4.65-.26c-9.76-.57-14.22-.83-18.69,5.61l-.65,1c-4.8,8-7.93,13.22-11.62,19.47-2.94-5.63-5.53-10.54-9.41-17.86-.37-.74-.66-1.37-.91-1.9-1.28-2.75-3.91-8.37-11.9-8.25-1.3-.16-4.13-.43-14-.64-1.63,0-6-.13-9.41,3.2a12,12,0,0,0-1.16,1.34c-3.54-4.4-9.63-4.47-15.22-4.52-20.66-.17-41.6-.18-62.22,0H256c-5.86.14-10.1.23-13.51,3.85-3.19,3.39-3.05,7.35-2.94,10.25l.09,6.42c-7.36-10.47-20.15-17-29.13-18.1a11.37,11.37,0,0,0-8.68,2.17c-3.25-2.81-7.36-2.91-10.48-3-6-.14-13.08,0-19.95,2.37l-.47.16c-6.72,2.27-18,6.07-26.69,23.71-6.47,13-3.63,28.25-2.11,34.21.11.43.27.86.4,1.29-4.4-5.41-8.32-10.17-14.18-17.25l-.74-.8a18.91,18.91,0,0,0-3.45-2.64q8.13-9,16.28-17.95c6-5.68,5.15-11,4.12-13.62-1.72-4.44-6.06-7.1-11.61-7.12h-.48c-6.59.34-9.92.53-16.43.9-5.59.07-9,1-12.53,5.93-4.36,4.89-7.64,8.58-10.89,12.27l0-.53c-.48-7.18-1.09-16.13-14.82-15.59l-1,.05c-6.1.58-9.16.88-15.22,1.48H61.5c-2.36.18-6.3.47-9.29,4-3.39,4-3,8.67-2.16,17.07l4,51.6c.39,7.3.62,11.34,4.41,14.67A11.33,11.33,0,0,0,66.2,407c.84,0,1.61-.05,2.26-.1,5.62-.43,8.43-.63,14.06-1l1.64-.21c7.94-1.15,12.81-3.92,12.57-14.16l-.6-8.9,1.08-1.22c.57.93,1.23,1.87,1.94,2.84l.7.91c3.17,3.73,4.79,5.63,7.88,9.29,4.78,6.48,7.94,8.84,15.42,8.84h.77c7.12-.4,10.68-.59,17.8-1l.35,0a12.83,12.83,0,0,0,10.82-7.14,11.71,11.71,0,0,0,.94-6.1c6.35,5.78,14.34,9.7,22.14,10.17a10.89,10.89,0,0,0,9-2.4c2.2,2,5.58,3.26,10.77,3.35l1.8,0a54.1,54.1,0,0,0,17.71-2.58l.7-.25c5.38-1.87,13.77-4.81,21.49-15.69,0,5.89.09,10.55,3.87,14.13a12.09,12.09,0,0,0,8.7,3.09c.65,0,1.25,0,1.79-.06,24.64-.43,47.24-.58,69.18-.45,3.4,0,8-.05,11.4-3.48,1.81,2.27,4.86,3.94,9.9,4.15l5,.09c8.93.65,13.88,1,18-2.89,3.58-3.38,3.6-7.65,3.55-10.55l.06-2.2a15.39,15.39,0,0,0,10.51,4,14.45,14.45,0,0,0,9.12-3.73l-.13,3.57c-.11,2.71-.25,6.41,2.61,9.62,3,3.36,6.92,3.56,9.57,3.66l13,.88.34,0h.78c10.84,0,12.54-7.07,12.81-13.19l.23-5.51c5.87,9.58,15.82,17.12,26,18.7a10.9,10.9,0,0,0,9.22-1.55c2,2.2,5.25,3.78,10.41,4.36a79,79,0,0,0,8.58.52A45.81,45.81,0,0,0,493,403.68l.73-.18c6.65-1.64,17.78-4.39,28.15-20.77C529.68,370.51,528.56,355.09,527.71,349ZM322,362.71h-.46c-7.33-.07-12.46-.12-18-.14,3.84-4.46,7.5-8.69,12.65-14.61,2.58-2.6,2.81-2.6,5-2.61,2.79,0,6.57-.06,9.62-1.9l-.35,20.63C327.61,362.6,324.56,362.67,322,362.71Zm-76.5-18.83c3.14,1.77,6.78,1.66,11.47,1.5l9.1-.09c-3.38,4.31-6.51,8.34-10.94,14.08a25,25,0,0,1-3.13,3.38c-.39,0-1,.06-1.43.07a19,19,0,0,0-5,.8A57.44,57.44,0,0,0,245.49,343.88ZM187,360.27c-.17-3.47.18-8.64,1.7-11.94a5.42,5.42,0,0,1,2.89-1.15,20.87,20.87,0,0,0,7.66-1.78c.18,1.75.32,3.3.38,4.47.32,6.52-.63,10.09-1.52,11.95a6,6,0,0,1-3.11,1.25,21.52,21.52,0,0,0-7.61,1.93C187.16,363.16,187,361.5,187,360.27Zm281.33,3.54c.15-3.47,1-8.58,2.81-11.72a5.61,5.61,0,0,1,3-.88,20.78,20.78,0,0,0,7.8-1.06c0,1.77,0,3.33-.05,4.5-.28,6.51-1.56,10-2.62,11.75a6.14,6.14,0,0,1-3.22,1,21.6,21.6,0,0,0-7.77,1.21C468.22,366.72,468.23,365.05,468.29,363.81Z"/><path class="cls-9" d="M61.2,404.14c-4.47.34-4.49.13-5.09-10.28l-4.68-59.42c-1.23-12.93-1-12.74,3.37-13.08,6.28-.65,9.43-1,15.71-1.6,5.92-.21,5.68-.51,6.37,9.37.63,9,1,13.5,1.58,22.51,0,0,0,3,3.32-2.37Q93,334.84,104.38,320.5c1.69-2.77,2.12-2.9,6-2.92,6.82-.4,10.23-.59,17.06-.95,3.51,0,5.16,2.28,1.21,6.33q-24.32,29.79-48,60.11c.4,5.6.59,8.41,1,14,.16,5.33.13,5-6,6C69.87,403.48,67,403.69,61.2,404.14ZM109.28,394c-3.35-4.4-5-6.6-8.41-11-3.56-5.43-3.44-5-1-9.32,3.84-4.68,5.77-7,9.65-11.69,3.23-3.82,3.56-3.84,6.44-.81q11.7,15.72,23.22,31.58c2.79,4.33-.21,6.3-2.66,6.53-7.32.38-11,.58-18.3,1C114.14,400.31,113.4,400.25,109.28,394Z"/><path class="cls-9" d="M193.49,323.42c0,11.76,0,12.32-6.34,12.77-4,.29-8.79,2.84-10.52,6.87-2.48,5.8-2.89,13.69-2.64,18.85s1.37,14.79,2,19.95c2,14.8-1,14.52-3,14.06-13.26-1.53-23.64-12.9-26.94-25.35-2.56-9.64-2.73-22.81,1.29-32.14,4.12-10.5,12-18.53,22.53-22.17,5.56-1.93,11.58-2.28,17.34-2.12S193.48,314.4,193.49,323.42Zm-7.17,64.24c-.07-11.89-.62-12.06,6-12.77,3.88-.41,8.64-2.83,10.43-6.92,2.64-6,2.74-13.71,2.49-18.92s-1.4-14.66-2.08-19.85c-2-14.94,1.12-14.46,3-14.14,12.47,2.14,24.17,12.82,27.3,25.57,2.38,9.68,2.27,22.82-1.88,32.08-4.12,10.17-12.11,18.43-22.29,22A48.81,48.81,0,0,1,192.51,397C186.93,396.92,186.37,396.77,186.32,387.66Z"/><path class="cls-9" d="M244.23,385.9c-.06-10.53-.06-11,4.55-11.13,4.4-.17,6-.3,11.51-7.8q9.78-14.18,19.71-28.22c2.05-4.69,2.05-5-6.1-4.66-7.66,0-11.48.07-19.14.15-8.15.31-8.37.32-8.35-6.28-.06-3.92-.09-5.87-.14-9.79-.19-5.43-.3-5.54,7.92-5.74q31.92-.33,63.85,0c8.87.09,9.2.21,9.57,5.65-.23,3.74-.34,5.61-.56,9.36-.41,6.7.45,6.69-6.17,6.74-4,0-6.54.36-11.79,6.28q-11.74,15.06-23.3,30.27c-1.82,3.84-1.82,3.51,3.76,3.73q15.87,0,31.76.17c6.43-.14,6.31-.54,5.86,11.14-.35,9-.23,9.25-6.51,9.29q-35.6-.09-71.17.52C244.49,395.9,244.28,395.5,244.23,385.9Z"/><path class="cls-9" d="M339.15,392l1.2-71.09c0-7.56.38-8.53,4.09-8.44,14.11.32,13.48.78,14.45.72,3.11-.2,2.83,1,5.11,6.09q7.61,16.15,15.1,32.35c1.86,2.93,2.84,2.75,4.44.14q9-17,18.14-33.88c2.33-3.64,1.21-3.19,16.31-2.34,5.93.34,6,.27,5.86,6.22l-3.18,71.46c-.25,5.53-.56,5.3-4.5,5.34-5.4-.4-8.1-.59-13.51-1-4.15-.16-3.93-.36-3.75-5.26.41-10.89.61-16.33,1-27.23.06-4.68-.9-5.14-3.83-1.41-4.46,6.35-6.67,9.54-11.08,15.91-3.24,3.94-6.34,4.06-10.08,0-4.26-7.11-6.4-10.66-10.7-17.75-1.57-1.85-3,.14-2.95,1.63-.31,10.9-.46,16.34-.77,27.24.07,6,0,6.25-12.49,5.26l-5.11-.1C339,395.67,339.09,395,339.15,392Z"/><path class="cls-9" d="M485.87,328.32c-1.12,11.71-1.2,12.26-7.54,12.11-4-.1-9,2-11.14,5.82-3,5.54-4.2,13.35-4.44,18.51s-.07,14.85.12,20.05c.53,14.92-2.45,14.35-4.33,13.71-13.05-2.8-22.29-15.12-24.38-27.83-1.61-9.85-.52-23,4.39-31.86,5.11-10.06,13.75-17.29,24.56-19.9,5.73-1.38,11.75-1.16,17.47-.44S486.73,319.34,485.87,328.32Zm-13.33,63.25c1.07-11.84.55-12.06,7.21-12.12,3.89,0,8.87-2,11.05-5.89,3.21-5.72,4.05-13.38,4.3-18.59s0-14.73-.16-20c-.52-15.06,2.51-14.29,4.35-13.79,12.2,3.33,22.83,15.09,24.72,28.09,1.43,9.86.06,22.93-5,31.74-5.09,9.74-13.85,17.18-24.32,19.77a48.31,48.31,0,0,1-16.93.68C472.26,400.85,471.72,400.65,472.54,391.57Z"/></svg>