<?xml version="1.0" encoding="utf-8"?>
<!-- Generator: Adobe Illustrator 22.1.0, SVG Export Plug-In . SVG Version: 6.00 Build 0)  -->
<svg version="1.1" id="Capa_1" xmlns="http://www.w3.org/2000/svg" xmlns:xlink="http://www.w3.org/1999/xlink" x="0px" y="0px"
	 viewBox="0 0 566.9 221.1" style="enable-background:new 0 0 566.9 221.1;" xml:space="preserve">
<style type="text/css">
	.st0{fill:#FECF41;}
	.st1{fill:#262321;}
	.st2{fill:#FCCF41;}
</style>
<path class="st0" d="M406.7,82.1C393.9,36.3,352.1,4.5,304.5,4.5c-7.2,0-14.5,0.7-21.6,2.2c-7.1-1.5-14.3-2.2-21.6-2.2
	c-47.6,0-89.4,31.8-102.2,77.6H54.4L54,139h105.2c12.8,45.9,54.6,77.6,102.2,77.6c7.2,0,14.5-0.7,21.6-2.2
	c7.1,1.5,14.3,2.2,21.6,2.2c47.6,0,89.4-31.8,102.2-77.6h106.2V82.1H406.7z M345.3,175.5c4.7-6.1,8.7-12.7,12-19.7h-34
	c-10,13.6-24.2,23.5-40.3,28.3c-16.2-4.8-30.3-14.8-40.3-28.3h-34c3.3,7,7.3,13.6,12,19.7c-35.9-22.5-46.8-69.8-24.3-105.7
	c6.1-9.8,14.4-18.1,24.2-24.3C211.5,57.4,205,71,201.5,85.5H232c8.2-23.4,27.2-41.5,51-48.5c23.8,7,42.8,25.1,51,48.5h30.4
	c-3.5-14.5-10-28.1-19.1-39.9c35.9,22.5,46.7,69.8,24.2,105.7C363.4,161.1,355.1,169.4,345.3,175.5L345.3,175.5z"/>
<path class="st1" d="M73.1,129.3V91.8h37.5v8.2H81.3v6.5h22.3v8.2H81.3v6.5h29.3v8.2L73.1,129.3z"/>
<path class="st2" d="M109.4,93.1v5.7H80v9h22.3v5.7H80v9h29.3v5.6h-35v-35H109.4z M111.8,90.6h-40v40h40v-10.7H82.5v-4h22.3v-10.7
	H82.5v-4h29.3V90.6L111.8,90.6z"/>
<path class="st1" d="M146.8,128.2c-5.5,0-10-4.5-10-10v-17.5c0-5.5,4.5-10,10-10h27.5v8.2h-27.5c-1,0-1.8,0.8-1.8,1.8v17.5
	c0,1,0.8,1.8,1.8,1.8h27.5v8.2H146.8z"/>
<path class="st2" d="M173,91.9v5.7h-26.2c-1.7,0-3,1.4-3.1,3.1v17.5c0,1.7,1.4,3,3.1,3.1H173v5.7h-26.2c-4.8,0-8.7-3.9-8.8-8.8
	v-17.5c0-4.8,3.9-8.7,8.8-8.8H173z M175.5,89.4h-28.7c-6.2,0-11.2,5-11.2,11.2v17.5c0,6.2,5,11.2,11.2,11.2h28.7v-10.6h-28.7
	c-0.3,0-0.6-0.3-0.6-0.6v-17.5c0-0.3,0.3-0.6,0.6-0.6h28.7L175.5,89.4L175.5,89.4z"/>
<path class="st1" d="M200.2,128.2V90.7h8.1V120h29.3v8.2H200.2z"/>
<path class="st2" d="M207.1,91.9v29.3h29.3v5.7h-35v-35L207.1,91.9 M209.6,89.5H199v40h40v-10.7h-29.4L209.6,89.5L209.6,89.5z"/>
<path class="st1" d="M275,157.1v-33.9l-24.5-18.1c-5.4-3.9-8.7-10.2-8.8-16.9V75.1h15.4v13.2c0,2,1.1,3.9,2.9,4.8l0.1,0l22.6,16.5
	l22.6-16.6l0.1,0c1.8-1,2.9-2.8,2.9-4.9V75.1h15.4v13.2c-0.1,6.7-3.3,12.9-8.7,16.8l-24.5,18.1v33.9L275,157.1z"/>
<path class="st2" d="M322.5,76.3v11.9c-0.1,6.3-3.1,12.2-8.3,15.9l-25,18.5v33.2h-12.9v-33.2l-25.1-18.5c-5.1-3.7-8.1-9.6-8.2-15.9
	V76.3h12.9v11.9c0,2.5,1.4,4.8,3.6,6l23.3,17l23.3-17c2.2-1.2,3.6-3.5,3.6-6V76.3L322.5,76.3 M325,73.8h-17.9v14.4
	c0,1.6-0.8,3-2.2,3.8l-0.2,0.1l-0.2,0.1l-21.8,15.9l-21.8-15.9l-0.2-0.1l-0.2-0.1c-1.4-0.8-2.2-2.2-2.2-3.8V73.8h-17.9v14.4
	c0,7.1,3.5,13.8,9.3,17.9l24,17.7v34.5h17.9v-34.4l24.1-17.8c5.8-4.1,9.2-10.8,9.3-17.9V73.8z"/>
<path class="st1" d="M331.6,128.2V90.7h27.5c5.5,0,10,4.5,10,10v2.8c0,5.5-4.5,10-10,10h-19.4v14.7H331.6z M359.1,105.3
	c1,0,1.8-0.8,1.8-1.8v-2.8c0-1-0.8-1.8-1.8-1.8h-19.4v6.5L359.1,105.3z"/>
<path class="st2" d="M359.1,91.9c4.8,0,8.7,3.9,8.8,8.8v2.9c0,4.8-3.9,8.7-8.8,8.8h-20.6v14.7h-5.7v-35L359.1,91.9 M338.6,106.6
	h20.6c1.7,0,3-1.4,3.1-3.1v-2.9c0-1.7-1.4-3-3.1-3.1h-20.6V106.6 M359.1,89.5h-28.7v40H341v-14.7h18.1c6.2,0,11.2-5,11.2-11.2v-2.9
	C370.3,94.5,365.3,89.4,359.1,89.5L359.1,89.5z M341,100.1h18.1c0.3,0,0.6,0.3,0.6,0.6v2.9c0,0.3-0.3,0.6-0.6,0.6H341V100.1
	L341,100.1z"/>
<path class="st1" d="M396.1,128.2V120H422c1,0,1.8-0.8,1.8-1.8v-2.9c0-1-0.8-1.8-1.8-1.8h-17.7c-5.5,0-10-4.5-10-10v-2.8
	c0-5.5,4.5-10,10-10h25.9v8.2h-25.9c-1,0-1.8,0.8-1.8,1.8v2.8c0,1,0.8,1.8,1.8,1.8H422c5.5,0,10,4.5,10,10v2.9c0,5.5-4.5,10-10,10
	L396.1,128.2z"/>
<path class="st2" d="M429,91.9v5.7h-24.7c-1.7,0-3,1.4-3.1,3.1v2.9c0,1.7,1.4,3,3.1,3.1H422c4.8,0,8.7,3.9,8.8,8.8v2.9
	c0,4.8-3.9,8.7-8.8,8.8h-24.7v-5.7H422c1.7,0,3-1.4,3.1-3.1v-2.9c0-1.7-1.4-3-3.1-3.1h-17.7c-4.8,0-8.7-3.9-8.8-8.8v-2.9
	c0-4.8,3.9-8.7,8.8-8.8H429z M431.5,89.4h-27.1c-6.2,0-11.2,5-11.2,11.2v2.9c0,6.2,5,11.2,11.2,11.2H422c0.3,0,0.6,0.3,0.6,0.6v2.9
	c0,0.3-0.3,0.6-0.6,0.6h-27.1v10.6H422c6.2,0,11.2-5,11.2-11.2v-2.9c0-6.2-5-11.2-11.2-11.3c0,0,0,0,0,0h-17.7
	c-0.3,0-0.6-0.3-0.6-0.6v-2.9c0-0.3,0.3-0.6,0.6-0.6h27.2L431.5,89.4L431.5,89.4z"/>
<path class="st1" d="M458.1,128.2V90.7h37.5v8.2h-29.3v6.5h22.3v8.2h-22.3v6.5h29.3v8.2L458.1,128.2z"/>
<path class="st2" d="M494.4,91.9v5.7h-29.3v9h22.3v5.7h-22.3v9h29.3v5.7h-35V92L494.4,91.9 M496.9,89.5h-40v40h40v-10.8h-29.3v-4
	h22.3v-10.7h-22.3v-4h29.3V89.5L496.9,89.5z"/>
</svg>
