<?xml version="1.0" encoding="utf-8"?>
<!-- Generator: Adobe Illustrator 22.1.0, SVG Export Plug-In . SVG Version: 6.00 Build 0)  -->
<svg version="1.1" id="Capa_1" xmlns="http://www.w3.org/2000/svg" xmlns:xlink="http://www.w3.org/1999/xlink" x="0px" y="0px"
	 viewBox="0 0 551.3 306.6" style="enable-background:new 0 0 551.3 306.6;" xml:space="preserve">
<style type="text/css">
	.st0{fill:#E41917;}
	.st1{fill:#1D1D1B;}
	.st2{fill:#F6A115;}
</style>
<path class="st0" d="M179,266.3L162.1,252c-1.3-1.1-2.5-2.1-3.7-3.2l-5.9-5.1l-4.2-4c-2-1.9-4-3.8-5.9-5.6l-1.6-1.6
	c-1.2-1.2-2.3-2.3-3.4-3.5l-3.8-4.2l-5-5.4l-0.1-0.1c-10.3-11.8-18.3-23.4-23.8-34.5c-0.2-0.5-0.4-0.9-0.7-1.4
	c-0.5-1.1-1-2.2-1.5-3.2c-0.6-1.3-1.1-2.6-1.6-3.9c-0.4-1-0.7-1.9-1.1-3c-0.7-1.9-1.2-3.8-1.7-5.5c-0.4-1.4-0.7-2.7-0.9-3.9
	c-0.7-4.2-1-8.5-0.7-12.8c-0.2-2.8,0.1-5.6,0.7-8.3c0.3-1.4,0.6-2.9,1-4.5c0.6-2,1.2-4.1,2-6.2c0.2-0.5,0.4-1.1,0.6-1.7
	c0.7-1.7,1.4-3.4,2.2-5.1c0.6-1.2,1.2-2.5,1.8-3.7c0.5-0.9,1-1.8,1.5-2.8c4.8-8.4,10.3-16.4,16.5-23.8c1.2-1.5,2.5-3,3.8-4.4
	c1-1.2,2.1-2.4,3.3-3.6l1.2-1.3l1-1l0.3-0.4c3.5-3.6,7.2-7.4,11.1-11l0.1-0.1c0.5-0.5,1.1-1,1.6-1.5l0.1-0.1
	c1.9-1.8,3.9-3.5,5.8-5.2l4.4-3.8l6-4.9c1.3-1,2.5-2,3.8-3.1l17.4-13.7c9-6.9,10.7-19.8,3.8-28.8c-5.5-7.3-15.2-10-23.7-6.7
	c-9,3.4-17.8,7-26.4,10.8l-7.2,3.2l-5.5,2.6c-2.8,1.4-5.7,2.8-8.5,4.2l-0.2,0.1l-1.9,1l-0.1,0.1c-4.7,2.4-9.4,4.9-13.8,7.5l-0.2,0.1
	L97,36.3l-0.8,0.5l-2.5,1.5c-1.7,1-3.4,2-5.2,3.1C71.3,51.9,56.6,63.1,44.9,74.6c-2.9,2.9-5.8,5.8-8.4,8.8
	c-3.3,3.7-6.3,7.5-9.1,11.3c-2.8,3.9-5.3,7.9-7.6,12.1c0,0-6.5,13.5-7.7,17.6c-1.2,4-1.9,6.5-2.6,9.7c-1.2,5.5-1.8,11.1-1.9,16.6
	c-0.1,8.3,0.9,16.6,3.1,24.6c1.3,4.9,3,9.7,5.1,14.4c1,2.3,2.1,4.6,3.4,6.9c0.5,0.9,0.9,1.7,1.4,2.6c2.4,4.2,5,8.3,7.8,12.2
	c2.7,3.7,5.7,7.5,8.9,11.1c2.5,2.9,5.2,5.7,7.9,8.5c11.5,11.5,25.6,22.7,42,33.4l3.6,2.3l1.7,1.1l0.8,0.5l0.8,0.5l2.3,1.4
	c4.4,2.6,8.9,5.3,13.6,7.9l2,1.1c2.5,1.3,5,2.7,7.6,4l5.4,2.8l7.1,3.4c8.4,4.1,17.2,8,26,11.6c2.5,1,5.1,1.5,7.8,1.5
	c11.3,0,20.5-9.1,20.5-20.5C186.3,275.9,183.7,270.1,179,266.3L179,266.3z"/>
<path class="st1" d="M24.6,112.4c-3.8,7.3-6.7,15-8.4,23.1c10-19.8,34.1-27.7,53.8-17.7c9.7,4.9,16.9,13.4,20.2,23.7
	c0.3-1.5,0.7-3.2,1.2-5c-1.7-1-2.3-3.2-1.4-5c0.6-1.1,1.8-1.8,3-1.8h0.5c0.2-0.6,0.4-1.2,0.7-1.8c-14.1-23.3-44.5-30.8-67.8-16.6
	C25.8,111.7,25.2,112,24.6,112.4L24.6,112.4z"/>
<path class="st0" d="M89.6,133.5c0.1,1.3,0.7,2.4,1.8,3c0.6-2.1,1.3-4.3,2.2-6.8h-0.5C91.1,129.8,89.5,131.4,89.6,133.5
	C89.6,133.5,89.6,133.5,89.6,133.5z"/>
<path class="st1" d="M90.4,172.1c0-0.9,0.4-1.8,1-2.5c-0.4-1.5-0.7-3-1-4.3c-6.5,21.2-28.9,33-50.1,26.6c-9.7-3-17.9-9.5-22.9-18.3
	c1.3,4.6,2.9,9.1,4.8,13.4c0.6-0.4,1.3-0.7,2.1-0.6c2,0,3.6,1.6,3.6,3.6c0,1.6-1,3-2.6,3.5c0.4,0.8,0.9,1.6,1.3,2.4
	c23.4,14.1,53.7,6.5,67.8-16.8c0,0,0-0.1,0.1-0.1c-0.4-1.1-0.8-2.2-1.2-3.3C91.6,175.3,90.4,173.8,90.4,172.1z"/>
<path class="st0" d="M90.4,172.1c0,1.7,1.2,3.2,2.9,3.5c-0.8-2.1-1.4-4.2-1.8-6C90.7,170.3,90.4,171.1,90.4,172.1z"/>
<path class="st0" d="M27.8,189.9c0-2-1.6-3.6-3.6-3.6c0,0,0,0,0,0c-0.7,0-1.5,0.2-2.1,0.6c1,2.2,2,4.3,3.1,6.5
	C26.8,192.9,27.8,191.5,27.8,189.9z"/>
<path class="st1" d="M161.1,49.3l17.4-13.7c5.9-4.6,6.9-13.2,2.3-19.1c-3.7-4.7-9.9-6.4-15.5-4.3c-6.5,2.4-15.6,6-26,10.6l17.9,29.7
	C158.5,51.3,159.7,50.3,161.1,49.3L161.1,49.3z"/>
<path class="st1" d="M160.6,294.6c6,2.5,13,0.4,16.6-5.1c3.8-5.8,2.7-13.5-2.6-17.9l-16.9-14.3c-1.3-1.1-2.5-2.2-3.8-3.2L135,283.1
	C145.3,288.1,154.2,291.9,160.6,294.6L160.6,294.6z"/>
<path class="st2" d="M122.7,277l20.9-32.1c-2.1-2-4.1-3.9-6-5.8L115.3,273C117.8,274.4,120.3,275.7,122.7,277L122.7,277z"/>
<path d="M115.3,273l22.3-33.9c-0.6-0.5-1.1-1.1-1.6-1.6l-22.6,34.5L115.3,273z"/>
<path d="M100,264.2l24.7-38.7l-1.3-1.5l-25.6,38.8L100,264.2z"/>
<path class="st2" d="M119.6,233.5l-4.9,7.7c5-1.9,10.5,0.7,12.4,5.6c0.4,1,0.6,2.1,0.6,3.2l5-7.6c-4.9,1.9-10.5-0.5-12.5-5.5
	C119.8,235.8,119.6,234.7,119.6,233.5L119.6,233.5z"/>
<path class="st2" d="M108.5,250.9l-5.2,8.1c4.8-2.4,10.5-0.4,12.9,4.3c0.4,0.9,0.8,1.9,0.9,2.8l4.7-7.1c-4.9,2-10.5-0.3-12.6-5.2
	C108.8,252.9,108.6,251.9,108.5,250.9L108.5,250.9z"/>
<path class="st0" d="M107.6,258c-1.5,0-2.9,0.3-4.3,1l-1.4,2.2c4.7-2.6,10.5-0.9,13.1,3.7c0.5,0.9,0.8,1.9,1,2.9l1.1-1.6
	C116.4,261.5,112.3,258,107.6,258z"/>
<path d="M113.3,271.9l2.7-4.1c-1-5.2-6.1-8.6-11.3-7.6c-1,0.2-2,0.5-2.9,1l-1.9,3C104.5,267,109,269.5,113.3,271.9L113.3,271.9z"/>
<path d="M108.5,250.2v0.7l6.2-9.7C110.9,242.6,108.5,246.2,108.5,250.2z"/>
<path d="M127.7,250.2V250l-6,9.1C125.4,257.6,127.7,254.1,127.7,250.2z"/>
<path d="M118.1,240.5c-1.2,0-2.3,0.2-3.4,0.6l-6.2,9.7c0.4,5.3,5,9.3,10.3,8.9c1-0.1,2-0.3,3-0.7l6-9.1
	C127.7,244.7,123.4,240.5,118.1,240.5z"/>
<path class="st0" d="M130.6,240.9c-5.3,0-9.6-4.2-9.6-9.5l-1.3,2.1c0.1,5.3,4.4,9.6,9.7,9.5c1.2,0,2.3-0.2,3.4-0.7l1.4-2.1
	C133,240.7,131.8,240.9,130.6,240.9L130.6,240.9z"/>
<path d="M130.6,240.9c1.2,0,2.4-0.2,3.6-0.7l1.9-2.8c-4.1-4.1-7.9-8.1-11.3-11.9l-3.8,5.9C121,236.7,125.3,240.9,130.6,240.9z"/>
<path class="st2" d="M122.4,72.7l-4.2-6.7l8.8,14l-3.3-5.2L122.4,72.7z"/>
<path class="st2" d="M104.4,44l-1.8-2.9l8.6,13.6l-5.3-8.4L104.4,44z"/>
<path class="st2" d="M137.2,65.7l1.7,2.6l-5.1-7.9l2,3.1L137.2,65.7z"/>
<path class="st2" d="M118.5,32.5l22.1,34.1c1.9-1.8,3.9-3.6,6-5.4l-19.8-32.8C124.1,29.7,121.3,31.1,118.5,32.5z"/>
<path class="st2" d="M120.9,65.4c-1.2,0-2.4-0.2-3.5-0.6l0.8,1.3l4.2,6.7c0-5.4,4.4-9.8,9.8-9.9c1.2,0,2.4,0.2,3.6,0.7l-2-3.1
	l-3.1-4.8C130.6,61,126.3,65.3,120.9,65.4L120.9,65.4z"/>
<path class="st2" d="M133.8,60.4l-3.1-4.8L133.8,60.4z"/>
<path class="st2" d="M110.2,47.3c-1.5,0-3-0.3-4.4-1l5.3,8.4c0.3-5.2,4.6-9.2,9.8-9.2c1.3,0,2.6,0.3,3.7,0.8l-4.8-7.4
	C119.2,43.7,115,47.3,110.2,47.3L110.2,47.3z"/>
<path class="st2" d="M124.6,46.2l-4.8-7.4L124.6,46.2z"/>
<path class="st0" d="M109.2,45.3c-1.7,0-3.3-0.4-4.8-1.3l1.4,2.3c1.4,0.7,2.9,1,4.4,1c4.9,0,9-3.6,9.7-8.5l-1.1-1.7
	C118,41.8,113.9,45.2,109.2,45.3L109.2,45.3z"/>
<path d="M102.7,41l-0.2,0.1l1.8,3c1.5,0.8,3.1,1.3,4.8,1.3c4.7,0,8.8-3.4,9.6-8.1l-2.3-3.6l-0.2,0.1C111.8,35.9,107.3,38.4,102.7,41
	L102.7,41z"/>
<path d="M118.3,32.6l-1.8,0.9l2.3,3.6l1.1,1.7l4.8,7.4l6.1,9.4l3.1,4.8l5.1,7.9l0.1-0.1l1.7-1.6l-22.1-34.1L118.3,32.6z"/>
<path d="M117.4,64.7c1.1,0.4,2.3,0.7,3.5,0.6c5.4,0,9.7-4.4,9.8-9.8l-6.1-9.4c-1.2-0.5-2.5-0.7-3.7-0.8c-5.2,0-9.4,4.1-9.8,9.2
	l-8.6-13.6l-2.1,1.2l-0.2,0.1l25.4,39.1l0.4-0.4c0.3-0.4,0.7-0.7,1-1.1l-8.8-14L117.4,64.7z"/>
<path d="M130.7,55.6l-6.1-9.4L130.7,55.6z"/>
<path class="st0" d="M133.6,65c1.2,0,2.5,0.2,3.6,0.7l-1.4-2.2c-1.1-0.4-2.3-0.7-3.6-0.7c-5.4,0-9.8,4.4-9.8,9.9l1.3,2.1
	C123.8,69.4,128.2,65,133.6,65L133.6,65z"/>
<path d="M133.6,65c-5.4,0-9.8,4.4-9.8,9.8L127,80l0.3-0.4c3.5-3.7,7.3-7.5,11.5-11.4l-1.7-2.6C136,65.2,134.8,65,133.6,65z"/>
<path class="st2" d="M17.4,173.5c11.1,19.2,35.6,25.7,54.7,14.6c8.8-5.1,15.3-13.3,18.3-22.9c-1.5-7.8-1.5-15.9-0.1-23.7
	c-6.6-21.1-29.1-32.8-50.3-26.2c-10.3,3.2-18.9,10.5-23.7,20.2C13.6,148.1,14,161.1,17.4,173.5L17.4,173.5z"/>
<path class="st1" d="M40,128.5c-0.4,0.2-0.8,0.4-1.2,0.6s-0.7,0.4-1,0.6c-12.7,7.7-16.8,24.2-9.1,36.9c6.9,11.4,21.1,16,33.4,10.9
	c0.9-0.2,1.8-0.6,2.6-1.1c1.2-0.6,2.2-1.4,3.2-2.3c11.8-9,14.1-25.8,5.1-37.6C65.3,126.2,51.5,122.9,40,128.5L40,128.5z M30.8,152.6
	c0-7.7,4.3-14.9,11.2-18.5c4.6-0.6,10.7,0.8,12.3,2.9c1.6,1.9,2.2,4.5,1.7,6.9c-0.6,2.3-1.3,3.8-3.3,4.9c-0.6,0.4-1.3,0.6-2,0.7
	c0.2-0.5,0.4-0.9,0.5-1.4c0.6-2.9-0.5-5.7-2.6-6.1s-4.3,1.5-5,4.5s0.5,5.7,2.6,6.1c0.3,0.1,0.6,0.1,0.9,0c1.1,0.3,2.3,0.4,3.5,0.3
	c-0.5,0.2-1,0.4-1.4,0.7c-2.8,1.6-4.9,4.2-5.7,7.3c-0.9,3.1-0.4,6.5,1.2,9.3c0.6,1.1,1.5,2,2.5,2.7
	C37.6,170.9,30.8,162.4,30.8,152.6z M72.5,152.6c0,7.7-4.3,14.8-11.1,18.4c-4.9,1-10.5-0.4-12.3-2.7c-1.6-1.9-2.2-4.5-1.7-6.9
	c0.6-2.3,1.3-3.8,3.3-4.9c0.6-0.3,1.3-0.6,2-0.7c-0.2,0.5-0.4,0.9-0.5,1.4c-0.6,2.9,0.5,5.7,2.6,6.1c2.1,0.5,4.3-1.5,5-4.5
	s-0.5-5.7-2.6-6.1c-0.3-0.1-0.6-0.1-0.9,0c-1.1-0.3-2.3-0.4-3.5-0.3c0.5-0.2,1-0.4,1.5-0.7c2.8-1.6,4.9-4.2,5.7-7.3
	c0.9-3.1,0.4-6.5-1.2-9.3c-0.7-1.2-1.7-2.1-2.8-2.9C65.7,134.3,72.5,142.8,72.5,152.6z"/>
<circle class="st0" cx="88.4" cy="179.8" r="3.6"/>
<circle class="st0" cx="82.2" cy="186.5" r="3.6"/>
<circle class="st0" cx="74.9" cy="192.1" r="3.6"/>
<circle class="st0" cx="66.8" cy="195.6" r="3.6"/>
<circle class="st1" cx="58.3" cy="197.8" r="3.6"/>
<g>
	<circle class="st0" cx="58.3" cy="197.5" r="3.6"/>
	<circle class="st0" cx="49.7" cy="198.2" r="3.6"/>
	<circle class="st0" cx="41.2" cy="196.8" r="3.6"/>
	<circle class="st0" cx="32.7" cy="193.6" r="3.6"/>
	<path class="st0" d="M25.9,118.2c0.1,2-1.5,3.7-3.5,3.8c0,0,0,0,0,0c-0.7,0-1.5-0.2-2.1-0.6c0.9-2.2,1.8-4.4,2.9-6.6
		C24.7,115.3,25.8,116.6,25.9,118.2L25.9,118.2z"/>
	<circle class="st0" cx="87.5" cy="125.8" r="3.6"/>
	<circle class="st0" cx="81" cy="119.3" r="3.6"/>
	<circle class="st0" cx="73.6" cy="113.9" r="3.6"/>
	<circle class="st0" cx="65.4" cy="110.7" r="3.6"/>
	<circle class="st0" cx="56.8" cy="109" r="3.6"/>
	<circle class="st0" cx="48.3" cy="108.6" r="3.6"/>
	<circle class="st0" cx="39.8" cy="110.3" r="3.6"/>
	<circle class="st0" cx="31.4" cy="113.8" r="3.6"/>
</g>
<path class="st2" d="M98.5,190.1c0,20.8-16.9,37.6-37.6,37.5c-3.7,0-7.3-0.5-10.8-1.6c12.3,12.3,26.5,23.1,40.9,32.5
	c-7.7-10.9-5.1-26,5.8-33.7c7.9-5.6,18.3-5.9,26.5-0.9c-12-13.7-19.8-25.8-24.8-36C98.5,188.6,98.5,189.4,98.5,190.1L98.5,190.1z"/>
<path d="M42.5,218c2.4,2.8,5,5.5,7.6,8.1c19.9,6,40.8-5.3,46.8-25.1c1.1-3.5,1.6-7.1,1.6-10.8c0-0.7,0-1.5-0.1-2.2
	c-0.2-0.5-0.5-1-0.7-1.4S83.9,224,42.5,218z"/>
<path class="st2" d="M95.9,183.5l0.3-0.4c-0.6-1.4-1.2-2.8-1.7-4.2c-14,23.4-44.3,31-67.7,17c0,0-0.1,0-0.1-0.1
	c2.3,4,4.7,7.8,7.4,11.5C53,209.3,74.1,213,95.9,183.5z"/>
<path class="st0" d="M95.9,183.5C74.1,213,53,209.3,34,207.3c2.6,3.6,5.5,7.2,8.5,10.6c41.4,6.1,55.3-31.5,55.3-31.5
	c-0.6-1.2-1.1-2.3-1.6-3.5L95.9,183.5z"/>
<path d="M86.6,244.6c0,5,1.5,9.9,4.4,13.9c1.2,0.8,2.4,1.5,3.5,2.3c0.6-9,4.3-38.4,28.9-36.8l-0.1-0.1c-11.4-6.9-26.3-3.3-33.2,8.2
	C87.8,235.9,86.6,240.2,86.6,244.6L86.6,244.6z"/>
<path class="st2" d="M96.6,262.1l1.2,0.8l23.9-36.2C104,234.6,98.1,255.4,96.6,262.1z"/>
<path class="st0" d="M94.5,260.8l2.1,1.3c1.5-6.7,7.4-27.5,25.1-35.4l1.8-2.7C98.9,222.4,95.1,251.8,94.5,260.8L94.5,260.8z"/>
<path class="st2" d="M88.4,61.9c0-5.1,1.2-10.2,3.7-14.7c-15,9.2-29.8,20-42.4,32.4c3.4-0.9,6.9-1.3,10.5-1.3
	c21.8,0,39.5,16.6,40.1,37.3c5-8.8,10.8-17.1,17.3-24.8c-0.9,0.1-1.8,0.2-2.8,0.2C100.2,90.8,88.4,77.9,88.4,61.9L88.4,61.9z"/>
<path class="st2" d="M124.8,82.4l0.9-0.9l-25.4-39.1l-0.6,0.3C101.7,51.7,108.1,73,124.8,82.4z"/>
<path class="st2" d="M33,98.8c-3.1,4.3-5.9,8.9-8.4,13.6c22.7-15.1,53.4-9,68.5,13.7c0.4,0.6,0.8,1.2,1.2,1.8
	c0.7-1.8,1.5-3.6,2.4-5.5C74.4,94.2,52.7,96.8,33,98.8L33,98.8z"/>
<path d="M60.2,78.3c-3.5,0-7.1,0.5-10.5,1.4c-2.8,2.7-5.5,5.5-8,8.4c37.6-4.6,53.5,23.1,57,30.4c0.5-1,1-1.9,1.6-2.9
	C99.7,94.9,82,78.3,60.2,78.3L60.2,78.3z"/>
<path class="st0" d="M41.7,88c-3.1,3.5-5.9,7.1-8.6,10.8c19.7-2,41.3-4.7,63.7,23.6c0.6-1.3,1.3-2.6,2-4
	C95.2,111.2,79.3,83.4,41.7,88L41.7,88z"/>
<path class="st1" d="M97.2,44.2c-1.7,1-3.4,2-5.1,3.1c-2.4,4.5-3.7,9.6-3.7,14.7c0,16,11.8,28.9,26.3,28.9c0.9,0,1.8-0.1,2.8-0.2
	c1.3-1.5,2.6-3,3.9-4.6C102.1,82.1,98,55.1,97.2,44.2L97.2,44.2z"/>
<path class="st0" d="M99.7,42.7c-0.8,0.5-1.7,0.9-2.5,1.4c0.8,11,4.9,38,24.2,42c1.1-1.2,2.2-2.5,3.4-3.7
	C108.1,73,101.7,51.7,99.7,42.7L99.7,42.7z"/>
<path class="st0" d="M542,164.2c-0.8-1.1-1.8-2.1-3-2.8c0.7-2.1,1.3-4.2,1.7-6.4c0.9-3.9,0.8-8-0.4-11.9c-2.1-6.5-8-10.5-15.3-10.5
	c-0.8,0-1.7,0.1-2.5,0.2c-0.6-0.1-1.1-0.2-1.7-0.2h-14.6c-1.7,0-3.4,0.5-4.8,1.4c-2.4-0.9-4.9-1.4-7.4-1.4
	c-5.8-0.1-11.4,1.5-16.3,4.6c-3.4-3.1-7.9-4.7-12.5-4.6c-4,0-8,0.7-11.8,2.2c-1.7-1.4-3.8-2.2-6-2.2h-18c0.5-5.7-0.1-11.5-1.8-17
	c-1.7-5.5-5.1-10.4-9.6-13.9c-4.7-3.6-10.5-5.5-16.4-5.4c-6.2,0-12.3,1.4-17.9,4.1c-5.5,2.7-10.5,6.2-14.8,10.6
	c-4.5,4.5-8.4,9.5-11.7,14.9c-3.5,5.7-6.4,11.8-8.8,18.1c-0.1,0.3-0.2,0.6-0.3,0.9c-0.7-2.2-1.9-4.3-3.4-6.1
	c-2.4-2.8-6.7-6.1-14-6.1c-1.3,0-2.6,0.1-3.9,0.2c0.2-1.1,0.3-2.2,0.3-3.3c0-9.9-8.1-18-18-18s-18,8.1-18,18c0,0.6,0,1.3,0.1,1.9
	l-1.8,1.2h-13.4c-2,0-4,0.7-5.6,1.9c-3.1-1.3-6.4-2-9.8-1.9c-3.9,0-7.7,1-11.2,2.8c-1.4,0.7-2.8,1.6-4.1,2.5
	c-0.7-0.6-1.4-1.2-2.1-1.7c-3.8-2.5-8.3-3.7-12.8-3.6c-0.8,0-1.5,0-2.3,0.1c1.3-1.6,2.5-3.1,3.7-4.6c1.7-2.1,3.5-4.1,5.5-5.9
	c0.4-0.5,1-0.8,1.6-1.1l9.4-2.3c5-1.2,8-6.2,6.8-11.1c-0.8-3.3-3.3-5.9-6.6-6.7l-9.3-2.5c-3.4-0.9-6.9-1.4-10.4-1.5
	c-1.6,0-3.3,0.1-4.9,0.4c-4.4,0.7-8.7,2.3-12.5,4.6c-1.5,0.9-2.9,1.9-4.2,3.1c-3.8-3.1-8.2-5.3-12.9-6.6c-4.7-1.3-9.5-1.9-14.3-1.9
	c-13-0.1-25.7,4.2-35.9,12.2c-4.5,3.6-8.5,7.9-11.7,12.7c-3,4.4-5.3,9.2-7,14.2c-1.6,4.8-2.5,9.9-2.6,15c-0.1,5.1,0.9,10.2,3,14.9
	c1.3,2.8,3,5.4,5.1,7.7c-0.4,1-0.8,2-1.1,3.1c-1.2,3.9-1.4,8.1-0.5,12.1c0.9,3.8,2.9,7.2,5.7,9.9c2.6,2.4,5.7,4.1,9.1,5.1
	c2.8,0.8,5.6,1.2,8.5,1.2c6.6,0.1,13.1-2.2,18.2-6.4c3.7-3.1,6.9-6.7,9.5-10.8c0.4,1.7,1,3.5,1.8,5.1c2.2,5,6.4,8.8,11.6,10.4h0.1
	c2,0.7,4.1,1,6.2,1c1.1,0,2.1-0.1,3.2-0.3c2.5-0.4,4.9-1.3,7.1-2.5c2.2-1.3,4.2-3,5.8-5c0.3-0.4,0.6-0.8,0.9-1.2
	c0.6,0,1.3,0.1,2,0.1c3.9,0,7.7-1,11.1-2.8c1.4-0.7,2.8-1.6,4.1-2.6c0.7,0.7,1.4,1.3,2.2,1.8c3.8,2.5,8.2,3.8,12.7,3.6
	c2.7,0,5.4-0.5,8-1.4c1.6,1.3,3.6,2,5.7,2h14.6c3.2,0,6.1-1.6,7.8-4.3c1.1,1,2.3,1.8,3.7,2.4c2.3,1.1,4.9,1.6,7.5,1.6
	c2.4,0,4.8-0.5,7.1-1.3c1.4-0.5,2.7-1.1,4-1.9c3.5,2,7.5,3,11.5,2.9c3,0,6-0.5,8.8-1.5c2.5-0.9,4.8-2,7-3.4c2-1.3,3.9-2.8,5.6-4.5
	c1.5-1.5,2.9-3,4.2-4.7l0.2-0.3c1.4,5.3,4.4,10.1,8.6,13.7c4.7,3.8,10.6,5.9,16.6,5.7c2.1,0,4.3-0.2,6.4-0.5c2.5,3,5.8,5.3,9.5,6.6
	c2,0.7,4.1,1,6.2,1c2.5,0,5-0.5,7.3-1.3c3.9-1.4,7.7-4,11.7-8l3-3c1.1,0.2,2.3,0.3,3.5,0.3c2.3,0,4.5-0.4,6.6-1.3
	c0.4,0.1,0.8,0.3,1.1,0.4c1.8,0.6,3.7,0.9,5.5,0.9c2.4,0,4.9-0.5,7.2-1.3c1.3-0.5,2.6-1.1,3.8-1.8c3.5,2,7.5,3,11.5,2.9
	c3,0,6-0.5,8.8-1.5c2.2-0.8,4.3-1.8,6.3-3c3.9,3,8.8,4.6,13.7,4.4c2.1,0,4.1-0.2,6.1-0.7c1.4,0.8,3,1.2,4.6,1.2h14.6
	c1.6,0,3.1-0.4,4.5-1.2c1.9,0.6,3.8,0.9,5.7,0.9c2.4,0,4.8-0.5,7.1-1.3c2.4-0.9,4.7-2.2,6.7-3.8c2.2-1.7,4.1-3.7,5.7-5.9
	c1.8-2.5,3.3-5.3,4.4-8.2l1.3-3.4C544.1,169.9,543.7,166.7,542,164.2L542,164.2z M530.8,171.9c-0.7,1.9-1.7,3.8-2.9,5.5
	c-1,1.4-2.2,2.6-3.5,3.6c-1.1,0.8-2.3,1.5-3.5,2c-1,0.4-2,0.6-3.1,0.6c-2.4,0-3.8-0.8-4.5-2.4c-0.4-1.1-0.6-2.3-0.6-3.4
	c0,1.2,0.2,2.3,0.6,3.4c0.6,1.6,2.1,2.4,4.5,2.4c1.1,0,2.1-0.2,3.1-0.6c1.3-0.5,2.5-1.2,3.5-2c1.3-1,2.5-2.3,3.5-3.6
	C529.1,175.7,530.1,173.8,530.8,171.9z M493,186.4l0.5-1.6L493,186.4z M458.4,182.6c-1.6,0.6-3.3,0.8-5,0.8c-3.3,0-5.8-1-7.5-2.9
	c-0.8-0.9-1.5-1.8-2-2.9c0.5,1.1,1.2,2,2,2.9c1.8,1.9,4.3,2.9,7.5,2.9C455.1,183.5,456.8,183.2,458.4,182.6c1.6-0.5,3.1-1.3,4.5-2.2
	c1.4-0.9,2.7-1.9,3.9-3.1c0.7-0.6,1.3-1.3,1.9-2c-0.6,0.7-1.2,1.3-1.9,2c-1.2,1.1-2.5,2.2-3.9,3.1
	C461.5,181.4,460,182.1,458.4,182.6z M441.2,162.4c-0.1,0.3-0.2,0.6-0.2,0.9c-0.6,2.3-0.9,4.7-0.9,7.1c0-2.4,0.3-4.8,0.9-7.1
	C441,163,441.1,162.7,441.2,162.4z M441.2,177.3c-1,1.4-2.2,2.6-3.5,3.6c-1,0.8-2.2,1.5-3.5,2c-1,0.4-2.1,0.6-3.2,0.6
	c-0.7,0-1.4-0.1-2-0.3c-0.7-0.2-1.3-0.5-1.8-1c-0.6-0.6-1-1.2-1.2-2c-0.3-1-0.5-2.1-0.4-3.2c0,1.1,0.1,2.2,0.4,3.2
	c0.2,0.8,0.6,1.4,1.2,2c0.5,0.5,1.1,0.8,1.8,1c0.6,0.2,1.3,0.3,2,0.3c1.1,0,2.2-0.2,3.2-0.6c1.3-0.5,2.4-1.2,3.5-2
	C439,179.9,440.2,178.7,441.2,177.3L441.2,177.3z M441.8,160.5c0.2-0.8,0.5-1.6,0.7-2.4s0.5-1.6,0.7-2.3l0.4-1.2l-0.4,1.2
	c-0.2,0.8-0.5,1.5-0.7,2.3S442,159.8,441.8,160.5L441.8,160.5z M440.1,171.3c-0.1,0.3-0.3,0.5-0.4,0.7
	C439.8,171.8,439.9,171.6,440.1,171.3z M438.7,170.8c-0.1,0.3-0.2,0.6-0.3,0.9C438.5,171.4,438.6,171.2,438.7,170.8z M438.2,176.3
	c-0.3,0.1-0.7,0.2-1,0.2c-0.1,0-0.2,0-0.2,0c0.1,0,0.2,0,0.2,0C437.5,176.5,437.9,176.4,438.2,176.3L438.2,176.3z M377.2,133.8
	c0,0.1-0.1,0.2-0.1,0.3c-0.5,1.2-1,2.5-1.4,3.9c0.5-1.3,0.9-2.6,1.4-3.9C377.2,134,377.2,133.9,377.2,133.8L377.2,133.8z
	 M374.9,148.8c0.3-1.2,0.7-2.5,1-3.7c1.1-3.6,2.2-7,3.4-10.1c1.2-3.1,2.6-6.1,4.2-9c-1.6,2.9-3,5.9-4.2,9c-1.2,3.1-2.4,6.5-3.4,10.1
	C375.6,146.4,375.2,147.6,374.9,148.8L374.9,148.8c-1.3,4.5-2.3,8.6-3,12.4C372.6,157.5,373.6,153.3,374.9,148.8L374.9,148.8z
	 M381.5,166.8c-0.7-0.4-1.4-0.7-2.2-1C380.1,166.1,380.8,166.5,381.5,166.8c1.7,1,3.2,2.2,4.6,3.6
	C384.8,169,383.2,167.8,381.5,166.8L381.5,166.8z M383.8,151.3c1.1-4.3,2.5-8.6,4.2-12.8c1.2-3.1,2.7-6.1,4.4-9l0.5-0.8
	c0,1.1-0.1,2.5-0.4,4c-0.6,4.2-1.5,8.3-2.7,12.4v0.1c-1.2,4.5-2.8,8.9-4.7,13.2c-0.9-0.5-1.9-0.9-2.9-1.3c0.4-1.8,0.9-3.6,1.5-5.5
	L383.8,151.3z M386.1,170.5c0.4,0.5,0.9,0.9,1.3,1.4C387,171.4,386.6,170.9,386.1,170.5L386.1,170.5z M371.9,178.4
	c-0.4-0.7-0.6-1.5-0.8-2.3C371.3,176.9,371.5,177.7,371.9,178.4c0.1,0.3,0.3,0.5,0.5,0.8C372.2,178.9,372.1,178.6,371.9,178.4
	L371.9,178.4z M404.4,123.3c0.3,3.1,0.3,6.2-0.1,9.2C404.7,129.4,404.7,126.3,404.4,123.3c-0.2-2.1-0.8-4.1-1.9-5.9
	C403.6,119.1,404.2,121.1,404.4,123.3L404.4,123.3z M404.2,134.1c-0.1,1-0.3,2-0.5,3C403.9,136.1,404,135.1,404.2,134.1
	c0.1-0.5,0.1-0.9,0.2-1.4C404.3,133.2,404.2,133.6,404.2,134.1z M403.6,137.7c-0.4,2-0.8,4.1-1.3,6.3
	C402.8,141.8,403.2,139.7,403.6,137.7L403.6,137.7z M373.5,144.9l0.3-1.1L373.5,144.9z M376.8,177.9l0.1,0.2L376.8,177.9l-0.2-0.3
	L376.8,177.9z M401.2,148.2c0.3-1.1,0.6-2.2,0.9-3.3C401.8,146,401.5,147,401.2,148.2c-1.3,4.7-2.9,9.4-4.8,13.9
	C398.3,157.5,399.9,152.9,401.2,148.2z M395.3,181.7c0.8,0.9,1.7,1.7,2.6,2.5C397,183.5,396.1,182.6,395.3,181.7L395.3,181.7z
	 M398.1,178c0.9-0.9,1.7-1.7,2.6-2.7C399.8,176.3,398.9,177.1,398.1,178L398.1,178z M424.6,174.7l0.2-0.3L424.6,174.7
	c-0.3,0.5-0.7,0.9-1.1,1.3C424,175.6,424.3,175.2,424.6,174.7L424.6,174.7z M423.1,169.7c0-0.1,0.1-0.2,0.1-0.4
	C423.2,169.5,423.2,169.6,423.1,169.7L423.1,169.7z M423.5,168.4l0.1-0.4L423.5,168.4z M424,166.9l0.1-0.5L424,166.9z M424.5,165
	c0.1-0.2,0.1-0.4,0.2-0.6C424.6,164.7,424.5,164.9,424.5,165L424.5,165z M430.1,146.3c-0.2,0.6-0.3,1.1-0.5,1.7
	C429.7,147.4,429.9,146.9,430.1,146.3L430.1,146.3z M427.7,154.4c-0.1,0.3-0.1,0.5-0.2,0.8c-0.1,0.4-0.3,0.9-0.4,1.3
	c0.1-0.4,0.3-0.9,0.4-1.3C427.5,154.9,427.6,154.6,427.7,154.4L427.7,154.4z M412.3,176.9c0-0.4,0-0.9,0.1-1.3
	C412.4,176,412.3,176.5,412.3,176.9c0,1.3,0.1,2.5,0.6,3.7C412.4,179.4,412.2,178.2,412.3,176.9L412.3,176.9z M425.5,173.2l0.5-0.9
	L425.5,173.2z M426.9,170.1l5.5-17.8L426.9,170.1l-0.1,0.5L426.9,170.1z M402.4,105.5c3.5,0,7,1.2,9.9,3.2
	C409.3,106.7,405.9,105.6,402.4,105.5L402.4,105.5z M367.4,132c-2.1,3.5-4.1,7.2-5.7,10.9C363.4,139.2,365.3,135.5,367.4,132
	c0.1-0.2,0.3-0.5,0.4-0.7C367.7,131.6,367.5,131.8,367.4,132L367.4,132z M359.6,148.1c-0.5,1.2-0.9,2.4-1.3,3.6
	C358.7,150.5,359.1,149.3,359.6,148.1s0.9-2.3,1.4-3.4C360.4,145.9,360,147,359.6,148.1L359.6,148.1z M357.3,155.1
	c-0.3,1-0.6,2-0.8,3C356.7,157.1,357,156.1,357.3,155.1L357.3,155.1z M355.1,169.6c0,2.5,0.3,5.1,0.9,7.5c0.8,3.2,2.5,6.2,5,8.4
	c0.9,0.8,2,1.4,3.1,1.9c-1.1-0.5-2.2-1.1-3.1-1.9c-2.5-2.2-4.2-5.1-5-8.4C355.4,174.7,355.1,172.2,355.1,169.6z M385.2,191.9
	c-0.4-0.5-0.8-1-1.2-1.5C384.4,190.9,384.8,191.3,385.2,191.9c1.2,1.5,2.8,2.7,4.6,3.4l0.7,0.2l-0.7-0.2
	C388,194.6,386.4,193.4,385.2,191.9L385.2,191.9z M395.6,195c2.1-0.8,4.6-2.5,7.4-5.3C400.2,192.5,397.8,194.2,395.6,195l-0.6,0.2
	L395.6,195z M417.7,183.6c-0.8,0-1.5-0.1-2.2-0.4C416.2,183.5,416.9,183.6,417.7,183.6c1.6,0,3.1-0.6,4.3-1.7l0.5-0.4l-0.5,0.4
	C420.8,183.1,419.3,183.6,417.7,183.6z M440.9,155.1c-0.9,2.9-1.8,5.8-2.6,8.6c-0.9,2.8-1.5,5-1.9,6.3c-0.3,1-0.6,2.1-0.8,3.2
	c-0.1,0.4-0.1,0.7-0.1,1.1c0-0.4,0-0.7,0.1-1.1c0.2-1.1,0.5-2.1,0.8-3.2c0.4-1.4,1-3.5,1.9-6.3S440,158.1,440.9,155.1
	c1-3.3,2.1-6.9,3.3-10.8C443,148.2,441.9,151.8,440.9,155.1L440.9,155.1z M474.5,152.9c0-0.3,0-0.6,0.1-0.9
	C474.6,152.3,474.5,152.6,474.5,152.9z M503.4,151.6l1.2-4L503.4,151.6z M520.6,142.9l0.2-0.5L520.6,142.9z M529.3,152.6
	c-0.6,2.6-1.3,5.2-2.3,7.8l-2.9,7.8c-0.7,1.9-1.3,3.9-1.7,5.9c-0.1,0.3-0.1,0.7-0.1,1c0-0.4,0-0.7,0.1-1c0.4-2,1-4,1.7-5.9l2.9-7.8
	C527.9,157.8,528.7,155.2,529.3,152.6c0.2-1.1,0.3-2.2,0.3-3.3C529.6,150.5,529.5,151.6,529.3,152.6L529.3,152.6z M525.2,173.3
	c0.1,0,0.2-0.1,0.3-0.2C525.4,173.2,525.3,173.3,525.2,173.3l-0.1,0.1c0-0.2,0.1-0.5,0.2-0.7c-0.1,0.2-0.1,0.5-0.2,0.7L525.2,173.3z
	 M469.2,164.5l-0.3,0.3L469.2,164.5z M459.5,157.7c0.2-0.5,0.5-1,0.7-1.5c0.1-0.2,0.1-0.4,0.2-0.6c-0.1,0.2-0.1,0.4-0.2,0.6
	C460,156.7,459.7,157.2,459.5,157.7z M504.7,164.1c-1,2.3-2.3,4.5-3.6,6.6c-0.5,0.7-0.9,1.3-1.4,2c0.5-0.6,0.9-1.3,1.4-2
	C502.5,168.6,503.7,166.4,504.7,164.1z M488.3,157.6c0.3-0.5,0.5-1,0.7-1.5c0.1-0.2,0.2-0.4,0.2-0.6c-0.1,0.2-0.1,0.4-0.2,0.6
	C488.8,156.7,488.5,157.2,488.3,157.6z M497.7,164.8c0.5-0.6,1.1-1.2,1.5-1.9C498.7,163.6,498.2,164.2,497.7,164.8z M496.2,169.5
	c-1.5,1.7-3.2,3.2-5,4.4c-1.5,1.1-3.3,1.7-5.1,1.7c-0.7,0-1-0.1-1.3-0.5c0.3,0.4,0.6,0.5,1.3,0.5c1.8,0,3.6-0.6,5.1-1.7
	C493,172.7,494.7,171.2,496.2,169.5c1.1-1.3,2.1-2.6,3-4l1.4-4.7l-1.4,4.7C498.3,166.9,497.3,168.3,496.2,169.5z M471.4,168.4
	c0.3-0.3,0.5-0.7,0.7-1C471.9,167.8,471.6,168.1,471.4,168.4c0,0.6-0.1,1.2-0.1,1.8s0,1.2,0,1.7c0.7-1,1.4-2.1,2.1-3.2
	c-0.7,1.1-1.4,2.2-2.1,3.2c0-0.6,0-1.1,0-1.7S471.4,169,471.4,168.4L471.4,168.4z M471.9,175.3c0.3-0.4,0.6-0.7,0.9-1.1
	C472.5,174.5,472.2,174.9,471.9,175.3z M497.3,171.9l-0.3,1L497.3,171.9z M500.7,175.3c0.3-0.4,0.6-0.7,0.9-1.1
	C501.3,174.5,501,174.9,500.7,175.3s-0.4,0.5-0.7,0.8C500.3,175.8,500.5,175.6,500.7,175.3L500.7,175.3z M506.9,165.1l0.8-1.7
	L506.9,165.1c-0.8,1.9-1.8,3.7-2.9,5.4C505.1,168.8,506.1,167,506.9,165.1L506.9,165.1z M515.6,150.9l2-6.5L515.6,150.9z
	 M445.7,174.5c-0.4,0.9-0.9,1.8-1.5,2.6C444.7,176.3,445.2,175.5,445.7,174.5L445.7,174.5z M442.5,171.9c0,0.5,0.1,0.9,0.1,1.4
	s0.1,0.9,0.2,1.3c0.5-0.9,0.9-1.8,1.3-2.7c-0.4,0.9-0.8,1.8-1.3,2.7c-0.1-0.4-0.2-0.8-0.2-1.3S442.6,172.3,442.5,171.9z
	 M469.2,174.7c-0.1-0.4-0.1-0.7-0.2-1.1l-0.1-0.5l0.1,0.5C469.1,174,469.1,174.3,469.2,174.7z M469,167.5c-0.5,0.7-1.1,1.4-1.6,2
	c-1.5,1.7-3.2,3.2-5,4.4c-1.5,1.1-3.3,1.7-5.1,1.7c-0.7,0-1-0.1-1.3-0.5c0.3,0.4,0.6,0.5,1.3,0.5c1.8,0,3.6-0.6,5.1-1.7
	c1.8-1.3,3.5-2.8,5-4.4C467.9,168.9,468.5,168.2,469,167.5c0.1-1.2,0.3-2.3,0.6-3.5C469.3,165.2,469.1,166.3,469,167.5L469,167.5z
	 M487.2,182.6c-1.6,0.6-3.3,0.8-5,0.8c-3.3,0-5.8-1-7.5-2.9c-1.3-1.5-2.3-3.3-2.8-5.2c0.5,1.9,1.5,3.7,2.8,5.2
	c1.8,1.9,4.3,2.9,7.5,2.9C483.9,183.5,485.6,183.2,487.2,182.6c1.6-0.5,3.1-1.3,4.5-2.2c1.4-0.9,2.7-1.9,3.8-3.1l0.1-0.1l-0.1,0.1
	c-1.2,1.1-2.5,2.2-3.8,3.1C490.3,181.4,488.8,182.1,487.2,182.6z M494.5,181.5l-0.3,0.9L494.5,181.5z M505.8,184l6.5-21.8
	c0.5-1.2,1-2.4,1.6-3.6s1.1-2.4,1.7-3.4c0.5-0.9,1.1-1.7,1.8-2.5c0.4-0.6,1.1-0.9,1.8-1c0.5,0,0.7,0.3,0.7,0.9
	c0-0.6-0.3-0.9-0.7-0.9c-0.7,0.1-1.3,0.4-1.8,1c-0.7,0.8-1.3,1.6-1.8,2.5c-0.5,1-1.1,2.1-1.7,3.4s-1.1,2.5-1.6,3.6L505.8,184z
	 M526.4,169c-0.3,0.7-0.5,1.4-0.7,2.1C525.9,170.5,526.2,169.8,526.4,169c0.4-1.2,0.9-2.4,1.4-3.7s1-2.6,1.5-4s1-2.9,1.4-4.2
	c0.3-1,0.5-2,0.8-2.9c-0.2,1-0.5,1.9-0.8,2.9c-0.4,1.4-0.9,2.8-1.4,4.2s-1,2.8-1.5,4S526.9,167.8,526.4,169L526.4,169z M525.1,141.9
	c1.5-0.1,3,0.3,4.3,1.2C528.1,142.3,526.6,141.8,525.1,141.9c-1.2,0-2.3,0.2-3.4,0.6C522.8,142.1,523.9,141.9,525.1,141.9
	L525.1,141.9z M508.2,141.9h-1.8l-0.3,0.9l0.3-0.9H508.2z M503.4,151.1c0-0.6-0.1-1.2-0.2-1.8C503.3,149.9,503.4,150.5,503.4,151.1
	L503.4,151.1z M478.2,148.5c-0.4,0.3-0.7,0.7-1.1,1.1c-0.5,0.5-0.9,1-1.4,1.6c0.4-0.5,0.9-1.1,1.4-1.6S477.8,148.9,478.2,148.5z
	 M474.6,151.1c0-0.6-0.1-1.2-0.2-1.8C474.5,149.9,474.6,150.5,474.6,151.1L474.6,151.1z M448.2,149.7c0.4-0.4,0.8-0.8,1.2-1.2
	C449,148.9,448.6,149.3,448.2,149.7c-1,1-1.9,2.1-2.7,3.3c-0.8,1.2-1.5,2.4-2.1,3.6c0.6-1.2,1.3-2.5,2.1-3.6
	C446.3,151.9,447.2,150.8,448.2,149.7z M419,118.5c1.3,4.4,1.8,9.1,1.3,13.7v0.4c0-0.1,0-0.3,0-0.4C420.7,127.6,420.3,123,419,118.5
	c-0.9-2.8-2.4-5.4-4.4-7.6C416.6,113.1,418.1,115.7,419,118.5L419,118.5z M365.3,130.8l0.5-0.7L365.3,130.8
	c-0.7,1.3-1.5,2.5-2.2,3.9C363.8,133.3,364.5,132,365.3,130.8L365.3,130.8z M299.6,183c-1,0.4-2.1,0.6-3.2,0.6
	c-0.9,0-1.8-0.2-2.6-0.6c-0.9-0.4-1.6-1.1-2-2c-0.6-1.3-0.8-2.7-0.7-4.1c0.1-2.3,0.6-4.6,1.3-6.8l2.9-9.2l-2.9,9.2
	c-0.7,2.2-1.2,4.5-1.3,6.8c-0.1,1.4,0.1,2.8,0.7,4.1c0.4,0.9,1.1,1.6,2,2c0.8,0.4,1.7,0.6,2.6,0.6
	C297.5,183.6,298.6,183.4,299.6,183c1.3-0.5,2.5-1.1,3.5-2c0.6-0.5,1.2-1,1.7-1.6c-0.5,0.6-1.1,1.1-1.7,1.6
	C302.1,181.9,300.9,182.5,299.6,183L299.6,183z M211.1,183.7l-3.2,0.4L211.1,183.7z M200,192.3c-0.6,0-1.2-0.1-1.9-0.2
	c-0.2,0-0.4-0.1-0.6-0.2c-2.1-0.6-3.8-2.2-4.7-4.2c-1-2.2-1.6-4.6-1.8-7c-0.3-2.9-0.4-5.7-0.4-8.6c0-3-0.1-5.9-0.5-8.8
	c-0.3-2.7-1.1-5.3-2.2-7.7c-1.1-2.3-3-4.2-5.4-5.3c2.4,1,4.3,2.9,5.4,5.3c1.1,2.4,1.8,5,2.2,7.7c0.4,2.9,0.6,5.9,0.5,8.8
	c0,2.9,0.1,5.8,0.4,8.6c0.2,2.4,0.8,4.8,1.8,7c0.9,2,2.6,3.5,4.7,4.2c0.2,0.1,0.4,0.1,0.6,0.2C198.7,192.2,199.4,192.3,200,192.3
	c0.2,0,0.4,0,0.6,0C200.4,192.3,200.2,192.3,200,192.3L200,192.3z M163.5,189.2c-3,2.5-6.9,3.8-10.8,3.8c-1.8,0-3.5-0.2-5.3-0.7
	c-1.6-0.4-3-1.2-4.3-2.3c-1.2-1.1-2-2.6-2.3-4.2c-0.3-1.4-0.3-2.9,0-4.4c-0.3,1.4-0.3,2.9,0,4.4c0.3,1.6,1.2,3,2.3,4.2
	c1.2,1.1,2.7,1.9,4.3,2.3c1.7,0.5,3.5,0.7,5.3,0.7C156.6,193,160.5,191.7,163.5,189.2c0.8-0.6,1.5-1.3,2.2-2
	C165,187.9,164.3,188.5,163.5,189.2L163.5,189.2z M236.2,109.8c-2.5,0.7-4.8,2-6.7,3.9c-1.1,1-2.2,2.1-3.2,3.2
	c1.1-1.2,2.2-2.2,3.2-3.2C231.3,111.8,233.6,110.5,236.2,109.8z M290.4,143.1l0.2-0.6L290.4,143.1z M302.9,129.5v0.4
	C303,129.8,303,129.6,302.9,129.5L302.9,129.5z M309.5,171.9c-0.1,0.2-0.1,0.4-0.2,0.5C309.3,172.2,309.4,172.1,309.5,171.9z
	 M308,169.4c0.1-1.3,0.2-2.6,0.5-3.9C308.3,166.8,308.1,168.1,308,169.4z M306.7,162.4c-0.2,0.7-0.4,1.4-0.6,2.1s-0.4,1.2-0.5,1.8
	c0.2-0.5,0.3-1.1,0.5-1.8S306.5,163.1,306.7,162.4z M291,162.1h0.4C291.2,162.1,291.1,162.1,291,162.1c-0.2,0-0.4,0-0.6,0
	c-0.5,0-0.9,0-1.4-0.1c0.4,0.1,0.9,0.1,1.4,0.1C290.6,162.1,290.8,162,291,162.1L291,162.1z M292,161.9l0.3-0.1L292,161.9z
	 M290.8,159.6c0.8-0.1,1.6-0.2,2.4-0.5C292.4,159.3,291.6,159.5,290.8,159.6L290.8,159.6z M297.4,143.2l0,0.3c0,0.3-0.1,0.6-0.1,0.9
	c0-0.3,0.1-0.6,0.1-0.9L297.4,143.2z M303.7,173.6L303.7,173.6L303.7,173.6c0.5-0.3,0.9-0.7,1.2-1.1
	C304.6,172.9,304.2,173.3,303.7,173.6L303.7,173.6z M300.9,173.9c0-0.2,0-0.4,0.1-0.6s0.1-0.5,0.2-0.8c-0.1,0.3-0.1,0.6-0.2,0.8
	S300.9,173.7,300.9,173.9L300.9,173.9z M301.4,171.3c0-0.2,0.1-0.4,0.2-0.5C301.6,170.9,301.5,171.1,301.4,171.3L301.4,171.3z
	 M303.4,173.8c0.2-1,0.4-1.9,0.8-2.9l0.6-1.9l-0.6,1.9C303.8,171.8,303.6,172.8,303.4,173.8z M297.1,146.6c0-0.2,0-0.4,0-0.6V146.6z
	 M297.8,152.4l-1.6,5.3L297.8,152.4z M300.1,145.2l-1.5,4.9L300.1,145.2z M299.1,150.1c-0.1,0-0.3,0-0.4,0
	C298.8,150.1,298.9,150.1,299.1,150.1z M296.4,157.5c1.4-0.9,2.8-2,4-3.2C299.2,155.5,297.8,156.6,296.4,157.5L296.4,157.5z
	 M298,143.6l-0.3,0.9L298,143.6z M300.7,157.3c-0.4,0.3-0.7,0.6-1.1,0.9C300,157.9,300.4,157.6,300.7,157.3z M302.7,176.5
	c0.4,0,0.8-0.1,1.2-0.3C303.5,176.4,303.1,176.5,302.7,176.5c-0.1,0-0.1,0-0.2,0C302.6,176.5,302.6,176.5,302.7,176.5L302.7,176.5z
	 M306,174.9c-0.3,0.2-0.5,0.5-0.8,0.7C305.5,175.4,305.8,175.1,306,174.9c0,0.1,0,0.2,0.1,0.3C306,175.1,306,175,306,174.9
	L306,174.9z M308.3,148.9l-0.6,0.7L308.3,148.9z M314.8,148.7L314.8,148.7L314.8,148.7z M323.1,158.9c0.4-1.1,0.8-2.1,1.3-3.1
	C323.9,156.8,323.5,157.8,323.1,158.9L323.1,158.9z M321.4,174.7c0,0.1,0,0.1,0.1,0.2c0.3,0.6,0.6,0.8,1.4,0.8
	c1.8,0,3.6-0.6,5.1-1.7c1.8-1.3,3.5-2.7,4.9-4.4c-1.5,1.6-3.1,3.1-4.9,4.4c-1.5,1.1-3.3,1.7-5.1,1.7c-0.8,0-1.1-0.2-1.4-0.8
	C321.4,174.8,321.4,174.8,321.4,174.7z M311.2,157.6c-1,1.9-1.7,3.9-2.3,5.9C309.5,161.5,310.3,159.5,311.2,157.6z M333.5,172.5
	c0.4-0.4,0.8-0.9,1.2-1.3c1.6-1.8,3-3.8,4.3-5.9c-1.3,2.1-2.7,4.1-4.3,5.9C334.4,171.6,334,172,333.5,172.5L333.5,172.5z
	 M334.4,164.9c1.8-1.9,3.2-4.2,4.2-6.6c0.2-0.5,0.4-1,0.6-1.6c-0.2,0.5-0.4,1-0.6,1.6C337.6,160.7,336.2,163,334.4,164.9
	L334.4,164.9z M314.7,132.8c0.1-0.2,0.2-0.3,0.3-0.5C314.9,132.5,314.8,132.6,314.7,132.8z M315.5,130.2c0,0,0,0.1,0,0.1
	S315.5,130.2,315.5,130.2L315.5,130.2z M315.3,131.3c0,0.1-0.1,0.2-0.1,0.4C315.3,131.5,315.3,131.4,315.3,131.3L315.3,131.3z
	 M303.9,126.3c0.3-0.4,0.6-0.8,0.9-1.1C304.4,125.5,304.1,125.8,303.9,126.3L303.9,126.3z M286,149.1l1.5-4.7L286,149.1z
	 M207.5,186.6c-0.6,0-1.2-0.1-1.7-0.3C206.3,186.5,206.9,186.6,207.5,186.6h0.4H207.5z M144.2,171.4c0.4,0.1,0.7,0.3,1.1,0.4
	C144.9,171.6,144.5,171.5,144.2,171.4z M143.3,175.8c-0.6,0.6-1.2,1.3-1.5,2.1C142.1,177.1,142.6,176.4,143.3,175.8L143.3,175.8z
	 M209.1,140.7c-2.5,2.3-5.2,4.4-8,6.3c-0.7,0.5-1.5,0.9-2.3,1.3c0.8-0.4,1.5-0.8,2.3-1.3C203.9,145.1,206.5,143,209.1,140.7
	L209.1,140.7z M203.5,172.4c-0.1-1.3-0.2-2.5-0.3-3.8C203.3,169.9,203.4,171.1,203.5,172.4L203.5,172.4z M203.2,168.2
	c-0.1-1.3-0.3-2.7-0.5-4.1c-0.3-2-0.6-4-1.1-5.9c0.4,1.9,0.8,3.9,1.1,5.9C202.8,165.5,203,166.8,203.2,168.2L203.2,168.2z
	 M197.7,148.9c1.4,1.9,2.4,4,3.1,6.2C200.1,152.8,199,150.7,197.7,148.9z M203.9,176.3c0.2,1.2,0.4,2.3,0.6,3.2
	c0.2,0.9,0.5,1.8,0.8,2.6c-0.4-0.9-0.6-1.7-0.8-2.6C204.2,178.5,204,177.4,203.9,176.3L203.9,176.3z M205.7,182.9l-0.2-0.4
	L205.7,182.9z M206.7,183.9c-0.1,0-0.2-0.1-0.3-0.2C206.5,183.8,206.5,183.9,206.7,183.9L206.7,183.9z M226.7,155.5
	c-0.4,0.8-0.7,1.6-1.1,2.5c-0.9,2.2-1.6,4.5-2.2,6.9c-0.6,2.3-1.1,4.5-1.4,6.8c-0.1,0.4-0.1,0.8-0.1,1.1c0-0.4,0.1-0.7,0.1-1.1
	c0.3-2.3,0.8-4.6,1.4-6.8c0.6-2.3,1.3-4.6,2.2-6.9C225.9,157.1,226.3,156.2,226.7,155.5z M226.7,161.3l-0.2,0.9L226.7,161.3z
	 M221.7,161.9c-0.1,0.3-0.2,0.7-0.3,1C221.5,162.5,221.6,162.2,221.7,161.9z M219.3,173.7c0-0.3,0.1-0.6,0.1-0.9
	C219.3,173.2,219.3,173.5,219.3,173.7L219.3,173.7z M229.7,159.1c-0.2,0.9-0.4,1.8-0.6,2.8C229.3,161,229.5,160.1,229.7,159.1
	L229.7,159.1z M217.9,130.8c-0.6,0.8-1.2,1.6-1.9,2.3C216.7,132.4,217.3,131.6,217.9,130.8l1.8-2.3c1.2-1.5,2.3-2.9,3.4-4.3
	c-1.1,1.4-2.3,2.8-3.4,4.3L217.9,130.8z M218.1,126.6c1.5-1.9,3-3.8,4.5-5.5C221.1,122.9,219.6,124.7,218.1,126.6L218.1,126.6z
	 M208.4,137.9c-2.6,2.6-5.5,5-8.6,7c-3,2-6.4,3.2-9.9,3.8c3.5-0.6,6.9-1.8,9.9-3.8C202.8,142.9,205.7,140.5,208.4,137.9z
	 M165.2,151.9c-1.7-1.4-3.9-2.1-6.1-2.1h-0.2c-2.2,0-4.4,0.8-6.2,2.1c-0.5,0.4-0.9,0.8-1.3,1.2c0.4-0.4,0.8-0.8,1.3-1.2
	c1.8-1.4,4-2.1,6.2-2.1h0.2C161.3,149.8,163.5,150.5,165.2,151.9c0.7,0.5,1.3,1.2,1.8,2C166.5,153.1,165.9,152.5,165.2,151.9
	L165.2,151.9z M153.7,154.3c-0.7,0.7-1.3,1.5-1.5,2.5C152.4,155.9,152.9,155,153.7,154.3L153.7,154.3z M187.3,143
	c0.6-2,1.2-4,1.8-5.9C188.5,139.1,187.9,141.1,187.3,143z M188.9,129.7c0.6-1.8,1.3-3.5,2-5.1c0.5-1.2,1.1-2.4,1.7-3.5
	c-0.6,1.1-1.2,2.3-1.7,3.5C190.2,126.3,189.5,128,188.9,129.7L188.9,129.7z M191.2,130.6c-0.2,0.5-0.4,1.1-0.6,1.6
	C190.8,131.7,191,131.2,191.2,130.6z M187.6,133.6c0.1-0.3,0.2-0.6,0.3-0.9C187.7,133.1,187.7,133.4,187.6,133.6z M151,161.5
	c-0.2-0.2-0.3-0.5-0.4-0.7C150.7,161.1,150.8,161.3,151,161.5L151,161.5z M149.9,155.6c0.2-0.5,0.4-1,0.7-1.5
	C150.3,154.6,150.1,155.1,149.9,155.6z M149.4,144.5c-0.3,1.5-0.4,3-0.6,4.4C148.9,147.5,149.1,146,149.4,144.5L149.4,144.5z
	 M148.8,153.4c0.1,1.2,0.2,2.5,0.5,3.7c0.1,0.3,0.1,0.6,0.2,0.9c-0.1-0.3-0.2-0.6-0.2-0.9C149,155.9,148.8,154.6,148.8,153.4
	c0-0.7-0.1-1.3,0-2C148.7,152.1,148.7,152.8,148.8,153.4L148.8,153.4z M149.9,142.2c0.2-0.8,0.4-1.6,0.6-2.4
	c0.9-3.3,2.3-6.4,3.9-9.4c0.3-0.5,0.6-1,0.9-1.5c-0.3,0.5-0.6,1-0.9,1.5c-1.6,3-3,6.2-3.9,9.4C150.2,140.6,150,141.4,149.9,142.2
	L149.9,142.2z M187.2,112.6c-2.3-0.3-4.7-0.4-7.1-0.4c-4.1-0.1-8.3,0.7-12.1,2.3c-3.4,1.5-6.5,3.5-9.3,6.1c-1.2,1.2-2.4,2.4-3.5,3.8
	c1.1-1.4,2.2-2.6,3.5-3.8c2.7-2.5,5.8-4.6,9.3-6.1c3.8-1.6,8-2.4,12.1-2.4C182.5,112.2,184.9,112.3,187.2,112.6
	c2.1,0.2,4.1,0.8,6,1.6C191.3,113.4,189.2,112.9,187.2,112.6L187.2,112.6z M185.9,115c-0.9-0.1-1.8-0.2-2.8-0.2
	C184.1,114.8,185,114.8,185.9,115L185.9,115z M175.8,115l-0.4,0.1L175.8,115z M173.2,115.4c-1,0.2-2,0.5-2.9,0.9
	C171.2,116,172.2,115.6,173.2,115.4L173.2,115.4z M159.6,123.3c-0.3,0.3-0.6,0.7-1,1C159,124,159.3,123.6,159.6,123.3L159.6,123.3z
	 M153.2,127.6c0.3-0.5,0.6-1,1-1.5C153.8,126.6,153.5,127.1,153.2,127.6z M152.4,163.1c0.5,0.3,1,0.5,1.6,0.5c0.3,0,0.5-0.1,0.8-0.2
	c-0.2,0.2-0.5,0.2-0.8,0.2C153.5,163.6,152.9,163.4,152.4,163.1z M154.9,161.4c0,0-0.1-0.1-0.2-0.1
	C154.8,161.3,154.9,161.4,154.9,161.4l0.2,0.2L154.9,161.4z M154.4,161.1l0.2,0.1L154.4,161.1z M167.3,152.7c0.1-0.3,0.2-0.7,0.3-1
	C167.5,152.1,167.4,152.4,167.3,152.7l-0.1,0.3L167.3,152.7z M171,141c-0.3,0.9-0.6,1.8-0.9,2.7C170.4,142.8,170.7,141.9,171,141z
	 M175,130.6c-0.6,1.2-1.1,2.5-1.6,3.8C173.8,133.1,174.4,131.8,175,130.6L175,130.6z M176.4,127.6c-0.2,0.5-0.5,0.9-0.7,1.4
	C175.9,128.6,176.1,128.1,176.4,127.6L176.4,127.6z M183.4,117.2c0.2-0.2,0.4-0.4,0.6-0.6C183.8,116.8,183.6,117,183.4,117.2
	c-0.6,0.6-1.1,1.2-1.7,1.9C182.3,118.4,182.8,117.8,183.4,117.2L183.4,117.2z M193.7,119.4c-0.2,0.3-0.4,0.7-0.6,1
	C193.2,120.1,193.4,119.7,193.7,119.4L193.7,119.4z M195,140.5l0.1-0.1L195,140.5z M198.6,136.2c0.7-0.9,1.3-1.9,2-2.9
	C199.9,134.4,199.3,135.3,198.6,136.2L198.6,136.2z M194.5,137.5c-0.8,0.9-1.6,1.7-2.5,2.5C192.9,139.2,193.7,138.4,194.5,137.5
	c0.6-0.7,1.2-1.4,1.7-2.2C195.7,136,195.1,136.8,194.5,137.5L194.5,137.5z M196.8,119.2c-0.5,0.7-1,1.4-1.5,2.1
	c-0.3,0.5-0.6,1.1-0.9,1.6c-0.5,0.9-0.9,1.8-1.3,2.8c-0.2,0.5-0.5,1.1-0.7,1.7c0.2-0.6,0.5-1.2,0.7-1.7c0.4-1,0.9-1.9,1.3-2.8
	c0.3-0.6,0.6-1.1,0.9-1.6C195.8,120.5,196.3,119.8,196.8,119.2c0.5-0.7,1.2-1.3,2-1.8C198.1,117.8,197.4,118.4,196.8,119.2
	L196.8,119.2z M195,117.5c0.3-0.4,0.6-0.8,1-1.1C195.6,116.8,195.3,117.1,195,117.5L195,117.5z M199.9,114.5
	c-1.5,0.2-2.8,0.9-3.9,1.9C197.1,115.4,198.4,114.7,199.9,114.5h0.2h0.1h-0.1H199.9z M146.6,146.7c0.1-0.9,0.3-1.9,0.4-2.8
	C146.8,144.9,146.7,145.8,146.6,146.7L146.6,146.7z M156.6,159.5c-0.9-0.8-2.4-1.2-4.6-1.2C154.1,158.3,155.7,158.7,156.6,159.5
	c0.8,0.6,1.3,1.6,1.4,2.6c0,0.6-0.1,1.2-0.4,1.7c0.3-0.5,0.4-1.1,0.4-1.7C157.9,161.2,157.4,160.2,156.6,159.5L156.6,159.5z
	 M156.9,164.7c0,0-0.1,0.1-0.1,0.1C156.8,164.8,156.9,164.8,156.9,164.7L156.9,164.7z M164.8,163.8c0.7-1.4,1.1-2.9,1.1-4.5
	C165.9,160.9,165.6,162.4,164.8,163.8c-0.3,0.6-0.7,1.2-1.1,1.7C164.1,165,164.5,164.4,164.8,163.8L164.8,163.8z M157,179.7
	c0,0.1-0.1,0.2-0.1,0.3C156.9,179.9,157,179.8,157,179.7L157,179.7z M156.6,180.7c-0.2,0.4-0.4,0.8-0.6,1.2
	C156.3,181.5,156.5,181.1,156.6,180.7L156.6,180.7z M152.9,181.6c1,0.1,1.9,0.5,2.6,1.1l0.3-0.4l-0.3,0.4
	C154.8,182,153.9,181.6,152.9,181.6c-0.8,0-1.5,0.2-2.1,0.7c-0.2,0.1-0.3,0.2-0.4,0.4c0.1-0.1,0.3-0.3,0.4-0.4
	C151.4,181.8,152.2,181.5,152.9,181.6L152.9,181.6z M155.1,185.6c-0.5,0.4-1.1,0.7-1.8,0.7c-0.3,0-0.6,0-0.9-0.1
	c0.3,0.1,0.6,0.1,0.9,0.1C154,186.3,154.6,186,155.1,185.6z M151.7,185.8c0,0-0.1-0.1-0.1-0.2C151.6,185.7,151.6,185.8,151.7,185.8
	L151.7,185.8z M153.8,184.5L153.8,184.5l0.3,0.2L153.8,184.5L153.8,184.5z M149.2,184.6l0.1-0.3L149.2,184.6z M159.5,178
	c-0.1-1.3-0.6-2.5-1.3-3.5C159,175.5,159.4,176.7,159.5,178L159.5,178z M156.2,172.5c0.5-0.1,0.9-0.2,1.4-0.4
	C157.1,172.3,156.6,172.4,156.2,172.5z M158.2,185.8c1.1-1.6,2.1-3.3,2.9-5.1C160.3,182.5,159.3,184.2,158.2,185.8
	c-0.2,0.3-0.4,0.5-0.6,0.7C157.8,186.3,158,186,158.2,185.8z M167.2,162.4c0.8-2.9,1.7-5.9,2.6-9c0.2-0.8,0.5-1.6,0.7-2.4
	c-0.2,0.8-0.5,1.6-0.7,2.4C168.8,156.4,168,159.4,167.2,162.4z M172.5,144.5c-0.5,1.5-1,3-1.4,4.6
	C171.5,147.5,171.9,146,172.5,144.5L172.5,144.5z M185.2,118.9c-2,2.2-3.7,4.5-5.2,7.1C181.5,123.4,183.2,121,185.2,118.9z
	 M239.6,171.6c-0.3,2.1-0.1,4.2,0.4,6.2c0.1,0.4,0.3,0.7,0.4,1.1c-0.2-0.3-0.3-0.7-0.4-1.1C239.5,175.8,239.3,173.7,239.6,171.6z
	 M270.4,154.6c0-0.3,0-0.6,0-0.9C270.5,153.9,270.4,154.2,270.4,154.6L270.4,154.6z M252.4,170.1c-0.1,0.5-0.2,1.1-0.3,1.6
	s-0.1,0.8-0.1,1.1c0-0.4,0.1-0.7,0.1-1.1S252.4,170.6,252.4,170.1L252.4,170.1z M256.9,155.5c-0.4,0.8-0.7,1.6-1.1,2.5
	c-0.9,2.2-1.6,4.5-2.2,6.9c-0.3,1.2-0.6,2.4-0.8,3.5c0.2-1.1,0.5-2.3,0.8-3.5c0.6-2.3,1.3-4.6,2.2-6.9
	C256.1,157.1,256.5,156.3,256.9,155.5z M256.9,161.4c-0.1,0.3-0.1,0.6-0.2,0.9C256.8,161.9,256.9,161.6,256.9,161.4L256.9,161.4z
	 M251.8,161.9c-0.1,0.3-0.2,0.7-0.3,1C251.6,162.6,251.7,162.3,251.8,161.9z M259.9,159.2c-0.2,0.9-0.4,1.8-0.6,2.8
	C259.6,161,259.8,160.1,259.9,159.2L259.9,159.2z M249.5,173.7c0-0.3,0-0.6,0.1-0.9C249.6,173.2,249.5,173.5,249.5,173.7z
	 M278,144.3l-11.8,39.6L278,144.3z M266.4,142.8c0.3,0.1,0.5,0.2,0.7,0.3C266.9,143,266.7,142.9,266.4,142.8z M243.3,158.4
	c-0.8,1.6-1.4,3.2-1.9,4.8C241.9,161.6,242.5,160,243.3,158.4z M239.7,171.3c0.3-2.3,0.8-4.6,1.4-6.9
	C240.4,166.6,240,168.9,239.7,171.3z M236.2,142.8l0.6,0.3L236.2,142.8z M206.2,124.6l-0.9,1.3L206.2,124.6c0.9-1.4,1.9-2.7,2.9-4.1
	C208,121.9,207.1,123.3,206.2,124.6z M201.4,116.6c0.2-0.1,0.4-0.2,0.5-0.4C201.8,116.3,201.6,116.5,201.4,116.6L201.4,116.6z
	 M147.7,121.4c-0.9,0.9-1.7,1.8-2.5,2.7C145.9,123.2,146.8,122.3,147.7,121.4L147.7,121.4z M136.6,160.7c1.3,2.9,3.4,5.3,6,7
	c3,1.9,6.6,2.8,10.1,2.6c1.7,0,3.3-0.3,4.9-0.8c1.5-0.5,3-1.3,4.3-2.3c0.3-0.2,0.6-0.5,0.9-0.8c-0.3,0.3-0.6,0.5-0.9,0.8
	c-1.3,1-2.7,1.8-4.3,2.4c-1.6,0.6-3.2,0.8-4.9,0.8c-3.6,0.1-7.1-0.8-10.1-2.6C139.9,166.1,137.8,163.7,136.6,160.7
	c-1.4-3.1-2.1-6.5-2-9.9c0-0.9,0.1-1.8,0.1-2.7c-0.1,0.9-0.1,1.8-0.1,2.7C134.5,154.2,135.2,157.6,136.6,160.7L136.6,160.7z
	 M134.8,147.7c0.2-1.8,0.5-3.5,0.9-5.2C135.3,144.3,135,146,134.8,147.7L134.8,147.7z M148.9,173.3h-0.2H148.9z M142.2,173.5
	c0.2-0.2,0.5-0.4,0.7-0.5C142.7,173.1,142.5,173.3,142.2,173.5c-0.2,0.2-0.4,0.3-0.6,0.5C141.8,173.8,142,173.7,142.2,173.5
	L142.2,173.5z M141.4,178.9c0,0.1-0.1,0.3-0.1,0.4c-0.1,0.6-0.3,1.1-0.4,1.6c0.1-0.5,0.2-1,0.4-1.6
	C141.3,179.2,141.3,179.1,141.4,178.9L141.4,178.9z M171.6,179.3c0.7-1.3,1.4-2.6,2.1-4C173.1,176.7,172.4,178,171.6,179.3
	c-0.5,0.8-1,1.6-1.5,2.4C170.6,181,171.2,180.2,171.6,179.3L171.6,179.3z M176.6,168.6c-0.2,0.5-0.4,1-0.6,1.4
	C176.3,169.6,176.5,169.1,176.6,168.6L176.6,168.6z M179.4,160.5c-0.3,0.8-0.6,1.7-0.8,2.5c0.3-0.8,0.6-1.6,0.8-2.4L179.4,160.5z
	 M181.8,152.9l-0.7,2.4L181.8,152.9z M201.2,192.2c1.1-0.2,2.3-0.6,3.3-1.1c0.9-0.5,1.7-1.2,2.4-2c-0.7,0.8-1.5,1.5-2.4,2
	C203.4,191.6,202.3,192,201.2,192.2l-0.5,0.1L201.2,192.2z M209.8,177.8c-0.6-2-0.7-4.2-0.4-6.2c0.3-2.6,0.8-5.1,1.6-7.6
	c0.3-1.1,0.7-2.1,1.1-3.2c-0.4,1-0.8,2.1-1.1,3.2c-0.7,2.5-1.2,5.1-1.6,7.6C209,173.6,209.2,175.7,209.8,177.8
	c0.1,0.4,0.3,0.7,0.4,1.1C210,178.5,209.9,178.1,209.8,177.8L209.8,177.8z M237,167.7c0.4-0.8,0.7-1.7,1-2.5
	C237.7,166,237.4,166.9,237,167.7z M263.2,178.5c1.2-1.3,2.3-2.7,3.3-4.2C265.5,175.7,264.4,177.1,263.2,178.5z M284.7,153.2
	c0.1,1.8,0.8,3.6,2,4.9c0.7,0.7,1.6,1.2,2.7,1.4c-1-0.2-1.9-0.7-2.7-1.4C285.5,156.7,284.8,155,284.7,153.2l-2.7,9.1L284.7,153.2z
	 M288.8,161.9c-0.3-0.1-0.7-0.2-1-0.3C288.1,161.7,288.5,161.8,288.8,161.9L288.8,161.9z M287.3,161.4c-0.2-0.1-0.4-0.2-0.6-0.3
	C286.9,161.2,287.2,161.3,287.3,161.4L287.3,161.4z M306.5,163.3c-0.1,0.4-0.2,0.8-0.3,1.3C306.3,164.1,306.4,163.7,306.5,163.3
	l0.1-0.3L306.5,163.3z M306.7,154.1c0.4-1.3,0.8-2.7,1.3-4C307.5,151.4,307.2,152.8,306.7,154.1L306.7,154.1z M308.7,155.9
	c0.3-0.8,0.5-1.6,0.8-2.5l1.8-5.9l-1.8,5.9C309.2,154.2,309,155,308.7,155.9c-0.5,1.6-1,3.1-1.4,4.7
	C307.8,159,308.3,157.4,308.7,155.9L308.7,155.9z M308,171.9c0,0.5,0.1,0.9,0.1,1.4s0.1,0.7,0.2,1.1c0.1-0.2,0.2-0.4,0.3-0.6
	c-0.1,0.2-0.2,0.4-0.3,0.6c-0.1-0.4-0.1-0.7-0.2-1.1S308.1,172.3,308,171.9L308,171.9z M324,182.6c-1.6,0.6-3.3,0.8-5,0.8
	c-3.3,0-5.8-1-7.5-2.9c-0.8-0.9-1.5-1.9-2-3c0.7-1.1,1.3-2.3,1.8-3.5c0.2-0.4,0.4-0.9,0.5-1.3l0.4-1l-0.4,1
	c-0.2,0.4-0.4,0.9-0.5,1.3c-0.5,1.2-1.1,2.4-1.8,3.5c0.5,1.1,1.2,2.1,2,3c1.8,1.9,4.3,2.9,7.5,2.9
	C320.7,183.5,322.4,183.2,324,182.6c1.6-0.5,3.1-1.3,4.5-2.2c1.4-0.9,2.7-1.9,3.9-3.1c-1.2,1.1-2.5,2.2-3.9,3.1
	C327,181.4,325.5,182.1,324,182.6z M335.5,173.8c1.1-1.3,2-2.6,2.9-4.1C337.5,171.2,336.6,172.5,335.5,173.8
	c-0.5,0.6-0.9,1.1-1.4,1.7C334.6,174.9,335.1,174.3,335.5,173.8L335.5,173.8z M339.8,167.4c-0.3,0.5-0.5,1-0.8,1.4
	C339.3,168.3,339.6,167.8,339.8,167.4L339.8,167.4z M341.1,164.8c-0.2,0.4-0.4,0.9-0.6,1.3C340.7,165.6,340.9,165.2,341.1,164.8
	L341.1,164.8z M339.4,156.2c0.5-1.6,0.7-3.3,0.7-5c0-1.8-0.5-3.6-1.4-5.1c0.9,1.6,1.4,3.3,1.4,5.1
	C340.1,152.8,339.9,154.5,339.4,156.2L339.4,156.2z M318,129.6c0,1.4-0.3,2.8-1,4C317.7,132.4,318,131,318,129.6
	c0-2.4-0.9-4.6-2.6-6.3C317.1,124.9,318,127.2,318,129.6L318,129.6z M303.1,123.4c1.7-1.6,3.9-2.5,6.2-2.5c1.9,0,3.7,0.6,5.2,1.7
	c-1.5-1.1-3.3-1.7-5.2-1.7C307,120.8,304.7,121.7,303.1,123.4c-0.2,0.2-0.4,0.4-0.6,0.6C302.7,123.7,302.9,123.5,303.1,123.4
	L303.1,123.4z M301.8,125c-0.2,0.4-0.5,0.8-0.6,1.2C301.3,125.7,301.5,125.3,301.8,125L301.8,125z M300.5,129c0-0.1,0-0.2,0-0.3
	C300.5,128.7,300.5,128.8,300.5,129L300.5,129z M272.9,152.9l0.5-1.7L272.9,152.9c-0.1-1.2-0.3-2.5-0.6-3.6
	c-0.2-0.5-0.3-0.9-0.5-1.4c0.2,0.5,0.4,0.9,0.5,1.4C272.6,150.4,272.8,151.7,272.9,152.9L272.9,152.9z M271.4,147.2
	c-0.5-0.9-1.1-1.6-1.8-2.3C270.3,145.6,270.9,146.4,271.4,147.2L271.4,147.2z M247.4,148.4c-0.8,0.8-1.6,1.7-2.3,2.6
	C245.9,150,246.6,149.2,247.4,148.4L247.4,148.4z M242,149.3c0.5,1.7,0.7,3.5,0.6,5.3C242.7,152.8,242.5,151,242,149.3
	c-0.5-1.7-1.4-3.2-2.6-4.4C240.6,146.1,241.5,147.6,242,149.3L242,149.3z M231.2,115.4c-1,1-2.1,2-3.2,3.2
	C229.1,117.5,230.1,116.4,231.2,115.4c0.2-0.2,0.5-0.4,0.7-0.6C231.6,115,231.4,115.2,231.2,115.4z M232.6,114.3
	c0.4-0.3,0.9-0.7,1.4-0.9C233.5,113.6,233,113.9,232.6,114.3L232.6,114.3z M236.8,112.2c-0.7,0.2-1.4,0.4-2.1,0.8
	C235.4,112.6,236.1,112.4,236.8,112.2l5.8-1.4L236.8,112.2z M246.2,109.9l-5.9-1.6L246.2,109.9z M236.1,107.2
	c-2.3-0.6-4.8-0.9-7.2-0.9c-0.6,0-1.1,0-1.7,0.1c0.5,0,1.1-0.1,1.7-0.1C231.3,106.3,233.7,106.6,236.1,107.2L236.1,107.2z
	 M202.7,113.2l-0.8-0.6L202.7,113.2z M192,107.4c3.5,0.9,6.8,2.6,9.6,4.9C198.8,110,195.5,108.3,192,107.4c-0.9-0.3-1.9-0.5-2.8-0.7
	C190.1,106.9,191.1,107.2,192,107.4L192,107.4z M180.2,105.9c1.6,0,3.1,0.1,4.6,0.2c1,0.1,2,0.2,3,0.4c-1-0.2-2-0.3-3-0.4
	C183.3,105.9,181.8,105.9,180.2,105.9c-5.7-0.1-11.4,0.9-16.8,2.8l-1.1,0.4l1.1-0.4C168.8,106.7,174.5,105.8,180.2,105.9z
	 M132.7,156.6c0.3,1.8,0.9,3.5,1.6,5.2c0.1,0.2,0.2,0.4,0.3,0.6c-0.1-0.2-0.2-0.4-0.3-0.6C133.6,160.1,133,158.4,132.7,156.6
	L132.7,156.6z M141.5,191.6L141.5,191.6L141.5,191.6z M173.8,180.5c-2.1,3.7-4.8,7.1-8,9.9C169,187.6,171.7,184.2,173.8,180.5
	c0.3-0.5,0.6-1,0.9-1.6C174.3,179.5,174,180,173.8,180.5L173.8,180.5z M180.1,166.4c-1.3,3.7-2.8,7.4-4.6,10.9
	C177.3,173.8,178.8,170.1,180.1,166.4c0.7-2,1.4-4.1,2-6.1C181.4,162.4,180.8,164.4,180.1,166.4L180.1,166.4z M189.3,184.7
	c0.2,0.8,0.4,1.5,0.6,2.2C189.6,186.2,189.4,185.5,189.3,184.7L189.3,184.7z M193,192c1.1,0.9,2.3,1.7,3.7,2.1
	c0.5,0.2,1,0.3,1.5,0.4c-0.5-0.1-1-0.2-1.5-0.4C195.4,193.7,194.1,193,193,192L193,192z M201.2,194.6l0.4,0l0.7-0.1l-0.7,0.1
	L201.2,194.6z M205.7,193.1c-0.2,0.1-0.5,0.3-0.7,0.4C205.2,193.4,205.5,193.3,205.7,193.1c1.2-0.7,2.3-1.6,3.2-2.7
	c0.5-0.6,0.9-1.3,1.3-2.1c-0.3,0.7-0.8,1.4-1.3,2.1C208,191.6,206.9,192.5,205.7,193.1L205.7,193.1z M210.4,187.7
	c0.1-0.2,0.1-0.4,0.2-0.5l0.6-2.3l-0.6,2.3C210.5,187.4,210.5,187.5,210.4,187.7L210.4,187.7z M234.4,176.7c1-1.2,1.8-2.5,2.6-3.8
	C236.2,174.3,235.4,175.5,234.4,176.7L234.4,176.7z M278,184.6l-0.5,1.8L278,184.6l7.3-24.6c0,0,0,0.1,0.1,0.1c0,0-0.1,0-0.1-0.1
	L278,184.6z M289.6,182.2c-0.1-0.2-0.2-0.4-0.3-0.5C289.4,181.8,289.5,182,289.6,182.2l0.3,0.5L289.6,182.2z M291.7,184.7
	c0.3,0.2,0.7,0.4,1,0.6l0.3,0.1l-0.3-0.1C292.4,185.1,292.1,184.9,291.7,184.7L291.7,184.7z M307.1,180.7c-0.7,0.8-1.5,1.6-2.4,2.3
	c-0.7,0.5-1.4,1-2.1,1.4c-0.4,0.3-0.9,0.5-1.4,0.7c0.5-0.2,0.9-0.4,1.4-0.7c0.7-0.4,1.4-0.9,2.1-1.4
	C305.5,182.2,306.3,181.5,307.1,180.7c0.3-0.3,0.5-0.6,0.8-0.9C307.6,180.1,307.3,180.4,307.1,180.7L307.1,180.7z M337.4,175.3
	c-1.1,1.4-2.2,2.6-3.4,3.8c-1.3,1.3-2.7,2.4-4.2,3.4c-0.4,0.3-0.8,0.5-1.2,0.7c0.4-0.2,0.8-0.5,1.2-0.7c1.5-1,2.9-2.1,4.2-3.4
	C335.2,177.9,336.4,176.7,337.4,175.3c0.3-0.4,0.6-0.7,0.9-1.1C338,174.5,337.7,174.9,337.4,175.3L337.4,175.3z M340,171.8
	c1.3-2,2.5-4.2,3.5-6.4C342.5,167.6,341.3,169.8,340,171.8L340,171.8z M353.6,177.8c-0.6-2.1-0.9-4.2-1-6.4
	C352.7,173.6,353,175.7,353.6,177.8c0.1,0.5,0.3,1,0.5,1.5C353.9,178.8,353.8,178.3,353.6,177.8L353.6,177.8z M386.5,196.3
	c0.8,0.5,1.6,0.9,2.5,1.3l0.5,0.2l-0.5-0.2C388.1,197.3,387.3,196.8,386.5,196.3L386.5,196.3z M396.4,197.3
	c-1.4,0.5-2.8,0.8-4.3,0.8c-0.3,0-0.5,0-0.8,0h0.8C393.6,198.1,395.1,197.8,396.4,197.3c2.2-0.9,4.1-2.1,5.9-3.6
	C400.6,195.2,398.6,196.4,396.4,197.3L396.4,197.3z M423.6,183.9c-0.2,0.2-0.4,0.4-0.6,0.5c-0.3,0.3-0.7,0.5-1.1,0.7
	c0.4-0.2,0.7-0.4,1.1-0.7C423.1,184.2,423.3,184,423.6,183.9c0.3-0.3,0.6-0.6,0.9-0.9C424.2,183.2,423.9,183.5,423.6,183.9
	L423.6,183.9z M435,185.4c-0.4,0.1-0.7,0.2-1,0.3C434.3,185.6,434.6,185.5,435,185.4s0.7-0.3,1-0.4C435.7,185,435.3,185.2,435,185.4
	L435,185.4z M442.3,179.8c-0.9,1.2-2,2.2-3.1,3.1c-0.7,0.5-1.4,1-2.1,1.4c0.7-0.4,1.4-0.9,2.1-1.4C440.3,182,441.4,181,442.3,179.8
	c0.3,0.4,0.5,0.8,0.8,1.2C442.9,180.6,442.6,180.2,442.3,179.8L442.3,179.8z M464.2,182.5c-0.4,0.3-0.8,0.5-1.2,0.7
	C463.5,183,463.8,182.8,464.2,182.5s0.8-0.5,1.1-0.8C465,182,464.6,182.2,464.2,182.5L464.2,182.5z M468.5,179.2
	c-0.6,0.6-1.3,1.2-2,1.8C467.1,180.4,467.8,179.8,468.5,179.2c0.3-0.3,0.5-0.5,0.8-0.8C469,178.6,468.7,178.8,468.5,179.2
	L468.5,179.2z M491.9,183.2c0.4-0.2,0.8-0.5,1.2-0.7s0.5-0.3,0.7-0.5c-0.2,0.2-0.5,0.3-0.7,0.5S492.3,183,491.9,183.2L491.9,183.2z
	 M511,182.2c-0.6-1.5-0.8-3.1-0.8-4.7l-1.1,3.6l1.1-3.6C510.2,179,510.5,180.6,511,182.2c0,0,0.1,0.1,0.1,0.2
	C511.1,182.3,511.1,182.2,511,182.2L511,182.2z M521.7,185.4c-0.3,0.1-0.7,0.2-1,0.3C521.1,185.6,521.4,185.5,521.7,185.4
	c0.7-0.3,1.4-0.6,2.1-1C523.1,184.7,522.4,185.1,521.7,185.4L521.7,185.4z M529.9,178.9c-0.6,0.8-1.2,1.6-1.9,2.3
	C528.6,180.4,529.3,179.7,529.9,178.9c0.8-1.1,1.5-2.3,2.1-3.5C531.4,176.5,530.7,177.7,529.9,178.9L529.9,178.9z M534.4,169.5h-6.6
	l-0.3,0.7l0.3-0.7H534.4z"/>
<path class="st1" d="M228.8,149.4c-0.9,0-1.8,0.7-2.8,2.2c-1.1,1.7-2,3.6-2.8,5.5c-0.9,2.3-1.7,4.7-2.3,7.1
	c-0.6,2.3-1.1,4.7-1.5,7.1c-0.3,1.8-0.4,3.7-0.3,5.5c0.1,1.5,0.6,2.2,1.4,2.2c0.8,0,1.7-0.7,2.7-2.2c1.1-1.7,2-3.6,2.8-5.5
	c0.9-2.3,1.8-4.7,2.4-7.1c0.7-2.3,1.2-4.7,1.6-7.1c0.3-1.8,0.4-3.7,0.3-5.5C230.2,150.1,229.7,149.4,228.8,149.4L228.8,149.4z
	 M227.6,156.7c-0.4,2.3-0.9,4.6-1.5,6.8c-0.7,2.3-1.5,4.6-2.4,6.9c-0.6,1.5-1.3,2.9-2.1,4.3c0-1,0.1-2,0.3-3.1
	c0.3-2.3,0.8-4.6,1.4-6.8c0.6-2.3,1.3-4.6,2.2-6.9c0.6-1.7,1.5-3.4,2.4-4.9C227.9,154.3,227.8,155.5,227.6,156.7L227.6,156.7z"/>
<path class="st1" d="M259.1,149.4c-0.9,0-1.8,0.7-2.8,2.2c-1.1,1.7-2,3.6-2.8,5.5c-0.9,2.3-1.7,4.7-2.3,7.1
	c-0.6,2.3-1.1,4.7-1.5,7.1c-0.3,1.8-0.4,3.7-0.3,5.5c0.1,1.5,0.6,2.2,1.4,2.2s1.7-0.7,2.6-2.2c1.1-1.7,2-3.6,2.8-5.5
	c0.9-2.3,1.8-4.7,2.5-7.1c0.7-2.3,1.2-4.7,1.6-7.1c0.3-1.8,0.4-3.7,0.3-5.5C260.5,150.1,260,149.4,259.1,149.4L259.1,149.4z
	 M257.9,156.7c-0.4,2.3-0.9,4.6-1.5,6.8c-0.7,2.3-1.5,4.6-2.4,6.9c-0.6,1.5-1.3,2.9-2.1,4.3c0-0.9,0.1-1.9,0.3-3.1
	c0.3-2.3,0.8-4.6,1.4-6.8c0.6-2.3,1.3-4.6,2.2-6.9c0.6-1.7,1.5-3.4,2.4-4.9C258.2,154.3,258.1,155.5,257.9,156.7L257.9,156.7z"/>
<path class="st1" d="M309.3,138.4c2.3,0,4.5-0.9,6.1-2.6c1.7-1.6,2.6-3.9,2.6-6.2c0-2.4-0.9-4.6-2.6-6.3c-1.6-1.6-3.8-2.5-6.1-2.4
	c-2.3,0-4.6,0.8-6.2,2.5c-1.7,1.6-2.6,3.9-2.6,6.2c0,2.3,0.9,4.5,2.5,6.2C304.6,137.5,306.9,138.4,309.3,138.4L309.3,138.4z
	 M304.8,125.1c1.2-1.2,2.8-1.8,4.5-1.8c1.6,0,3.2,0.6,4.4,1.8c1.2,1.2,1.9,2.8,1.9,4.5c0,1.7-0.7,3.3-1.9,4.5
	c-2.4,2.5-6.3,2.5-8.8,0.1c0,0-0.1-0.1-0.1-0.1c-1.2-1.2-1.8-2.8-1.8-4.5C302.9,127.9,303.6,126.2,304.8,125.1L304.8,125.1z"/>
<path class="st1" d="M322.3,164.9c1.2-0.8,2.3-1.9,3.2-3.1c1-1.4,1.9-2.9,2.5-4.5c0.7-1.5,1.2-3.1,1.6-4.7c0.3-1.2,0.4-2.5,0.3-3.7
	c-0.1-1-0.5-1.5-1.2-1.5c-1.1,0.1-2.2,0.7-2.9,1.7c-1.1,1.3-2.1,2.7-2.9,4.3c-1,1.9-1.8,3.8-2.5,5.8c-0.7,2.1-1.3,4.2-1.7,6.4
	c0.4,0.1,0.8,0.2,1.3,0.2C320.8,165.5,321.6,165.3,322.3,164.9L322.3,164.9z M322.8,159.8c0.6-1.9,1.4-3.7,2.3-5.5
	c0.6-1.2,1.4-2.4,2.2-3.4c0,0.4-0.1,0.7-0.2,1.1c-0.7,3-1.9,5.8-3.7,8.3c-0.4,0.5-0.8,1-1.2,1.5
	C322.4,161.1,322.6,160.4,322.8,159.8L322.8,159.8z"/>
<path class="st1" d="M339.8,161.6h-1.4l-0.7,1.2c-1.4,2.4-2.9,4.6-4.7,6.7c-1.5,1.7-3.2,3.2-5,4.4c-1.5,1.1-3.3,1.7-5.1,1.7
	c-0.7,0.1-1.4-0.3-1.5-1c-0.3-1.1-0.5-2.2-0.5-3.3c2.3,0,4.5-0.5,6.6-1.4c5.1-2.3,9.2-6.5,11.3-11.7c1-2.3,1.5-4.7,1.5-7.2
	c0-2.3-0.8-4.6-2.3-6.4c-1.8-2-4.4-3-7-2.9c-4.1-0.1-8.2,1-11.6,3.2c-3.2,2.1-6,4.8-8.1,7.9c-1.6,2.3-2.9,4.8-3.8,7.5
	c0.5-1.5,1-3.1,1.5-4.7c1-3.2,2.1-6.8,3.3-10.8l1-3.2h-14.5l-0.5,1.7l-0.9,3c0-1,0.1-2.1,0.3-3.1l0.9-5.6l-4.7,3.1l-3.2,2.1l0.4-1.3
	h-14.6l-0.5,1.8l-2.8,9.3c-0.1-1.2-0.3-2.5-0.6-3.6c-0.7-2.2-2.1-4.1-4-5.5c-2.3-1.4-4.9-2.1-7.5-1.9c-2.4,0-4.8,0.6-7,1.8
	c-2.3,1.2-4.4,2.8-6.2,4.6c-1.9,1.9-3.5,4-4.9,6.3c0.1-1.8-0.1-3.6-0.6-5.3c-0.7-2.2-2.1-4.1-4-5.5c-2.3-1.4-4.9-2.1-7.5-1.9
	c-2.4,0-4.8,0.6-7,1.8c-2.3,1.2-4.4,2.8-6.2,4.6c-2,2-3.7,4.3-5.2,6.7c-1.5,2.6-2.7,5.3-3.5,8.2c-0.8,2.6-1.3,5.3-1.6,8
	c-0.3,2.4-0.2,4.9,0.5,7.3c0.6,2.1,1.9,3.9,3.7,5.2l-3.2,0.4h-0.5c-0.5,0.1-1.1-0.2-1.4-0.6c-0.8-1.2-1.4-2.6-1.6-4
	c-0.5-2.3-0.8-4.6-0.9-7c-0.2-2.8-0.5-5.6-0.9-8.5c-0.4-2.9-0.9-5.7-1.7-8.5c-0.7-2.5-1.8-4.8-3.3-6.8c1.2-0.6,2.3-1.2,3.4-1.9
	c3.2-2.1,6.3-4.6,9-7.3c2.8-2.8,5.4-5.7,7.9-8.8c2.4-3,4.7-5.9,6.9-8.6c2-2.4,4.1-4.7,6.4-6.8c1.6-1.5,3.5-2.7,5.6-3.3l9.4-2.3
	l-9.3-2.5c-2.6-0.7-5.3-1.1-8-1.1c-1.1,0-2.3,0.1-3.4,0.3c-3.2,0.5-6.3,1.6-9,3.3c-2.6,1.7-5,3.7-6.9,6.1c-1.9,2.3-3.8,4.8-5.5,7.3
	c-1.7,2.5-3.3,5.1-4.9,7.6c-1.4,2.3-3,4.5-4.7,6.6c-1.5,1.8-3.2,3.3-5.1,4.6c-0.7,0.4-1.4,0.8-2.1,1c0.8-2.7,1.6-5.3,2.4-7.8
	c1-3.3,2.2-6.5,3.5-9.6c1-2.3,2.2-4.5,3.7-6.5c0.8-1.1,1.9-1.9,3.3-2.2c1.4,0,2.5-1.1,2.6-2.5c0,0,0,0,0-0.1v-1.1l-0.9-0.7
	c-2.9-2.4-6.2-4.1-9.8-5.1c-3.8-1-7.8-1.5-11.7-1.5c-10.9-0.1-21.6,3.5-30.1,10.2c-3.8,3-7.1,6.5-9.8,10.6c-2.5,3.7-4.5,7.8-5.9,12
	c-1.3,3.9-2,8-2.1,12.1c-0.1,3.8,0.6,7.5,2.1,11c1.5,3.3,3.9,6.1,6.9,8.1c1.3,0.8,2.6,1.5,4.1,2c-1.1,0.4-2.1,1-3.1,1.7
	c-1.7,1.3-2.8,3.2-3.3,5.2c-0.8,2.4-0.9,5-0.4,7.5c0.5,2,1.5,3.9,3.1,5.4c1.5,1.4,3.3,2.4,5.3,2.9c1.9,0.5,3.9,0.8,5.9,0.8
	c4.5,0.1,8.9-1.4,12.4-4.3c3.5-3,6.4-6.5,8.7-10.5c2.6-4.5,4.7-9.2,6.3-14.1c1.4-4,2.7-8.2,4-12.3c0.7,0.7,1.3,1.5,1.7,2.4
	c1,2.2,1.7,4.6,2,7c0.4,2.8,0.5,5.6,0.5,8.5c0,3,0.1,5.9,0.4,8.9c0.2,2.7,0.9,5.3,2,7.8c1.2,2.6,3.4,4.6,6.1,5.5
	c1.1,0.4,2.2,0.5,3.3,0.5c0.5,0,1.1,0,1.6-0.1c1.4-0.2,2.8-0.7,4.1-1.4c1.2-0.7,2.3-1.6,3.2-2.7c0.8-1,1.4-2.1,1.7-3.3l0.9-3.2
	c2.2,1.4,4.8,2,7.5,1.9c2.4,0,4.7-0.6,6.9-1.8c2.3-1.2,4.4-2.8,6.2-4.6c1.9-2,3.7-4.2,5.1-6.5c-0.1,1.9,0.1,3.7,0.6,5.5
	c0.7,2.2,2.1,4.1,4,5.5c2.3,1.4,4.9,2.1,7.5,2c2.4,0,4.8-0.6,6.9-1.8c2.3-1.2,4.4-2.8,6.2-4.6c1.6-1.6,3-3.4,4.3-5.2l-2.7,9
	l-0.9,3.2h14.6l0.5-1.8l7.3-24.6c1.4,1.3,3.2,2,5.1,2c0.2,0,0.4,0,0.6,0c0.5,0,0.9-0.1,1.3-0.2l-2.3,7.5c-0.8,2.4-1.3,4.9-1.4,7.5
	c-0.1,1.8,0.2,3.7,1,5.3c0.7,1.4,1.8,2.5,3.2,3.1c1.1,0.5,2.4,0.8,3.6,0.8c1.4,0,2.7-0.3,4-0.8c1.5-0.6,3-1.4,4.3-2.4
	c1.2-0.9,2.2-2,3.1-3.2c0.5,0.9,1.1,1.7,1.8,2.4c2.2,2.5,5.4,3.7,9.4,3.7c2,0,3.9-0.3,5.8-1c1.8-0.6,3.4-1.4,5-2.5
	c1.5-1,2.9-2.1,4.2-3.4c1.2-1.2,2.4-2.5,3.4-3.8c2.5-3.1,4.6-6.5,6.3-10.2l1.6-3.5L339.8,161.6L339.8,161.6z M206.9,188.9
	c-0.7,0.8-1.5,1.5-2.4,2.1c-1,0.6-2.1,1-3.3,1.1c-0.4,0.1-0.8,0.1-1.2,0.1c-0.8,0-1.7-0.1-2.5-0.4c-2.1-0.6-3.8-2.2-4.7-4.2
	c-1-2.2-1.6-4.6-1.8-7c-0.3-2.9-0.4-5.7-0.4-8.6c0-3-0.1-5.9-0.5-8.8c-0.3-2.7-1.1-5.3-2.2-7.7c-1.1-2.3-3-4.2-5.4-5.3
	c-1.5,5.2-3.1,10.3-4.9,15.4c-1.6,4.7-3.7,9.3-6.1,13.7c-2.1,3.7-4.8,7.1-8.1,9.8c-3,2.5-6.9,3.8-10.8,3.8c-1.8,0-3.5-0.2-5.3-0.7
	c-1.6-0.4-3-1.2-4.3-2.3c-1.2-1.1-2-2.6-2.3-4.2c-0.4-2.1-0.3-4.3,0.4-6.3c0.3-1.5,1.2-2.9,2.4-3.9c1.2-0.9,2.5-1.6,4-1.9
	c1.4-0.3,2.9-0.3,4.3-0.1c1.3,0.2,2.5,0.8,3.5,1.6c0.9,0.8,1.5,1.9,1.6,3.1c0,1.6-0.6,3.2-1.6,4.4c-0.7-0.7-1.6-1.1-2.6-1.1
	c-0.8,0-1.5,0.2-2.1,0.7c-0.6,0.4-1.1,1.1-1.4,1.8c-0.3,0.7-0.4,1.4-0.3,2.1c0.2,0.7,0.6,1.4,1.2,1.8c0.9,0.6,1.9,0.9,3,0.8
	c1.8,0,3.4-1,4.9-3c1.7-2.4,3.1-5.1,4.1-7.9c1.3-3.3,2.5-7.1,3.7-11.3c1.2-4.3,2.5-8.6,3.8-13.1c1.3-4.5,2.7-8.9,4.2-13.3
	c1.4-4.1,3-8.2,5-12.1c1.7-3.3,3.8-6.4,6.3-9.2c2.1-2.4,5-4,8.1-4.7c-1.9-0.8-3.9-1.3-6-1.6c-2.3-0.3-4.7-0.4-7.1-0.4
	c-4.1-0.1-8.3,0.7-12.1,2.3c-3.4,1.5-6.5,3.5-9.3,6.1c-2.6,2.5-4.9,5.4-6.6,8.6c-1.7,3.1-3.1,6.5-4.1,9.9c-0.9,3.2-1.5,6.6-1.8,9.9
	c-0.2,2.9-0.1,5.8,0.5,8.6c0.4,2.2,1.3,4.3,2.6,6.1c1,1.5,2.7,2.3,4.5,2.3c1.1,0,2.1-0.4,2.8-1.2c0.7-0.7,1.1-1.7,1.1-2.6
	c0-1-0.5-2-1.4-2.6c-0.9-0.8-2.4-1.2-4.6-1.2c-0.1-1.7,0.8-3.4,2.2-4.4c1.4-1,3.1-1.6,4.8-1.7h0.2c1.7,0,3.3,0.6,4.6,1.6
	c1.5,1.1,2.2,2.9,2.2,5.4c0,1.6-0.4,3.1-1.1,4.5c-0.7,1.4-1.8,2.5-3,3.5c-1.3,1-2.7,1.8-4.3,2.3c-1.6,0.6-3.2,0.8-4.9,0.8
	c-3.6,0.1-7.1-0.8-10.1-2.6c-2.6-1.7-4.7-4.1-6-7c-1.4-3.2-2-6.6-1.9-10c0.1-3.9,0.7-7.7,2-11.4c1.4-4,3.3-7.9,5.7-11.4
	c2.5-3.8,5.7-7.2,9.3-10c8.1-6.4,18.3-9.8,28.6-9.7c3.8,0,7.5,0.5,11.2,1.5c3.3,0.9,6.3,2.4,8.9,4.6c0,0,0,0.1-0.1,0.1c0,0,0,0,0,0
	h-0.2c-2,0.4-3.8,1.5-5,3.2c-1.7,2.2-3,4.6-4.1,7.1c-1.4,3.2-2.6,6.5-3.6,9.9c-1.1,3.7-2.3,7.6-3.5,11.6c2.5,0,4.8-0.8,6.9-2.1
	c2.1-1.4,4-3.1,5.7-5c1.8-2.2,3.5-4.5,4.9-6.9c1.6-2.5,3.2-5,4.8-7.5c1.6-2.5,3.4-4.8,5.3-7.1c1.8-2.2,4-4.1,6.4-5.6
	c2.5-1.5,5.2-2.6,8.1-3c1-0.2,2-0.2,3-0.2c2.5,0,4.9,0.4,7.3,1.1c-2.5,0.7-4.8,2-6.7,3.9c-2.4,2.2-4.6,4.6-6.6,7.1
	c-2.2,2.7-4.5,5.6-6.9,8.6c-2.4,3-4.9,5.9-7.6,8.6c-2.6,2.6-5.5,5-8.6,7c-3,2-6.4,3.2-9.9,3.8c1.5,0.2,3.3,0.5,5.3,0.9
	c1.6,2,2.7,4.3,3.4,6.7c0.7,2.7,1.3,5.4,1.7,8.1c0.4,2.8,0.7,5.6,0.9,8.3c0.2,2.4,0.5,4.9,1,7.3c0.3,1.8,1,3.5,2.1,5
	c0.8,1,2,1.6,3.4,1.5c0.3,0,0.5,0,0.8,0C208,187.4,207.5,188.2,206.9,188.9L206.9,188.9z M156.2,172.5c2.2-0.5,4.3-1.3,6.2-2.6
	c-0.8,2.6-1.6,4.9-2.4,7c-0.1,0.3-0.3,0.7-0.4,1c-0.1-1.8-1-3.5-2.4-4.7C156.9,173,156.5,172.7,156.2,172.5L156.2,172.5z
	 M155.1,185.5c-0.5,0.4-1.1,0.7-1.8,0.7c-0.5,0.1-1,0-1.4-0.3c-0.1-0.1-0.2-0.2-0.3-0.4c0-0.2,0-0.5,0.1-0.7
	c0.1-0.3,0.3-0.6,0.6-0.8c0.2-0.1,0.4-0.2,0.7-0.2c0.4,0.1,0.7,0.3,1,0.6L155.1,185.5z M149.5,158c-0.1-0.3-0.2-0.6-0.2-0.9
	c-0.5-2.6-0.7-5.3-0.5-7.9c0.2-3.2,0.8-6.3,1.7-9.4c0.9-3.3,2.3-6.4,3.9-9.4c1.6-3,3.7-5.7,6.1-8c2.5-2.4,5.4-4.3,8.6-5.6
	c3.5-1.5,7.3-2.2,11.1-2.1c1.9,0,3.9,0.1,5.8,0.3c-0.9,0.7-1.7,1.4-2.5,2.3c-2.7,2.9-4.9,6.2-6.7,9.7c-2,4-3.8,8.1-5.2,12.4
	c-1.5,4.4-2.9,8.9-4.2,13.4l-0.3,1.1c-0.5-0.8-1.1-1.5-1.8-2c-1.7-1.4-3.9-2.1-6.1-2.1h-0.2c-2.2,0-4.4,0.8-6.2,2.1
	C150.7,153.3,149.5,155.6,149.5,158L149.5,158z M152,160.8c2.2,0,2.8,0.5,2.9,0.6c0.5,0.5,0.5,0.7,0.5,0.8c0,0.4-0.2,0.7-0.4,1
	c-0.2,0.3-0.6,0.4-0.9,0.4c-1,0-2-0.5-2.6-1.4c-0.3-0.4-0.6-0.9-0.9-1.4L152,160.8z M230.2,177.8c-1.6,1.7-3.5,3.1-5.6,4.2
	c-1.8,1-3.7,1.5-5.7,1.5c-2.2,0.1-4.3-0.4-6.1-1.5c-1.4-1-2.5-2.5-3-4.2c-0.6-2-0.7-4.2-0.4-6.2c0.3-2.6,0.8-5.1,1.6-7.6
	c1.5-5.2,4.3-10,8.1-13.9c1.6-1.7,3.5-3.1,5.6-4.2c1.8-1,3.8-1.5,5.9-1.5c2.2-0.1,4.3,0.4,6.1,1.5c1.4,1,2.5,2.5,3,4.2
	c0.6,2,0.7,4.2,0.4,6.2c-0.3,2.6-0.8,5.1-1.6,7.6C236.8,169.1,234,173.9,230.2,177.8L230.2,177.8z M260.4,177.8
	c-1.6,1.7-3.5,3.1-5.6,4.2c-1.8,1-3.7,1.5-5.7,1.5c-2.1,0.1-4.3-0.4-6.1-1.5c-1.4-1-2.5-2.5-3-4.2c-0.6-2-0.7-4.2-0.4-6.2
	c0.3-2.6,0.8-5.1,1.6-7.6c1.5-5.2,4.3-10,8.1-13.9c1.6-1.7,3.5-3.1,5.6-4.2c1.8-1,3.8-1.5,5.9-1.5c2.1-0.1,4.3,0.4,6.1,1.5
	c1.4,1,2.5,2.5,3,4.2c0.6,2,0.7,4.2,0.4,6.2c-0.3,2.6-0.8,5.1-1.6,7.6c-0.8,2.7-2,5.3-3.4,7.6C263.9,173.8,262.3,175.9,260.4,177.8
	L260.4,177.8z M308.2,173.3c-0.1-0.5-0.1-0.9-0.1-1.4h1.4c-0.3,0.9-0.7,1.7-1.1,2.5C308.3,174,308.3,173.6,308.2,173.3z
	 M306.5,163.3c-0.7,2.6-1,5.3-0.9,8c-0.4,0.9-1.1,1.7-1.9,2.3l-0.3,0.2c0.2-1,0.4-1.9,0.8-2.9l1.9-6.3c0.2-0.7,0.4-1.4,0.6-2.1
	C306.7,162.6,306.6,163,306.5,163.3L306.5,163.3z M309.7,144.3l-0.5,1.6l-7.4,3.5c-0.8,0.4-1.6,0.6-2.4,0.7h-0.2
	c-0.2,0-0.4,0-0.5-0.1l1.8-5.6L309.7,144.3z M297.8,152.3c0.6,0.2,1.2,0.2,1.8,0.2c1.1-0.1,2.2-0.4,3.2-0.9c-1.8,2.3-4,4.3-6.5,5.9
	l-0.2,0.1L297.8,152.3z M290.8,159.5h-0.4c-1.4,0-2.7-0.5-3.6-1.5c-1.2-1.4-1.9-3.1-2-4.9l-9.1,30.8h-9.5l11.9-39.6h9.5l-1.5,4.7
	l8.9-5.9c-0.4,1.9-0.4,3.9,0,5.8c0.2,0.7,0.5,1.3,0.9,1.9l-2.7,8.3C292.4,159.3,291.6,159.5,290.8,159.5L290.8,159.5z M306.6,177.3
	c-1,1.4-2.1,2.6-3.4,3.6c-1.1,0.9-2.3,1.5-3.5,2c-1,0.4-2.1,0.6-3.2,0.6c-0.9,0-1.8-0.2-2.6-0.6c-0.9-0.4-1.6-1.1-2-2
	c-0.6-1.3-0.8-2.7-0.7-4.1c0.1-2.3,0.6-4.6,1.3-6.8l2.9-9.2c0.9-0.4,1.7-0.8,2.5-1.3c2.7-1.7,5-3.9,7-6.4l3.6-4.2
	c-0.7,2.2-1.3,4.2-1.9,6.2c-0.9,2.9-1.8,5.8-2.6,8.6c-0.9,2.8-1.5,5-1.9,6.3c-0.3,1-0.6,2.1-0.8,3.2c-0.1,0.6-0.2,1.3,0,1.9
	c0.1,0.4,0.2,0.7,0.5,0.9c0.2,0.2,0.5,0.3,0.8,0.4c0.1,0,0.3,0.1,0.5,0.1c0.8-0.1,1.6-0.4,2.3-0.9c0.4-0.2,0.7-0.5,1-0.8
	C306.1,175.7,306.4,176.4,306.6,177.3L306.6,177.3z M335.5,173.7c-1,1.3-2.1,2.5-3.2,3.6c-1.2,1.1-2.5,2.2-3.9,3.1
	c-1.4,0.9-2.9,1.7-4.5,2.3c-1.6,0.6-3.3,0.8-5,0.8c-3.3,0-5.8-1-7.5-2.9c-0.8-0.9-1.5-1.9-2-3c0.9-1.5,1.7-3.1,2.4-4.8l1.3-3.4h-5
	c0.3-5.4,2-10.6,5-15c2-2.9,4.5-5.3,7.4-7.2c3.1-2,6.6-3,10.3-2.9c1.9-0.1,3.8,0.6,5.1,2c1.1,1.4,1.7,3.1,1.7,4.8
	c0,2.1-0.5,4.2-1.3,6.2c-0.9,2.2-2.2,4.3-3.9,6c-1.7,1.8-3.8,3.3-6.1,4.3c-1.8,0.8-3.8,1.2-5.9,1.2c-0.7,0-1.4,0-2.1-0.1
	c-0.3,2.2,0,4.5,0.6,6.7c0.5,1.7,2.1,2.8,3.8,2.7c2.3,0,4.6-0.8,6.5-2.1c2-1.4,3.8-3,5.5-4.8c1.9-2.2,3.6-4.6,5-7.1h1.7
	C339.9,167.5,337.9,170.8,335.5,173.7L335.5,173.7z"/>
<path class="st1" d="M397.9,184.3c-1.1-1-2.2-2.1-3.3-3.3c4.4-3.7,8.3-8,11.5-12.7c4.1-6,7.5-12.5,10.1-19.3c2.1-5.4,3.5-11,4-16.8
	c0.5-4.6,0-9.3-1.3-13.7c-1.1-3.7-3.4-7.1-6.5-9.5c-3.1-2.3-6.9-3.6-10.8-3.5c-4.8,0-9.6,1.1-13.9,3.2c-4.6,2.2-8.7,5.2-12.3,8.8
	c-3.9,4-7.4,8.4-10.3,13.2c-3.2,5.2-5.9,10.8-8.1,16.5c-2.1,5.4-3.6,11-4.3,16.8c-0.6,4.6-0.4,9.2,0.7,13.7c0.9,3.7,2.9,7.1,5.8,9.6
	c3,2.5,6.8,3.7,10.7,3.6c3.5,0,6.9-0.6,10.2-1.7c0.9,1.5,1.9,2.9,3,4.2c1.5,1.9,3.5,3.3,5.7,4.1c1,0.4,2.1,0.5,3.2,0.5
	c1.5,0,2.9-0.3,4.3-0.8c2.5-0.9,5.2-2.8,8.3-5.9l3-3l-4.1-1.1C401.5,186.8,399.6,185.8,397.9,184.3L397.9,184.3z M395.6,195
	c-1.1,0.4-2.3,0.6-3.5,0.7c-0.8,0-1.6-0.1-2.4-0.4c-1.8-0.7-3.4-1.9-4.6-3.4c-1.4-1.8-2.7-3.6-3.9-5.6c-3.5,1.5-7.3,2.2-11.2,2.3
	c-3.3,0.1-6.5-0.9-9.1-3c-2.5-2.2-4.2-5.1-5-8.4c-1-4.2-1.2-8.5-0.6-12.8c0.7-5.5,2.1-11,4.2-16.2c2.1-5.6,4.7-11,7.9-16.1
	c2.8-4.6,6.1-8.9,9.9-12.7c3.4-3.4,7.3-6.2,11.6-8.3c4-2,8.4-3,12.9-3c3.3-0.1,6.6,1,9.3,3c2.7,2.1,4.6,5,5.6,8.3
	c1.2,4.1,1.6,8.5,1.2,12.7c-0.5,5.5-1.8,11-3.9,16.1c-2.5,6.6-5.8,12.9-9.8,18.8c-3.6,5.3-8,9.9-13,13.8c1.6,2,3.3,3.8,5.1,5.5
	c1.9,1.7,4.2,2.9,6.7,3.5C400.2,192.4,397.8,194.2,395.6,195L395.6,195z"/>
<path class="st1" d="M374.3,173.9c-0.8-1.1-1.7-2-2.8-2.8c-0.9-0.7-2-1.1-3.2-1.2c-0.2,4.1,0.3,7.3,1.5,9.6s3.3,3.4,6.2,3.4
	c1.1,0,2.3-0.2,3.3-0.5c-0.8-1.5-1.7-3-2.5-4.5C376,176.5,375.2,175.2,374.3,173.9z M371.9,178.3c-0.7-1.4-1.1-3-1.2-4.6
	c0.6,0.5,1.1,1.1,1.5,1.7c0.9,1.2,1.7,2.4,2.4,3.7l0.8,1.4C373.9,180.5,372.6,179.7,371.9,178.3z"/>
<path class="st1" d="M401.2,148.2c1.3-4.6,2.3-9.3,3-14c0.5-3.6,0.6-7.3,0.3-10.9c-0.2-2.6-1.1-5-2.7-7.1c-1.5-1.7-3.7-2.6-6-2.5
	c-2.6,0-5.1,0.9-7.1,2.5c-2.5,2-4.6,4.4-6.2,7.1c-2.1,3.5-3.9,7.1-5.4,10.9c-1.8,4.6-3.3,9.3-4.6,14c-1.9,6.1-3.2,12.4-4,18.8
	c1.1-0.2,2.2-0.2,3.4-0.3c1.1,0,2.2,0.1,3.3,0.3c1.8,0.3,3.5,1,5.1,1.9c1.5,0.9,2.9,2,4.1,3.2c1.2,1.3,2.4,2.7,3.5,4.1
	c2.9-3.6,5.4-7.6,7.4-11.8C397.7,159.2,399.7,153.8,401.2,148.2L401.2,148.2z M387.8,172.3c-0.5-0.6-1.1-1.3-1.7-1.8
	c-1.4-1.4-2.9-2.7-4.6-3.7c-1.8-1-3.8-1.8-5.9-2.2c-1.2-0.2-2.5-0.4-3.8-0.4h-0.5c0.9-5.2,2.1-10.4,3.6-15.4v0
	c1.2-4.7,2.7-9.3,4.5-13.8c1.4-3.7,3.1-7.2,5.1-10.5c1.5-2.5,3.3-4.6,5.6-6.4c1.6-1.3,3.6-2,5.6-2c1.5-0.1,3.1,0.5,4.1,1.6
	c1.3,1.7,2,3.7,2.1,5.8c0.3,3.4,0.2,6.9-0.3,10.3c-0.7,4.6-1.6,9.2-2.9,13.7c-1.4,5.5-3.4,10.8-5.8,15.9
	C391.5,166.5,389.8,169.5,387.8,172.3L387.8,172.3z"/>
<path class="st1" d="M456.7,164.9c1.2-0.8,2.3-1.9,3.2-3.1c1-1.4,1.9-2.9,2.5-4.5c0.7-1.5,1.2-3.1,1.6-4.7c0.3-1.2,0.4-2.5,0.3-3.7
	c-0.1-1-0.5-1.5-1.2-1.5c-1.1,0.1-2.2,0.7-2.9,1.7c-1.1,1.3-2.1,2.7-2.9,4.3c-1,1.9-1.8,3.8-2.5,5.8c-0.7,2.1-1.3,4.2-1.7,6.4
	c0.4,0.1,0.8,0.2,1.3,0.2C455.3,165.5,456.1,165.3,456.7,164.9L456.7,164.9z M457.3,159.8c0.6-1.9,1.4-3.7,2.3-5.5
	c0.6-1.2,1.4-2.4,2.2-3.4c0,0.4-0.1,0.7-0.2,1.1c-0.7,3-1.9,5.8-3.7,8.3c-0.4,0.5-0.8,1-1.2,1.5
	C456.9,161.1,457.1,160.4,457.3,159.8L457.3,159.8z"/>
<path class="st1" d="M485.5,164.9c1.2-0.8,2.3-1.9,3.2-3.1c1-1.4,1.9-2.9,2.5-4.5c0.7-1.5,1.2-3.1,1.6-4.7c0.3-1.2,0.4-2.5,0.3-3.7
	c-0.1-1-0.5-1.5-1.2-1.5c-1.1,0.1-2.2,0.7-2.9,1.7c-1.1,1.3-2.1,2.7-2.9,4.3c-1,1.9-1.8,3.8-2.4,5.8c-0.7,2.1-1.3,4.2-1.7,6.4
	c0.4,0.1,0.8,0.2,1.3,0.2C484.1,165.5,484.9,165.3,485.5,164.9L485.5,164.9z M486.1,159.8c0.6-1.9,1.4-3.7,2.3-5.5
	c0.6-1.2,1.3-2.4,2.2-3.4c0,0.3-0.1,0.7-0.2,1.1c-0.3,1.5-0.8,2.9-1.4,4.3c-0.6,1.4-1.4,2.8-2.3,4.1c-0.4,0.5-0.8,1-1.2,1.5
	C485.7,161.1,485.9,160.4,486.1,159.8z"/>
<path class="st1" d="M530.8,169.4h-3l-0.7,1.4c-0.4,1-1.1,1.9-2,2.5l-0.1,0.1c0.4-1.5,0.8-3,1.4-4.4l2.9-7.8c1-2.6,1.8-5.3,2.4-8.1
	c0.6-2.4,0.5-4.8-0.1-7.2c-0.5-1.5-2-4.1-6.5-4.1c-1.6,0-3.1,0.3-4.5,1l0.3-1h-14.6l-0.5,1.8l-2.4,8c0-0.2,0-0.4,0-0.6
	c0-2.3-0.8-4.6-2.3-6.4c-1.8-2-4.4-3-7-2.9c-4.1-0.1-8.2,1.1-11.6,3.3c-3.1,2-5.9,4.6-8,7.7c0.1-0.6,0.1-1.2,0.1-1.8
	c0-2.3-0.8-4.6-2.3-6.4c-1.8-2-4.4-3-7-2.9c-4.1-0.1-8.2,1.1-11.6,3.3c-3.2,2.1-6,4.8-8.1,7.9c-1.6,2.3-2.9,4.8-3.8,7.5l1.4-4.7
	c1-3.2,2.1-6.8,3.3-10.8l1-3.2h-28l-0.5,1.8l-7.8,25.8c-0.8,2.4-1.3,5-1.4,7.5c-0.1,1.8,0.3,3.6,1,5.2c0.7,1.4,1.8,2.6,3.2,3.2
	c1.1,0.5,2.4,0.8,3.6,0.8c2.2,0,4.3-0.8,5.9-2.3c0.3-0.3,0.6-0.6,0.9-0.9c0.3,0.4,0.6,0.8,1,1.2c0.7,0.7,1.6,1.2,2.6,1.6
	c0.9,0.3,1.8,0.4,2.8,0.4c1.4,0,2.7-0.3,4-0.8c1.5-0.6,2.9-1.4,4.2-2.4c1.2-0.9,2.2-2,3.1-3.1c0.5,0.9,1.1,1.7,1.8,2.4
	c2.2,2.5,5.4,3.7,9.4,3.7c2,0,3.9-0.3,5.8-1c1.8-0.6,3.4-1.4,5-2.5c1.5-1,2.9-2.1,4.2-3.4c0.5-0.5,1.1-1.1,1.6-1.6
	c0.7,1.7,1.6,3.3,2.9,4.7c2.3,2.5,5.4,3.7,9.4,3.7c2,0,3.9-0.3,5.8-1c1.8-0.6,3.4-1.4,5-2.5c0.5-0.3,0.9-0.6,1.4-1l-0.5,1.7
	l-0.9,3.2h14.6l0.7-1.6l2.2-7.2c-0.1,1.6,0.2,3.2,0.8,4.7c0.6,1.5,2.2,4,6.8,4c1.3,0,2.7-0.3,3.9-0.8c1.5-0.6,2.9-1.4,4.2-2.4
	c1.5-1.2,2.9-2.6,4-4.1c1.3-1.8,2.4-3.9,3.2-6l1.3-3.4L530.8,169.4z M501.5,166.6c0.5-0.8,1.1-1.6,1.6-2.5h1.7c-1.3,3-3,5.9-5,8.5
	L501.5,166.6z M499.2,165.6c-0.9,1.4-1.9,2.7-3,4c-1.5,1.7-3.2,3.2-5,4.4c-1.5,1.1-3.3,1.7-5.1,1.7c-0.7,0.1-1.4-0.3-1.5-1
	c-0.3-1.1-0.5-2.2-0.5-3.3c2.3,0,4.5-0.5,6.6-1.4c2.6-1.1,5-2.8,6.9-4.9c1.2-1.3,2.3-2.7,3.1-4.2L499.2,165.6z M471.4,172
	c-0.1-1.2-0.1-2.4,0-3.5c1-1.4,2-2.8,2.9-4.4h1.7C474.6,166.9,473.1,169.5,471.4,172L471.4,172z M469,167.5c-0.5,0.7-1.1,1.4-1.6,2
	c-1.5,1.7-3.2,3.2-5,4.4c-1.5,1.1-3.3,1.7-5.1,1.7c-0.7,0.1-1.4-0.3-1.5-1c-0.3-1.1-0.5-2.2-0.5-3.3c2.3,0,4.5-0.5,6.6-1.4
	c2.6-1.2,5-2.8,6.9-4.9c0.3-0.3,0.6-0.7,0.9-1C469.4,165.2,469.2,166.4,469,167.5L469,167.5z M442.7,173.3c-0.1-0.5-0.1-0.9-0.1-1.4
	h1.6c-0.4,0.9-0.8,1.8-1.3,2.7C442.8,174.1,442.7,173.7,442.7,173.3L442.7,173.3z M441,163.3c-0.7,2.6-1,5.3-0.9,8
	c-0.4,0.9-1.1,1.7-1.9,2.2l-0.3,0.2c0.2-1,0.4-1.9,0.8-2.9c0.4-1.4,1.1-3.5,1.9-6.3c0.2-0.7,0.4-1.4,0.6-2.1
	C441.2,162.6,441,163,441,163.3L441,163.3z M441.2,177.3c-1,1.4-2.2,2.6-3.5,3.6c-1,0.8-2.2,1.5-3.5,2c-1,0.4-2.1,0.6-3.2,0.6
	c-0.7,0-1.4-0.1-2-0.3c-0.7-0.2-1.3-0.5-1.8-1c-0.6-0.6-1-1.2-1.2-2c-0.3-1-0.5-2.1-0.4-3.2c-0.9,1.8-2.2,3.5-3.6,4.9
	c-1.2,1.1-2.7,1.7-4.3,1.7c-0.9,0-1.8-0.2-2.6-0.6c-0.9-0.4-1.6-1.1-2-2c-0.5-1.3-0.8-2.7-0.7-4.1c0.1-2.3,0.5-4.6,1.3-6.8l7.8-25.8
	h9.4c-1.2,3.9-2.3,7.5-3.2,10.8c-0.9,2.9-1.8,5.8-2.6,8.6s-1.5,5-1.9,6.3c-0.8,2.6-1.2,4.4-1,5.1s0.4,1.2,0.8,1.2s1-0.6,1.8-1.8
	c0.8-1.2,1.5-2.5,2-3.9l0.2-0.7l8-25.8h9.4c-1.2,3.9-2.3,7.5-3.3,10.8c-0.9,2.9-1.8,5.8-2.6,8.6c-0.9,2.8-1.5,5-1.9,6.3
	c-0.3,1-0.6,2.1-0.8,3.2c-0.1,0.6-0.1,1.3,0,1.9c0.1,0.4,0.2,0.7,0.5,0.9c0.2,0.2,0.5,0.3,0.8,0.4c0.1,0,0.3,0.1,0.5,0.1
	c0.8-0.1,1.6-0.4,2.3-0.9c0.4-0.2,0.7-0.5,1-0.8C440.7,175.8,440.9,176.6,441.2,177.3L441.2,177.3z M466.8,177.3
	c-1.2,1.1-2.5,2.2-3.9,3.1c-1.4,0.9-2.9,1.6-4.5,2.2c-1.6,0.6-3.3,0.8-5,0.8c-3.3,0-5.8-1-7.5-2.9c-0.8-0.9-1.5-1.8-2-2.9
	c1-1.5,1.8-3.1,2.5-4.8l1.4-3.4h-5.4c0.3-5.4,2-10.6,5-15c2-2.9,4.5-5.3,7.4-7.2c3.1-2,6.6-3,10.3-2.9c1.9-0.1,3.8,0.6,5.1,2
	c1.1,1.4,1.7,3.1,1.7,4.8c0,2.1-0.5,4.2-1.3,6.2c-0.9,2.2-2.2,4.3-3.9,6c-1.7,1.8-3.8,3.3-6.1,4.3c-1.8,0.8-3.8,1.2-5.9,1.2
	c-0.7,0-1.4,0-2.1-0.1c-0.3,2.2,0,4.5,0.6,6.7c0.5,1.7,2.1,2.8,3.8,2.7c2.3,0,4.6-0.8,6.5-2.1c1.9-1.3,3.6-2.8,5.1-4.4
	c0,0.7,0.1,1.4,0.2,2.1c0.1,0.4,0.1,0.7,0.2,1.1C468.5,175.6,467.6,176.5,466.8,177.3L466.8,177.3z M495.6,177.3
	c-1.2,1.1-2.5,2.2-3.8,3.1c-1.4,0.9-2.9,1.6-4.5,2.2c-1.6,0.6-3.3,0.8-5,0.8c-3.3,0-5.8-1-7.5-2.9c-1.3-1.5-2.3-3.3-2.8-5.2
	c2.5-3.1,4.6-6.5,6.2-10.2l1.6-3.5h-6.9c0.8-2.6,2-5,3.6-7.2c2-2.9,4.5-5.3,7.4-7.2c3.1-2,6.7-3,10.3-2.9c1.9-0.1,3.8,0.6,5.1,2
	c1.1,1.4,1.7,3.1,1.7,4.8c0,2.1-0.5,4.2-1.3,6.2c-0.9,2.2-2.2,4.3-3.9,6c-1.7,1.8-3.8,3.3-6.1,4.3c-1.8,0.8-3.8,1.2-5.9,1.2
	c-0.7,0-1.4,0-2.1-0.1c-0.2,2.2,0,4.5,0.6,6.7c0.5,1.7,2.1,2.8,3.9,2.7c2.3,0,4.6-0.8,6.5-2.1c1.7-1.2,3.3-2.5,4.7-4l-1.5,5.2
	L495.6,177.3z M528,177.3c-1,1.4-2.2,2.6-3.5,3.6c-1.1,0.8-2.3,1.5-3.5,2c-1,0.4-2,0.6-3.1,0.6c-2.4,0-3.8-0.8-4.5-2.4
	c-0.7-1.9-0.8-4-0.4-5.9c0.4-2.6,1.1-5.2,2-7.7c1-2.8,1.9-5.3,2.8-7.7s1.5-4.3,1.9-5.9s0.2-2.4-0.5-2.4c-0.7,0.1-1.3,0.4-1.8,1
	c-0.7,0.8-1.3,1.6-1.8,2.5c-0.5,1-1.1,2.1-1.7,3.4s-1.1,2.5-1.6,3.6l-6.5,21.8h-9.5l1.6-5.5c1-1,1.9-2.1,2.8-3.2
	c2.5-3.1,4.6-6.5,6.2-10.2l1.6-3.5H503l5.2-17.3h9.5l-2,6.5c1.2-1.8,2.7-3.4,4.4-4.7c1.4-1.2,3.2-1.8,5-1.8c2.2,0,3.6,0.8,4.1,2.4
	c0.5,1.9,0.5,4,0,5.9c-0.6,2.6-1.3,5.2-2.3,7.8l-2.9,7.8c-0.7,1.9-1.3,3.9-1.7,5.9c-0.3,1.6,0.1,2.4,1.2,2.4
	c0.9-0.1,1.8-0.4,2.7-0.9c1.4-0.8,2.5-2.1,3.1-3.6h1.5C530.1,173.8,529.1,175.6,528,177.3L528,177.3z"/>
<path class="st2" d="M153.3,188.7c1.8,0,3.4-1,4.9-3c1.7-2.4,3.1-5.1,4.1-7.9c1.3-3.3,2.5-7.1,3.7-11.3s2.5-8.6,3.8-13.1
	c1.3-4.5,2.7-8.9,4.2-13.3c1.4-4.1,3-8.2,5-12.1c1.7-3.3,3.8-6.4,6.3-9.2c2.1-2.4,5-4,8.1-4.7c-1.9-0.8-3.9-1.3-6-1.6
	c-2.3-0.3-4.7-0.4-7.1-0.4c-4.1-0.1-8.3,0.7-12.1,2.3c-3.4,1.5-6.5,3.5-9.3,6.1c-2.6,2.5-4.9,5.4-6.6,8.6c-1.7,3.1-3.1,6.5-4.1,9.9
	c-0.9,3.2-1.5,6.6-1.8,9.9c-0.2,2.9-0.1,5.8,0.5,8.6c0.4,2.2,1.3,4.3,2.6,6.1c1,1.5,2.7,2.3,4.5,2.3c1.1,0,2.1-0.4,2.8-1.2
	c0.7-0.7,1.1-1.7,1.1-2.6c0-1-0.5-2-1.4-2.6c-0.9-0.8-2.4-1.2-4.6-1.2c0-1.7,0.8-3.4,2.2-4.4c1.4-1,3.1-1.6,4.8-1.7
	c1.7,0,3.4,0.5,4.8,1.6c1.5,1.1,2.2,2.9,2.2,5.4c0,1.6-0.4,3.1-1.1,4.5c-0.7,1.4-1.8,2.5-3,3.5c-1.3,1-2.7,1.8-4.3,2.3
	c-1.6,0.6-3.2,0.8-4.9,0.8c-3.6,0.1-7.1-0.8-10.1-2.6c-2.6-1.7-4.7-4.1-6-7c-1.4-3.2-2-6.6-1.9-10c0.1-3.9,0.7-7.7,2-11.4
	c1.4-4,3.3-7.9,5.7-11.4c2.5-3.8,5.7-7.2,9.3-10c8.1-6.4,18.3-9.8,28.6-9.7c3.8,0,7.5,0.5,11.2,1.5c3.3,0.9,6.3,2.4,8.9,4.6
	c0,0,0,0.1-0.1,0.1c0,0,0,0,0,0h-0.2c-2,0.4-3.8,1.5-5,3.2c-1.7,2.2-3,4.6-4.1,7.1c-1.4,3.2-2.6,6.5-3.6,9.9
	c-1.1,3.7-2.3,7.6-3.5,11.6c2.5,0,4.8-0.8,6.9-2.1c2.1-1.4,4-3.1,5.7-5c1.8-2.2,3.5-4.5,4.9-6.9c1.6-2.5,3.2-5,4.8-7.5
	c1.6-2.5,3.4-4.8,5.3-7.1c1.8-2.2,4-4.1,6.4-5.6c2.5-1.5,5.2-2.6,8.1-3c3.5-0.5,7-0.2,10.3,0.8c-2.5,0.7-4.8,2-6.7,3.9
	c-2.4,2.2-4.6,4.6-6.6,7.1c-2.2,2.7-4.5,5.6-6.9,8.6c-2.4,3-4.9,5.9-7.6,8.6c-2.6,2.6-5.5,5-8.6,7c-3,2-6.4,3.2-9.9,3.8
	c1.5,0.2,3.3,0.5,5.3,0.9c1.6,2,2.7,4.3,3.4,6.7c0.7,2.7,1.3,5.4,1.7,8.1c0.4,2.8,0.7,5.6,0.9,8.3c0.2,2.4,0.5,4.9,1,7.3
	c0.3,1.8,1,3.5,2.1,5c1,1.2,2.6,1.8,4.1,1.5c-0.3,0.9-0.7,1.7-1.3,2.4c-0.7,0.8-1.5,1.5-2.4,2.1c-1,0.6-2.1,1-3.3,1.1
	c-3.5,0.5-6.9-1.3-8.4-4.5c-1-2.2-1.6-4.6-1.8-7c-0.3-2.9-0.4-5.7-0.4-8.6c0-3-0.1-5.9-0.5-8.8c-0.3-2.7-1.1-5.3-2.2-7.7
	c-1.1-2.3-3-4.2-5.4-5.3c-1.5,5.2-3.1,10.3-4.9,15.4c-1.6,4.7-3.7,9.3-6.1,13.7c-2.1,3.7-4.8,7.1-8.1,9.8c-3,2.5-6.9,3.8-10.8,3.8
	c-1.8,0-3.5-0.2-5.3-0.7c-1.6-0.4-3-1.2-4.3-2.3c-1.2-1.1-2-2.6-2.3-4.2c-0.4-2.1-0.3-4.3,0.4-6.3c0.3-1.5,1.2-2.9,2.4-3.9
	c1.2-0.9,2.5-1.6,4-1.9c1.4-0.3,2.9-0.3,4.3-0.1c1.3,0.2,2.5,0.8,3.5,1.6c0.9,0.8,1.5,1.9,1.6,3.1c0,1.6-0.6,3.2-1.6,4.4
	c-0.7-0.7-1.6-1.1-2.6-1.1c-0.8,0-1.5,0.2-2.1,0.7c-0.6,0.4-1.1,1.1-1.4,1.8c-0.3,0.7-0.4,1.4-0.3,2.1c0.2,0.7,0.6,1.4,1.2,1.8
	C151.2,188.5,152.3,188.8,153.3,188.7L153.3,188.7z"/>
<path class="st2" d="M230.5,144.3c2.2-0.1,4.3,0.4,6.1,1.5c1.4,1,2.5,2.5,3,4.2c0.6,2,0.7,4.2,0.4,6.2c-0.3,2.6-0.8,5.1-1.6,7.6
	c-1.6,5.2-4.5,10-8.3,13.9c-1.6,1.7-3.5,3.1-5.6,4.2c-1.8,1-3.7,1.5-5.7,1.5c-2.2,0.1-4.3-0.4-6.1-1.5c-1.4-1-2.5-2.5-3-4.2
	c-0.6-2-0.7-4.2-0.4-6.2c0.3-2.6,0.8-5.1,1.6-7.6c1.5-5.2,4.3-10,8.1-13.9c1.6-1.7,3.5-3.1,5.6-4.2
	C226.4,144.9,228.4,144.3,230.5,144.3L230.5,144.3z M220.6,179.1c0.8,0,1.7-0.7,2.7-2.2c1.1-1.7,2-3.6,2.8-5.5
	c0.9-2.3,1.8-4.7,2.4-7.1c0.7-2.3,1.2-4.7,1.6-7.1c0.3-1.8,0.4-3.7,0.3-5.5c-0.1-1.5-0.7-2.2-1.6-2.2s-1.8,0.7-2.8,2.2
	c-1.1,1.7-2,3.6-2.8,5.5c-0.9,2.3-1.7,4.7-2.3,7.1c-0.6,2.3-1.1,4.7-1.5,7.1c-0.3,1.8-0.4,3.7-0.3,5.5
	C219.4,178.3,219.8,179.1,220.6,179.1L220.6,179.1z"/>
<path class="st2" d="M260.7,144.3c2.1-0.1,4.3,0.4,6.1,1.5c1.4,1,2.5,2.5,3,4.2c0.6,2,0.7,4.2,0.4,6.2c-0.3,2.6-0.8,5.1-1.6,7.6
	c-0.8,2.7-2,5.3-3.4,7.6c-1.4,2.3-3,4.4-4.8,6.2c-1.6,1.7-3.5,3.1-5.6,4.2c-1.8,1-3.7,1.5-5.7,1.5c-2.1,0.1-4.3-0.4-6.1-1.5
	c-1.4-1-2.5-2.5-3-4.2c-0.6-2-0.7-4.2-0.4-6.2c0.3-2.6,0.8-5.1,1.6-7.6c1.5-5.2,4.3-10,8.1-13.9c1.6-1.7,3.5-3.1,5.6-4.2
	C256.7,144.9,258.7,144.3,260.7,144.3L260.7,144.3z M250.9,179.1c0.8,0,1.7-0.7,2.6-2.2c1.1-1.7,2-3.6,2.8-5.5
	c0.9-2.3,1.8-4.7,2.5-7.1c0.7-2.3,1.2-4.7,1.6-7.1c0.3-1.8,0.4-3.7,0.3-5.5c-0.1-1.5-0.7-2.2-1.6-2.2s-1.8,0.7-2.8,2.2
	c-1.1,1.7-2,3.6-2.8,5.5c-0.9,2.3-1.7,4.7-2.3,7.1c-0.6,2.3-1.1,4.7-1.5,7.1c-0.3,1.8-0.4,3.7-0.3,5.5
	C249.6,178.3,250.1,179.1,250.9,179.1L250.9,179.1z"/>
<path class="st2" d="M287.5,144.3L286,149l8.9-5.9c-0.4,1.9-0.4,3.9,0,5.8c0.3,1.2,0.9,2.2,1.8,2.9c0.8,0.6,1.9,0.9,2.9,0.7
	c1.1-0.1,2.2-0.4,3.2-0.9c-1.8,2.3-4,4.3-6.5,5.9c-1.7,1.1-3.6,1.8-5.6,2.1c-1.5,0.1-3-0.4-4-1.5c-1.2-1.4-1.9-3.1-2-4.9l-9.1,30.8
	h-9.5l11.9-39.6H287.5z"/>
<path class="st2" d="M301.8,170.1c-0.3,1-0.6,2.1-0.8,3.2c-0.1,0.6-0.2,1.3,0,1.9c0.1,0.4,0.2,0.7,0.5,0.9c0.2,0.2,0.5,0.3,0.8,0.4
	c0.6,0.2,1.5-0.1,2.8-0.8c1.4-0.9,2.4-2.3,3.1-3.8h1.5c-0.7,1.9-1.7,3.8-2.9,5.5c-1,1.4-2.1,2.6-3.4,3.6c-1.1,0.9-2.3,1.5-3.5,2
	c-1,0.4-2.1,0.6-3.2,0.6c-0.9,0-1.8-0.2-2.6-0.6c-0.9-0.4-1.6-1.1-2-2c-0.6-1.3-0.8-2.7-0.7-4.1c0.1-2.3,0.6-4.6,1.3-6.8l8-25.8h9.4
	c-1.2,3.9-2.3,7.5-3.3,10.8c-0.9,2.9-1.8,5.8-2.6,8.6C302.9,166.6,302.2,168.7,301.8,170.1L301.8,170.1z M315.5,129.5
	c0,1.7-0.7,3.3-1.9,4.5c-2.4,2.5-6.3,2.5-8.8,0.1c0,0-0.1-0.1-0.1-0.1c-1.2-1.2-1.8-2.8-1.8-4.5c0-1.7,0.6-3.3,1.8-4.5
	c1.2-1.2,2.8-1.8,4.5-1.8c1.6,0,3.2,0.6,4.4,1.8C314.9,126.2,315.6,127.9,315.5,129.5L315.5,129.5z"/>
<path class="st2" d="M330.8,144.3c1.9-0.1,3.8,0.6,5.1,2c1.1,1.4,1.7,3.1,1.7,4.8c0,2.1-0.5,4.2-1.3,6.2c-0.9,2.2-2.2,4.3-3.9,6
	c-1.7,1.8-3.8,3.3-6.1,4.3c-2.5,1.1-5.3,1.5-8,1.1c-0.3,2.2,0,4.5,0.6,6.7c0.5,1.7,2.1,2.8,3.8,2.7c2.3,0,4.6-0.8,6.5-2.1
	c2-1.4,3.8-3,5.5-4.8c1.9-2.2,3.6-4.6,5-7.1h1.7c-1.5,3.5-3.5,6.7-5.9,9.7c-1,1.3-2.1,2.5-3.2,3.6c-1.2,1.1-2.5,2.2-3.9,3.1
	c-1.4,0.9-2.9,1.7-4.4,2.2c-1.6,0.6-3.3,0.8-5,0.8c-3.3,0-5.8-1-7.5-2.9c-1.8-2-2.9-4.5-3.2-7.2c-0.4-3.2-0.1-6.3,0.7-9.4
	c0.8-3.4,2.2-6.6,4.2-9.4c2-2.9,4.5-5.3,7.4-7.2C323.6,145.3,327.2,144.3,330.8,144.3L330.8,144.3z M328.7,147.2
	c-1.1,0.1-2.2,0.7-2.9,1.7c-1.1,1.3-2.1,2.7-2.9,4.3c-1,1.9-1.8,3.8-2.5,5.8c-0.7,2.1-1.3,4.2-1.7,6.4c1.2,0.4,2.5,0.2,3.5-0.5
	c1.2-0.8,2.3-1.9,3.2-3.1c1-1.4,1.9-2.9,2.5-4.5c0.7-1.5,1.2-3.1,1.6-4.7c0.3-1.2,0.4-2.5,0.3-3.7
	C329.7,147.7,329.3,147.2,328.7,147.2L328.7,147.2z"/>
<path class="st2" d="M403,189.6c-2.8,2.8-5.2,4.5-7.4,5.3c-1.8,0.8-3.9,0.8-5.8,0.3c-1.8-0.7-3.4-1.9-4.6-3.4
	c-1.4-1.8-2.7-3.6-3.9-5.6c-3.6,1.5-7.4,2.3-11.2,2.3c-3.3,0.1-6.5-0.9-9.1-3c-2.5-2.2-4.2-5.1-5-8.4c-1-4.2-1.2-8.5-0.6-12.8
	c0.7-5.5,2.1-11,4.2-16.2c2.1-5.6,4.7-11,7.9-16.1c2.8-4.6,6.1-8.9,9.9-12.7c3.4-3.4,7.3-6.2,11.6-8.3c4-2,8.4-3,12.9-3
	c3.3-0.1,6.6,1,9.3,3c2.7,2.1,4.6,5,5.6,8.3c1.2,4.1,1.6,8.5,1.2,12.7c-0.5,5.5-1.8,11-3.9,16.1c-2.5,6.6-5.8,12.9-9.8,18.8
	c-3.6,5.3-8,9.9-13,13.8c1.6,2,3.3,3.8,5.1,5.5C398.2,187.8,400.5,189,403,189.6L403,189.6z M376,182.9c1.1,0,2.3-0.2,3.3-0.5
	c-0.8-1.5-1.7-3-2.5-4.5c-0.8-1.4-1.6-2.7-2.5-4c-0.8-1.1-1.7-2-2.8-2.8c-0.9-0.7-2-1.1-3.2-1.2c-0.2,4.1,0.3,7.3,1.5,9.6
	S373,182.9,376,182.9L376,182.9z M401.2,148.2c1.3-4.6,2.3-9.3,3-14c0.5-3.6,0.6-7.3,0.3-10.9c-0.2-2.6-1.1-5-2.7-7.1
	c-1.5-1.7-3.7-2.6-6-2.5c-2.6,0-5.1,0.9-7.1,2.5c-2.5,2-4.6,4.4-6.2,7.1c-2.1,3.5-3.9,7.1-5.4,10.9c-1.8,4.6-3.3,9.3-4.6,14
	c-1.9,6.1-3.2,12.4-4,18.8c2.2-0.4,4.4-0.4,6.6,0c1.8,0.3,3.5,1,5.1,1.9c1.5,0.9,2.9,2,4.1,3.2c1.2,1.3,2.4,2.7,3.5,4.1
	c2.9-3.6,5.4-7.5,7.4-11.8C397.7,159.2,399.7,153.8,401.2,148.2L401.2,148.2z"/>
<path class="st2" d="M436.3,170.1c-0.3,1-0.6,2.1-0.8,3.2c-0.1,0.6-0.1,1.3,0,1.9c0.1,0.4,0.2,0.7,0.5,0.9c0.2,0.2,0.5,0.3,0.8,0.4
	c0.6,0.2,1.5-0.1,2.8-0.8c1.4-0.9,2.4-2.3,3.1-3.8h1.6c-0.8,1.9-1.8,3.8-3,5.5c-1,1.4-2.2,2.6-3.5,3.6c-1,0.8-2.2,1.5-3.5,2
	c-1,0.4-2.1,0.6-3.2,0.6c-0.7,0-1.4-0.1-2-0.3c-0.7-0.2-1.3-0.5-1.8-1c-0.6-0.6-1-1.2-1.2-2c-0.3-1-0.5-2.1-0.4-3.2
	c-0.9,1.8-2.2,3.5-3.6,4.9c-1.2,1.1-2.7,1.7-4.3,1.7c-0.9,0-1.8-0.2-2.6-0.6c-0.9-0.4-1.6-1.1-2-2c-0.5-1.3-0.8-2.7-0.7-4.1
	c0.1-2.3,0.5-4.6,1.3-6.8l7.8-25.8h9.4c-1.2,3.9-2.3,7.5-3.2,10.8c-0.9,2.9-1.8,5.8-2.6,8.6s-1.5,5-1.9,6.3c-0.8,2.6-1.2,4.4-1,5.1
	s0.4,1.2,0.8,1.2s1-0.6,1.8-1.8c0.8-1.2,1.5-2.5,2-3.9l0.2-0.7l8-25.8h9.4c-1.2,3.9-2.3,7.5-3.3,10.8c-0.9,2.9-1.8,5.8-2.6,8.6
	C437.3,166.6,436.7,168.7,436.3,170.1L436.3,170.1z"/>
<path class="st2" d="M465.3,144.3c1.9-0.1,3.8,0.6,5.1,2c1.1,1.4,1.7,3.1,1.7,4.8c0,2.1-0.5,4.2-1.3,6.2c-0.9,2.2-2.2,4.3-3.9,6
	c-1.7,1.8-3.8,3.3-6.1,4.3c-2.5,1.1-5.3,1.5-8,1.1c-0.3,2.2,0,4.5,0.6,6.7c0.5,1.7,2.1,2.8,3.8,2.7c2.3,0,4.6-0.8,6.5-2.1
	c2-1.4,3.8-3,5.5-4.8c1.9-2.2,3.6-4.6,5-7.1h1.7c-1.5,3.5-3.5,6.7-5.9,9.7c-1,1.3-2.1,2.5-3.2,3.6c-1.2,1.1-2.5,2.2-3.9,3.1
	c-1.4,0.9-2.9,1.6-4.5,2.2c-1.6,0.6-3.3,0.8-5,0.8c-3.3,0-5.8-1-7.5-2.9c-1.8-2-2.9-4.5-3.2-7.2c-0.4-3.2-0.1-6.3,0.7-9.4
	c0.8-3.4,2.2-6.6,4.2-9.4c2-2.9,4.5-5.3,7.4-7.2C458,145.2,461.6,144.2,465.3,144.3L465.3,144.3z M463.2,147.2
	c-1.1,0.1-2.2,0.7-2.9,1.7c-1.1,1.3-2.1,2.7-2.9,4.3c-1,1.9-1.8,3.8-2.5,5.8c-0.7,2.1-1.3,4.2-1.7,6.4c1.2,0.4,2.5,0.2,3.5-0.5
	c1.2-0.8,2.3-1.9,3.2-3.1c1-1.4,1.9-2.9,2.5-4.5c0.7-1.5,1.2-3.1,1.6-4.7c0.3-1.2,0.4-2.5,0.3-3.7
	C464.2,147.7,463.8,147.2,463.2,147.2L463.2,147.2z"/>
<path class="st2" d="M494.1,144.3c1.9-0.1,3.8,0.6,5.1,2c1.1,1.4,1.7,3.1,1.7,4.8c0,2.1-0.5,4.2-1.3,6.2c-0.9,2.2-2.2,4.3-3.9,6
	c-1.7,1.8-3.8,3.3-6.1,4.3c-2.5,1.1-5.3,1.5-8,1.1c-0.2,2.2,0,4.5,0.6,6.7c0.5,1.7,2.1,2.8,3.9,2.7c2.3,0,4.6-0.8,6.5-2.1
	c2-1.4,3.8-3,5.5-4.8c1.9-2.2,3.6-4.6,5-7.1h1.7c-1.5,3.5-3.5,6.7-5.9,9.7c-1,1.3-2.1,2.5-3.2,3.6c-1.2,1.1-2.5,2.2-3.8,3.1
	c-1.4,0.9-2.9,1.6-4.5,2.2c-1.6,0.6-3.3,0.8-5,0.8c-3.3,0-5.8-1-7.5-2.9c-1.8-2-2.9-4.5-3.2-7.2c-0.4-3.2-0.1-6.3,0.7-9.4
	c0.8-3.4,2.3-6.6,4.2-9.4c2-2.9,4.5-5.3,7.4-7.2C486.8,145.2,490.5,144.2,494.1,144.3L494.1,144.3z M491.9,147.2
	c-1.1,0.1-2.2,0.7-2.9,1.7c-1.1,1.3-2.1,2.7-2.9,4.3c-1,1.9-1.8,3.8-2.4,5.8c-0.7,2.1-1.3,4.2-1.7,6.4c1.2,0.4,2.5,0.2,3.5-0.5
	c1.2-0.8,2.3-1.9,3.2-3.1c1-1.4,1.9-2.9,2.5-4.5c0.7-1.5,1.2-3.1,1.6-4.7c0.3-1.2,0.4-2.5,0.3-3.7
	C493,147.7,492.6,147.2,491.9,147.2L491.9,147.2z"/>
<path class="st2" d="M519.1,151.6c-0.7,0.1-1.3,0.4-1.8,1c-0.7,0.8-1.3,1.6-1.8,2.5c-0.5,1-1.1,2.1-1.7,3.4s-1.1,2.5-1.6,3.6
	l-6.5,21.8h-9.5l11.9-39.7h9.5l-2,6.5c1.2-1.8,2.7-3.4,4.4-4.7c1.4-1.2,3.2-1.8,5-1.8c2.2,0,3.6,0.8,4.1,2.4c0.5,1.9,0.5,4,0,5.9
	c-0.6,2.6-1.3,5.2-2.3,7.8l-2.9,7.8c-0.7,1.9-1.3,3.9-1.7,5.9c-0.3,1.6,0.1,2.4,1.2,2.4c0.9-0.1,1.8-0.4,2.7-0.9
	c1.4-0.8,2.5-2.1,3.1-3.6h1.5c-0.7,1.9-1.7,3.8-2.9,5.5c-1,1.4-2.2,2.6-3.5,3.6c-1.1,0.8-2.3,1.5-3.5,2c-1,0.4-2,0.6-3.1,0.6
	c-2.4,0-3.8-0.8-4.5-2.4c-0.7-1.9-0.8-4-0.4-5.9c0.4-2.6,1.1-5.2,2-7.7c1-2.8,1.9-5.3,2.8-7.7s1.5-4.3,1.9-5.9
	S519.8,151.6,519.1,151.6L519.1,151.6z"/>
</svg>
