<?xml version="1.0" encoding="utf-8"?>
<!-- Generator: Adobe Illustrator 22.1.0, SVG Export Plug-In . SVG Version: 6.00 Build 0)  -->
<svg version="1.1" id="Capa_1" xmlns="http://www.w3.org/2000/svg" xmlns:xlink="http://www.w3.org/1999/xlink" x="0px" y="0px"
	 viewBox="0 0 494.6 198.1" style="enable-background:new 0 0 494.6 198.1;" xml:space="preserve">
<style type="text/css">
	.st0{fill:#35401B;}
	.st1{fill:#FFFFFF;}
	.st2{fill:#475A23;}
	.st3{fill:#4C702B;}
	.st4{fill:url(#SVGID_1_);stroke:#35401E;stroke-width:0.87;stroke-miterlimit:10;}
	.st5{fill:url(#SVGID_2_);stroke:#35401E;stroke-width:0.87;stroke-miterlimit:10;}
	.st6{fill:url(#SVGID_3_);stroke:#35401E;stroke-width:0.87;stroke-miterlimit:10;}
	.st7{fill:url(#SVGID_4_);stroke:#35401E;stroke-width:0.87;stroke-miterlimit:10;}
	.st8{fill:url(#SVGID_5_);stroke:#35401E;stroke-width:0.87;stroke-miterlimit:10;}
	.st9{fill:url(#SVGID_6_);stroke:#35401E;stroke-width:0.87;stroke-miterlimit:10;}
</style>
<path class="st0" d="M80.2,167.2c-0.8,0-1.5-0.4-1.9-1.1l-25.7-43c-0.4-0.7-0.4-1.5-0.1-2.2c3.9-7.9,8.1-15.6,12.6-23.8
	c3.7-6.7,7.5-13.6,11.1-20.7c0.4-0.7,1.2-1.2,2-1.2h0.1c0.8,0,1.6,0.4,2,1.1l26.1,43.6c0.4,0.7,0.4,1.6,0,2.3L82.3,166
	C81.9,166.8,81.1,167.2,80.2,167.2L80.2,167.2z"/>
<path class="st1" d="M78.2,77.4c9,15,17.4,29.1,26.1,43.7c-7.9,14.3-15.9,28.8-24.1,43.8c-8.6-14.3-16.9-28.2-25.7-43
	C61.5,107.5,70.2,93.2,78.2,77.4 M78.2,72.9h-0.2c-1.6,0.1-3.1,1-3.9,2.5c-3.6,7.1-7.4,14-11.1,20.7c-4.5,8.2-8.8,16-12.7,23.9
	c-0.7,1.4-0.6,3,0.2,4.3l12.2,20.5l13.5,22.5c0.8,1.4,2.3,2.2,3.9,2.2h0.1c1.6,0,3.1-0.9,3.9-2.4l24.1-43.8c0.8-1.4,0.8-3.1-0.1-4.5
	l-9-15.1l-17-28.5C81.4,73.7,79.9,72.9,78.2,72.9L78.2,72.9z"/>
<path class="st2" d="M83.7,169.8c-1.3,0-2.3-1-2.2-2.3c0-0.3,0.1-0.7,0.2-1c2.9-5.8,10.8-19.5,17.1-30.4c3.3-5.6,6.1-10.6,7.7-13.4
	c0.4-0.7,1.1-1.1,1.9-1.2c7.5-0.3,40.8-1.3,50.2-1.4h0.1c1.3,0,2.3,1,2.3,2.2c0,0.4-0.1,0.8-0.3,1.2c-5.2,8.9-10.2,17.9-15,26.7
	c-3.2,5.9-6.5,11.8-9.9,17.7c-0.4,0.7-1.1,1.1-1.9,1.1c-9.3,0.2-42,0.8-49.4,0.8L83.7,169.8z"/>
<path class="st1" d="M158.5,122.3c-8.6,14.7-16.4,29.5-24.9,44.4c-9.3,0.2-41.9,0.8-49.4,0.8h-0.6c4.3-8.6,20.1-35.3,24.8-43.7
	C116.1,123.5,149.5,122.5,158.5,122.3 M158.5,117.8L158.5,117.8c-9.4,0.2-42.7,1.1-50.3,1.4c-1.6,0.1-3,0.9-3.8,2.3
	c-1.6,2.8-4.4,7.7-7.6,13.4c-6.4,11-14.3,24.7-17.2,30.6c-1.1,2.2-0.2,5,2,6.1c0.6,0.3,1.3,0.5,2,0.5h0.7c7.5,0,40.2-0.5,49.5-0.8
	c1.6,0,3.1-0.9,3.8-2.3c3.4-5.9,6.7-11.9,9.9-17.7c4.8-8.8,9.8-17.8,15-26.6c1.3-2.2,0.5-4.9-1.6-6.2
	C160.1,118,159.3,117.8,158.5,117.8L158.5,117.8z"/>
<path class="st3" d="M107.4,121.6c-0.8,0-1.5-0.4-1.9-1.1L79.8,77.5c-0.6-1.1-0.3-2.5,0.8-3.1c0.3-0.2,0.5-0.3,0.8-0.3
	c2.7-0.4,15.1-0.4,25-0.4c10.1,0,21.2,0.1,25.8,0.2c0.8,0,1.5,0.4,1.9,1.1l25.2,42.2c0.6,1.1,0.3,2.5-0.8,3.1
	c-0.3,0.2-0.7,0.3-1,0.3c-11,0.7-22,0.8-32.6,0.8C119.2,121.4,113.3,121.4,107.4,121.6L107.4,121.6z"/>
<path class="st1" d="M106.4,75.9c10.6,0,21.4,0.1,25.7,0.2l25.2,42.2c-16.8,1.1-33.4,0.6-50,1L81.7,76.4C84,76.1,95,76,106.4,75.9
	 M106.4,71.4c-14.5,0-23,0.2-25.3,0.4c-2.5,0.3-4.2,2.6-3.9,5.1c0.1,0.6,0.3,1.2,0.6,1.7l14.9,24.9l10.8,18c0.8,1.4,2.3,2.2,3.9,2.2
	h0.1c5.8-0.1,11.7-0.1,17.4-0.2c10.7,0,21.7-0.1,32.7-0.8c2.5-0.2,4.4-2.3,4.2-4.8c0-0.7-0.3-1.4-0.6-2L136,73.8
	c-0.8-1.3-2.2-2.2-3.8-2.2C127.6,71.5,116.5,71.4,106.4,71.4L106.4,71.4z"/>
<path class="st0" d="M30.1,157.8c-0.5,0-0.9-0.2-1.1-0.6l-14.9-24.9c-0.2-0.4-0.3-0.9,0-1.3c2.2-4.5,4.7-9,7.3-13.8
	c2.1-3.9,4.3-7.9,6.4-12c0.2-0.4,0.7-0.7,1.1-0.7c0.5,0,0.9,0.2,1.1,0.6l15.1,25.3c0.2,0.4,0.2,0.9,0,1.3l-14,25.4
	C30.9,157.5,30.5,157.8,30.1,157.8L30.1,157.8z"/>
<path class="st1" d="M29,105.8c5.2,8.7,10.1,16.8,15.1,25.3l-14,25.4l-14.8-24.9C19.3,123.2,24.3,114.9,29,105.8 M29,103.2L29,103.2
	c-1,0-1.9,0.6-2.3,1.4c-2.1,4.1-4.3,8.1-6.4,12c-2.6,4.7-5.1,9.2-7.3,13.8c-0.4,0.8-0.4,1.7,0.1,2.5l7.1,11.9l7.8,13
	c0.5,0.8,1.3,1.3,2.3,1.3c0.9,0,1.8-0.5,2.3-1.4l14-25.4c0.5-0.8,0.5-1.8,0-2.6l-5.2-8.8l-9.9-16.5C30.8,103.7,30,103.2,29,103.2
	L29,103.2z"/>
<path class="st2" d="M32.1,159.3c-0.7,0-1.3-0.6-1.3-1.3c0-0.2,0-0.4,0.1-0.6c1.7-3.3,6.2-11.3,9.9-17.6c1.9-3.3,3.5-6.1,4.4-7.8
	c0.2-0.4,0.6-0.7,1.1-0.7c4.3-0.2,23.6-0.7,29-0.8c0.7,0,1.3,0.6,1.3,1.3c0,0.2-0.1,0.5-0.2,0.7c-3,5.1-5.9,10.4-8.7,15.4
	c-1.9,3.4-3.8,6.8-5.7,10.3c-0.2,0.4-0.6,0.7-1.1,0.7c-5.4,0.1-24.3,0.4-28.6,0.4L32.1,159.3z"/>
<path class="st1" d="M75.4,131.8c-5,8.5-9.5,17-14.4,25.7c-5.4,0.1-24.3,0.4-28.6,0.4h-0.4c2.5-5,11.6-20.4,14.3-25.3
	C50.8,132.5,70.2,131.9,75.4,131.8 M75.4,129.2c-5.4,0.1-24.7,0.7-29,0.8c-0.9,0-1.7,0.5-2.2,1.4c-0.9,1.6-2.5,4.5-4.4,7.7
	c-3.7,6.4-8.3,14.3-10,17.7c-0.6,1.3-0.1,2.9,1.2,3.5c0.3,0.2,0.7,0.3,1.1,0.3h0.4c4.3,0,23.2-0.3,28.6-0.4c0.9,0,1.8-0.5,2.2-1.3
	c1.9-3.4,3.8-6.9,5.7-10.3c2.8-5.1,5.7-10.3,8.7-15.4c0.7-1.3,0.3-2.9-1-3.6C76.3,129.3,75.9,129.2,75.4,129.2L75.4,129.2z"/>
<path class="st3" d="M45.8,131.4c-0.5,0-0.9-0.2-1.1-0.6l-14.8-24.8c-0.2-0.4-0.3-0.8-0.1-1.2c0.2-0.4,0.6-0.7,1-0.7
	c1.6-0.2,8.7-0.3,14.4-0.3s12.3,0,14.9,0.1c0.5,0,0.9,0.3,1.1,0.6l14.6,24.4c0.2,0.4,0.2,0.9,0,1.3c-0.2,0.4-0.6,0.7-1.1,0.7
	c-6.3,0.4-12.7,0.4-18.8,0.5C52.6,131.3,49.2,131.3,45.8,131.4L45.8,131.4z"/>
<path class="st1" d="M45.3,105c6.1,0,12.4,0,14.9,0.1l14.6,24.4c-9.7,0.6-19.3,0.4-28.9,0.6c-5-8.3-9.8-16.5-14.8-24.8
	C32.3,105,38.7,105,45.3,105 M45.3,102.4c-8.4,0-13.3,0.1-14.6,0.3c-0.9,0.1-1.6,0.7-2,1.5c-0.4,0.8-0.3,1.7,0.1,2.5l8.6,14.4
	l6.2,10.5c0.5,0.8,1.3,1.3,2.3,1.3h0.1c3.3-0.1,6.8-0.1,10.1-0.1c6.2,0,12.5,0,18.9-0.5c1.4-0.1,2.6-1.3,2.5-2.8
	c0-0.4-0.2-0.9-0.4-1.2l-14.6-24.4c-0.5-0.8-1.3-1.3-2.2-1.3C57.5,102.4,51.1,102.4,45.3,102.4z"/>
<path class="st0" d="M53.8,194.8c-0.3,0-0.6-0.2-0.7-0.4l-9.3-15.6c-0.1-0.2-0.1-0.5,0-0.8c1.4-2.9,3-5.7,4.6-8.6
	c1.3-2.4,2.7-5,4-7.5c0.1-0.3,0.4-0.4,0.7-0.5c0.3,0,0.6,0.2,0.7,0.4l9.5,15.9c0.1,0.3,0.1,0.6,0,0.8l-8.8,15.9
	C54.3,194.7,54,194.8,53.8,194.8L53.8,194.8z"/>
<path class="st1" d="M53.1,162.2l9.5,15.9L53.8,194l-9.3-15.6C47,173.1,50.1,167.9,53.1,162.2 M53.1,160.6L53.1,160.6
	c-0.7,0-1.2,0.4-1.5,0.9c-1.3,2.6-2.7,5.1-4,7.5c-1.6,3-3.2,5.8-4.6,8.7c-0.2,0.5-0.2,1.1,0.1,1.6l4.5,7.5l4.9,8.2
	c0.3,0.5,0.8,0.8,1.4,0.8c0.6,0,1.1-0.3,1.4-0.9l8.8-15.9c0.3-0.5,0.3-1.1,0-1.6l-3.3-5.5l-6.2-10.4
	C54.2,160.9,53.6,160.6,53.1,160.6L53.1,160.6z"/>
<path class="st2" d="M55,195.8c-0.3,0-0.5-0.1-0.7-0.4c-0.1-0.2-0.1-0.6,0-0.8c1-2.1,3.9-7.1,6.2-11.1c1.2-2,2.2-3.8,2.8-4.9
	c0.1-0.3,0.4-0.4,0.7-0.4c2.7-0.1,14.8-0.5,18.2-0.5c0.3,0,0.6,0.2,0.7,0.4c0.2,0.3,0.2,0.6,0,0.8c-1.9,3.2-3.7,6.5-5.5,9.7
	c-1.2,2.1-2.4,4.3-3.6,6.4c-0.1,0.3-0.4,0.4-0.7,0.4c-3.4,0.1-15.3,0.3-18,0.3H55z"/>
<path class="st1" d="M82.2,178.6c-3.1,5.3-6,10.7-9,16.1c-3.4,0.1-15.2,0.3-18,0.3H55c1.6-3.1,7.3-12.9,9-15.9
	C66.8,179,79,178.6,82.2,178.6 M82.2,176.9c-3.4,0.1-15.5,0.4-18.3,0.5c-0.6,0-1.1,0.3-1.4,0.8c-0.6,1-1.6,2.8-2.8,4.9
	c-2.3,4-5.2,9-6.3,11.1c-0.4,0.8-0.1,1.8,0.7,2.2c0.2,0.1,0.5,0.2,0.7,0.2h0.2c2.7,0,14.6-0.2,18-0.3c0.6,0,1.1-0.3,1.4-0.8
	c1.2-2.2,2.4-4.3,3.6-6.4c1.8-3.2,3.6-6.5,5.4-9.7c0.5-0.8,0.2-1.8-0.6-2.3C82.9,177,82.6,176.9,82.2,176.9L82.2,176.9z"/>
<path class="st3" d="M63.7,178.2c-0.3,0-0.6-0.2-0.7-0.4l-9.3-15.6c-0.1-0.2-0.1-0.5,0-0.8c0.1-0.3,0.4-0.4,0.6-0.5
	c1-0.1,5.5-0.1,9.1-0.1s7.7,0,9.4,0.1c0.3,0,0.5,0.2,0.7,0.4l9.2,15.3c0.1,0.2,0.1,0.6,0,0.8c-0.1,0.3-0.4,0.4-0.7,0.4
	c-4,0.3-8,0.3-11.8,0.3C68,178.2,65.8,178.2,63.7,178.2L63.7,178.2z"/>
<path class="st1" d="M63.3,161.7c3.9,0,7.8,0,9.4,0.1l9.2,15.3c-6.1,0.4-12.1,0.2-18.2,0.4c-3.1-5.2-6.2-10.4-9.3-15.6
	C55.2,161.7,59.2,161.7,63.3,161.7 M63.3,160c-5.3,0-8.4,0.1-9.2,0.2c-0.6,0.1-1,0.4-1.3,0.9c-0.2,0.5-0.2,1.1,0.1,1.6l5.4,9
	l3.9,6.6c0.3,0.5,0.8,0.8,1.4,0.8c2.1,0,4.3-0.1,6.3-0.1c3.9,0,7.9,0,11.9-0.3c0.9-0.1,1.6-0.8,1.5-1.7c0-0.3-0.1-0.5-0.2-0.8
	l-9.2-15.3c-0.3-0.5-0.8-0.8-1.4-0.8C71,160.1,67,160,63.3,160L63.3,160z"/>
<path class="st0" d="M107.3,97.2c-0.8,0-1.5-0.4-1.9-1.1l-25.7-43c-0.4-0.7-0.4-1.5-0.1-2.2c3.8-7.9,8.1-15.6,12.6-23.8
	c3.7-6.7,7.5-13.6,11.1-20.7c0.4-0.7,1.1-1.2,1.9-1.2h0.1c0.8,0,1.5,0.4,1.9,1.1L133.4,50c0.4,0.7,0.4,1.6,0,2.3l-24.1,43.8
	C108.9,96.8,108.1,97.2,107.3,97.2L107.3,97.2z"/>
<path class="st1" d="M105.3,7.5l26.1,43.7L107.3,95L81.6,52C88.7,37.6,97.3,23.2,105.3,7.5 M105.3,3h-0.1c-1.6,0.1-3.1,1-3.9,2.5
	c-3.6,7.1-7.4,14-11.1,20.7c-4.5,8.2-8.8,15.9-12.7,23.9c-0.7,1.4-0.6,3,0.2,4.3L90,74.8l13.5,22.5c0.8,1.4,2.3,2.2,3.9,2.2h0.1
	c1.6,0,3.1-0.9,3.9-2.4l24.1-43.8c0.8-1.4,0.7-3.1-0.1-4.5l-9-15.1l-17-28.5C108.5,3.8,107,3,105.3,3L105.3,3z"/>
<path class="st2" d="M110.7,99.8c-1.3,0-2.3-1.1-2.2-2.3c0-0.3,0.1-0.7,0.2-1c2.9-5.8,10.8-19.5,17.1-30.4
	c3.3-5.6,6.1-10.6,7.7-13.4c0.4-0.7,1.1-1.1,1.9-1.2c7.5-0.3,40.8-1.3,50.2-1.4c0.8,0,1.6,0.4,2,1.1c0.4,0.7,0.4,1.6,0,2.3
	c-5.2,8.9-10.2,17.9-15,26.7c-3.2,5.9-6.5,11.8-9.9,17.7c-0.4,0.7-1.1,1.1-1.9,1.1c-9.3,0.2-42,0.8-49.4,0.8L110.7,99.8z"/>
<path class="st1" d="M185.7,52.4c-8.6,14.7-16.4,29.5-24.9,44.4c-9.3,0.2-41.9,0.8-49.4,0.8h-0.6c4.3-8.7,20.1-35.3,24.8-43.8
	C143.2,53.5,176.7,52.5,185.7,52.4 M185.7,47.8L185.7,47.8c-9.4,0.2-42.7,1.1-50.3,1.4c-1.6,0.1-3,0.9-3.8,2.3
	c-1.6,2.8-4.4,7.7-7.7,13.4c-6.4,11-14.3,24.7-17.2,30.6c-1.1,2.3-0.2,5,2.1,6.1c0.6,0.3,1.3,0.5,1.9,0.5h0.6
	c7.4,0,40.2-0.5,49.5-0.8c1.6,0,3.1-0.9,3.8-2.3c3.4-6,6.7-11.9,9.9-17.7c4.8-8.8,9.8-17.8,15-26.6c1.3-2.2,0.5-4.9-1.6-6.2
	C187.2,48.1,186.4,47.8,185.7,47.8L185.7,47.8z"/>
<path class="st3" d="M134.5,51.6c-0.8,0-1.5-0.4-1.9-1.1L106.9,7.6c-0.4-0.7-0.4-1.5-0.1-2.1c0.3-0.7,1-1.2,1.8-1.3
	c2.7-0.4,15-0.4,25-0.4c10.1,0,21.2,0.1,25.8,0.2c0.8,0,1.5,0.4,1.9,1.1l25.2,42.2c0.4,0.7,0.4,1.5,0.1,2.2
	c-0.4,0.7-1.1,1.2-1.9,1.2c-11,0.7-21.9,0.8-32.6,0.8c-5.7,0-11.7,0.1-17.5,0.2L134.5,51.6z"/>
<path class="st1" d="M133.5,6c10.6,0,21.4,0.1,25.7,0.2l25.2,42.2c-16.8,1.1-33.4,0.6-50,1c-8.6-14.4-17-28.5-25.7-42.9
	C111.1,6.1,122.1,6,133.5,6 M133.5,1.5c-14.5,0-23,0.1-25.3,0.4c-2.5,0.3-4.2,2.6-3.9,5.1c0.1,0.6,0.3,1.2,0.6,1.7l14.9,24.8
	l10.8,18.1c0.8,1.4,2.3,2.2,3.9,2.2h0.1c5.8-0.1,11.7-0.1,17.4-0.2c10.7-0.1,21.7-0.1,32.7-0.8c2.5-0.2,4.4-2.3,4.2-4.8
	c0-0.7-0.3-1.4-0.6-2.1L163.1,3.8c-0.8-1.3-2.2-2.2-3.8-2.2C154.7,1.5,143.6,1.4,133.5,1.5L133.5,1.5z"/>
<path class="st0" d="M169.9,100.8c-0.4,0-0.8-0.2-1-0.6l-13.2-22.1c-0.2-0.3-0.2-0.8-0.1-1.1c2-4,4.2-8,6.5-12.2
	c1.9-3.4,3.9-7,5.7-10.7c0.2-0.4,0.6-0.6,1-0.6c0.4,0,0.8,0.2,1,0.6l13.4,22.4c0.2,0.4,0.2,0.8,0,1.2l-12.4,22.5
	C170.6,100.6,170.3,100.8,169.9,100.8L169.9,100.8z"/>
<path class="st1" d="M168.8,54.7c4.6,7.7,8.9,15,13.4,22.5l-12.4,22.5l-13.2-22.1C160.3,70.2,164.7,62.8,168.8,54.7 M168.9,52.4
	L168.9,52.4c-0.9,0-1.7,0.5-2.1,1.3c-1.9,3.7-3.8,7.2-5.7,10.6c-2.3,4.2-4.5,8.2-6.5,12.3c-0.4,0.7-0.3,1.5,0.1,2.2l6.3,10.5
	l6.9,11.6c0.4,0.7,1.2,1.1,2,1.1h0.1c0.8,0,1.6-0.5,2-1.2l12.4-22.5c0.4-0.7,0.4-1.6,0-2.3l-4.6-7.8l-8.8-14.7
	C170.5,52.8,169.7,52.3,168.9,52.4L168.9,52.4z"/>
<path class="st2" d="M171.7,102.1c-0.6,0-1.1-0.6-1.1-1.2c0-0.2,0-0.3,0.1-0.5c1.5-3,5.6-10,8.8-15.6c1.7-2.9,3.1-5.4,4-6.9
	c0.2-0.4,0.6-0.6,1-0.6c3.9-0.2,21-0.6,25.8-0.7c0.6,0,1.2,0.5,1.2,1.2c0,0.2-0.1,0.4-0.2,0.6c-2.7,4.6-5.2,9.2-7.7,13.7
	c-1.7,3-3.3,6.1-5.1,9.1c-0.2,0.4-0.6,0.6-1,0.6c-4.8,0.1-21.6,0.4-25.4,0.4H171.7z"/>
<path class="st1" d="M210.1,77.7c-4.5,7.5-8.5,15.1-12.8,22.8c-4.8,0.1-21.6,0.4-25.4,0.4h-0.3c2.2-4.5,10.3-18.2,12.7-22.5
	C188.3,78.3,205.5,77.8,210.1,77.7 M210.2,75.4c-4.8,0.1-21.9,0.6-25.8,0.7c-0.8,0-1.6,0.5-2,1.2c-0.8,1.4-2.3,4-3.9,6.9
	c-3.3,5.7-7.4,12.7-8.9,15.7c-0.6,1.2-0.1,2.6,1.1,3.1c0.3,0.2,0.7,0.2,1,0.2h0.3c3.8,0,20.7-0.3,25.4-0.4c0.8,0,1.6-0.5,2-1.2
	c1.7-3,3.4-6.1,5.1-9.1c2.5-4.5,5-9.2,7.7-13.7c0.6-1.1,0.3-2.6-0.9-3.2C211,75.5,210.6,75.4,210.2,75.4L210.2,75.4z"/>
<path class="st3" d="M183.8,77.3c-0.4,0-0.8-0.2-1-0.6l-13.2-22.1c-0.3-0.6-0.1-1.3,0.4-1.6c0.1-0.1,0.3-0.1,0.4-0.1
	c1.4-0.2,7.7-0.2,12.8-0.2s10.9,0,13.3,0.1c0.4,0,0.8,0.2,1,0.6l13,21.7c0.2,0.4,0.2,0.8,0,1.1c-0.2,0.4-0.6,0.6-1,0.6
	c-5.6,0.4-11.3,0.4-16.7,0.4C189.9,77.2,186.9,77.2,183.8,77.3L183.8,77.3z"/>
<path class="st1" d="M183.3,53.9c5.4,0,11,0,13.2,0.1c4.2,7.1,8.6,14.4,13,21.7c-8.7,0.6-17.2,0.3-25.7,0.5
	c-4.4-7.4-8.7-14.6-13.2-22.1C171.9,53.9,177.5,53.9,183.3,53.9 M183.4,51.6c-7.5,0-11.8,0.1-13,0.2c-1.3,0.2-2.2,1.4-2,2.6
	c0,0.3,0.1,0.6,0.3,0.9l7.6,12.8l5.6,9.3c0.4,0.7,1.2,1.1,2,1.1h0.1c3-0.1,6-0.1,9-0.1c5.5,0,11.1,0,16.8-0.4
	c1.3-0.1,2.3-1.2,2.2-2.5c0-0.4-0.1-0.7-0.3-1l-13-21.7c-0.4-0.7-1.1-1.1-1.9-1.1C194.3,51.6,188.6,51.6,183.4,51.6L183.4,51.6z"/>
<path class="st0" d="M33.8,109.9c-0.8,0-1.6-0.4-2-1.1l-25.7-43c-0.4-0.7-0.4-1.5-0.1-2.2c3.9-7.9,8.1-15.6,12.6-23.8
	c3.7-6.7,7.5-13.6,11.1-20.7c0.4-0.8,1.2-1.2,2-1.2h0.1c0.8,0,1.6,0.4,2,1.1l26,43.6c0.4,0.7,0.4,1.6,0,2.3l-24.1,43.8
	C35.4,109.4,34.6,109.8,33.8,109.9L33.8,109.9z"/>
<path class="st1" d="M31.8,20.1l26.1,43.6l-24.1,43.8l-25.7-43C15.2,50.2,23.8,35.8,31.8,20.1 M31.8,15.5h-0.2
	c-1.6,0.1-3.1,1-3.9,2.5c-3.6,7.1-7.4,14-11.1,20.7C12.1,46.9,7.9,54.6,4,62.6c-0.7,1.4-0.6,3,0.2,4.3l12.2,20.5l13.5,22.5
	c0.8,1.4,2.3,2.2,3.9,2.2h0.1c1.6,0,3.1-0.9,3.9-2.4l24.1-43.8c0.8-1.4,0.8-3.1-0.1-4.5l-9-15.1l-17-28.5
	C35,16.4,33.5,15.5,31.8,15.5L31.8,15.5z"/>
<path class="st2" d="M37.2,112.4c-0.8,0-1.5-0.4-1.9-1.1c-0.4-0.7-0.4-1.5-0.1-2.2c2.9-5.8,10.8-19.5,17.1-30.4
	c3.3-5.6,6.1-10.6,7.7-13.4c0.4-0.7,1.1-1.1,1.9-1.2c7.5-0.3,40.8-1.3,50.2-1.4c1.3,0,2.3,1,2.3,2.3c0,0.4-0.1,0.8-0.3,1.2
	c-5.2,8.8-10.2,17.9-15,26.7c-3.2,5.9-6.5,11.8-9.8,17.7c-0.4,0.7-1.1,1.1-1.9,1.2c-9.3,0.2-42,0.8-49.4,0.8H37.2z"/>
<path class="st1" d="M112.1,65c-8.6,14.7-16.4,29.5-24.9,44.4c-9.3,0.2-41.9,0.8-49.4,0.8h-0.6c4.3-8.6,20.1-35.3,24.8-43.7
	C69.7,66.1,103.1,65.2,112.1,65 M112.1,60.5L112.1,60.5c-9.4,0.2-42.7,1.1-50.3,1.4c-1.6,0.1-3,0.9-3.8,2.3
	c-1.6,2.8-4.4,7.7-7.7,13.4c-6.4,11-14.3,24.7-17.2,30.6c-1.1,2.2-0.2,5,2,6.1c0.6,0.3,1.3,0.5,2,0.5h0.7c7.4,0,40.2-0.5,49.5-0.8
	c1.6,0,3-0.9,3.8-2.3c3.4-6,6.7-11.9,9.9-17.7c4.8-8.8,9.8-17.8,15-26.6c1.3-2.2,0.5-4.9-1.6-6.2C113.7,60.7,112.9,60.5,112.1,60.5
	L112.1,60.5z"/>
<path class="st3" d="M61,64.2c-0.8,0-1.5-0.4-1.9-1.1L33.4,20.2c-0.6-1.1-0.3-2.5,0.8-3.1c0.3-0.2,0.6-0.3,0.9-0.3
	c2.7-0.4,15.1-0.4,25-0.4c10.1,0,21.2,0.1,25.8,0.2c0.8,0,1.5,0.4,1.9,1.1l25.2,42.2c0.6,1.1,0.3,2.5-0.8,3.1
	c-0.3,0.2-0.7,0.3-1,0.3c-11,0.7-22,0.8-32.6,0.8C72.8,64,66.9,64,61,64.2L61,64.2z"/>
<path class="st1" d="M60,18.6c10.6,0,21.4,0.1,25.7,0.2l25.2,42.2c-16.8,1.1-33.4,0.6-50,1L35.3,19C37.7,18.7,48.7,18.6,60,18.6
	 M60,14c-14.5,0-23,0.1-25.3,0.4c-2.5,0.3-4.2,2.6-3.9,5.1c0.1,0.6,0.3,1.2,0.6,1.7l14.9,24.9l10.8,18.1c0.8,1.4,2.3,2.2,3.9,2.2
	h0.1c5.8-0.1,11.7-0.2,17.4-0.2c10.7,0,21.7-0.1,32.7-0.8c2.5-0.2,4.4-2.3,4.2-4.8c0-0.7-0.3-1.4-0.6-2L89.7,16.5
	c-0.8-1.3-2.2-2.2-3.8-2.2C81.2,14.1,70.1,14.1,60,14L60,14z"/>
<g>
	
		<linearGradient id="SVGID_1_" gradientUnits="userSpaceOnUse" x1="182.3176" y1="86.0275" x2="209.9094" y2="38.2244" gradientTransform="matrix(1 0 0 -1 0 199.14)">
		<stop  offset="0" style="stop-color:#DEDC00"/>
		<stop  offset="1" style="stop-color:#006633"/>
	</linearGradient>
	<path class="st4" d="M195.8,109.6c7.4-0.2,14.6,2.7,19.9,7.9c10.8,10.7,10.9,28.1,0.2,38.8c-5.2,5.2-12.3,8.2-19.7,8.2
		c-7.4,0.1-14.5-2.7-19.6-8c-5.2-5-8.1-12-8-19.3c0-4.9,1.2-9.7,3.6-14C177,114.8,186.1,109.5,195.8,109.6z M196,114.6
		c-3.9,0-7.7,1-11,3c-3.4,1.9-6.2,4.8-8.1,8.1c-2,3.5-3,7.4-2.9,11.4c-0.1,12.2,9.7,22.1,21.9,22.1c0,0,0.1,0,0.1,0
		c3.9,0,7.8-1,11.3-3c3.4-1.9,6.2-4.7,8.1-8.1c2-3.5,3-7.4,2.9-11.4c0.1-3.9-0.9-7.8-2.9-11.3c-1.9-3.4-4.8-6.2-8.2-8.1
		C203.8,115.7,200,114.7,196,114.6L196,114.6z"/>
	
		<linearGradient id="SVGID_2_" gradientUnits="userSpaceOnUse" x1="236.5591" y1="86.3988" x2="264.1701" y2="38.5844" gradientTransform="matrix(1 0 0 -1 0 199.14)">
		<stop  offset="0" style="stop-color:#DEDC00"/>
		<stop  offset="1" style="stop-color:#006633"/>
	</linearGradient>
	<path class="st5" d="M239.7,110.9H250c4.1,0,7.3,0.5,9.6,1.5c2.2,0.9,4,2.5,5.3,4.5c1.3,2,2,4.4,1.9,6.8c0,2.2-0.6,4.4-1.7,6.3
		c-1.2,2-2.9,3.6-5,4.6c2.3,0.7,4.4,1.8,6.3,3.3c1.5,1.2,2.6,2.8,3.4,4.5c0.8,1.8,1.2,3.8,1.2,5.7c0.1,4-1.6,7.9-4.6,10.6
		c-3.1,2.9-7.2,4.4-12.3,4.4h-14.3L239.7,110.9z M244.9,116v16.7h3c2.7,0.1,5.4-0.2,8-1c1.6-0.6,3.1-1.7,4.1-3.2
		c1-1.4,1.5-3.1,1.5-4.9c0.1-2.2-0.8-4.3-2.5-5.6c-1.7-1.4-4.3-2.1-8-2L244.9,116z M244.9,138v20h6.5c3.8,0,6.6-0.4,8.4-1.1
		c1.7-0.7,3.2-1.9,4.3-3.5c2.4-3.4,2.1-8.1-0.7-11.2c-1.7-1.8-3.9-3.1-6.3-3.5c-3.1-0.5-6.2-0.7-9.3-0.6L244.9,138z"/>
	
		<linearGradient id="SVGID_3_" gradientUnits="userSpaceOnUse" x1="286.7729" y1="88.1912" x2="316.8369" y2="36.1341" gradientTransform="matrix(1 0 0 -1 0 199.14)">
		<stop  offset="0" style="stop-color:#DEDC00"/>
		<stop  offset="1" style="stop-color:#006633"/>
	</linearGradient>
	<path class="st6" d="M286.9,110.9h30v5.1h-24.7v16.4h24.5v5.1h-24.5V158h24.5v5.1h-29.7V110.9z"/>
	
		<linearGradient id="SVGID_4_" gradientUnits="userSpaceOnUse" x1="330.3424" y1="87.5328" x2="361.3219" y2="33.8737" gradientTransform="matrix(1 0 0 -1 0 199.14)">
		<stop  offset="0" style="stop-color:#DEDC00"/>
		<stop  offset="1" style="stop-color:#006633"/>
	</linearGradient>
	<path class="st7" d="M331.6,110.9H342c5.8,0,9.7,0.2,11.8,0.7c3,0.6,5.6,2.2,7.6,4.6c2,2.4,3,5.5,2.9,8.6c0.1,2.6-0.6,5.2-2,7.5
		c-1.4,2.2-3.4,3.9-5.7,4.9c-2.5,1.1-5.9,1.7-10.3,1.7l18.8,24.3h-6.5l-18.8-24.3h-3v24.3h-5.2V110.9z M336.8,116v17.8l9,0.1
		c2.6,0.1,5.2-0.2,7.7-1c1.6-0.6,3-1.7,3.9-3.2c0.9-1.5,1.4-3.2,1.4-4.9c0-1.7-0.5-3.4-1.4-4.8c-0.9-1.4-2.2-2.5-3.7-3.1
		c-1.5-0.6-4.1-0.9-7.7-0.9L336.8,116z"/>
	
		<linearGradient id="SVGID_5_" gradientUnits="userSpaceOnUse" x1="392.3261" y1="86.0191" x2="419.9121" y2="38.2261" gradientTransform="matrix(1 0 0 -1 0 199.14)">
		<stop  offset="0" style="stop-color:#DEDC00"/>
		<stop  offset="1" style="stop-color:#006633"/>
	</linearGradient>
	<path class="st8" d="M405.8,109.6c7.4-0.2,14.6,2.7,19.9,7.9c10.8,10.7,10.9,28.1,0.2,38.8c-5.2,5.2-12.3,8.2-19.6,8.2
		c-7.4,0.2-14.5-2.7-19.6-8c-5.2-5-8.1-12-8-19.3c0-4.9,1.2-9.7,3.6-14C387,114.8,396,109.5,405.8,109.6L405.8,109.6z M406,114.6
		c-3.9,0-7.7,1-11,3c-3.4,1.9-6.2,4.7-8.1,8.1c-2,3.5-3,7.4-2.9,11.4c-0.1,12.2,9.7,22.1,21.9,22.1c0,0,0.1,0,0.1,0
		c3.9,0,7.8-1,11.3-3c3.4-1.9,6.2-4.7,8.1-8.1c2-3.5,3-7.4,2.9-11.4c0.1-3.9-0.9-7.8-2.9-11.3c-1.9-3.4-4.8-6.2-8.2-8.1
		C413.8,115.7,409.9,114.7,406,114.6L406,114.6z"/>
	
		<linearGradient id="SVGID_6_" gradientUnits="userSpaceOnUse" x1="453.6808" y1="90.5978" x2="486.5741" y2="33.6321" gradientTransform="matrix(1 0 0 -1 0 199.14)">
		<stop  offset="0" style="stop-color:#DEDC00"/>
		<stop  offset="1" style="stop-color:#006633"/>
	</linearGradient>
	<path class="st9" d="M449.6,163.1v-52.3h1.1l34.8,40v-40h5.2v52.3h-1.2L455,123.6v39.6L449.6,163.1z"/>
</g>
</svg>
