<svg id="Capa_1" data-name="Capa 1" xmlns="http://www.w3.org/2000/svg" viewBox="0 0 566.93 566.93"><defs><style>.cls-1{fill:#4fa0ca;}.cls-2{fill:#fff;}</style></defs><title>Murtair</title><path d="M559.84,504.59,528,476.15l-1.4-1.28a34.86,34.86,0,0,0-3.7-3.13,6.26,6.26,0,0,1-.45-.95c-2.77-6.89-5.69-13.78-8.55-20.54l-.32-.74q-1.86-4.39-3.71-8.79l-.72-1.74a52.29,52.29,0,0,0,5.9-7.71c9.5-15.3,8.14-33.79-3.47-47.1a43.64,43.64,0,0,0-24.34-14.09,70.68,70.68,0,0,0-13.93-1.39c-6.78-.1-13.26-.09-21-.07l-39.19,0V332.21H395.83c-7.18,0-17,0-17-26.1v-1.29c.82.19,1.41.31,1.74.37l44.31,8.17-9.57-12.46A47.63,47.63,0,0,0,443.51,276c3.53-7.25,5.33-19.74,6-25l24.42-17.67s-27.13,5.24-30.45,2.53c-.62-1.23-.06-17.95-.06-17.95s-9.52,14-17.27,19.19c1.94-.13-1.16.29-1.66.41-1.5.37-2.56.64-3.38.9l-20.78,3.75-6-3.69-.26-.18-.32-4.35c-.13-1.8-.35-3.66-.65-5.51a65.52,65.52,0,0,0-6.79-20.08l.08-.37c3.47-16.08-18.27-28.31-27.78-32.82a69.2,69.2,0,0,0-11-4l11.48-16.5s-30,12.1-44.78,8.17-.46.12-1.24.29l-31.92-5.24a89.47,89.47,0,0,0-13.13-1h-.12c0-.18,0-.36,0-.54,0-4.55-.83-20.45-12.11-37-1-6-3.35-17.84-12.47-26.46-6.87-6.48-7.25-7.79-7.48-8.57l-.75-2.58c-1.2-4.1-3-10.28-3.47-12.63-2.3-11.76-11.37-17-19.34-17a20.59,20.59,0,0,0-16.13,8.13c-.61.76-1.18,1.52-1.69,2.25a26.43,26.43,0,0,0-7.51,8.12c-9.11,1.71-21.07,10.5-21.76,21.79a21.24,21.24,0,0,0,3.56,12.8c.35,4,1.35,10.51,3,19.51-5.53,12.79-17,41.19-19.05,61.09-2.29,22.19,1.93,43.62,7.3,49.71l8.48,9.63a45.28,45.28,0,0,0,5.12,6.44l2.55,2.64,1.78.72v0a59.23,59.23,0,0,1,.69,10.06v41.16c0,26.1-9.84,26.1-17,26.1H144.27v21.35c-2.66.23-4.44.36-5.6.43l-.19-.05h-3.43l-9.54-4.08-12.36,7-21,11.92-21.48-12-12.29-6.87-9.42,4H46.56l-.19.05c-1.57-.09-4.27-.29-8.74-.72l-26.32-3V392.1h10v59.59c0,.44,0,.88,0,1.29H7.09v61.91h23.6a113.8,113.8,0,0,0,13.35-1l1.55-.19v1.19h92.48v-1.35c.82.08,1.81.19,3,.34a108.88,108.88,0,0,0,13.26,1H183V504.48c4.74,0,9.5,0,14.33,0h65.38l-.2-.18H285.8l-.05-.08h22.87l0,0H410l-.08.09h64.43v.24Z"/><path class="cls-1" d="M154,496.92a85.65,85.65,0,0,1-9.73-.8,85.83,85.83,0,0,0-9.73-.8,95.13,95.13,0,0,0-10.37.8,94.67,94.67,0,0,1-10,.8V492.3q8.3,0,10.73-4.54t2.44-19.16V381.1L97.68,397v73.81q0,12,2,16.26,2.35,5.25,9.44,5.26v4.62a59.48,59.48,0,0,1-7.89-.8,60.17,60.17,0,0,0-8.28-.8,82,82,0,0,0-9.32.8,82.71,82.71,0,0,1-9.71.8V492.3q5.91,0,8.26-2.23,3.15-3,3.15-12.26V396.45L57,381v87.62q0,14.18,2.43,18.95t10.74,4.78v4.62a95.77,95.77,0,0,1-10-.8,96.37,96.37,0,0,0-10.32-.8,89.22,89.22,0,0,0-9.59.8,89.37,89.37,0,0,1-9.87.8V492.3q14.25,0,14.25-29.94V393.24q0-10.68-1.67-14.5-2-4.62-8.36-4.62v-4.61q13.36,1.26,15.24.79c3.15,0,5.34-.26,6.59-.79L92,389.41l35-19.9c1.24.53,3.77.79,7.57.79q1.86.48,15.14-.79v4.61q-6.41,0-8.26,4.14-1.68,3.51-1.67,15v69.12q0,29.94,14.25,29.94Z"/><path class="cls-1" d="M402.14,478.47l5.61,6.1H378.21c5.17-6.89,5.17-6.89,5.17-16.48V433H370.91c-.09,1.32-.26,2.73-.26,4.13,0,12,.12,23.95-.09,35.92-.07,3.85.54,7.07,3.65,9.56a10.69,10.69,0,0,1,1.37,2H345.35l5.36-5.84V433l-6.39-.46c1.77-3.84,3.57-7.33,5-11a21.43,21.43,0,0,0,1.58-7c.2-7.21.29-14.44,0-21.64-.18-4.3,1.59-6.94,5.33-8.36,2.89-1.1,5.91-2.5,8.89-2.56,8.65-.16,17.32.18,26,.6,2,.09,4.08,1.12,6,2,3.56,1.68,5.21,4.32,5.19,8.57-.17,26.73-.09,53.46-.09,80.19ZM383,417.73v-22H370.87v22Z"/><path class="cls-2" d="M379.32,486.55H340.86l7.88-8.57v-43.2l-7.39-.53,1.18-2.59c.54-1.16,1.08-2.3,1.61-3.41,1.22-2.55,2.36-5,3.32-7.43a19.41,19.41,0,0,0,1.45-6.37c.17-5.92.32-13.72,0-21.5-.21-5.08,2-8.54,6.59-10.28l1.4-.55c2.6-1,5.3-2.09,8.15-2.14,8.28-.15,16.43.13,26.11.6a17.44,17.44,0,0,1,6.39,2l.33.16c4.28,2,6.35,5.4,6.32,10.36-.13,20.1-.11,40.54-.1,60.3q0,9.94,0,19.88v4.38l8.12,8.84H379.32ZM372.73,435c-.06.73-.11,1.47-.11,2.18,0,3.77,0,7.54,0,11.31,0,8.07,0,16.42-.1,24.63-.08,4.07.71,6.24,2.91,8a5.78,5.78,0,0,1,1.26,1.59c.06.11.13.23.21.35,4.5-6,4.5-6.17,4.5-14.93V435Zm-22.9,47.64h21.54c-2.51-2.93-2.84-6.44-2.78-9.59.15-8.17.12-16.5.1-24.55,0-3.77,0-7.55,0-11.33,0-1.05.09-2.06.17-3,0-.42.07-.83.1-1.24l.12-1.83h16.28v37c0,8.28-.11,10-3.25,14.51h21.16l-3.09-3.36v-5.92q0-9.94,0-19.87c0-19.78,0-40.22.1-60.34,0-3.44-1.16-5.4-4.06-6.77l-.34-.16a14.57,14.57,0,0,0-4.89-1.67c-9.6-.46-17.68-.74-25.84-.59a20.93,20.93,0,0,0-6.79,1.87l-1.44.56c-3,1.13-4.2,3.06-4.06,6.44.33,7.89.18,15.78,0,21.77a23,23,0,0,1-1.72,7.68c-1,2.61-2.18,5.08-3.43,7.7-.13.26-.25.53-.38.79l5.36.39v48.39ZM385,419.7h-16.1v-26H385Zm-12.17-3.93h8.23V397.68h-8.23Z"/><path class="cls-1" d="M270,484.56c-.12-7.56-4.63-13.44-7.57-19.92-3.9-8.64-8.06-17.16-12.15-25.71a8.8,8.8,0,0,0-2.71-3.47v25.43c0,4.26.24,8.54-.07,12.78a9.58,9.58,0,0,0,3.39,8.67,16.61,16.61,0,0,1,1.77,2.3H223.46c0-.31,0-.75.15-.91,4-3.41,4.4-7.81,4.36-12.78-.2-25.74-.16-51.47,0-77.21,0-4-.51-7.42-3.7-10.08a5.15,5.15,0,0,1-.9-1.16c-.07-.11,0-.31.06-.79.85-.06,1.76-.16,2.67-.16q14.25,0,28.52,0a35.09,35.09,0,0,1,16.5,4.12c12.59,6.62,16.9,21.51,9.2,33.52-2.85,4.45-7,8.07-11,12.62a19.26,19.26,0,0,0,.74,2.25c5.66,13.57,11.26,27.17,17.08,40.68a23.48,23.48,0,0,0,4.27,5.79,47.77,47.77,0,0,0,4.66,4Zm-21.82-61.1c6.22.71,11.27-.57,14.7-5.91,3.28-5.08,3.3-12.16-.13-16.65-3.76-4.93-8.94-5.2-14.57-4.32Z"/><path class="cls-2" d="M221.21,486.6l.3-2.23v-.08a2.59,2.59,0,0,1,.81-2.05c3.15-2.69,3.73-6,3.68-11.28-.17-23-.18-47.58,0-77.23,0-3.73-.47-6.46-3-8.56a5.82,5.82,0,0,1-1.17-1.42l-.11-.16a2.3,2.3,0,0,1-.3-1.75c0-.08,0-.19,0-.31l.15-1.68,1.69-.11.78-.06c.64-.05,1.31-.1,2-.1q14.26,0,28.53,0A37.22,37.22,0,0,1,272,383.92a25.84,25.84,0,0,1,13.27,16.29,25,25,0,0,1-3.33,20,59.09,59.09,0,0,1-7.39,8.76c-1,1.06-2.07,2.16-3.11,3.3.1.31.22.66.35,1l3.23,7.74c4.49,10.81,9.14,22,13.85,32.92a19.26,19.26,0,0,0,3.4,4.67l.54.6a19.85,19.85,0,0,0,2.57,2.28c.58.47,1.2,1,1.88,1.54l4.09,3.47H268.05l0-1.93c-.08-5.09-2.37-9.4-4.79-14-.89-1.67-1.8-3.39-2.6-5.16-3-6.55-6.13-13.16-9.2-19.55l-1.9-4v18.95c0,1.28,0,2.55,0,3.83.06,3,.11,6-.12,9.09s.58,5.21,2.71,7a8.17,8.17,0,0,1,1.39,1.66c.19.28.4.59.67.93l2.4,3.16Zm5.71-103.08c2.64,3,3,6.68,3,10.24-.16,29.63-.15,54.15,0,77.17,0,4-.19,8.16-2.7,11.74h21.15a11.67,11.67,0,0,1-2.86-9.15c.21-2.87.16-5.85.11-8.73,0-1.3,0-2.6,0-3.9V431.5l3.16,2.39a10.74,10.74,0,0,1,3.3,4.19L255,444.2c3.08,6.41,6.25,13,9.24,19.63.75,1.65,1.63,3.32,2.49,4.94,2.26,4.26,4.58,8.65,5.13,13.82H290.6a10.4,10.4,0,0,1-.72-.76l-.52-.58a21.87,21.87,0,0,1-4.08-5.73c-4.71-10.95-9.37-22.15-13.87-33l-3.22-7.73a21.63,21.63,0,0,1-.77-2.29l-.35-1.19.72-.84c1.33-1.49,2.66-2.88,3.95-4.22a56.38,56.38,0,0,0,6.92-8.16,21.11,21.11,0,0,0,2.84-16.9,22,22,0,0,0-11.31-13.81,33.29,33.29,0,0,0-15.59-3.89Q240.77,383.49,226.92,383.52ZM225,381.41v0Zm26.17,44.2a28.26,28.26,0,0,1-3.23-.2l-1.74-.2V394.89l1.66-.26c5.24-.81,11.83-1,16.44,5.07,3.9,5.11,4,13.07.23,18.92C261.49,423.34,257.2,425.61,251.17,425.61Zm-1-4c5.21.24,8.65-1.38,11.08-5.15,2.85-4.44,2.83-10.62-.05-14.4s-6.46-4.3-11-3.79Z"/><path class="cls-1" d="M468.11,435.45c0,13.75,0,27.49.07,41.24a6.86,6.86,0,0,0,1.38,3.46,58,58,0,0,0,3.71,4.52H443.45l5-6.23V462c0-22.79-.09-45.57.08-68.35,0-4-.61-7.4-3.74-10.08a12.18,12.18,0,0,1-1.45-2.06c10.23,0,19.84-.09,29.44,0a55,55,0,0,1,10.73,1A27.74,27.74,0,0,1,499,391.48c6.77,7.77,7.6,18.64,1.91,27.81a39.94,39.94,0,0,1-5.19,6.49c-1.8,1.86-3.95,3.4-6.3,5.38,1.69,4.1,3.38,8.3,5.13,12.47,4.16,9.95,8.46,19.85,12.49,29.85a17.22,17.22,0,0,0,6,8.08c1,.74,1.92,1.69,3.78,3.35H490.47c.1-7.67-4.27-13.29-7.08-19.46-4.58-10.1-9.53-20-14.33-30Zm.62-12.26c7.14,1.07,12.07-.88,15-6.11,3-5.42,3.16-11-.44-16.22-2.89-4.22-8.14-5.53-14.52-3.91Z"/><path class="cls-2" d="M522,486.88H488.48l0-2c.07-5.25-2.17-9.47-4.54-13.94-.8-1.52-1.63-3.09-2.36-4.69-3.22-7.08-6.68-14.21-10-21.11l-1.5-3.08V444c0,10.72,0,21.79.06,32.69a5.07,5.07,0,0,0,1.06,2.38,27.44,27.44,0,0,0,2.2,2.73c.43.5.89,1,1.38,1.62l2.7,3.23H439.35l7.11-8.89V462q0-8.68,0-17.38c0-16.71,0-34,.09-51,0-3.55-.48-6.37-3.05-8.56a6,6,0,0,1-1.19-1.51c-.16-.26-.35-.57-.6-.93l-2.12-3.09H452c7.17,0,13.93,0,20.79.06a57.72,57.72,0,0,1,11.11,1.07,29.67,29.67,0,0,1,16.57,9.5c7.38,8.47,8.2,20.3,2.1,30.13a40.8,40.8,0,0,1-5.46,6.82,44,44,0,0,1-4.31,3.78l-1,.83,1,2.51c1.16,2.85,2.34,5.74,3.54,8.61,1.34,3.2,2.7,6.39,4.05,9.58,2.81,6.64,5.72,13.49,8.46,20.3a15.15,15.15,0,0,0,5.34,7.21,22.17,22.17,0,0,1,2.31,2c.46.42,1,.92,1.64,1.5Zm-29.62-3.94H511.6a19.2,19.2,0,0,1-6.41-8.72c-2.72-6.77-5.62-13.61-8.43-20.23-1.35-3.2-2.71-6.4-4.05-9.6-1.21-2.88-2.39-5.78-3.56-8.64L487,430.58l1.09-.93c.76-.64,1.49-1.23,2.2-1.8a42.55,42.55,0,0,0,3.95-3.44,37.57,37.57,0,0,0,4.94-6.16c5.17-8.34,4.5-18.34-1.72-25.48a25.91,25.91,0,0,0-14.43-8.23,53.11,53.11,0,0,0-10.33-1c-6.83-.1-13.58-.08-20.73-.07l-4.56,0c2.68,3.13,3.05,6.86,3,10.18-.13,17-.11,34.25-.09,51q0,8.69,0,17.38v17.1l-2.86,3.57H469c-.38-.47-.74-.95-1.08-1.46a8.76,8.76,0,0,1-1.71-4.54c-.08-10.9-.07-22-.07-32.71V433.53l4.14-.12.55,1.16c1.42,3,2.86,5.91,4.29,8.86,3.36,6.92,6.83,14.07,10.07,21.2.68,1.5,1.44,2.94,2.25,4.47C489.67,473.3,492,477.62,492.37,482.94Zm-20.12-57.5a25.65,25.65,0,0,1-3.81-.3l-1.68-.25V395.42l1.48-.38c7.26-1.84,13.32-.13,16.63,4.7,3.86,5.63,4,11.95.54,18.29C482.69,423,478.27,425.44,472.25,425.44Zm-1.55-4c5.43.44,9-1.27,11.26-5.31,2.78-5,2.66-9.78-.33-14.16-2.75-4-7.56-4-10.93-3.43Z"/><path class="cls-1" d="M220.34,484.81c-16.08,0-31.16.06-46.25-.05a27.15,27.15,0,0,1-7.23-1.25c-4-1.15-4.92-2.54-4.94-6.73,0-9.68,0-19.36,0-29,0-17.23-.07-34.45.05-51.68,0-5.18.28-10.24-4.88-13.93,5-.74,9.77-.55,14.52-.58s9.5,0,14.84,0a13.81,13.81,0,0,1-1.81,2.92c-2.51,2.27-3.13,5-3.11,8.33.14,24.28.07,48.56.07,72.84v5.18h12.82V465.5c0-23.95-.1-47.91.09-71.86,0-4.1-.77-7.35-4.07-9.84a13.63,13.63,0,0,1-1.57-1.91h29.08c0,.24.08.7-.09.83-4.24,3.42-4.83,7.89-4.79,13.1q.34,38.39,0,76.78c0,4.35.89,7.62,4.68,9.88A23.9,23.9,0,0,1,220.34,484.81Z"/><path class="cls-2" d="M197,486.8c-7.74,0-15.3,0-22.91-.08a29.5,29.5,0,0,1-7.77-1.32c-4.79-1.38-6.34-3.48-6.35-8.61,0-6.92,0-13.84,0-20.75v-8.3q0-7.17,0-14.34c0-12.24,0-24.9.06-37.35v-.58c0-4.91.07-8.78-4.06-11.74l-4-2.83,4.82-.72a79.91,79.91,0,0,1,12-.6h2.76c3.28,0,6.55,0,10,0h8.33l-.21.35h30.35L219.9,382a2.5,2.5,0,0,1-.81,2.22C215.63,387,215,390.59,215,395.8c.22,24.22.22,49.34,0,76.82,0,4.32,1,6.53,3.72,8.17a9.21,9.21,0,0,1,1.7,1.42c.32.31.7.69,1.21,1.15l3.75,3.42H197ZM161.41,383.67c2.59,3.66,2.56,7.94,2.52,11.84v.56c-.09,12.44-.07,25.09-.06,37.32q0,7.19,0,14.35V456c0,6.91,0,13.82,0,20.73,0,3.37.44,4,3.51,4.85a26.18,26.18,0,0,0,6.71,1.17c11.29.08,22.47.07,34.3.06h6.49c-3.35-2.92-3.83-6.78-3.8-10.27.21-27.45.21-52.55,0-76.74,0-3.92.21-8.27,2.95-12H193.4c2.71,3,3.09,6.6,3.07,9.81-.14,17.89-.13,36.09-.11,53.69q0,9.07,0,18.15v7.28H179.63V448.09c0-18.12,0-36.86-.08-55.29,0-3,.37-6.38,3.23-9.29H181.6c-3.46,0-6.73,0-10,0h-2.8C166.39,383.51,163.91,383.51,161.41,383.67Zm22.15,85.17h8.88V465.5q0-9.08,0-18.14c0-17.61,0-35.82.11-53.73,0-4.13-.89-6.45-3.29-8.26A6.62,6.62,0,0,1,188,384l-.35-.47-.08.16a7.73,7.73,0,0,1-1.58,2.28c-1.79,1.62-2.48,3.54-2.46,6.86.1,18.44.09,37.18.08,55.31q0,8.78,0,17.54Z"/><path class="cls-1" d="M304.68,395.91c-6-1.06-11.25-.91-15.8,4.87-.82-4.08-.44-7-.51-9.78s0-5.86,0-9.12h51v17.5c-9.27-4.21-9.27-4.21-15.17-3.56-1.12,3.94-1.55,55.95-.66,82.78l5.48,6H299.52c.12-.4.1-.83.3-1,4.56-3.44,5-8.16,4.95-13.47-.21-23-.09-45.92-.09-68.87Z"/><path class="cls-2" d="M333.53,486.53H296.91l.72-2.51a1.77,1.77,0,0,0,0-.2,2.63,2.63,0,0,1,1-1.81c3.56-2.69,4.21-6.25,4.16-11.88-.15-16.83-.13-33.94-.11-50.49q0-9.21,0-18.4v-3.65c-5.08-.68-8.83,0-12.28,4.41l-2.63,3.34-.85-4.17a33.8,33.8,0,0,1-.56-7.92c0-.75,0-1.48,0-2.2-.05-2,0-4.07,0-6.21,0-1,0-1.94,0-3v-2h55v22.52l-2.78-1.26c-7.88-3.57-8.69-3.94-12.65-3.55-.85,8.67-1.26,53.82-.43,80.18Zm-29.89-3.94h20.92l-2.94-3.2,0-.73c-.84-25.57-.55-78.86.74-83.38l.36-1.28,1.32-.14c5.73-.62,6.65-.56,13.41,2.47V383.85H290.32v1c0,2.12,0,4.11,0,6.1,0,.77,0,1.56,0,2.36,0,1,0,2.07,0,3.19,4.6-3.61,9.73-3.41,14.68-2.54l1.63.28v7q0,9.19,0,18.4c0,16.54,0,33.64.11,50.45C306.78,474.43,306.53,478.9,303.64,482.59Z"/><path class="cls-1" d="M411.63,484.56c0-.13-.1-.38,0-.44,4.4-3.87,4.43-8.94,4.4-14.3-.16-24.28-.12-48.56,0-72.84,0-5.44.57-10.9-5.85-15.1h29.79c0,.26.09.52,0,.57-5.29,3.66-5.38,9-5.33,14.76q.31,37.41,0,74.81c0,4.38.46,8.08,4.35,10.66a11.1,11.1,0,0,1,1.61,1.88Z"/><path class="cls-2" d="M444.8,486.53h-35l-.14-1.74a2.16,2.16,0,0,1,.64-2.16c3.79-3.32,3.76-7.71,3.73-12.79-.17-26-.11-51.42,0-72.86V395.8c.05-5,.09-9-5-12.28l-5.52-3.61h38.24l.13,1.95a2.09,2.09,0,0,1-.85,2.21c-4.25,2.95-4.52,6.92-4.47,13.13.19,23.19.19,47.68,0,74.84,0,4.32.52,7,3.47,9a5.83,5.83,0,0,1,1.4,1.45c.17.23.37.5.63.8Zm-31.88-.95v0Zm2.58-3h20.29c-2.91-3.08-3.17-7-3.14-10.58.19-27.14.19-51.6,0-74.78,0-4.45-.08-9.37,3-13.38H415.18c2.86,3.79,2.82,8.09,2.78,12V397c-.08,21.43-.14,46.85,0,72.82C418,474,418,478.6,415.5,482.59Zm23.32-101.76,0,0Z"/><path class="cls-2" d="M149.69,369.51v4.61q-6.41,0-8.26,4.14-1.68,3.51-1.67,15v69.12q0,29.94,14.25,29.94v4.62a85.65,85.65,0,0,1-9.73-.8,85.83,85.83,0,0,0-9.73-.8,95.13,95.13,0,0,0-10.37.8,94.67,94.67,0,0,1-10,.8V492.3q8.3,0,10.73-4.54t2.44-19.16V381.1L97.68,397v73.81q0,12,2,16.26,2.35,5.25,9.44,5.26v4.62a59.48,59.48,0,0,1-7.89-.8,60.17,60.17,0,0,0-8.28-.8,82,82,0,0,0-9.32.8,82.71,82.71,0,0,1-9.71.8V492.3q5.91,0,8.26-2.23,3.15-3,3.15-12.26V396.45L57,381v87.62q0,14.18,2.44,18.95t10.73,4.78v4.62a95.77,95.77,0,0,1-10-.8,96.37,96.37,0,0,0-10.32-.8,89.22,89.22,0,0,0-9.59.8,89.37,89.37,0,0,1-9.87.8V492.3q14.25,0,14.25-29.94V393.24q0-10.68-1.67-14.5-2-4.62-8.36-4.62v-4.61q9.74.92,13.37.92a8.63,8.63,0,0,0,1.87-.13c3.15,0,5.34-.26,6.59-.79L92,389.41l35-19.9c1.24.53,3.77.79,7.57.79a8.58,8.58,0,0,0,1.86.13q3.61,0,13.28-.92m-23-5.34-2,1.19L92,383.93,58.73,365.34l-2-1.15-2.16.92s-1.06.42-4.71.42h-.6l-.41.1c-.12,0-.38,0-.86,0-2.27,0-6.62-.31-12.91-.91l-5.23-.5V378.9h4.77c3.24,0,3.71,1.11,4,1.71.4.92,1.29,3.89,1.29,12.63v69.12c0,11.48-1.65,25.16-9.48,25.16H25.57v14.17h4.78a91.84,91.84,0,0,0,10.45-.83,84.55,84.55,0,0,1,9-.76,92,92,0,0,1,9.77.76c4.09.48,7.22.75,9.54.82h5.81c2.4-.07,5.45-.34,9.28-.82a76.79,76.79,0,0,1,8.71-.76,56.89,56.89,0,0,1,7.58.74,62.4,62.4,0,0,0,8.59.85h5.11a96.54,96.54,0,0,0,10.54-.83,90.62,90.62,0,0,1,9.81-.76,80.87,80.87,0,0,1,9.14.76,88.24,88.24,0,0,0,10.32.83h4.77V487.52H154c-7.83,0-9.48-13.68-9.48-25.16V393.24c0-9.64.92-12.33,1.21-12.92.44-1,1.75-1.42,3.95-1.42h4.77V364.25l-5.23.5c-6.25.6-10.56.91-12.82.91-.48,0-.74,0-.85,0l-.42-.1h-.59c-4.42,0-5.61-.38-5.73-.43l-2.18-.93ZM70.16,487.52c-2.45,0-5.57-.37-6.48-2.17-.72-1.4-1.92-5.44-1.92-16.78V389l18.76,10.27v78.53c0,7-1.51,8.65-1.68,8.82,0,0-1,.89-5,.89Zm32.3-87.69,20.14-10.77V468.6c0,12.12-1.31,15.86-1.87,16.9-1,1.76-4.5,2-6.53,2h-5.11c-4,0-4.7-1.59-5.08-2.44-.59-1.28-1.55-4.8-1.55-14.3V399.83Z"/><path class="cls-1" d="M395.73,355c-10.38,0-26-1.19-46.33-3.55-4.81-.58-8.7-3.16-11.59-7.68-2.2-3.44-3.85-8.1-4.89-13.85-.17-1-.33-1.95-.47-3a115.18,115.18,0,0,1-1-15.72V245.93l-37.15,21.38v46.23c0,12.22,1.31,20.31,3.9,24a13.68,13.68,0,0,0,5.94,4.43c3.88,1.65,9.19,2.48,15.77,2.48h1.54V355H320a148.71,148.71,0,0,1-19.1-1.78,146.72,146.72,0,0,0-18.67-1.75,204.74,204.74,0,0,0-22.41,1.75A202.86,202.86,0,0,1,237.25,355h-1.54V344.5h1.54c8.72,0,14.75-1,17.95-3.06,4.26-2.71,6.43-8.47,6.43-17.13V267l-35.92-21.21v65.33c0,16.09-2.3,27.09-7,33.63a15.39,15.39,0,0,1-10.86,6.65c-20.54,2.36-36.13,3.55-46.35,3.55h-1.54V344.5h1.54c22.06,0,32.78-13.69,32.78-41.86V261.48a73.57,73.57,0,0,0-1-12.94,18,18,0,0,0-2.68-7.31,12.17,12.17,0,0,0-5.26-3.76l-.3-.12-.23-.24a32.61,32.61,0,0,1-5.84-8.65,56.65,56.65,0,0,1-4.09-12.3c-.29,2-.49,3.49-.52,4.06l.18.54-.46.67L173,223l-1.27-1.45c-.52-.58-5.74-15.55-3.46-37.69,2.19-21.28,17.66-56.14,19.75-60.79-.59-3.14-3.6-19.34-3.74-24a9.45,9.45,0,0,0-2-5.33,6.51,6.51,0,0,1-1.48-3.93c.2-3.25,7.08-7.3,9.07-7.3a1.74,1.74,0,0,1,1.55.85c.35.6,1.43,2.87,2,4.09l4.78.78-1.52,3.5c1.18,1.13,2.42,2.27,3.29,3a15,15,0,0,0,1.08-4.29,38.43,38.43,0,0,0-.51-4.89l-3.43-.41,2.38-5.1a24.49,24.49,0,0,1,.76-4.61c.62-2.06,4-4.33,5.81-5.45a15,15,0,0,1,2.23-3.47,5.17,5.17,0,0,1,3.86-2.26c.91,0,3.12.42,3.88,4.28.6,3.07,2.39,9.19,3.83,14.11l.73,2.5c1.39,4.8,4,8.3,11.78,15.61,5.87,5.55,7.21,14.12,7.93,18.72a17.69,17.69,0,0,0,.49,2.58c10.73,14.1,11.24,28,11.23,30.7a1.74,1.74,0,0,1-1.88,1.74c-1.59,0-6.93-1.61-10.1-2.62a51.72,51.72,0,0,0,1.18,7.63l.06-.13,1.07,3.95c0,.08,2.4,8.53,8.62,8.53a9.58,9.58,0,0,0,3.44-.71,37.41,37.41,0,0,1,13.47-2.05,73.11,73.11,0,0,1,10.6.78l5.45.9-4.45,1.85c3.33.5,8,1.34,13.9,2.71a43.86,43.86,0,0,0,9.94,1.06,60.53,60.53,0,0,0,15.16-2l4.67-1.36-4.82,6.13c6.66.26,22.35,1.43,33.41,6.68,12.62,6,19.56,13.29,19.13,15.28l-.26,1.23-1.27,0a42.38,42.38,0,0,1-4.66-1.2,53.08,53.08,0,0,1,12.75,26.23c.22,1.41.39,2.8.49,4.14l.4,5.46-4.59-6.36a39,39,0,0,0,.9,4,16.38,16.38,0,0,0,2.91,6.23,40.75,40.75,0,0,0,8.26,7.34l4.74,2.92h-5.12c3.46,1.72,8.24,3.56,12.8,3.56a14.59,14.59,0,0,0,2.61-.22L414,252.25l-12.23,5.36c-1.78.78-3.78,1.72-5.19,2.46a16.66,16.66,0,0,0,6.66,1.3c9.15,0,20.87-6.48,27.85-15.4l2.74-3.51V247a47,47,0,0,1-4.53,18.66c-4.19,8.59-13.14,18.83-32,18.83a66.42,66.42,0,0,1-12.94-1.39l3,3.91-4-.73c-.55-.1-12.27-2.34-20.34-9.87v26.28c0,28.17,10.72,41.86,32.77,41.86h1.54V355Z"/><path class="cls-2" d="M399.24,356.94h-3.51c-10.46,0-26.12-1.2-46.56-3.56-5.42-.66-9.8-3.54-13-8.58-2.35-3.66-4.09-8.56-5.18-14.56-.17-1-.34-2-.48-3.05a117.5,117.5,0,0,1-1-16V249.33L296.3,268.45v45.09c0,14.72,1.94,20.59,3.56,22.93a11.77,11.77,0,0,0,5.09,3.74c3.64,1.54,8.68,2.32,15,2.32h3.51v14.41H320a149.13,149.13,0,0,1-19.38-1.8,144.34,144.34,0,0,0-18.39-1.73A201.06,201.06,0,0,0,260,355.15a206.17,206.17,0,0,1-22.75,1.79h-3.51V342.53h3.51c10.38,0,14.92-1.5,16.89-2.75,3.66-2.33,5.52-7.53,5.52-15.47V268.15l-32-18.89v61.88c0,16.51-2.43,27.89-7.41,34.78a17.24,17.24,0,0,1-12.22,7.45c-20.63,2.37-36.3,3.57-46.59,3.57H158V342.53h3.51c21,0,30.81-12.67,30.81-39.88V261.48a70.47,70.47,0,0,0-.93-12.58c-.69-3.72-1.64-5.59-2.32-6.49a10.28,10.28,0,0,0-4.43-3.12l-.68-.28-.51-.53a34.38,34.38,0,0,1-6.2-9.17,49.87,49.87,0,0,1-2.29-5.64l-1.78,2.52-2.92-3.32c-1.06-1.21-6.26-16.68-3.94-39.19,2.15-20.9,17-54.8,19.66-60.83-1-5.14-3.52-19.24-3.65-23.71a7.57,7.57,0,0,0-1.65-4.3,8.28,8.28,0,0,1-1.8-5.13c.28-4.6,8.27-9.15,11-9.15a3.73,3.73,0,0,1,3.25,1.82c.29.51,1,1.91,1.62,3.26l2.83-6a24.76,24.76,0,0,1,.81-4.67c.58-2,2.65-4.05,6.15-6.25a20,20,0,0,1,2.24-3.33c2-2.48,4-3,5.39-3,1.09,0,4.74.43,5.81,5.87.58,3,2.35,9,3.78,13.89l.74,2.55c1.28,4.4,3.8,7.7,11.24,14.73,6.37,6,7.77,15,8.52,19.85.09.56.24,1.52.34,2,10.9,14.5,11.42,28.85,11.41,31.59a3.7,3.7,0,0,1-3.85,3.71c-.46,0-1.76,0-7.82-1.82.12.86.27,1.78.45,2.74l1.48,5.42c0,.06,2.05,7.09,6.72,7.08a7.44,7.44,0,0,0,2.72-.58,39.37,39.37,0,0,1,14.19-2.18,74.26,74.26,0,0,1,10.93.81l12.23,2-4.56,1.9c2.36.46,4.82,1,7.35,1.57a41.59,41.59,0,0,0,9.49,1,58.23,58.23,0,0,0,14.6-1.9l10.58-3.09-6.28,8c7.74.53,20.74,2.1,30.37,6.67,11.79,5.59,21,13.59,20.21,17.46l-.6,2.77-2.47,0a54,54,0,0,1,9.64,22.75c.24,1.46.41,2.91.51,4.31l.74,10a37.28,37.28,0,0,0,6.22,5.22l9.94,6.12a14.12,14.12,0,0,0,3.7-.13L426.68,248a38.52,38.52,0,0,0,2.81-3.2l6.26-8V247A49.14,49.14,0,0,1,431,266.47c-4.44,9.09-13.89,19.93-33.79,19.93a62.67,62.67,0,0,1-8.33-.58l3.08,4-9-1.67a49,49,0,0,1-18-7.65v22.14c0,27.21,9.79,39.88,30.8,39.88h3.51ZM333.46,242.52V311.2a112.86,112.86,0,0,0,.94,15.45c.14,1,.29,2,.46,2.88a36.76,36.76,0,0,0,4.61,13.15c2.56,4,6,6.28,10.17,6.79,20,2.31,35.36,3.5,45.66,3.53v-6.53c-22.77-.19-34.31-14.93-34.31-43.82V271.83l3.31,3.09c6.35,5.93,15.21,8.42,18.28,9.14l-3.05-4,5.14,1a64.85,64.85,0,0,0,12.56,1.35c17.86,0,26.31-9.64,30.25-17.72a45.41,45.41,0,0,0,4.29-16.56c-7.4,8.84-19.22,15.15-28.58,15.15a18.41,18.41,0,0,1-7.45-1.47L392,260.22l3.64-1.9c.86-.45,2-1,3.12-1.52h-.51c-5,0-10.21-2.05-13.67-3.76L377,249.3h6.68a44.13,44.13,0,0,1-7.65-7,18.36,18.36,0,0,1-3.32-7,41.79,41.79,0,0,1-.94-4.23l-1.48-8.42,5.51,7.61c-.09-.81-.2-1.63-.34-2.45a51.21,51.21,0,0,0-12.27-25.24l-4.54-5.11,6.56,1.91c1.62.47,2.63.74,3.26.9-1.61-2.36-7.4-7.72-17.59-12.56-10.82-5.13-26.44-6.25-32.65-6.49l-3.86-.15,3.45-4.38a63.88,63.88,0,0,1-14.52,1.73A45.89,45.89,0,0,1,293,177.32c-4.93-1.15-9.56-2-13.76-2.68l-7-1.06,4.55-1.89a72.2,72.2,0,0,0-8.87-.56A35.53,35.53,0,0,0,255.14,173a11.33,11.33,0,0,1-4.16.85c-6.24,0-9.2-6.29-10.16-8.89l-.21.45-1.3-5.43a54.11,54.11,0,0,1-1.23-7.92l-.24-2.92,2.8.88c5.66,1.8,8.57,2.48,9.42,2.53,0-3-.75-16-10.83-29.27l-.14-.18-.09-.21a14.58,14.58,0,0,1-.64-3.08c-.68-4.37-1.94-12.51-7.33-17.6C223,94.65,220.22,91,218.71,85.76L218,83.27c-1.46-5-3.26-11.15-3.88-14.29-.19-1-.71-2.69-1.94-2.69a3.36,3.36,0,0,0-2.32,1.53,13,13,0,0,0-2,3l-.25.6-.55.33c-3.07,1.87-4.7,3.53-4.94,4.34a22.36,22.36,0,0,0-.69,4.18l0,.37-1.39,3,2.22.27.23,1.47a40.61,40.61,0,0,1,.53,5.19,16.89,16.89,0,0,1-1.22,5l-1,2.63-2.12-1.87c-.86-.76-2.08-1.89-3.34-3.1l-1-1,1.06-2.43-3.31-.54-.44-.94c-1-2.17-1.62-3.36-1.86-3.8-1.74.23-6.92,3.73-7,5.44a5,5,0,0,0,1.17,2.73A11.33,11.33,0,0,1,186.21,99c.13,4.49,3.11,20.53,3.71,23.7l.11.61-.25.56c-1.78,3.94-17.42,39.1-19.59,60.18-1.71,16.59.93,29.25,2.4,34.25.08-.6.18-1.39.34-2.45l1.54-10.79,2.33,10.65a54.91,54.91,0,0,0,3.95,11.87,30.76,30.76,0,0,0,5.42,8.07,14.07,14.07,0,0,1,6,4.37,19.58,19.58,0,0,1,3,8.13,74.67,74.67,0,0,1,1,13.3v41.17c0,28.89-11.55,43.63-34.32,43.82V353c10.15,0,25.52-1.22,45.7-3.54a13.46,13.46,0,0,0,9.49-5.85c4.48-6.19,6.66-16.81,6.66-32.47V242.36L263.6,265.9v58.41c0,9.37-2.48,15.7-7.35,18.79-3.5,2.23-9.58,3.33-18.57,3.37V353a207.44,207.44,0,0,0,21.85-1.76,204.6,204.6,0,0,1,22.65-1.77,147.24,147.24,0,0,1,18.95,1.77A150.08,150.08,0,0,0,319.52,353v-6.53c-6.65,0-12.06-.92-16.1-2.63a15.69,15.69,0,0,1-6.78-5.1c-2.88-4.16-4.27-12.39-4.27-25.2V266.17Zm69.1,16.87c7,.25,15.76-3.74,22.46-9.85Z"/></svg>