<?xml version="1.0" encoding="utf-8"?>
<!-- Generator: Adobe Illustrator 22.1.0, SVG Export Plug-In . SVG Version: 6.00 Build 0)  -->
<svg version="1.1" id="Capa_1" xmlns="http://www.w3.org/2000/svg" xmlns:xlink="http://www.w3.org/1999/xlink" x="0px" y="0px"
	 viewBox="0 0 608 254" style="enable-background:new 0 0 608 254;" xml:space="preserve">
<style type="text/css">
	.st0{fill:#33AFC3;}
	.st1{fill:#FFFFFF;}
	.st2{fill:#624698;}
</style>
<path class="st0" d="M62,101.5v148h91.8l79-148H62z"/>
<path class="st0" d="M273.5,101.5l-8.4,14.8l68.2,133.3h211.7v-148H273.5z"/>
<path class="st1" d="M166.7,176.3c0-17.4-5.2-30.9-15.6-40.6c-7.4-6.9-16.6-11.4-27.5-13.6c-5.8-1-11.6-1.5-17.5-1.4l-10.3-0.1H80
	v111.1h26c5.6,0.3,11.2-0.2,16.7-1.3c11.5-2.3,20.9-6.8,28.3-13.6C161.5,207.2,166.7,193.6,166.7,176.3L166.7,176.3z M106.5,220.6
	H90.9v-88.7h15.4c4.5,0.1,9,0.4,13.4,1c9.9,1.8,17.8,5.4,23.8,10.9c8,7.5,12.1,18.4,12.1,32.5c0,14-4,24.8-12.1,32.3
	C135,216.6,122.7,220.6,106.5,220.6L106.5,220.6z"/>
<path class="st2" d="M306.2,249.5h16L253,117.8l-8.5-16.2l-9.1,17v0.1l-68.8,130.9h15.6l47.6-89.3l47.2,89.3h16l-54.9-104.7
	l6.4-12.1L306.2,249.5z"/>
<path class="st1" d="M424.7,142.2c-3.2-6.3-8.2-11.6-14.5-15c-0.8-0.5-1.7-0.9-2.5-1.4s-1.8-0.8-2.7-1.2c-4.2-1.8-8.7-3.1-13.2-3.7
	c-1.8-0.2-3.5-0.3-5.3-0.3h-35.9v111.2h10.9V131.5h25c4.2,0,8.3,0.7,12.2,2.2c1.4,0.5,2.7,1.1,4,1.7c3.5,1.7,6.6,4.1,9.1,7.1
	c3.9,4.8,5.8,11.1,5.8,18.7s-2,13.9-5.9,18.7c-2.5,3-5.6,5.4-9.1,7.1c-5,2.5-10.5,3.9-16.1,3.9h-19.2l10.5,10.4l31.2,30.4h16
	l-31.4-30.6c1.7-0.2,3.4-0.5,5.1-1c3.5-0.9,6.8-2.3,10-4c1.7-0.9,3.3-1.9,4.9-3c1.9-1.3,3.6-2.8,5.2-4.4c1-1.1,2-2.2,2.9-3.4
	c0.9-1.2,1.7-2.4,2.4-3.7c0.7-1.3,1.4-2.6,1.9-4c2-5.3,3-10.9,2.9-16.6C428.9,154.7,427.5,148.1,424.7,142.2z"/>
<path class="st1" d="M447.6,120.8v10.9h36.6v100.3l10.9-0.1V131.7h36.8v-10.9H447.6z"/>
<path class="st2" d="M317.2,3.4l-17.3,1.7l-48,89l8.9,13.3L317.2,3.4z"/>
</svg>
